<svg xmlns="http://www.w3.org/2000/svg" xmlns:xlink="http://www.w3.org/1999/xlink" width="505" height="840" viewBox="0 0 505 840">
  <defs>
    <linearGradient id="linear-gradient" x1="0.5" x2="0.5" y2="1" gradientUnits="objectBoundingBox">
      <stop offset="0" stop-color="#e6ebfb"/>
      <stop offset="1" stop-color="#c1cdf5"/>
    </linearGradient>
    <linearGradient id="linear-gradient-6" x1="0.5" x2="0.5" y2="1" gradientUnits="objectBoundingBox">
      <stop offset="0" stop-color="#fcddd5"/>
      <stop offset="1" stop-color="#f6f6f6"/>
    </linearGradient>
  </defs>
  <g id="Grupo_1083689" data-name="Grupo 1083689" transform="translate(9554 -2916)">
    <g id="Grupo_1083687" data-name="Grupo 1083687" transform="translate(732 502)">
      <path id="Trazado_838754" data-name="Trazado 838754" d="M0,0H505V840H0Z" transform="translate(-10286 2414)" fill="#fff"/>
      <path id="Trazado_838258" data-name="Trazado 838258" d="M1063.294,144H1260.6c6.79,0,12.293,5.993,12.293,13.385v29.448c0,7.393-5.5,13.385-12.293,13.385h-197.31c-6.79,0-12.294-5.993-12.294-13.385V157.385c0-7.393,5.5-13.385,12.294-13.385" transform="translate(-11080.803 2437.463)" fill="#eaf2e1"/>
      <path id="Trazado_838272" data-name="Trazado 838272" d="M1063.294,144H1260.6c6.79,0,12.293,5.993,12.293,13.385v29.448c0,7.393-5.5,13.385-12.293,13.385h-197.31c-6.79,0-12.294-5.993-12.294-13.385V157.385c0-7.393,5.5-13.385,12.294-13.385" transform="translate(-11081 2933.527)" fill="#eaf2e1"/>
      <path id="Trazado_838259" data-name="Trazado 838259" d="M85.293,144H282.6c6.79,0,12.293,5.993,12.293,13.385v29.448c0,7.393-5.5,13.385-12.293,13.385H85.293C78.5,200.218,73,194.226,73,186.833V157.385C73,149.993,78.5,144,85.293,144" transform="translate(-10333 2296.774)" fill="url(#linear-gradient)"/>
      <path id="Trazado_838273" data-name="Trazado 838273" d="M85.293,144H282.6c6.79,0,12.293,7.7,12.293,17.2v37.841c0,9.5-5.5,17.2-12.293,17.2H85.293c-6.79,0-12.293-7.7-12.293-17.2V161.2c0-9.5,5.5-17.2,12.293-17.2" transform="translate(-10333 3002.543)" fill="url(#linear-gradient)"/>
      <path id="Trazado_838267" data-name="Trazado 838267" d="M85.293,144H282.6c6.79,0,12.293,5.993,12.293,13.385v29.448c0,7.393-5.5,13.385-12.293,13.385H85.293C78.5,200.218,73,194.226,73,186.833V157.385C73,149.993,78.5,144,85.293,144" transform="translate(-10333 2789.854)" fill="url(#linear-gradient)"/>
      <path id="Trazado_838266" data-name="Trazado 838266" d="M85.293,144H282.6c6.79,0,12.293,5.993,12.293,13.385v29.448c0,7.393-5.5,13.385-12.293,13.385H85.293C78.5,200.218,73,194.226,73,186.833V157.385C73,149.993,78.5,144,85.293,144" transform="translate(-10103 2367.463)" fill="url(#linear-gradient)"/>
      <path id="Trazado_838269" data-name="Trazado 838269" d="M85.293,144H282.6c6.79,0,12.293,5.993,12.293,13.385v29.448c0,7.393-5.5,13.385-12.293,13.385H85.293C78.5,200.218,73,194.226,73,186.833V157.385C73,149.993,78.5,144,85.293,144" transform="translate(-10103 2861.636)" fill="url(#linear-gradient)"/>
      <path id="Trazado_838262" data-name="Trazado 838262" d="M16.747,264h188.4c9.249,0,16.747,5.993,16.747,13.385v29.448c0,7.393-7.5,13.385-16.747,13.385H16.747C7.5,320.218,0,314.226,0,306.833V277.385C0,269.993,7.5,264,16.747,264" transform="translate(-10260.096 2247.463)" fill="#eaf2e1"/>
      <path id="Trazado_838270" data-name="Trazado 838270" d="M16.747,264h188.4c9.249,0,16.747,5.993,16.747,13.385v29.448c0,7.393-7.5,13.385-16.747,13.385H16.747C7.5,320.218,0,314.226,0,306.833V277.385C0,269.993,7.5,264,16.747,264" transform="translate(-10260 2741.854)" fill="#eaf2e1"/>
      <path id="Trazado_838261" data-name="Trazado 838261" d="M16.747,0h188.4C214.4,0,221.9,5.993,221.9,13.385V42.833c0,7.393-7.5,13.385-16.747,13.385H16.747C7.5,56.218,0,50.226,0,42.833V13.385C0,5.993,7.5,0,16.747,0" transform="translate(-10038.198 2637.681) rotate(180)" fill="url(#linear-gradient-6)"/>
      <path id="Trazado_838271" data-name="Trazado 838271" d="M16.747,0h188.4C214.4,0,221.9,5.993,221.9,13.385V42.833c0,7.393-7.5,13.385-16.747,13.385H16.747C7.5,56.218,0,50.226,0,42.833V13.385C0,5.993,7.5,0,16.747,0" transform="translate(-10038.198 3132.762) rotate(180)" fill="url(#linear-gradient-6)"/>
      <path id="Trazado_838265" data-name="Trazado 838265" d="M16.747,0h188.4C214.4,0,221.9,5.993,221.9,13.385V42.833c0,7.393-7.5,13.385-16.747,13.385H16.747C7.5,56.218,0,50.226,0,42.833V13.385C0,5.993,7.5,0,16.747,0" transform="translate(-9807.905 2496.992) rotate(180)" fill="url(#linear-gradient-6)"/>
      <path id="Trazado_838268" data-name="Trazado 838268" d="M16.747,0h188.4C214.4,0,221.9,5.993,221.9,13.385V42.833c0,7.393-7.5,13.385-16.747,13.385H16.747C7.5,56.218,0,50.226,0,42.833V13.385C0,5.993,7.5,0,16.747,0" transform="translate(-9808.103 2989.963) rotate(180)" fill="url(#linear-gradient-6)"/>
      <g id="Grupo_1083686" data-name="Grupo 1083686" transform="translate(2003.695 556.294)">
        <path id="Trazado_838254" data-name="Trazado 838254" d="M785.956,421.1A90.853,90.853,0,1,1,695.1,330.25,90.852,90.852,0,0,1,785.956,421.1" transform="translate(-12731.846 1803.184)" fill="#c5dfb0"/>
        <text id="Objetos_de_" data-name="Objetos de " transform="translate(-12084.854 2210.642)" font-size="20" font-family="Roboto-Bold, Roboto" font-weight="700"><tspan x="0" y="0">Obje</tspan><tspan y="0" letter-spacing="-0.014em">t</tspan><tspan y="0">os de </tspan></text>
        <text id="IVCS_en_salud_" data-name="IVCS  en salud " transform="translate(-12100.778 2236.145)" font-size="20" font-family="Roboto-Bold, Roboto" font-weight="700"><tspan x="0" y="0" xml:space="preserve">IVCS  en salud </tspan></text>
        <text id="ambiental_" data-name="ambiental " transform="translate(-12081.101 2259.647)" font-size="20" font-family="Roboto-Bold, Roboto" font-weight="700"><tspan x="0" y="0">ambiental </tspan></text>
        <circle id="Elipse_8337" data-name="Elipse 8337" cx="102.063" cy="102.063" r="102.063" transform="translate(-12138.807 2122.224)" fill="none" stroke="#3f5c26" stroke-miterlimit="10" stroke-width="3.37" stroke-dasharray="11.978 11.978"/>
        <path id="Trazado_837983" data-name="Trazado 837983" d="M842.524,311.747a6.023,6.023,0,1,1,0-8.518,6.023,6.023,0,0,1,0,8.518" transform="translate(-12807.251 1812.704)" fill="#c5dfb0"/>
        <path id="Trazado_837984" data-name="Trazado 837984" d="M863.03,332.961a6.023,6.023,0,1,1,0-8.518,6.023,6.023,0,0,1,0,8.518" transform="translate(-12814.032 1805.688)" fill="#c5dfb0"/>
        <path id="Trazado_837985" data-name="Trazado 837985" d="M883.536,354.174a6.023,6.023,0,1,1,0-8.518,6.022,6.022,0,0,1,0,8.518" transform="translate(-12820.814 1798.672)" fill="#c5dfb0"/>
        <path id="Trazado_837986" data-name="Trazado 837986" d="M904.042,375.388a6.023,6.023,0,1,1,0-8.518,6.023,6.023,0,0,1,0,8.518" transform="translate(-12827.597 1791.656)" fill="#c5dfb0"/>
        <path id="Trazado_837987" data-name="Trazado 837987" d="M631.523,311.747a6.023,6.023,0,1,0,0-8.518,6.023,6.023,0,0,0,0,8.518" transform="translate(-12740.283 1812.704)" fill="#c5dfb0"/>
        <path id="Trazado_837988" data-name="Trazado 837988" d="M611.017,332.961a6.023,6.023,0,1,0,0-8.518,6.023,6.023,0,0,0,0,8.518" transform="translate(-12733.501 1805.688)" fill="#c5dfb0"/>
        <path id="Trazado_837989" data-name="Trazado 837989" d="M590.511,354.174a6.023,6.023,0,1,0,0-8.518,6.022,6.022,0,0,0,0,8.518" transform="translate(-12726.719 1798.672)" fill="#c5dfb0"/>
        <path id="Trazado_837990" data-name="Trazado 837990" d="M570.005,375.388a6.023,6.023,0,1,0,0-8.518,6.023,6.023,0,0,0,0,8.518" transform="translate(-12719.937 1791.656)" fill="#c5dfb0"/>
        <path id="Trazado_837991" data-name="Trazado 837991" d="M684.047,634.558a6.023,6.023,0,1,1-6.023-6.023,6.023,6.023,0,0,1,6.023,6.023" transform="translate(-12754.254 1704.531)" fill="#c5dfb0"/>
        <path id="Trazado_837992" data-name="Trazado 837992" d="M713.547,635.058a6.023,6.023,0,1,1-6.023-6.023,6.023,6.023,0,0,1,6.023,6.023" transform="translate(-12764.01 1704.365)" fill="#c5dfb0"/>
        <path id="Trazado_837993" data-name="Trazado 837993" d="M743.047,635.558a6.023,6.023,0,1,1-6.023-6.024,6.023,6.023,0,0,1,6.023,6.024" transform="translate(-12773.767 1704.2)" fill="#c5dfb0"/>
        <path id="Trazado_837994" data-name="Trazado 837994" d="M772.547,636.058a6.023,6.023,0,1,1-6.023-6.023,6.023,6.023,0,0,1,6.023,6.023" transform="translate(-12783.523 1704.035)" fill="#c5dfb0"/>
        <path id="Trazado_837995" data-name="Trazado 837995" d="M802.047,636.558a6.023,6.023,0,1,1-6.023-6.023,6.023,6.023,0,0,1,6.023,6.023" transform="translate(-12793.28 1703.869)" fill="#c5dfb0"/>
      </g>
      <path id="Trazado_838755" data-name="Trazado 838755" d="M5.81-2.786,9.062-12.8H11.5L6.9,0H4.746L.158-12.8H2.593ZM15.012,0H12.876V-9.51h2.136ZM12.744-11.979a1.133,1.133,0,0,1,.312-.817,1.179,1.179,0,0,1,.892-.325,1.193,1.193,0,0,1,.9.325,1.125,1.125,0,0,1,.316.817,1.1,1.1,0,0,1-.316.8,1.2,1.2,0,0,1-.9.321,1.188,1.188,0,0,1-.892-.321A1.107,1.107,0,0,1,12.744-11.979Zm7.945,9.272L22.7-9.51h2.206L21.612,0H19.758L16.436-9.51H18.65ZM28.512,0H26.376V-9.51h2.136ZM26.244-11.979a1.133,1.133,0,0,1,.312-.817,1.179,1.179,0,0,1,.892-.325,1.193,1.193,0,0,1,.9.325,1.125,1.125,0,0,1,.316.817,1.1,1.1,0,0,1-.316.8,1.2,1.2,0,0,1-.9.321,1.188,1.188,0,0,1-.892-.321A1.107,1.107,0,0,1,26.244-11.979ZM35.024.176A4.419,4.419,0,0,1,31.733-1.1a4.639,4.639,0,0,1-1.261-3.406v-.264a5.706,5.706,0,0,1,.549-2.544,4.181,4.181,0,0,1,1.542-1.745,4.078,4.078,0,0,1,2.215-.624,3.733,3.733,0,0,1,3,1.239,5.24,5.24,0,0,1,1.059,3.507v.861H32.625a2.856,2.856,0,0,0,.787,1.863,2.362,2.362,0,0,0,1.736.686,2.892,2.892,0,0,0,2.391-1.187l1.151,1.1A3.845,3.845,0,0,1,37.165-.294,4.774,4.774,0,0,1,35.024.176ZM34.77-7.972a1.8,1.8,0,0,0-1.419.615,3.189,3.189,0,0,0-.69,1.714h4.069V-5.8a2.6,2.6,0,0,0-.571-1.622A1.785,1.785,0,0,0,34.77-7.972ZM42.478-9.51l.062,1.1a3.419,3.419,0,0,1,2.769-1.274q2.971,0,3.023,3.4V0H46.2V-6.161A1.958,1.958,0,0,0,45.8-7.5a1.645,1.645,0,0,0-1.279-.435A2.058,2.058,0,0,0,42.6-6.768V0H40.465V-9.51Zm7.629,4.685a5.654,5.654,0,0,1,1.02-3.529,3.267,3.267,0,0,1,2.733-1.332A3.1,3.1,0,0,1,56.3-8.631V-13.5h2.136V0H56.5L56.4-.984A3.148,3.148,0,0,1,53.842.176a3.248,3.248,0,0,1-2.7-1.345A5.861,5.861,0,0,1,50.106-4.825Zm2.136.185A3.958,3.958,0,0,0,52.8-2.377a1.811,1.811,0,0,0,1.586.813A2.017,2.017,0,0,0,56.3-2.733V-6.794a1.986,1.986,0,0,0-1.9-1.143,1.824,1.824,0,0,0-1.6.822A4.408,4.408,0,0,0,52.242-4.641ZM66.349,0A3.3,3.3,0,0,1,66.1-.888a3.325,3.325,0,0,1-2.5,1.063,3.355,3.355,0,0,1-2.338-.817,2.615,2.615,0,0,1-.905-2.021A2.7,2.7,0,0,1,61.493-5a5.473,5.473,0,0,1,3.23-.813h1.31v-.624a1.666,1.666,0,0,0-.413-1.182,1.638,1.638,0,0,0-1.257-.444,1.881,1.881,0,0,0-1.2.365,1.129,1.129,0,0,0-.466.927H60.565a2.37,2.37,0,0,1,.519-1.463A3.455,3.455,0,0,1,62.495-9.3a4.955,4.955,0,0,1,1.991-.387,3.99,3.99,0,0,1,2.663.839,2.993,2.993,0,0,1,1.02,2.36V-2.2a4.861,4.861,0,0,0,.36,2.048V0ZM64-1.538a2.429,2.429,0,0,0,1.191-.308,2.055,2.055,0,0,0,.839-.826V-4.465H64.881a3.148,3.148,0,0,0-1.784.413,1.338,1.338,0,0,0-.6,1.169,1.248,1.248,0,0,0,.409.98A1.583,1.583,0,0,0,64-1.538Zm19.213-3.12a5.662,5.662,0,0,1-1,3.52A3.209,3.209,0,0,1,79.523.176a3.23,3.23,0,0,1-2.5-1.028V3.656H74.883V-9.51h1.969l.088.967A3.137,3.137,0,0,1,79.5-9.686a3.242,3.242,0,0,1,2.729,1.3,5.813,5.813,0,0,1,.989,3.6Zm-2.127-.185A3.966,3.966,0,0,0,80.521-7.1,1.843,1.843,0,0,0,78.9-7.937a1.965,1.965,0,0,0-1.881,1.081v4.219a1.983,1.983,0,0,0,1.9,1.107,1.841,1.841,0,0,0,1.6-.822A4.366,4.366,0,0,0,81.088-4.843ZM89.209.176A4.419,4.419,0,0,1,85.917-1.1a4.639,4.639,0,0,1-1.261-3.406v-.264a5.706,5.706,0,0,1,.549-2.544,4.181,4.181,0,0,1,1.542-1.745,4.078,4.078,0,0,1,2.215-.624,3.733,3.733,0,0,1,3,1.239,5.24,5.24,0,0,1,1.059,3.507v.861H86.81A2.856,2.856,0,0,0,87.6-2.215a2.362,2.362,0,0,0,1.736.686,2.892,2.892,0,0,0,2.391-1.187l1.151,1.1A3.845,3.845,0,0,1,91.349-.294,4.774,4.774,0,0,1,89.209.176Zm-.255-8.147a1.8,1.8,0,0,0-1.419.615,3.189,3.189,0,0,0-.69,1.714h4.069V-5.8a2.6,2.6,0,0,0-.571-1.622A1.785,1.785,0,0,0,88.954-7.972Zm10.705.413a5.285,5.285,0,0,0-.87-.07A1.959,1.959,0,0,0,96.812-6.5V0H94.676V-9.51h2.039l.053,1.063a2.406,2.406,0,0,1,2.145-1.239,2,2,0,0,1,.756.123Zm3.357-1.951.062.993a3.422,3.422,0,0,1,2.742-1.169,2.629,2.629,0,0,1,2.61,1.459,3.373,3.373,0,0,1,2.918-1.459,2.965,2.965,0,0,1,2.342.87,3.831,3.831,0,0,1,.787,2.566V0h-2.136V-6.187a1.891,1.891,0,0,0-.4-1.327,1.731,1.731,0,0,0-1.31-.422,1.778,1.778,0,0,0-1.191.391,2.063,2.063,0,0,0-.646,1.024L108.809,0h-2.136V-6.258a1.523,1.523,0,0,0-1.714-1.679,1.88,1.88,0,0,0-1.819,1.046V0H101V-9.51ZM122.353,0a3.3,3.3,0,0,1-.246-.888,3.325,3.325,0,0,1-2.5,1.063,3.355,3.355,0,0,1-2.338-.817,2.615,2.615,0,0,1-.905-2.021A2.7,2.7,0,0,1,117.5-5a5.473,5.473,0,0,1,3.23-.813h1.31v-.624a1.666,1.666,0,0,0-.413-1.182,1.638,1.638,0,0,0-1.257-.444,1.881,1.881,0,0,0-1.2.365,1.129,1.129,0,0,0-.466.927h-2.136a2.37,2.37,0,0,1,.519-1.463A3.455,3.455,0,0,1,118.5-9.3a4.955,4.955,0,0,1,1.991-.387,3.99,3.99,0,0,1,2.663.839,2.993,2.993,0,0,1,1.02,2.36V-2.2a4.861,4.861,0,0,0,.36,2.048V0Zm-2.347-1.538a2.429,2.429,0,0,0,1.191-.308,2.055,2.055,0,0,0,.839-.826V-4.465h-1.151a3.148,3.148,0,0,0-1.784.413,1.338,1.338,0,0,0-.6,1.169,1.248,1.248,0,0,0,.409.98A1.583,1.583,0,0,0,120.006-1.538Zm8.385-7.972.062,1.1a3.419,3.419,0,0,1,2.769-1.274q2.971,0,3.023,3.4V0h-2.136V-6.161a1.958,1.958,0,0,0-.391-1.34,1.645,1.645,0,0,0-1.279-.435,2.058,2.058,0,0,0-1.925,1.169V0h-2.136V-9.51ZM140.607.176A4.419,4.419,0,0,1,137.316-1.1a4.639,4.639,0,0,1-1.261-3.406v-.264a5.706,5.706,0,0,1,.549-2.544,4.181,4.181,0,0,1,1.542-1.745,4.078,4.078,0,0,1,2.215-.624,3.733,3.733,0,0,1,3,1.239,5.24,5.24,0,0,1,1.059,3.507v.861h-6.214a2.856,2.856,0,0,0,.787,1.863,2.362,2.362,0,0,0,1.736.686,2.892,2.892,0,0,0,2.391-1.187l1.151,1.1a3.845,3.845,0,0,1-1.525,1.323A4.774,4.774,0,0,1,140.607.176Zm-.255-8.147a1.8,1.8,0,0,0-1.419.615,3.189,3.189,0,0,0-.69,1.714h4.069V-5.8a2.6,2.6,0,0,0-.571-1.622A1.785,1.785,0,0,0,140.353-7.972Zm7.708-1.538.062,1.1a3.419,3.419,0,0,1,2.769-1.274q2.971,0,3.023,3.4V0h-2.136V-6.161a1.958,1.958,0,0,0-.391-1.34,1.645,1.645,0,0,0-1.279-.435,2.058,2.058,0,0,0-1.925,1.169V0h-2.136V-9.51Zm10.705-2.312V-9.51h1.679v1.582h-1.679v5.309a1.169,1.169,0,0,0,.215.787,1,1,0,0,0,.769.242,3.29,3.29,0,0,0,.747-.088V-.026a5.26,5.26,0,0,1-1.406.2q-2.461,0-2.461-2.716V-7.928h-1.564V-9.51h1.564v-2.312Zm7.5,12A4.419,4.419,0,0,1,162.971-1.1a4.639,4.639,0,0,1-1.261-3.406v-.264a5.706,5.706,0,0,1,.549-2.544A4.181,4.181,0,0,1,163.8-9.062a4.078,4.078,0,0,1,2.215-.624,3.733,3.733,0,0,1,3,1.239,5.24,5.24,0,0,1,1.059,3.507v.861h-6.214a2.856,2.856,0,0,0,.787,1.863,2.362,2.362,0,0,0,1.736.686,2.892,2.892,0,0,0,2.391-1.187l1.151,1.1A3.845,3.845,0,0,1,168.4-.294,4.774,4.774,0,0,1,166.263.176Zm-.255-8.147a1.8,1.8,0,0,0-1.419.615,3.189,3.189,0,0,0-.69,1.714h4.069V-5.8a2.6,2.6,0,0,0-.571-1.622A1.785,1.785,0,0,0,166.008-7.972Z" transform="translate(-10005 2474.774)"/>
      <path id="Trazado_838756" data-name="Trazado 838756" d="M3.524-4.746V0H1.3V-12.8H6.2A4.95,4.95,0,0,1,9.6-11.679a3.757,3.757,0,0,1,1.261,2.956,3.633,3.633,0,0,1-1.235,2.93A5.19,5.19,0,0,1,6.17-4.746Zm0-1.793H6.2A2.632,2.632,0,0,0,8.007-7.1,2.051,2.051,0,0,0,8.631-8.71,2.213,2.213,0,0,0,8-10.367,2.439,2.439,0,0,0,6.258-11H3.524ZM18.36-.932A3.312,3.312,0,0,1,15.688.176a2.952,2.952,0,0,1-2.342-.905,3.851,3.851,0,0,1-.8-2.619V-9.51h2.136v6.135q0,1.811,1.5,1.811a2.111,2.111,0,0,0,2.1-1.116V-9.51h2.136V0H18.413ZM24.583-9.51l.062,1.1a3.419,3.419,0,0,1,2.769-1.274q2.971,0,3.023,3.4V0H28.3V-6.161A1.958,1.958,0,0,0,27.91-7.5a1.645,1.645,0,0,0-1.279-.435,2.058,2.058,0,0,0-1.925,1.169V0H22.57V-9.51Zm10.705-2.312V-9.51h1.679v1.582H35.288v5.309a1.169,1.169,0,0,0,.215.787,1,1,0,0,0,.769.242,3.29,3.29,0,0,0,.747-.088V-.026a5.26,5.26,0,0,1-1.406.2q-2.461,0-2.461-2.716V-7.928H31.588V-9.51h1.564v-2.312Zm2.646,6.979a5.607,5.607,0,0,1,.554-2.518,4.044,4.044,0,0,1,1.556-1.723,4.383,4.383,0,0,1,2.3-.6A4.154,4.154,0,0,1,45.47-8.446a4.874,4.874,0,0,1,1.3,3.287l.009.5a5.658,5.658,0,0,1-.541,2.514A4,4,0,0,1,44.688-.431a4.415,4.415,0,0,1-2.325.606,4.125,4.125,0,0,1-3.221-1.34,5.133,5.133,0,0,1-1.208-3.573Zm2.136.185a3.832,3.832,0,0,0,.606,2.3,1.971,1.971,0,0,0,1.688.831,1.95,1.95,0,0,0,1.683-.844,4.232,4.232,0,0,0,.6-2.47,3.782,3.782,0,0,0-.62-2.285,1.979,1.979,0,0,0-1.683-.844,1.96,1.96,0,0,0-1.661.831A4.152,4.152,0,0,0,40.069-4.658ZM53.912-2.584a.968.968,0,0,0-.47-.87,5,5,0,0,0-1.56-.527,8.02,8.02,0,0,1-1.819-.58,2.428,2.428,0,0,1-1.6-2.241A2.531,2.531,0,0,1,49.5-8.859a4.1,4.1,0,0,1,2.637-.826,4.266,4.266,0,0,1,2.755.844,2.677,2.677,0,0,1,1.05,2.188H53.807a1.316,1.316,0,0,0-.457-1.024,1.752,1.752,0,0,0-1.213-.409,1.893,1.893,0,0,0-1.147.325,1.025,1.025,0,0,0-.444.87.866.866,0,0,0,.413.765,5.68,5.68,0,0,0,1.67.549,7.9,7.9,0,0,1,1.973.659A2.794,2.794,0,0,1,55.666-4a2.342,2.342,0,0,1,.347,1.3A2.478,2.478,0,0,1,54.949-.62a4.535,4.535,0,0,1-2.786.8A4.917,4.917,0,0,1,50.08-.246a3.428,3.428,0,0,1-1.424-1.16A2.746,2.746,0,0,1,48.146-3h2.074a1.5,1.5,0,0,0,.571,1.165,2.22,2.22,0,0,0,1.4.409,2.16,2.16,0,0,0,1.283-.321A.993.993,0,0,0,53.912-2.584Zm8.042-2.241a5.654,5.654,0,0,1,1.02-3.529,3.267,3.267,0,0,1,2.733-1.332A3.1,3.1,0,0,1,68.15-8.631V-13.5h2.136V0H68.353l-.105-.984A3.148,3.148,0,0,1,65.689.176a3.248,3.248,0,0,1-2.7-1.345A5.861,5.861,0,0,1,61.954-4.825Zm2.136.185a3.958,3.958,0,0,0,.558,2.263,1.811,1.811,0,0,0,1.586.813A2.017,2.017,0,0,0,68.15-2.733V-6.794a1.986,1.986,0,0,0-1.9-1.143,1.824,1.824,0,0,0-1.6.822A4.408,4.408,0,0,0,64.09-4.641ZM76.7.176A4.419,4.419,0,0,1,73.411-1.1a4.639,4.639,0,0,1-1.261-3.406v-.264A5.706,5.706,0,0,1,72.7-7.317a4.181,4.181,0,0,1,1.542-1.745,4.078,4.078,0,0,1,2.215-.624,3.733,3.733,0,0,1,3,1.239,5.24,5.24,0,0,1,1.059,3.507v.861H74.3a2.856,2.856,0,0,0,.787,1.863,2.362,2.362,0,0,0,1.736.686,2.892,2.892,0,0,0,2.391-1.187l1.151,1.1A3.845,3.845,0,0,1,78.842-.294,4.774,4.774,0,0,1,76.7.176Zm-.255-8.147a1.8,1.8,0,0,0-1.419.615,3.189,3.189,0,0,0-.69,1.714h4.069V-5.8a2.6,2.6,0,0,0-.571-1.622A1.785,1.785,0,0,0,76.447-7.972ZM90.844.176A4.419,4.419,0,0,1,87.552-1.1a4.639,4.639,0,0,1-1.261-3.406v-.264a5.706,5.706,0,0,1,.549-2.544,4.181,4.181,0,0,1,1.542-1.745A4.078,4.078,0,0,1,90.6-9.686a3.733,3.733,0,0,1,3,1.239,5.24,5.24,0,0,1,1.059,3.507v.861H88.444a2.856,2.856,0,0,0,.787,1.863,2.362,2.362,0,0,0,1.736.686,2.892,2.892,0,0,0,2.391-1.187l1.151,1.1A3.845,3.845,0,0,1,92.984-.294,4.774,4.774,0,0,1,90.844.176Zm-.255-8.147a1.8,1.8,0,0,0-1.419.615,3.189,3.189,0,0,0-.69,1.714h4.069V-5.8a2.6,2.6,0,0,0-.571-1.622A1.785,1.785,0,0,0,90.589-7.972ZM98.3-9.51l.062,1.1a3.419,3.419,0,0,1,2.769-1.274q2.971,0,3.023,3.4V0h-2.136V-6.161a1.958,1.958,0,0,0-.391-1.34,1.645,1.645,0,0,0-1.279-.435A2.058,2.058,0,0,0,98.42-6.768V0H96.284V-9.51ZM109-11.821V-9.51h1.679v1.582H109v5.309a1.169,1.169,0,0,0,.215.787,1,1,0,0,0,.769.242,3.29,3.29,0,0,0,.747-.088V-.026a5.26,5.26,0,0,1-1.406.2q-2.461,0-2.461-2.716V-7.928H105.3V-9.51h1.564v-2.312Zm8.288,4.263a5.285,5.285,0,0,0-.87-.07A1.959,1.959,0,0,0,114.442-6.5V0h-2.136V-9.51h2.039l.053,1.063a2.406,2.406,0,0,1,2.145-1.239,2,2,0,0,1,.756.123ZM124.058,0a3.3,3.3,0,0,1-.246-.888,3.325,3.325,0,0,1-2.5,1.063,3.355,3.355,0,0,1-2.338-.817,2.615,2.615,0,0,1-.905-2.021A2.7,2.7,0,0,1,119.2-5a5.473,5.473,0,0,1,3.23-.813h1.31v-.624a1.666,1.666,0,0,0-.413-1.182,1.638,1.638,0,0,0-1.257-.444,1.881,1.881,0,0,0-1.2.365,1.129,1.129,0,0,0-.466.927h-2.136a2.37,2.37,0,0,1,.519-1.463A3.455,3.455,0,0,1,120.2-9.3a4.955,4.955,0,0,1,1.991-.387,3.99,3.99,0,0,1,2.663.839,2.993,2.993,0,0,1,1.02,2.36V-2.2a4.861,4.861,0,0,0,.36,2.048V0Zm-2.347-1.538a2.429,2.429,0,0,0,1.191-.308,2.055,2.055,0,0,0,.839-.826V-4.465H122.59a3.148,3.148,0,0,0-1.784.413,1.338,1.338,0,0,0-.6,1.169,1.248,1.248,0,0,0,.409.98A1.583,1.583,0,0,0,121.711-1.538Zm6-3.287a5.654,5.654,0,0,1,1.02-3.529,3.267,3.267,0,0,1,2.733-1.332,3.1,3.1,0,0,1,2.443,1.055V-13.5h2.136V0h-1.934l-.105-.984a3.148,3.148,0,0,1-2.558,1.16,3.248,3.248,0,0,1-2.7-1.345A5.861,5.861,0,0,1,127.714-4.825Zm2.136.185a3.958,3.958,0,0,0,.558,2.263,1.811,1.811,0,0,0,1.586.813,2.017,2.017,0,0,0,1.916-1.169V-6.794a1.986,1.986,0,0,0-1.9-1.143,1.824,1.824,0,0,0-1.6.822A4.408,4.408,0,0,0,129.85-4.641ZM143.956,0a3.3,3.3,0,0,1-.246-.888,3.325,3.325,0,0,1-2.5,1.063,3.355,3.355,0,0,1-2.338-.817,2.615,2.615,0,0,1-.905-2.021A2.7,2.7,0,0,1,139.1-5a5.473,5.473,0,0,1,3.23-.813h1.31v-.624a1.666,1.666,0,0,0-.413-1.182,1.638,1.638,0,0,0-1.257-.444,1.881,1.881,0,0,0-1.2.365,1.129,1.129,0,0,0-.466.927h-2.136a2.37,2.37,0,0,1,.519-1.463A3.455,3.455,0,0,1,140.1-9.3a4.955,4.955,0,0,1,1.991-.387,3.99,3.99,0,0,1,2.663.839,2.993,2.993,0,0,1,1.02,2.36V-2.2a4.861,4.861,0,0,0,.36,2.048V0Zm-2.347-1.538a2.429,2.429,0,0,0,1.191-.308,2.055,2.055,0,0,0,.839-.826V-4.465h-1.151a3.148,3.148,0,0,0-1.784.413,1.338,1.338,0,0,0-.6,1.169,1.248,1.248,0,0,0,.409.98A1.583,1.583,0,0,0,141.609-1.538Z" transform="translate(-9992 2967.745)"/>
      <path id="Trazado_838757" data-name="Trazado 838757" d="M5.81-2.786,9.062-12.8H11.5L6.9,0H4.746L.158-12.8H2.593ZM15.012,0H12.876V-9.51h2.136ZM12.744-11.979a1.133,1.133,0,0,1,.312-.817,1.179,1.179,0,0,1,.892-.325,1.193,1.193,0,0,1,.9.325,1.125,1.125,0,0,1,.316.817,1.1,1.1,0,0,1-.316.8,1.2,1.2,0,0,1-.9.321,1.188,1.188,0,0,1-.892-.321A1.107,1.107,0,0,1,12.744-11.979Zm7.945,9.272L22.7-9.51h2.206L21.612,0H19.758L16.436-9.51H18.65ZM28.512,0H26.376V-9.51h2.136ZM26.244-11.979a1.133,1.133,0,0,1,.312-.817,1.179,1.179,0,0,1,.892-.325,1.193,1.193,0,0,1,.9.325,1.125,1.125,0,0,1,.316.817,1.1,1.1,0,0,1-.316.8,1.2,1.2,0,0,1-.9.321,1.188,1.188,0,0,1-.892-.321A1.107,1.107,0,0,1,26.244-11.979ZM35.024.176A4.419,4.419,0,0,1,31.733-1.1a4.639,4.639,0,0,1-1.261-3.406v-.264a5.706,5.706,0,0,1,.549-2.544,4.181,4.181,0,0,1,1.542-1.745,4.078,4.078,0,0,1,2.215-.624,3.733,3.733,0,0,1,3,1.239,5.24,5.24,0,0,1,1.059,3.507v.861H32.625a2.856,2.856,0,0,0,.787,1.863,2.362,2.362,0,0,0,1.736.686,2.892,2.892,0,0,0,2.391-1.187l1.151,1.1A3.845,3.845,0,0,1,37.165-.294,4.774,4.774,0,0,1,35.024.176ZM34.77-7.972a1.8,1.8,0,0,0-1.419.615,3.189,3.189,0,0,0-.69,1.714h4.069V-5.8a2.6,2.6,0,0,0-.571-1.622A1.785,1.785,0,0,0,34.77-7.972ZM42.478-9.51l.062,1.1a3.419,3.419,0,0,1,2.769-1.274q2.971,0,3.023,3.4V0H46.2V-6.161A1.958,1.958,0,0,0,45.8-7.5a1.645,1.645,0,0,0-1.279-.435A2.058,2.058,0,0,0,42.6-6.768V0H40.465V-9.51Zm7.629,4.685a5.654,5.654,0,0,1,1.02-3.529,3.267,3.267,0,0,1,2.733-1.332A3.1,3.1,0,0,1,56.3-8.631V-13.5h2.136V0H56.5L56.4-.984A3.148,3.148,0,0,1,53.842.176a3.248,3.248,0,0,1-2.7-1.345A5.861,5.861,0,0,1,50.106-4.825Zm2.136.185A3.958,3.958,0,0,0,52.8-2.377a1.811,1.811,0,0,0,1.586.813A2.017,2.017,0,0,0,56.3-2.733V-6.794a1.986,1.986,0,0,0-1.9-1.143,1.824,1.824,0,0,0-1.6.822A4.408,4.408,0,0,0,52.242-4.641ZM66.349,0A3.3,3.3,0,0,1,66.1-.888a3.325,3.325,0,0,1-2.5,1.063,3.355,3.355,0,0,1-2.338-.817,2.615,2.615,0,0,1-.905-2.021A2.7,2.7,0,0,1,61.493-5a5.473,5.473,0,0,1,3.23-.813h1.31v-.624a1.666,1.666,0,0,0-.413-1.182,1.638,1.638,0,0,0-1.257-.444,1.881,1.881,0,0,0-1.2.365,1.129,1.129,0,0,0-.466.927H60.565a2.37,2.37,0,0,1,.519-1.463A3.455,3.455,0,0,1,62.495-9.3a4.955,4.955,0,0,1,1.991-.387,3.99,3.99,0,0,1,2.663.839,2.993,2.993,0,0,1,1.02,2.36V-2.2a4.861,4.861,0,0,0,.36,2.048V0ZM64-1.538a2.429,2.429,0,0,0,1.191-.308,2.055,2.055,0,0,0,.839-.826V-4.465H64.881a3.148,3.148,0,0,0-1.784.413,1.338,1.338,0,0,0-.6,1.169,1.248,1.248,0,0,0,.409.98A1.583,1.583,0,0,0,64-1.538ZM77.563-11.821V-9.51h1.679v1.582H77.563v5.309a1.169,1.169,0,0,0,.215.787,1,1,0,0,0,.769.242,3.29,3.29,0,0,0,.747-.088V-.026a5.26,5.26,0,0,1-1.406.2q-2.461,0-2.461-2.716V-7.928H73.863V-9.51h1.564v-2.312Zm8.288,4.263a5.285,5.285,0,0,0-.87-.07A1.959,1.959,0,0,0,83-6.5V0H80.868V-9.51h2.039l.053,1.063A2.406,2.406,0,0,1,85.1-9.686a2,2,0,0,1,.756.123ZM92.367,0a3.3,3.3,0,0,1-.246-.888,3.325,3.325,0,0,1-2.5,1.063,3.355,3.355,0,0,1-2.338-.817,2.615,2.615,0,0,1-.905-2.021A2.7,2.7,0,0,1,87.511-5a5.473,5.473,0,0,1,3.23-.813h1.31v-.624a1.666,1.666,0,0,0-.413-1.182,1.638,1.638,0,0,0-1.257-.444,1.881,1.881,0,0,0-1.2.365,1.129,1.129,0,0,0-.466.927H86.584A2.37,2.37,0,0,1,87.1-8.231,3.455,3.455,0,0,1,88.513-9.3,4.955,4.955,0,0,1,90.5-9.686a3.99,3.99,0,0,1,2.663.839,2.993,2.993,0,0,1,1.02,2.36V-2.2a4.861,4.861,0,0,0,.36,2.048V0ZM90.02-1.538a2.429,2.429,0,0,0,1.191-.308,2.055,2.055,0,0,0,.839-.826V-4.465H90.9a3.148,3.148,0,0,0-1.784.413,1.338,1.338,0,0,0-.6,1.169,1.248,1.248,0,0,0,.409.98A1.583,1.583,0,0,0,90.02-1.538ZM98.405-9.51l.062,1.1a3.419,3.419,0,0,1,2.769-1.274q2.971,0,3.023,3.4V0h-2.136V-6.161a1.958,1.958,0,0,0-.391-1.34,1.645,1.645,0,0,0-1.279-.435,2.058,2.058,0,0,0-1.925,1.169V0H96.393V-9.51Zm13.359,6.926a.968.968,0,0,0-.47-.87,5,5,0,0,0-1.56-.527,8.02,8.02,0,0,1-1.819-.58,2.428,2.428,0,0,1-1.6-2.241,2.531,2.531,0,0,1,1.037-2.057,4.1,4.1,0,0,1,2.637-.826,4.266,4.266,0,0,1,2.755.844,2.677,2.677,0,0,1,1.05,2.188h-2.136a1.316,1.316,0,0,0-.457-1.024,1.752,1.752,0,0,0-1.213-.409,1.893,1.893,0,0,0-1.147.325,1.025,1.025,0,0,0-.444.87.866.866,0,0,0,.413.765,5.68,5.68,0,0,0,1.67.549,7.9,7.9,0,0,1,1.973.659A2.794,2.794,0,0,1,113.518-4a2.342,2.342,0,0,1,.347,1.3A2.478,2.478,0,0,1,112.8-.62a4.535,4.535,0,0,1-2.786.8,4.917,4.917,0,0,1-2.083-.422,3.428,3.428,0,0,1-1.424-1.16A2.746,2.746,0,0,1,106-3h2.074a1.5,1.5,0,0,0,.571,1.165,2.22,2.22,0,0,0,1.4.409,2.16,2.16,0,0,0,1.283-.321A.993.993,0,0,0,111.765-2.584ZM118,0H115.86V-9.51H118Zm-2.268-11.979a1.133,1.133,0,0,1,.312-.817,1.179,1.179,0,0,1,.892-.325,1.193,1.193,0,0,1,.9.325,1.125,1.125,0,0,1,.316.817,1.1,1.1,0,0,1-.316.8,1.2,1.2,0,0,1-.9.321,1.188,1.188,0,0,1-.892-.321A1.107,1.107,0,0,1,115.728-11.979Zm7.269.158V-9.51h1.679v1.582H123v5.309a1.169,1.169,0,0,0,.215.787,1,1,0,0,0,.769.242,3.29,3.29,0,0,0,.747-.088V-.026a5.26,5.26,0,0,1-1.406.2q-2.461,0-2.461-2.716V-7.928H119.3V-9.51h1.564v-2.312Zm2.394,6.979a5.607,5.607,0,0,1,.554-2.518A4.044,4.044,0,0,1,127.5-9.083a4.383,4.383,0,0,1,2.3-.6,4.154,4.154,0,0,1,3.125,1.239,4.874,4.874,0,0,1,1.3,3.287l.009.5a5.658,5.658,0,0,1-.541,2.514,4,4,0,0,1-1.547,1.714,4.415,4.415,0,0,1-2.325.606,4.125,4.125,0,0,1-3.221-1.34,5.133,5.133,0,0,1-1.208-3.573Zm2.136.185a3.832,3.832,0,0,0,.606,2.3,1.971,1.971,0,0,0,1.688.831,1.95,1.95,0,0,0,1.683-.844,4.232,4.232,0,0,0,.6-2.47,3.782,3.782,0,0,0-.62-2.285,1.979,1.979,0,0,0-1.683-.844,1.96,1.96,0,0,0-1.661.831A4.152,4.152,0,0,0,127.526-4.658Zm13.491-2.9a5.285,5.285,0,0,0-.87-.07A1.959,1.959,0,0,0,138.17-6.5V0h-2.136V-9.51h2.039l.053,1.063a2.406,2.406,0,0,1,2.145-1.239,2,2,0,0,1,.756.123ZM144.639,0H142.5V-9.51h2.136Zm-2.268-11.979a1.133,1.133,0,0,1,.312-.817,1.179,1.179,0,0,1,.892-.325,1.193,1.193,0,0,1,.9.325,1.125,1.125,0,0,1,.316.817,1.1,1.1,0,0,1-.316.8,1.2,1.2,0,0,1-.9.321,1.188,1.188,0,0,1-.892-.321A1.107,1.107,0,0,1,142.371-11.979ZM152.645,0a3.3,3.3,0,0,1-.246-.888A3.325,3.325,0,0,1,149.9.176a3.355,3.355,0,0,1-2.338-.817,2.615,2.615,0,0,1-.905-2.021A2.7,2.7,0,0,1,147.789-5a5.473,5.473,0,0,1,3.23-.813h1.31v-.624a1.666,1.666,0,0,0-.413-1.182,1.638,1.638,0,0,0-1.257-.444,1.881,1.881,0,0,0-1.2.365,1.129,1.129,0,0,0-.466.927h-2.136a2.37,2.37,0,0,1,.519-1.463A3.455,3.455,0,0,1,148.791-9.3a4.955,4.955,0,0,1,1.991-.387,3.99,3.99,0,0,1,2.663.839,2.993,2.993,0,0,1,1.02,2.36V-2.2a4.861,4.861,0,0,0,.36,2.048V0ZM150.3-1.538a2.429,2.429,0,0,0,1.191-.308,2.055,2.055,0,0,0,.839-.826V-4.465h-1.151a3.148,3.148,0,0,0-1.784.413,1.338,1.338,0,0,0-.6,1.169,1.248,1.248,0,0,0,.409.98A1.583,1.583,0,0,0,150.3-1.538Z" transform="translate(-10227 2474.774)"/>
      <path id="Trazado_838758" data-name="Trazado 838758" d="M-78.205-11H-82.2V0H-84.4V-11h-3.955V-12.8h10.151ZM-73.327.176A4.419,4.419,0,0,1-76.619-1.1,4.639,4.639,0,0,1-77.88-4.509v-.264a5.706,5.706,0,0,1,.549-2.544,4.181,4.181,0,0,1,1.542-1.745,4.078,4.078,0,0,1,2.215-.624,3.733,3.733,0,0,1,3,1.239,5.24,5.24,0,0,1,1.059,3.507v.861h-6.214a2.856,2.856,0,0,0,.787,1.863,2.362,2.362,0,0,0,1.736.686,2.892,2.892,0,0,0,2.391-1.187l1.151,1.1A3.845,3.845,0,0,1-71.187-.294,4.774,4.774,0,0,1-73.327.176Zm-.255-8.147A1.8,1.8,0,0,0-75-7.356a3.189,3.189,0,0,0-.69,1.714h4.069V-5.8a2.6,2.6,0,0,0-.571-1.622A1.785,1.785,0,0,0-73.582-7.972Zm10.705.413a5.285,5.285,0,0,0-.87-.07A1.959,1.959,0,0,0-65.725-6.5V0H-67.86V-9.51h2.039l.053,1.063a2.406,2.406,0,0,1,2.145-1.239,2,2,0,0,1,.756.123ZM-59.52-9.51l.062.993a3.422,3.422,0,0,1,2.742-1.169,2.629,2.629,0,0,1,2.61,1.459,3.373,3.373,0,0,1,2.918-1.459,2.965,2.965,0,0,1,2.342.87,3.831,3.831,0,0,1,.787,2.566V0h-2.136V-6.187a1.891,1.891,0,0,0-.4-1.327,1.731,1.731,0,0,0-1.31-.422,1.778,1.778,0,0,0-1.191.391,2.063,2.063,0,0,0-.646,1.024L-53.728,0h-2.136V-6.258a1.523,1.523,0,0,0-1.714-1.679A1.88,1.88,0,0,0-59.4-6.891V0h-2.136V-9.51ZM-43.594,0h-2.136V-9.51h2.136Zm-2.268-11.979a1.133,1.133,0,0,1,.312-.817,1.179,1.179,0,0,1,.892-.325,1.193,1.193,0,0,1,.9.325,1.125,1.125,0,0,1,.316.817,1.1,1.1,0,0,1-.316.8,1.2,1.2,0,0,1-.9.321,1.188,1.188,0,0,1-.892-.321A1.107,1.107,0,0,1-45.861-11.979Zm6.574,2.47.062,1.1a3.419,3.419,0,0,1,2.769-1.274q2.971,0,3.023,3.4V0h-2.136V-6.161A1.958,1.958,0,0,0-35.96-7.5a1.645,1.645,0,0,0-1.279-.435,2.058,2.058,0,0,0-1.925,1.169V0H-41.3V-9.51ZM-25.576,0a3.3,3.3,0,0,1-.246-.888,3.325,3.325,0,0,1-2.5,1.063,3.355,3.355,0,0,1-2.338-.817,2.615,2.615,0,0,1-.905-2.021A2.7,2.7,0,0,1-30.432-5,5.473,5.473,0,0,1-27.2-5.81h1.31v-.624a1.666,1.666,0,0,0-.413-1.182,1.638,1.638,0,0,0-1.257-.444,1.881,1.881,0,0,0-1.2.365,1.129,1.129,0,0,0-.466.927h-2.136a2.37,2.37,0,0,1,.519-1.463A3.455,3.455,0,0,1-29.43-9.3a4.955,4.955,0,0,1,1.991-.387,3.99,3.99,0,0,1,2.663.839,2.993,2.993,0,0,1,1.02,2.36V-2.2A4.861,4.861,0,0,0-23.4-.149V0Zm-2.347-1.538a2.429,2.429,0,0,0,1.191-.308,2.055,2.055,0,0,0,.839-.826V-4.465h-1.151a3.148,3.148,0,0,0-1.784.413,1.338,1.338,0,0,0-.6,1.169,1.248,1.248,0,0,0,.409.98A1.583,1.583,0,0,0-27.923-1.538ZM-19.248,0h-2.136V-13.5h2.136Zm6.513.176A4.419,4.419,0,0,1-16.027-1.1a4.639,4.639,0,0,1-1.261-3.406v-.264a5.706,5.706,0,0,1,.549-2.544A4.181,4.181,0,0,1-15.2-9.062a4.078,4.078,0,0,1,2.215-.624,3.733,3.733,0,0,1,3,1.239A5.24,5.24,0,0,1-8.921-4.939v.861h-6.214a2.856,2.856,0,0,0,.787,1.863,2.362,2.362,0,0,0,1.736.686,2.892,2.892,0,0,0,2.391-1.187l1.151,1.1A3.845,3.845,0,0,1-10.6-.294,4.774,4.774,0,0,1-12.735.176Zm-.255-8.147a1.8,1.8,0,0,0-1.419.615,3.189,3.189,0,0,0-.69,1.714h4.069V-5.8A2.6,2.6,0,0,0-11.6-7.422,1.785,1.785,0,0,0-12.99-7.972ZM-1.934-2.584a.968.968,0,0,0-.47-.87,5,5,0,0,0-1.56-.527,8.02,8.02,0,0,1-1.819-.58A2.428,2.428,0,0,1-7.383-6.8,2.531,2.531,0,0,1-6.346-8.859a4.1,4.1,0,0,1,2.637-.826,4.266,4.266,0,0,1,2.755.844A2.677,2.677,0,0,1,.1-6.653H-2.039A1.316,1.316,0,0,0-2.5-7.677a1.752,1.752,0,0,0-1.213-.409,1.893,1.893,0,0,0-1.147.325,1.025,1.025,0,0,0-.444.87.866.866,0,0,0,.413.765,5.68,5.68,0,0,0,1.67.549,7.9,7.9,0,0,1,1.973.659A2.794,2.794,0,0,1-.18-4,2.342,2.342,0,0,1,.167-2.7,2.478,2.478,0,0,1-.9-.62a4.535,4.535,0,0,1-2.786.8A4.917,4.917,0,0,1-5.766-.246a3.428,3.428,0,0,1-1.424-1.16A2.746,2.746,0,0,1-7.7-3h2.074a1.5,1.5,0,0,0,.571,1.165,2.22,2.22,0,0,0,1.4.409,2.16,2.16,0,0,0,1.283-.321A.993.993,0,0,0-1.934-2.584Zm16.77-2.074a5.662,5.662,0,0,1-1,3.52A3.209,3.209,0,0,1,11.145.176,3.23,3.23,0,0,1,8.64-.853V3.656H6.5V-9.51H8.473l.088.967a3.137,3.137,0,0,1,2.558-1.143,3.242,3.242,0,0,1,2.729,1.3,5.813,5.813,0,0,1,.989,3.6Zm-2.127-.185A3.966,3.966,0,0,0,12.142-7.1a1.843,1.843,0,0,0-1.622-.835A1.965,1.965,0,0,0,8.64-6.855v4.219a1.983,1.983,0,0,0,1.9,1.107,1.841,1.841,0,0,0,1.6-.822A4.366,4.366,0,0,0,12.709-4.843Zm3.533,0A5.607,5.607,0,0,1,16.8-7.361a4.044,4.044,0,0,1,1.556-1.723,4.383,4.383,0,0,1,2.3-.6,4.154,4.154,0,0,1,3.125,1.239,4.874,4.874,0,0,1,1.3,3.287l.009.5a5.658,5.658,0,0,1-.541,2.514A4,4,0,0,1,23-.431a4.415,4.415,0,0,1-2.325.606,4.125,4.125,0,0,1-3.221-1.34,5.133,5.133,0,0,1-1.208-3.573Zm2.136.185a3.832,3.832,0,0,0,.606,2.3,1.971,1.971,0,0,0,1.688.831,1.95,1.95,0,0,0,1.683-.844,4.232,4.232,0,0,0,.6-2.47,3.782,3.782,0,0,0-.62-2.285,1.979,1.979,0,0,0-1.683-.844,1.96,1.96,0,0,0-1.661.831A4.152,4.152,0,0,0,18.378-4.658Zm13.491-2.9a5.285,5.285,0,0,0-.87-.07A1.959,1.959,0,0,0,29.021-6.5V0H26.886V-9.51h2.039l.053,1.063a2.406,2.406,0,0,1,2.145-1.239,2,2,0,0,1,.756.123Zm4.465-4.263V-9.51h1.679v1.582H36.334v5.309a1.169,1.169,0,0,0,.215.787,1,1,0,0,0,.769.242,3.29,3.29,0,0,0,.747-.088V-.026a5.26,5.26,0,0,1-1.406.2Q34.2.176,34.2-2.54V-7.928H32.634V-9.51H34.2v-2.312ZM45.4-.932A3.312,3.312,0,0,1,42.732.176,2.952,2.952,0,0,1,40.39-.729a3.851,3.851,0,0,1-.8-2.619V-9.51H41.73v6.135q0,1.811,1.5,1.811a2.111,2.111,0,0,0,2.1-1.116V-9.51H47.47V0H45.457ZM55.327,0a3.3,3.3,0,0,1-.246-.888,3.325,3.325,0,0,1-2.5,1.063,3.355,3.355,0,0,1-2.338-.817,2.615,2.615,0,0,1-.905-2.021A2.7,2.7,0,0,1,50.471-5,5.473,5.473,0,0,1,53.7-5.81h1.31v-.624A1.666,1.666,0,0,0,54.6-7.616a1.638,1.638,0,0,0-1.257-.444,1.881,1.881,0,0,0-1.2.365,1.129,1.129,0,0,0-.466.927H49.544a2.37,2.37,0,0,1,.519-1.463A3.455,3.455,0,0,1,51.473-9.3a4.955,4.955,0,0,1,1.991-.387,3.99,3.99,0,0,1,2.663.839,2.993,2.993,0,0,1,1.02,2.36V-2.2a4.861,4.861,0,0,0,.36,2.048V0ZM52.98-1.538a2.429,2.429,0,0,0,1.191-.308,2.055,2.055,0,0,0,.839-.826V-4.465H53.859a3.148,3.148,0,0,0-1.784.413,1.338,1.338,0,0,0-.6,1.169,1.248,1.248,0,0,0,.409.98A1.583,1.583,0,0,0,52.98-1.538ZM64.362-7.559a5.285,5.285,0,0,0-.87-.07A1.959,1.959,0,0,0,61.515-6.5V0H59.379V-9.51h2.039l.053,1.063a2.406,2.406,0,0,1,2.145-1.239,2,2,0,0,1,.756.123ZM67.983,0H65.848V-9.51h2.136ZM65.716-11.979a1.133,1.133,0,0,1,.312-.817,1.179,1.179,0,0,1,.892-.325,1.193,1.193,0,0,1,.9.325,1.125,1.125,0,0,1,.316.817,1.1,1.1,0,0,1-.316.8,1.2,1.2,0,0,1-.9.321,1.188,1.188,0,0,1-.892-.321A1.107,1.107,0,0,1,65.716-11.979Zm4.192,7.137a5.607,5.607,0,0,1,.554-2.518,4.044,4.044,0,0,1,1.556-1.723,4.383,4.383,0,0,1,2.3-.6,4.154,4.154,0,0,1,3.125,1.239,4.874,4.874,0,0,1,1.3,3.287l.009.5a5.658,5.658,0,0,1-.541,2.514A4,4,0,0,1,76.663-.431a4.415,4.415,0,0,1-2.325.606,4.125,4.125,0,0,1-3.221-1.34,5.133,5.133,0,0,1-1.208-3.573Zm2.136.185a3.832,3.832,0,0,0,.606,2.3,1.971,1.971,0,0,0,1.688.831,1.95,1.95,0,0,0,1.683-.844,4.232,4.232,0,0,0,.6-2.47A3.782,3.782,0,0,0,76-7.128a1.979,1.979,0,0,0-1.683-.844,1.96,1.96,0,0,0-1.661.831A4.152,4.152,0,0,0,72.044-4.658ZM85.887-2.584a.968.968,0,0,0-.47-.87,5,5,0,0,0-1.56-.527,8.02,8.02,0,0,1-1.819-.58,2.428,2.428,0,0,1-1.6-2.241,2.531,2.531,0,0,1,1.037-2.057,4.1,4.1,0,0,1,2.637-.826,4.266,4.266,0,0,1,2.755.844,2.677,2.677,0,0,1,1.05,2.188H85.781a1.316,1.316,0,0,0-.457-1.024,1.752,1.752,0,0,0-1.213-.409,1.893,1.893,0,0,0-1.147.325,1.025,1.025,0,0,0-.444.87.866.866,0,0,0,.413.765,5.68,5.68,0,0,0,1.67.549,7.9,7.9,0,0,1,1.973.659A2.794,2.794,0,0,1,87.64-4a2.342,2.342,0,0,1,.347,1.3A2.478,2.478,0,0,1,86.924-.62a4.535,4.535,0,0,1-2.786.8,4.917,4.917,0,0,1-2.083-.422,3.428,3.428,0,0,1-1.424-1.16A2.746,2.746,0,0,1,80.121-3H82.2a1.5,1.5,0,0,0,.571,1.165,2.22,2.22,0,0,0,1.4.409,2.16,2.16,0,0,0,1.283-.321A.993.993,0,0,0,85.887-2.584ZM-54.026,13h-3.99V24h-2.206V13h-3.955V11.2h10.151Zm5.88,3.445a5.285,5.285,0,0,0-.87-.07A1.959,1.959,0,0,0-50.994,17.5V24H-53.13V14.49h2.039l.053,1.063a2.406,2.406,0,0,1,2.145-1.239,2,2,0,0,1,.756.123ZM-41.379,24a3.3,3.3,0,0,1-.246-.888,3.325,3.325,0,0,1-2.5,1.063,3.355,3.355,0,0,1-2.338-.817,2.615,2.615,0,0,1-.905-2.021A2.7,2.7,0,0,1-46.235,19,5.473,5.473,0,0,1-43,18.19h1.31v-.624a1.666,1.666,0,0,0-.413-1.182,1.638,1.638,0,0,0-1.257-.444,1.881,1.881,0,0,0-1.2.365,1.129,1.129,0,0,0-.466.927h-2.136a2.37,2.37,0,0,1,.519-1.463A3.455,3.455,0,0,1-45.233,14.7a4.955,4.955,0,0,1,1.991-.387,3.99,3.99,0,0,1,2.663.839,2.993,2.993,0,0,1,1.02,2.36V21.8a4.861,4.861,0,0,0,.36,2.048V24Zm-2.347-1.538a2.429,2.429,0,0,0,1.191-.308,2.055,2.055,0,0,0,.839-.826V19.535h-1.151a3.148,3.148,0,0,0-1.784.413,1.338,1.338,0,0,0-.6,1.169,1.248,1.248,0,0,0,.409.98A1.583,1.583,0,0,0-43.726,22.462ZM-42.539,10.5H-40.1l-2.435,2.663-1.714,0ZM-36.756,24V16.072h-1.45V14.49h1.45v-.65a3.8,3.8,0,0,1,.475-1.916,2.952,2.952,0,0,1,1.318-1.2,4.745,4.745,0,0,1,2.048-.4,5.969,5.969,0,0,1,1.349.149q.646.149,1.34.378l-.325,1.767a6.8,6.8,0,0,0-2.215-.422,1.979,1.979,0,0,0-1.415.426,1.705,1.705,0,0,0-.439,1.279v.6h1.872v1.582H-34.62V24Zm7.541,0h-2.136V14.49h2.136Zm6.275-1.529A1.931,1.931,0,0,0-21.612,22a1.591,1.591,0,0,0,.563-1.151h2.013a3.137,3.137,0,0,1-.554,1.657A3.632,3.632,0,0,1-21,23.728a4.191,4.191,0,0,1-1.916.448,4.055,4.055,0,0,1-3.164-1.292,5.124,5.124,0,0,1-1.169-3.568V19.1a5.039,5.039,0,0,1,1.16-3.476,4.018,4.018,0,0,1,3.164-1.305,3.907,3.907,0,0,1,2.764.989,3.542,3.542,0,0,1,1.121,2.6H-21.05a1.956,1.956,0,0,0-.558-1.345,1.8,1.8,0,0,0-1.332-.527,1.879,1.879,0,0,0-1.6.751,3.834,3.834,0,0,0-.571,2.281V19.4a3.9,3.9,0,0,0,.558,2.307A1.878,1.878,0,0,0-22.939,22.471Zm5.115-3.313a5.607,5.607,0,0,1,.554-2.518,4.044,4.044,0,0,1,1.556-1.723,4.383,4.383,0,0,1,2.3-.6,4.154,4.154,0,0,1,3.125,1.239,4.874,4.874,0,0,1,1.3,3.287l.009.5a5.658,5.658,0,0,1-.541,2.514,4,4,0,0,1-1.547,1.714,4.415,4.415,0,0,1-2.325.606,4.125,4.125,0,0,1-3.221-1.34,5.133,5.133,0,0,1-1.208-3.573Zm2.136.185a3.832,3.832,0,0,0,.606,2.3,1.971,1.971,0,0,0,1.688.831,1.95,1.95,0,0,0,1.683-.844,4.232,4.232,0,0,0,.6-2.47,3.782,3.782,0,0,0-.62-2.285,1.979,1.979,0,0,0-1.683-.844,1.96,1.96,0,0,0-1.661.831A4.152,4.152,0,0,0-15.688,19.342ZM-.712,14.49l.062,1.1a3.419,3.419,0,0,1,2.769-1.274q2.971,0,3.023,3.4V24H3.006V17.839a1.958,1.958,0,0,0-.391-1.34,1.645,1.645,0,0,0-1.279-.435A2.058,2.058,0,0,0-.589,17.232V24H-2.725V14.49ZM13,24a3.3,3.3,0,0,1-.246-.888,3.325,3.325,0,0,1-2.5,1.063,3.355,3.355,0,0,1-2.338-.817,2.615,2.615,0,0,1-.905-2.021A2.7,2.7,0,0,1,8.143,19a5.473,5.473,0,0,1,3.23-.813h1.31v-.624a1.666,1.666,0,0,0-.413-1.182,1.638,1.638,0,0,0-1.257-.444,1.881,1.881,0,0,0-1.2.365,1.129,1.129,0,0,0-.466.927H7.216a2.37,2.37,0,0,1,.519-1.463A3.455,3.455,0,0,1,9.145,14.7a4.955,4.955,0,0,1,1.991-.387,3.99,3.99,0,0,1,2.663.839,2.993,2.993,0,0,1,1.02,2.36V21.8a4.861,4.861,0,0,0,.36,2.048V24Zm-2.347-1.538a2.429,2.429,0,0,0,1.191-.308,2.055,2.055,0,0,0,.839-.826V19.535H11.531a3.148,3.148,0,0,0-1.784.413,1.338,1.338,0,0,0-.6,1.169,1.248,1.248,0,0,0,.409.98A1.583,1.583,0,0,0,10.652,22.462Zm10.31.009A1.931,1.931,0,0,0,22.289,22a1.591,1.591,0,0,0,.563-1.151h2.013a3.137,3.137,0,0,1-.554,1.657A3.632,3.632,0,0,1,22.9,23.728a4.191,4.191,0,0,1-1.916.448,4.055,4.055,0,0,1-3.164-1.292,5.124,5.124,0,0,1-1.169-3.568V19.1a5.039,5.039,0,0,1,1.16-3.476,4.018,4.018,0,0,1,3.164-1.305,3.907,3.907,0,0,1,2.764.989,3.542,3.542,0,0,1,1.121,2.6H22.852a1.956,1.956,0,0,0-.558-1.345,1.8,1.8,0,0,0-1.332-.527,1.879,1.879,0,0,0-1.6.751,3.834,3.834,0,0,0-.571,2.281V19.4a3.9,3.9,0,0,0,.558,2.307A1.878,1.878,0,0,0,20.962,22.471ZM28.749,24H26.613V14.49h2.136ZM26.481,12.021a1.133,1.133,0,0,1,.312-.817,1.179,1.179,0,0,1,.892-.325,1.193,1.193,0,0,1,.9.325,1.125,1.125,0,0,1,.316.817,1.1,1.1,0,0,1-.316.8,1.2,1.2,0,0,1-.9.321,1.188,1.188,0,0,1-.892-.321A1.107,1.107,0,0,1,26.481,12.021Zm4.192,7.137a5.607,5.607,0,0,1,.554-2.518,4.044,4.044,0,0,1,1.556-1.723,4.383,4.383,0,0,1,2.3-.6,4.154,4.154,0,0,1,3.125,1.239,4.874,4.874,0,0,1,1.3,3.287l.009.5a5.658,5.658,0,0,1-.541,2.514,4,4,0,0,1-1.547,1.714,4.415,4.415,0,0,1-2.325.606,4.125,4.125,0,0,1-3.221-1.34,5.133,5.133,0,0,1-1.208-3.573Zm2.136.185a3.832,3.832,0,0,0,.606,2.3,1.971,1.971,0,0,0,1.688.831,1.95,1.95,0,0,0,1.683-.844,4.232,4.232,0,0,0,.6-2.47,3.782,3.782,0,0,0-.62-2.285,2.089,2.089,0,0,0-3.344-.013A4.152,4.152,0,0,0,32.81,19.342ZM43.3,14.49l.062,1.1a3.419,3.419,0,0,1,2.769-1.274q2.971,0,3.023,3.4V24H47.021V17.839a1.958,1.958,0,0,0-.391-1.34,1.645,1.645,0,0,0-1.279-.435,2.058,2.058,0,0,0-1.925,1.169V24H41.291V14.49ZM57.015,24a3.3,3.3,0,0,1-.246-.888,3.593,3.593,0,0,1-4.834.246,2.615,2.615,0,0,1-.905-2.021A2.7,2.7,0,0,1,52.159,19a5.473,5.473,0,0,1,3.23-.813H56.7v-.624a1.666,1.666,0,0,0-.413-1.182,1.638,1.638,0,0,0-1.257-.444,1.881,1.881,0,0,0-1.2.365,1.129,1.129,0,0,0-.466.927H51.231a2.37,2.37,0,0,1,.519-1.463A3.455,3.455,0,0,1,53.161,14.7a4.955,4.955,0,0,1,1.991-.387,3.99,3.99,0,0,1,2.663.839,2.993,2.993,0,0,1,1.02,2.36V21.8a4.861,4.861,0,0,0,.36,2.048V24Zm-2.347-1.538a2.429,2.429,0,0,0,1.191-.308,2.055,2.055,0,0,0,.839-.826V19.535H55.547a3.148,3.148,0,0,0-1.784.413,1.338,1.338,0,0,0-.6,1.169,1.248,1.248,0,0,0,.409.98A1.583,1.583,0,0,0,54.668,22.462ZM63.343,24H61.207V10.5h2.136Z" transform="translate(-10149 3176.543)"/>
      <path id="Trazado_838759" data-name="Trazado 838759" d="M11.065-4.166A4.621,4.621,0,0,1,9.554-.971,5.154,5.154,0,0,1,6.047.176,4.99,4.99,0,0,1,3.353-.549a4.759,4.759,0,0,1-1.8-2.061A7.438,7.438,0,0,1,.9-5.713v-1.2a7.491,7.491,0,0,1,.642-3.19,4.835,4.835,0,0,1,1.841-2.127,5.136,5.136,0,0,1,2.773-.747,4.946,4.946,0,0,1,3.41,1.147,4.793,4.793,0,0,1,1.5,3.248H8.851a3.161,3.161,0,0,0-.8-1.991,2.658,2.658,0,0,0-1.894-.611,2.6,2.6,0,0,0-2.228,1.06,5.3,5.3,0,0,0-.8,3.11v1.135a5.62,5.62,0,0,0,.743,3.167A2.464,2.464,0,0,0,6.047-1.617a2.875,2.875,0,0,0,1.969-.589,3.071,3.071,0,0,0,.835-1.96Zm1.38-.677A5.607,5.607,0,0,1,13-7.361a4.044,4.044,0,0,1,1.556-1.723,4.383,4.383,0,0,1,2.3-.6,4.154,4.154,0,0,1,3.125,1.239,4.874,4.874,0,0,1,1.3,3.287l.009.5a5.658,5.658,0,0,1-.541,2.514A4,4,0,0,1,19.2-.431a4.415,4.415,0,0,1-2.325.606,4.125,4.125,0,0,1-3.221-1.34,5.133,5.133,0,0,1-1.208-3.573Zm2.136.185a3.832,3.832,0,0,0,.606,2.3,1.971,1.971,0,0,0,1.688.831,1.95,1.95,0,0,0,1.683-.844,4.232,4.232,0,0,0,.6-2.47,3.782,3.782,0,0,0-.62-2.285,1.979,1.979,0,0,0-1.683-.844,1.96,1.96,0,0,0-1.661.831A4.152,4.152,0,0,0,14.581-4.658ZM25.1-9.51l.062.993a3.422,3.422,0,0,1,2.742-1.169,2.629,2.629,0,0,1,2.61,1.459,3.373,3.373,0,0,1,2.918-1.459,2.965,2.965,0,0,1,2.342.87,3.831,3.831,0,0,1,.787,2.566V0H34.427V-6.187a1.891,1.891,0,0,0-.4-1.327,1.731,1.731,0,0,0-1.31-.422,1.778,1.778,0,0,0-1.191.391,2.063,2.063,0,0,0-.646,1.024L30.894,0H28.758V-6.258a1.523,1.523,0,0,0-1.714-1.679,1.88,1.88,0,0,0-1.819,1.046V0H23.089V-9.51ZM42.943.176A4.419,4.419,0,0,1,39.652-1.1a4.639,4.639,0,0,1-1.261-3.406v-.264a5.706,5.706,0,0,1,.549-2.544,4.181,4.181,0,0,1,1.542-1.745A4.078,4.078,0,0,1,42.7-9.686a3.733,3.733,0,0,1,3,1.239,5.24,5.24,0,0,1,1.059,3.507v.861H40.544a2.856,2.856,0,0,0,.787,1.863,2.362,2.362,0,0,0,1.736.686,2.892,2.892,0,0,0,2.391-1.187l1.151,1.1A3.845,3.845,0,0,1,45.083-.294,4.774,4.774,0,0,1,42.943.176Zm-.255-8.147a1.8,1.8,0,0,0-1.419.615,3.189,3.189,0,0,0-.69,1.714h4.069V-5.8a2.6,2.6,0,0,0-.571-1.622A1.785,1.785,0,0,0,42.688-7.972Zm10.705.413a5.285,5.285,0,0,0-.87-.07A1.959,1.959,0,0,0,50.546-6.5V0H48.41V-9.51h2.039L50.5-8.446a2.406,2.406,0,0,1,2.145-1.239,2,2,0,0,1,.756.123Zm5.089,6.029A1.931,1.931,0,0,0,59.81-2a1.591,1.591,0,0,0,.563-1.151h2.013a3.137,3.137,0,0,1-.554,1.657A3.632,3.632,0,0,1,60.425-.272a4.191,4.191,0,0,1-1.916.448,4.055,4.055,0,0,1-3.164-1.292,5.124,5.124,0,0,1-1.169-3.568V-4.9a5.039,5.039,0,0,1,1.16-3.476A4.018,4.018,0,0,1,58.5-9.686a3.907,3.907,0,0,1,2.764.989,3.542,3.542,0,0,1,1.121,2.6H60.372a1.956,1.956,0,0,0-.558-1.345,1.8,1.8,0,0,0-1.332-.527,1.879,1.879,0,0,0-1.6.751,3.834,3.834,0,0,0-.571,2.281V-4.6A3.9,3.9,0,0,0,56.87-2.29,1.878,1.878,0,0,0,58.482-1.529ZM66.27,0H64.134V-9.51H66.27ZM64-11.979a1.133,1.133,0,0,1,.312-.817,1.179,1.179,0,0,1,.892-.325,1.193,1.193,0,0,1,.9.325,1.125,1.125,0,0,1,.316.817,1.1,1.1,0,0,1-.316.8,1.2,1.2,0,0,1-.9.321,1.188,1.188,0,0,1-.892-.321A1.107,1.107,0,0,1,64-11.979ZM74.276,0a3.3,3.3,0,0,1-.246-.888,3.325,3.325,0,0,1-2.5,1.063A3.355,3.355,0,0,1,69.2-.642a2.615,2.615,0,0,1-.905-2.021A2.7,2.7,0,0,1,69.42-5a5.473,5.473,0,0,1,3.23-.813h1.31v-.624a1.666,1.666,0,0,0-.413-1.182A1.638,1.638,0,0,0,72.29-8.06a1.881,1.881,0,0,0-1.2.365,1.129,1.129,0,0,0-.466.927H68.493a2.37,2.37,0,0,1,.519-1.463A3.455,3.455,0,0,1,70.422-9.3a4.955,4.955,0,0,1,1.991-.387,3.99,3.99,0,0,1,2.663.839,2.993,2.993,0,0,1,1.02,2.36V-2.2a4.861,4.861,0,0,0,.36,2.048V0ZM71.93-1.538a2.429,2.429,0,0,0,1.191-.308,2.055,2.055,0,0,0,.839-.826V-4.465H72.809a3.148,3.148,0,0,0-1.784.413,1.338,1.338,0,0,0-.6,1.169,1.248,1.248,0,0,0,.409.98A1.583,1.583,0,0,0,71.93-1.538ZM80.6,0H78.469V-13.5H80.6Zm6.513.176A4.419,4.419,0,0,1,83.826-1.1a4.639,4.639,0,0,1-1.261-3.406v-.264a5.706,5.706,0,0,1,.549-2.544,4.181,4.181,0,0,1,1.542-1.745,4.078,4.078,0,0,1,2.215-.624,3.733,3.733,0,0,1,3,1.239,5.24,5.24,0,0,1,1.059,3.507v.861H84.718A2.856,2.856,0,0,0,85.5-2.215a2.362,2.362,0,0,0,1.736.686,2.892,2.892,0,0,0,2.391-1.187l1.151,1.1A3.845,3.845,0,0,1,89.257-.294,4.774,4.774,0,0,1,87.117.176Zm-.255-8.147a1.8,1.8,0,0,0-1.419.615,3.189,3.189,0,0,0-.69,1.714h4.069V-5.8a2.6,2.6,0,0,0-.571-1.622A1.785,1.785,0,0,0,86.862-7.972ZM97.919-2.584a.968.968,0,0,0-.47-.87,5,5,0,0,0-1.56-.527,8.02,8.02,0,0,1-1.819-.58A2.428,2.428,0,0,1,92.47-6.8a2.531,2.531,0,0,1,1.037-2.057,4.1,4.1,0,0,1,2.637-.826,4.266,4.266,0,0,1,2.755.844,2.677,2.677,0,0,1,1.05,2.188H97.813a1.316,1.316,0,0,0-.457-1.024,1.752,1.752,0,0,0-1.213-.409A1.893,1.893,0,0,0,95-7.761a1.025,1.025,0,0,0-.444.87.866.866,0,0,0,.413.765,5.68,5.68,0,0,0,1.67.549,7.9,7.9,0,0,1,1.973.659A2.794,2.794,0,0,1,99.672-4a2.342,2.342,0,0,1,.347,1.3A2.478,2.478,0,0,1,98.956-.62a4.535,4.535,0,0,1-2.786.8,4.917,4.917,0,0,1-2.083-.422,3.428,3.428,0,0,1-1.424-1.16A2.746,2.746,0,0,1,92.153-3h2.074A1.5,1.5,0,0,0,94.8-1.833a2.22,2.22,0,0,0,1.4.409,2.16,2.16,0,0,0,1.283-.321A.993.993,0,0,0,97.919-2.584Z" transform="translate(-10200 2967.854)"/>
      <path id="Trazado_838760" data-name="Trazado 838760" d="M11.065-4.166A4.621,4.621,0,0,1,9.554-.971,5.154,5.154,0,0,1,6.047.176,4.99,4.99,0,0,1,3.353-.549a4.759,4.759,0,0,1-1.8-2.061A7.438,7.438,0,0,1,.9-5.713v-1.2a7.491,7.491,0,0,1,.642-3.19,4.835,4.835,0,0,1,1.841-2.127,5.136,5.136,0,0,1,2.773-.747,4.946,4.946,0,0,1,3.41,1.147,4.793,4.793,0,0,1,1.5,3.248H8.851a3.161,3.161,0,0,0-.8-1.991,2.658,2.658,0,0,0-1.894-.611,2.6,2.6,0,0,0-2.228,1.06,5.3,5.3,0,0,0-.8,3.11v1.135a5.62,5.62,0,0,0,.743,3.167A2.464,2.464,0,0,0,6.047-1.617a2.875,2.875,0,0,0,1.969-.589,3.071,3.071,0,0,0,.835-1.96ZM18.527,0a3.3,3.3,0,0,1-.246-.888,3.325,3.325,0,0,1-2.5,1.063,3.355,3.355,0,0,1-2.338-.817,2.615,2.615,0,0,1-.905-2.021A2.7,2.7,0,0,1,13.671-5,5.473,5.473,0,0,1,16.9-5.81h1.31v-.624A1.666,1.666,0,0,0,17.8-7.616a1.638,1.638,0,0,0-1.257-.444,1.881,1.881,0,0,0-1.2.365,1.129,1.129,0,0,0-.466.927H12.744a2.37,2.37,0,0,1,.519-1.463A3.455,3.455,0,0,1,14.673-9.3a4.955,4.955,0,0,1,1.991-.387,3.99,3.99,0,0,1,2.663.839,2.993,2.993,0,0,1,1.02,2.36V-2.2a4.861,4.861,0,0,0,.36,2.048V0ZM16.181-1.538a2.429,2.429,0,0,0,1.191-.308,2.055,2.055,0,0,0,.839-.826V-4.465H17.06a3.148,3.148,0,0,0-1.784.413,1.338,1.338,0,0,0-.6,1.169,1.248,1.248,0,0,0,.409.98A1.583,1.583,0,0,0,16.181-1.538ZM27.563-7.559a5.285,5.285,0,0,0-.87-.07A1.959,1.959,0,0,0,24.715-6.5V0H22.579V-9.51h2.039l.053,1.063a2.406,2.406,0,0,1,2.145-1.239,2,2,0,0,1,.756.123Zm5.089,6.029A1.931,1.931,0,0,0,33.979-2a1.591,1.591,0,0,0,.563-1.151h2.013A3.137,3.137,0,0,1,36-1.49,3.632,3.632,0,0,1,34.594-.272a4.191,4.191,0,0,1-1.916.448,4.055,4.055,0,0,1-3.164-1.292,5.124,5.124,0,0,1-1.169-3.568V-4.9A5.039,5.039,0,0,1,29.5-8.38a4.018,4.018,0,0,1,3.164-1.305,3.907,3.907,0,0,1,2.764.989,3.542,3.542,0,0,1,1.121,2.6H34.541a1.956,1.956,0,0,0-.558-1.345,1.8,1.8,0,0,0-1.332-.527,1.879,1.879,0,0,0-1.6.751,3.834,3.834,0,0,0-.571,2.281V-4.6a3.9,3.9,0,0,0,.558,2.307A1.878,1.878,0,0,0,32.651-1.529Zm9.7,1.705A4.419,4.419,0,0,1,39.063-1.1,4.639,4.639,0,0,1,37.8-4.509v-.264a5.706,5.706,0,0,1,.549-2.544,4.181,4.181,0,0,1,1.542-1.745,4.078,4.078,0,0,1,2.215-.624,3.733,3.733,0,0,1,3,1.239,5.24,5.24,0,0,1,1.059,3.507v.861H39.955a2.856,2.856,0,0,0,.787,1.863,2.362,2.362,0,0,0,1.736.686,2.892,2.892,0,0,0,2.391-1.187l1.151,1.1A3.845,3.845,0,0,1,44.495-.294,4.774,4.774,0,0,1,42.354.176ZM42.1-7.972a1.8,1.8,0,0,0-1.419.615,3.189,3.189,0,0,0-.69,1.714H44.06V-5.8a2.6,2.6,0,0,0-.571-1.622A1.785,1.785,0,0,0,42.1-7.972ZM50.1,0H47.962V-13.5H50.1ZM58.1,0a3.3,3.3,0,0,1-.246-.888,3.325,3.325,0,0,1-2.5,1.063,3.355,3.355,0,0,1-2.338-.817,2.615,2.615,0,0,1-.905-2.021A2.7,2.7,0,0,1,53.249-5a5.473,5.473,0,0,1,3.23-.813h1.31v-.624a1.666,1.666,0,0,0-.413-1.182,1.638,1.638,0,0,0-1.257-.444,1.881,1.881,0,0,0-1.2.365,1.129,1.129,0,0,0-.466.927H52.321a2.37,2.37,0,0,1,.519-1.463A3.455,3.455,0,0,1,54.25-9.3a4.955,4.955,0,0,1,1.991-.387,3.99,3.99,0,0,1,2.663.839,2.993,2.993,0,0,1,1.02,2.36V-2.2a4.861,4.861,0,0,0,.36,2.048V0ZM55.758-1.538a2.429,2.429,0,0,0,1.191-.308,2.055,2.055,0,0,0,.839-.826V-4.465H56.637a3.148,3.148,0,0,0-1.784.413,1.338,1.338,0,0,0-.6,1.169,1.248,1.248,0,0,0,.409.98A1.583,1.583,0,0,0,55.758-1.538ZM67.14-7.559a5.285,5.285,0,0,0-.87-.07A1.959,1.959,0,0,0,64.292-6.5V0H62.156V-9.51H64.2l.053,1.063a2.406,2.406,0,0,1,2.145-1.239,2,2,0,0,1,.756.123ZM70.761,0H68.625V-9.51h2.136ZM68.493-11.979a1.133,1.133,0,0,1,.312-.817,1.179,1.179,0,0,1,.892-.325,1.193,1.193,0,0,1,.9.325,1.125,1.125,0,0,1,.316.817,1.1,1.1,0,0,1-.316.8,1.2,1.2,0,0,1-.9.321,1.188,1.188,0,0,1-.892-.321A1.107,1.107,0,0,1,68.493-11.979Zm4.192,7.137a5.607,5.607,0,0,1,.554-2.518,4.044,4.044,0,0,1,1.556-1.723,4.383,4.383,0,0,1,2.3-.6,4.154,4.154,0,0,1,3.125,1.239,4.874,4.874,0,0,1,1.3,3.287l.009.5a5.658,5.658,0,0,1-.541,2.514A4,4,0,0,1,79.44-.431a4.415,4.415,0,0,1-2.325.606,4.125,4.125,0,0,1-3.221-1.34,5.133,5.133,0,0,1-1.208-3.573Zm2.136.185a3.832,3.832,0,0,0,.606,2.3,1.971,1.971,0,0,0,1.688.831A1.95,1.95,0,0,0,78.8-2.373a4.232,4.232,0,0,0,.6-2.47,3.782,3.782,0,0,0-.62-2.285A1.979,1.979,0,0,0,77.1-7.972a1.96,1.96,0,0,0-1.661.831A4.152,4.152,0,0,0,74.821-4.658ZM88.664-2.584a.968.968,0,0,0-.47-.87,5,5,0,0,0-1.56-.527,8.02,8.02,0,0,1-1.819-.58,2.428,2.428,0,0,1-1.6-2.241,2.531,2.531,0,0,1,1.037-2.057,4.1,4.1,0,0,1,2.637-.826,4.266,4.266,0,0,1,2.755.844,2.677,2.677,0,0,1,1.05,2.188H88.559A1.316,1.316,0,0,0,88.1-7.677a1.752,1.752,0,0,0-1.213-.409,1.893,1.893,0,0,0-1.147.325,1.025,1.025,0,0,0-.444.87.866.866,0,0,0,.413.765,5.68,5.68,0,0,0,1.67.549,7.9,7.9,0,0,1,1.973.659A2.794,2.794,0,0,1,90.417-4a2.342,2.342,0,0,1,.347,1.3A2.478,2.478,0,0,1,89.7-.62a4.535,4.535,0,0,1-2.786.8,4.917,4.917,0,0,1-2.083-.422,3.428,3.428,0,0,1-1.424-1.16A2.746,2.746,0,0,1,82.9-3h2.074a1.5,1.5,0,0,0,.571,1.165,2.22,2.22,0,0,0,1.4.409,2.16,2.16,0,0,0,1.283-.321A.993.993,0,0,0,88.664-2.584Z" transform="translate(-9965 2545.463)"/>
      <path id="Trazado_838761" data-name="Trazado 838761" d="M1.3,0V-12.8H5.08a5.928,5.928,0,0,1,3.01.756A5.154,5.154,0,0,1,10.125-9.9a6.807,6.807,0,0,1,.721,3.182v.642a6.779,6.779,0,0,1-.725,3.2A5.092,5.092,0,0,1,8.055-.747,6.2,6.2,0,0,1,4.983,0ZM3.524-11v9.229h1.45A3.339,3.339,0,0,0,7.66-2.87a4.766,4.766,0,0,0,.954-3.142v-.712a4.891,4.891,0,0,0-.905-3.182A3.209,3.209,0,0,0,5.08-11Zm11.6,11H12.99V-9.51h2.136ZM12.858-11.979a1.133,1.133,0,0,1,.312-.817,1.179,1.179,0,0,1,.892-.325,1.193,1.193,0,0,1,.9.325,1.125,1.125,0,0,1,.316.817,1.1,1.1,0,0,1-.316.8,1.2,1.2,0,0,1-.9.321,1.188,1.188,0,0,1-.892-.321A1.107,1.107,0,0,1,12.858-11.979ZM20.8-2.707l2.013-6.8h2.206L21.727,0H19.872L16.55-9.51h2.215ZM30.428.176A4.419,4.419,0,0,1,27.136-1.1a4.639,4.639,0,0,1-1.261-3.406v-.264a5.706,5.706,0,0,1,.549-2.544,4.181,4.181,0,0,1,1.542-1.745,4.078,4.078,0,0,1,2.215-.624,3.733,3.733,0,0,1,3,1.239,5.24,5.24,0,0,1,1.059,3.507v.861H28.028a2.856,2.856,0,0,0,.787,1.863,2.362,2.362,0,0,0,1.736.686,2.892,2.892,0,0,0,2.391-1.187l1.151,1.1A3.845,3.845,0,0,1,32.568-.294,4.774,4.774,0,0,1,30.428.176Zm-.255-8.147a1.8,1.8,0,0,0-1.419.615,3.189,3.189,0,0,0-.69,1.714h4.069V-5.8a2.6,2.6,0,0,0-.571-1.622A1.785,1.785,0,0,0,30.173-7.972Zm10.705.413a5.285,5.285,0,0,0-.87-.07A1.959,1.959,0,0,0,38.03-6.5V0H35.895V-9.51h2.039l.053,1.063a2.406,2.406,0,0,1,2.145-1.239,2,2,0,0,1,.756.123Zm6.68,4.975a.968.968,0,0,0-.47-.87,5,5,0,0,0-1.56-.527,8.02,8.02,0,0,1-1.819-.58,2.428,2.428,0,0,1-1.6-2.241,2.531,2.531,0,0,1,1.037-2.057,4.1,4.1,0,0,1,2.637-.826,4.266,4.266,0,0,1,2.755.844,2.677,2.677,0,0,1,1.05,2.188H47.452A1.316,1.316,0,0,0,47-7.677a1.752,1.752,0,0,0-1.213-.409,1.893,1.893,0,0,0-1.147.325,1.025,1.025,0,0,0-.444.87.866.866,0,0,0,.413.765,5.68,5.68,0,0,0,1.67.549,7.9,7.9,0,0,1,1.973.659A2.794,2.794,0,0,1,49.311-4a2.342,2.342,0,0,1,.347,1.3A2.478,2.478,0,0,1,48.595-.62a4.535,4.535,0,0,1-2.786.8,4.917,4.917,0,0,1-2.083-.422A3.428,3.428,0,0,1,42.3-1.406,2.746,2.746,0,0,1,41.792-3h2.074a1.5,1.5,0,0,0,.571,1.165,2.22,2.22,0,0,0,1.4.409,2.16,2.16,0,0,0,1.283-.321A.993.993,0,0,0,47.558-2.584ZM53.789,0H51.653V-9.51h2.136ZM51.521-11.979a1.133,1.133,0,0,1,.312-.817,1.179,1.179,0,0,1,.892-.325,1.193,1.193,0,0,1,.9.325,1.125,1.125,0,0,1,.316.817,1.1,1.1,0,0,1-.316.8,1.2,1.2,0,0,1-.9.321,1.188,1.188,0,0,1-.892-.321A1.107,1.107,0,0,1,51.521-11.979Zm4.192,7.137a5.607,5.607,0,0,1,.554-2.518,4.044,4.044,0,0,1,1.556-1.723,4.383,4.383,0,0,1,2.3-.6A4.154,4.154,0,0,1,63.25-8.446a4.874,4.874,0,0,1,1.3,3.287l.009.5a5.658,5.658,0,0,1-.541,2.514A4,4,0,0,1,62.468-.431a4.415,4.415,0,0,1-2.325.606,4.125,4.125,0,0,1-3.221-1.34,5.133,5.133,0,0,1-1.208-3.573Zm2.136.185a3.832,3.832,0,0,0,.606,2.3,1.971,1.971,0,0,0,1.688.831,1.95,1.95,0,0,0,1.683-.844,4.232,4.232,0,0,0,.6-2.47,3.782,3.782,0,0,0-.62-2.285,1.979,1.979,0,0,0-1.683-.844,1.96,1.96,0,0,0-1.661.831A4.152,4.152,0,0,0,57.85-4.658ZM60.715-13.5h2.435l-2.435,2.663-1.714,0Zm7.629,3.99.062,1.1a3.419,3.419,0,0,1,2.769-1.274q2.971,0,3.023,3.4V0H72.062V-6.161A1.958,1.958,0,0,0,71.67-7.5a1.645,1.645,0,0,0-1.279-.435,2.058,2.058,0,0,0-1.925,1.169V0H66.331V-9.51ZM89.183-4.658a5.662,5.662,0,0,1-1,3.52A3.209,3.209,0,0,1,85.491.176a3.23,3.23,0,0,1-2.5-1.028V3.656H80.851V-9.51h1.969l.088.967a3.137,3.137,0,0,1,2.558-1.143,3.242,3.242,0,0,1,2.729,1.3,5.813,5.813,0,0,1,.989,3.6Zm-2.127-.185A3.966,3.966,0,0,0,86.489-7.1a1.843,1.843,0,0,0-1.622-.835,1.965,1.965,0,0,0-1.881,1.081v4.219a1.983,1.983,0,0,0,1.9,1.107,1.841,1.841,0,0,0,1.6-.822A4.366,4.366,0,0,0,87.056-4.843ZM96.75-.932A3.312,3.312,0,0,1,94.078.176a2.952,2.952,0,0,1-2.342-.905,3.851,3.851,0,0,1-.8-2.619V-9.51h2.136v6.135q0,1.811,1.5,1.811a2.111,2.111,0,0,0,2.1-1.116V-9.51h2.136V0H96.8ZM95.528-13.5h2.435l-2.435,2.663-1.714,0Zm13.808,8.842a5.712,5.712,0,0,1-.989,3.524,3.221,3.221,0,0,1-2.72,1.31,3.1,3.1,0,0,1-2.6-1.2L102.92,0h-1.934V-13.5h2.136v4.9a3.091,3.091,0,0,1,2.487-1.09,3.258,3.258,0,0,1,2.733,1.292,5.807,5.807,0,0,1,.993,3.612ZM107.2-4.843a4.037,4.037,0,0,0-.545-2.32,1.815,1.815,0,0,0-1.582-.773,1.983,1.983,0,0,0-1.951,1.213V-2.8a2,2,0,0,0,1.969,1.239,1.8,1.8,0,0,0,1.547-.747A3.912,3.912,0,0,0,107.2-4.57ZM113.4,0h-2.136V-13.5H113.4Zm4.6,0h-2.136V-9.51h2.136Zm-2.268-11.979a1.133,1.133,0,0,1,.312-.817,1.179,1.179,0,0,1,.892-.325,1.193,1.193,0,0,1,.9.325,1.125,1.125,0,0,1,.316.817,1.1,1.1,0,0,1-.316.8,1.2,1.2,0,0,1-.9.321,1.188,1.188,0,0,1-.892-.321A1.107,1.107,0,0,1,115.726-11.979Zm8.5,10.45A1.931,1.931,0,0,0,125.552-2a1.591,1.591,0,0,0,.563-1.151h2.013a3.137,3.137,0,0,1-.554,1.657,3.632,3.632,0,0,1-1.406,1.217,4.191,4.191,0,0,1-1.916.448,4.055,4.055,0,0,1-3.164-1.292,5.124,5.124,0,0,1-1.169-3.568V-4.9a5.039,5.039,0,0,1,1.16-3.476,4.018,4.018,0,0,1,3.164-1.305,3.907,3.907,0,0,1,2.764.989,3.542,3.542,0,0,1,1.121,2.6h-2.013a1.956,1.956,0,0,0-.558-1.345,1.8,1.8,0,0,0-1.332-.527,1.879,1.879,0,0,0-1.6.751,3.834,3.834,0,0,0-.571,2.281V-4.6a3.9,3.9,0,0,0,.558,2.307A1.878,1.878,0,0,0,124.225-1.529ZM135.422,0a3.3,3.3,0,0,1-.246-.888,3.325,3.325,0,0,1-2.5,1.063,3.355,3.355,0,0,1-2.338-.817,2.615,2.615,0,0,1-.905-2.021A2.7,2.7,0,0,1,130.566-5a5.473,5.473,0,0,1,3.23-.813h1.31v-.624a1.666,1.666,0,0,0-.413-1.182,1.638,1.638,0,0,0-1.257-.444,1.881,1.881,0,0,0-1.2.365,1.129,1.129,0,0,0-.466.927h-2.136a2.37,2.37,0,0,1,.519-1.463A3.455,3.455,0,0,1,131.568-9.3a4.955,4.955,0,0,1,1.991-.387,3.99,3.99,0,0,1,2.663.839,2.993,2.993,0,0,1,1.02,2.36V-2.2a4.861,4.861,0,0,0,.36,2.048V0Zm-2.347-1.538a2.429,2.429,0,0,0,1.191-.308,2.055,2.055,0,0,0,.839-.826V-4.465h-1.151a3.148,3.148,0,0,0-1.784.413,1.338,1.338,0,0,0-.6,1.169,1.248,1.248,0,0,0,.409.98A1.583,1.583,0,0,0,133.075-1.538Z" transform="translate(-9988 3039.636)"/>
      <path id="Trazado_838762" data-name="Trazado 838762" d="M8.78-5.713H3.524v3.938H9.668V0H1.3V-12.8H9.606V-11H3.524v3.533H8.78Zm1.925.888a5.654,5.654,0,0,1,1.02-3.529,3.267,3.267,0,0,1,2.733-1.332A3.1,3.1,0,0,1,16.9-8.631V-13.5h2.136V0H17.1L17-.984A3.148,3.148,0,0,1,14.44.176a3.248,3.248,0,0,1-2.7-1.345A5.861,5.861,0,0,1,10.705-4.825Zm2.136.185A3.958,3.958,0,0,0,13.4-2.377a1.811,1.811,0,0,0,1.586.813A2.017,2.017,0,0,0,16.9-2.733V-6.794A1.986,1.986,0,0,0,15-7.937a1.824,1.824,0,0,0-1.6.822A4.408,4.408,0,0,0,12.841-4.641ZM27.026-.932A3.312,3.312,0,0,1,24.354.176a2.952,2.952,0,0,1-2.342-.905,3.851,3.851,0,0,1-.8-2.619V-9.51h2.136v6.135q0,1.811,1.5,1.811a2.111,2.111,0,0,0,2.1-1.116V-9.51h2.136V0H27.079Zm8.147-.6A1.931,1.931,0,0,0,36.5-2a1.591,1.591,0,0,0,.563-1.151h2.013a3.137,3.137,0,0,1-.554,1.657A3.632,3.632,0,0,1,37.116-.272,4.191,4.191,0,0,1,35.2.176a4.055,4.055,0,0,1-3.164-1.292,5.124,5.124,0,0,1-1.169-3.568V-4.9a5.039,5.039,0,0,1,1.16-3.476,4.018,4.018,0,0,1,3.164-1.305,3.907,3.907,0,0,1,2.764.989,3.542,3.542,0,0,1,1.121,2.6H37.063a1.956,1.956,0,0,0-.558-1.345,1.8,1.8,0,0,0-1.332-.527,1.879,1.879,0,0,0-1.6.751A3.834,3.834,0,0,0,33-4.939V-4.6a3.9,3.9,0,0,0,.558,2.307A1.878,1.878,0,0,0,35.174-1.529ZM46.371,0a3.3,3.3,0,0,1-.246-.888,3.325,3.325,0,0,1-2.5,1.063,3.355,3.355,0,0,1-2.338-.817,2.615,2.615,0,0,1-.905-2.021A2.7,2.7,0,0,1,41.515-5a5.473,5.473,0,0,1,3.23-.813h1.31v-.624a1.666,1.666,0,0,0-.413-1.182,1.638,1.638,0,0,0-1.257-.444,1.881,1.881,0,0,0-1.2.365,1.129,1.129,0,0,0-.466.927H40.588a2.37,2.37,0,0,1,.519-1.463A3.455,3.455,0,0,1,42.517-9.3a4.955,4.955,0,0,1,1.991-.387,3.99,3.99,0,0,1,2.663.839,2.993,2.993,0,0,1,1.02,2.36V-2.2a4.861,4.861,0,0,0,.36,2.048V0ZM44.024-1.538a2.429,2.429,0,0,0,1.191-.308,2.055,2.055,0,0,0,.839-.826V-4.465H44.9a3.148,3.148,0,0,0-1.784.413,1.338,1.338,0,0,0-.6,1.169,1.248,1.248,0,0,0,.409.98A1.583,1.583,0,0,0,44.024-1.538ZM53.1-11.821V-9.51h1.679v1.582H53.1v5.309a1.169,1.169,0,0,0,.215.787,1,1,0,0,0,.769.242,3.29,3.29,0,0,0,.747-.088V-.026a5.26,5.26,0,0,1-1.406.2q-2.461,0-2.461-2.716V-7.928H49.4V-9.51h1.564v-2.312ZM58.685,0H56.549V-9.51h2.136ZM56.417-11.979a1.133,1.133,0,0,1,.312-.817,1.179,1.179,0,0,1,.892-.325,1.193,1.193,0,0,1,.9.325,1.125,1.125,0,0,1,.316.817,1.1,1.1,0,0,1-.316.8,1.2,1.2,0,0,1-.9.321,1.188,1.188,0,0,1-.892-.321A1.107,1.107,0,0,1,56.417-11.979Zm7.945,9.272,2.013-6.8h2.206L65.285,0H63.431L60.108-9.51h2.215Zm4.893-2.136a5.607,5.607,0,0,1,.554-2.518,4.044,4.044,0,0,1,1.556-1.723,4.383,4.383,0,0,1,2.3-.6,4.154,4.154,0,0,1,3.125,1.239,4.874,4.874,0,0,1,1.3,3.287l.009.5a5.658,5.658,0,0,1-.541,2.514A4,4,0,0,1,76.009-.431a4.415,4.415,0,0,1-2.325.606,4.125,4.125,0,0,1-3.221-1.34,5.133,5.133,0,0,1-1.208-3.573Zm2.136.185A3.832,3.832,0,0,0,72-2.36a1.971,1.971,0,0,0,1.688.831,1.95,1.95,0,0,0,1.683-.844,4.232,4.232,0,0,0,.6-2.47,3.782,3.782,0,0,0-.62-2.285,1.979,1.979,0,0,0-1.683-.844,1.96,1.96,0,0,0-1.661.831A4.152,4.152,0,0,0,71.391-4.658ZM85.233-2.584a.968.968,0,0,0-.47-.87,5,5,0,0,0-1.56-.527,8.02,8.02,0,0,1-1.819-.58,2.428,2.428,0,0,1-1.6-2.241,2.531,2.531,0,0,1,1.037-2.057,4.1,4.1,0,0,1,2.637-.826,4.266,4.266,0,0,1,2.755.844,2.677,2.677,0,0,1,1.05,2.188H85.128a1.316,1.316,0,0,0-.457-1.024,1.752,1.752,0,0,0-1.213-.409,1.893,1.893,0,0,0-1.147.325,1.025,1.025,0,0,0-.444.87.866.866,0,0,0,.413.765,5.68,5.68,0,0,0,1.67.549,7.9,7.9,0,0,1,1.973.659A2.794,2.794,0,0,1,86.987-4a2.342,2.342,0,0,1,.347,1.3A2.478,2.478,0,0,1,86.27-.62a4.535,4.535,0,0,1-2.786.8A4.917,4.917,0,0,1,81.4-.246a3.428,3.428,0,0,1-1.424-1.16A2.746,2.746,0,0,1,79.468-3h2.074a1.5,1.5,0,0,0,.571,1.165,2.22,2.22,0,0,0,1.4.409,2.16,2.16,0,0,0,1.283-.321A.993.993,0,0,0,85.233-2.584Z" transform="translate(-10193 2545.463)"/>
      <path id="Trazado_838763" data-name="Trazado 838763" d="M8.464-2.979H3.507L2.47,0H.158L4.992-12.8h2L11.83,0H9.51ZM4.131-4.772H7.84L5.985-10.081ZM16.98-1.529A1.931,1.931,0,0,0,18.308-2a1.591,1.591,0,0,0,.563-1.151h2.013a3.137,3.137,0,0,1-.554,1.657A3.632,3.632,0,0,1,18.923-.272a4.191,4.191,0,0,1-1.916.448,4.055,4.055,0,0,1-3.164-1.292,5.124,5.124,0,0,1-1.169-3.568V-4.9a5.039,5.039,0,0,1,1.16-3.476A4.018,4.018,0,0,1,17-9.686a3.907,3.907,0,0,1,2.764.989,3.542,3.542,0,0,1,1.121,2.6H18.87a1.956,1.956,0,0,0-.558-1.345,1.8,1.8,0,0,0-1.332-.527,1.879,1.879,0,0,0-1.6.751,3.834,3.834,0,0,0-.571,2.281V-4.6a3.9,3.9,0,0,0,.558,2.307A1.878,1.878,0,0,0,16.98-1.529Zm11.276.6A3.312,3.312,0,0,1,25.585.176a2.952,2.952,0,0,1-2.342-.905,3.851,3.851,0,0,1-.8-2.619V-9.51h2.136v6.135q0,1.811,1.5,1.811a2.111,2.111,0,0,0,2.1-1.116V-9.51h2.136V0H28.31ZM36.686.176A4.419,4.419,0,0,1,33.394-1.1a4.639,4.639,0,0,1-1.261-3.406v-.264a5.706,5.706,0,0,1,.549-2.544,4.181,4.181,0,0,1,1.542-1.745,4.078,4.078,0,0,1,2.215-.624,3.733,3.733,0,0,1,3,1.239A5.24,5.24,0,0,1,40.5-4.939v.861H34.286a2.856,2.856,0,0,0,.787,1.863,2.362,2.362,0,0,0,1.736.686A2.892,2.892,0,0,0,39.2-2.716l1.151,1.1A3.845,3.845,0,0,1,38.826-.294,4.774,4.774,0,0,1,36.686.176Zm-.255-8.147a1.8,1.8,0,0,0-1.419.615,3.189,3.189,0,0,0-.69,1.714h4.069V-5.8a2.6,2.6,0,0,0-.571-1.622A1.785,1.785,0,0,0,36.431-7.972Zm5.326,3.146a5.654,5.654,0,0,1,1.02-3.529A3.267,3.267,0,0,1,45.51-9.686a3.1,3.1,0,0,1,2.443,1.055V-13.5h2.136V0H48.155L48.05-.984A3.148,3.148,0,0,1,45.492.176a3.248,3.248,0,0,1-2.7-1.345A5.861,5.861,0,0,1,41.757-4.825Zm2.136.185a3.958,3.958,0,0,0,.558,2.263,1.811,1.811,0,0,0,1.586.813,2.017,2.017,0,0,0,1.916-1.169V-6.794a1.986,1.986,0,0,0-1.9-1.143,1.824,1.824,0,0,0-1.6.822A4.408,4.408,0,0,0,43.893-4.641ZM58.078-.932A3.312,3.312,0,0,1,55.406.176a2.952,2.952,0,0,1-2.342-.905,3.851,3.851,0,0,1-.8-2.619V-9.51H54.4v6.135q0,1.811,1.5,1.811a2.111,2.111,0,0,0,2.1-1.116V-9.51h2.136V0H58.131Zm8.147-.6A1.931,1.931,0,0,0,67.553-2a1.591,1.591,0,0,0,.563-1.151h2.013a3.137,3.137,0,0,1-.554,1.657A3.632,3.632,0,0,1,68.168-.272a4.191,4.191,0,0,1-1.916.448,4.055,4.055,0,0,1-3.164-1.292,5.124,5.124,0,0,1-1.169-3.568V-4.9a5.039,5.039,0,0,1,1.16-3.476,4.018,4.018,0,0,1,3.164-1.305,3.907,3.907,0,0,1,2.764.989,3.542,3.542,0,0,1,1.121,2.6H68.115a1.956,1.956,0,0,0-.558-1.345,1.8,1.8,0,0,0-1.332-.527,1.879,1.879,0,0,0-1.6.751,3.834,3.834,0,0,0-.571,2.281V-4.6a3.9,3.9,0,0,0,.558,2.307A1.878,1.878,0,0,0,66.226-1.529Zm8.191-10.292V-9.51H76.1v1.582H74.417v5.309a1.169,1.169,0,0,0,.215.787,1,1,0,0,0,.769.242,3.29,3.29,0,0,0,.747-.088V-.026a5.26,5.26,0,0,1-1.406.2q-2.461,0-2.461-2.716V-7.928H70.717V-9.51h1.564v-2.312Zm2.646,6.979a5.607,5.607,0,0,1,.554-2.518,4.044,4.044,0,0,1,1.556-1.723,4.383,4.383,0,0,1,2.3-.6A4.154,4.154,0,0,1,84.6-8.446a4.874,4.874,0,0,1,1.3,3.287l.009.5a5.658,5.658,0,0,1-.541,2.514A4,4,0,0,1,83.817-.431a4.415,4.415,0,0,1-2.325.606,4.125,4.125,0,0,1-3.221-1.34,5.133,5.133,0,0,1-1.208-3.573Zm2.136.185a3.832,3.832,0,0,0,.606,2.3,1.971,1.971,0,0,0,1.688.831,1.95,1.95,0,0,0,1.683-.844,4.232,4.232,0,0,0,.6-2.47,3.782,3.782,0,0,0-.62-2.285,1.979,1.979,0,0,0-1.683-.844,1.96,1.96,0,0,0-1.661.831A4.152,4.152,0,0,0,79.2-4.658Z" transform="translate(-10193 3039.854)"/>
      <path id="Trazado_838764" data-name="Trazado 838764" d="M11.065-4.166A4.621,4.621,0,0,1,9.554-.971,5.154,5.154,0,0,1,6.047.176,4.99,4.99,0,0,1,3.353-.549a4.759,4.759,0,0,1-1.8-2.061A7.438,7.438,0,0,1,.9-5.713v-1.2a7.491,7.491,0,0,1,.642-3.19,4.835,4.835,0,0,1,1.841-2.127,5.136,5.136,0,0,1,2.773-.747,4.946,4.946,0,0,1,3.41,1.147,4.793,4.793,0,0,1,1.5,3.248H8.851a3.161,3.161,0,0,0-.8-1.991,2.658,2.658,0,0,0-1.894-.611,2.6,2.6,0,0,0-2.228,1.06,5.3,5.3,0,0,0-.8,3.11v1.135a5.62,5.62,0,0,0,.743,3.167A2.464,2.464,0,0,0,6.047-1.617a2.875,2.875,0,0,0,1.969-.589,3.071,3.071,0,0,0,.835-1.96ZM18.606-.932A3.312,3.312,0,0,1,15.935.176a2.952,2.952,0,0,1-2.342-.905,3.851,3.851,0,0,1-.8-2.619V-9.51h2.136v6.135q0,1.811,1.5,1.811a2.111,2.111,0,0,0,2.1-1.116V-9.51h2.136V0H18.659ZM28.529,0a3.3,3.3,0,0,1-.246-.888,3.325,3.325,0,0,1-2.5,1.063,3.355,3.355,0,0,1-2.338-.817,2.615,2.615,0,0,1-.905-2.021A2.7,2.7,0,0,1,23.673-5,5.473,5.473,0,0,1,26.9-5.81h1.31v-.624A1.666,1.666,0,0,0,27.8-7.616a1.638,1.638,0,0,0-1.257-.444,1.881,1.881,0,0,0-1.2.365,1.129,1.129,0,0,0-.466.927H22.746a2.37,2.37,0,0,1,.519-1.463A3.455,3.455,0,0,1,24.675-9.3a4.955,4.955,0,0,1,1.991-.387,3.99,3.99,0,0,1,2.663.839,2.993,2.993,0,0,1,1.02,2.36V-2.2a4.861,4.861,0,0,0,.36,2.048V0ZM26.183-1.538a2.429,2.429,0,0,0,1.191-.308,2.055,2.055,0,0,0,.839-.826V-4.465H27.062a3.148,3.148,0,0,0-1.784.413,1.338,1.338,0,0,0-.6,1.169,1.248,1.248,0,0,0,.409.98A1.583,1.583,0,0,0,26.183-1.538ZM37.564-7.559a5.285,5.285,0,0,0-.87-.07A1.959,1.959,0,0,0,34.717-6.5V0H32.581V-9.51H34.62l.053,1.063a2.406,2.406,0,0,1,2.145-1.239,2,2,0,0,1,.756.123Zm4.9-4.263V-9.51H44.14v1.582H42.461v5.309a1.169,1.169,0,0,0,.215.787,1,1,0,0,0,.769.242,3.29,3.29,0,0,0,.747-.088V-.026a5.26,5.26,0,0,1-1.406.2q-2.461,0-2.461-2.716V-7.928H38.761V-9.51h1.564v-2.312Zm7.5,12A4.419,4.419,0,0,1,46.667-1.1a4.639,4.639,0,0,1-1.261-3.406v-.264a5.706,5.706,0,0,1,.549-2.544A4.181,4.181,0,0,1,47.5-9.062a4.078,4.078,0,0,1,2.215-.624,3.733,3.733,0,0,1,3,1.239,5.24,5.24,0,0,1,1.059,3.507v.861H47.559a2.856,2.856,0,0,0,.787,1.863,2.362,2.362,0,0,0,1.736.686,2.892,2.892,0,0,0,2.391-1.187l1.151,1.1A3.845,3.845,0,0,1,52.1-.294,4.774,4.774,0,0,1,49.958.176ZM49.7-7.972a1.8,1.8,0,0,0-1.419.615,3.189,3.189,0,0,0-.69,1.714h4.069V-5.8a2.6,2.6,0,0,0-.571-1.622A1.785,1.785,0,0,0,49.7-7.972ZM57.7,0H55.566V-13.5H57.7Zm8.007,0a3.3,3.3,0,0,1-.246-.888,3.325,3.325,0,0,1-2.5,1.063,3.355,3.355,0,0,1-2.338-.817,2.615,2.615,0,0,1-.905-2.021A2.7,2.7,0,0,1,60.852-5a5.473,5.473,0,0,1,3.23-.813h1.31v-.624a1.666,1.666,0,0,0-.413-1.182,1.638,1.638,0,0,0-1.257-.444,1.881,1.881,0,0,0-1.2.365,1.129,1.129,0,0,0-.466.927H59.925a2.37,2.37,0,0,1,.519-1.463A3.455,3.455,0,0,1,61.854-9.3a4.955,4.955,0,0,1,1.991-.387,3.99,3.99,0,0,1,2.663.839,2.993,2.993,0,0,1,1.02,2.36V-2.2a4.861,4.861,0,0,0,.36,2.048V0ZM63.362-1.538a2.429,2.429,0,0,0,1.191-.308,2.055,2.055,0,0,0,.839-.826V-4.465H64.241a3.148,3.148,0,0,0-1.784.413,1.338,1.338,0,0,0-.6,1.169,1.248,1.248,0,0,0,.409.98A1.583,1.583,0,0,0,63.362-1.538ZM74.744-7.559a5.285,5.285,0,0,0-.87-.07A1.959,1.959,0,0,0,71.9-6.5V0H69.76V-9.51H71.8l.053,1.063A2.406,2.406,0,0,1,74-9.686a2,2,0,0,1,.756.123ZM78.365,0H76.229V-9.51h2.136ZM76.1-11.979a1.133,1.133,0,0,1,.312-.817,1.179,1.179,0,0,1,.892-.325,1.193,1.193,0,0,1,.9.325,1.125,1.125,0,0,1,.316.817,1.1,1.1,0,0,1-.316.8,1.2,1.2,0,0,1-.9.321,1.188,1.188,0,0,1-.892-.321A1.107,1.107,0,0,1,76.1-11.979Zm4.192,7.137a5.607,5.607,0,0,1,.554-2.518A4.044,4.044,0,0,1,82.4-9.083a4.383,4.383,0,0,1,2.3-.6,4.154,4.154,0,0,1,3.125,1.239,4.874,4.874,0,0,1,1.3,3.287l.009.5a5.658,5.658,0,0,1-.541,2.514A4,4,0,0,1,87.044-.431a4.415,4.415,0,0,1-2.325.606A4.125,4.125,0,0,1,81.5-1.165a5.133,5.133,0,0,1-1.208-3.573Zm2.136.185a3.832,3.832,0,0,0,.606,2.3,1.971,1.971,0,0,0,1.688.831A1.95,1.95,0,0,0,86.4-2.373a4.232,4.232,0,0,0,.6-2.47,3.782,3.782,0,0,0-.62-2.285A1.979,1.979,0,0,0,84.7-7.972a1.96,1.96,0,0,0-1.661.831A4.152,4.152,0,0,0,82.425-4.658ZM96.268-2.584a.968.968,0,0,0-.47-.87,5,5,0,0,0-1.56-.527,8.02,8.02,0,0,1-1.819-.58,2.428,2.428,0,0,1-1.6-2.241,2.531,2.531,0,0,1,1.037-2.057,4.1,4.1,0,0,1,2.637-.826,4.266,4.266,0,0,1,2.755.844A2.677,2.677,0,0,1,98.3-6.653H96.162a1.316,1.316,0,0,0-.457-1.024,1.752,1.752,0,0,0-1.213-.409,1.893,1.893,0,0,0-1.147.325,1.025,1.025,0,0,0-.444.87.866.866,0,0,0,.413.765,5.68,5.68,0,0,0,1.67.549,7.9,7.9,0,0,1,1.973.659A2.794,2.794,0,0,1,98.021-4a2.342,2.342,0,0,1,.347,1.3A2.478,2.478,0,0,1,97.305-.62a4.535,4.535,0,0,1-2.786.8,4.917,4.917,0,0,1-2.083-.422,3.428,3.428,0,0,1-1.424-1.16A2.746,2.746,0,0,1,90.5-3h2.074a1.5,1.5,0,0,0,.571,1.165,2.22,2.22,0,0,0,1.4.409,2.16,2.16,0,0,0,1.283-.321A.993.993,0,0,0,96.268-2.584Z" transform="translate(-10199 2615.463)"/>
      <path id="Trazado_838765" data-name="Trazado 838765" d="M3.647,0H1.433V-12.8H3.647ZM8.156-9.51l.062,1.1a3.419,3.419,0,0,1,2.769-1.274q2.971,0,3.023,3.4V0H11.874V-6.161a1.958,1.958,0,0,0-.391-1.34A1.645,1.645,0,0,0,10.2-7.937,2.058,2.058,0,0,0,8.279-6.768V0H6.144V-9.51Zm7.629,4.685A5.654,5.654,0,0,1,16.8-8.354a3.267,3.267,0,0,1,2.733-1.332,3.1,3.1,0,0,1,2.443,1.055V-13.5h2.136V0H22.184l-.105-.984A3.148,3.148,0,0,1,19.521.176a3.248,3.248,0,0,1-2.7-1.345A5.861,5.861,0,0,1,15.785-4.825Zm2.136.185a3.958,3.958,0,0,0,.558,2.263,1.811,1.811,0,0,0,1.586.813,2.017,2.017,0,0,0,1.916-1.169V-6.794a1.986,1.986,0,0,0-1.9-1.143,1.824,1.824,0,0,0-1.6.822A4.408,4.408,0,0,0,17.921-4.641ZM32.106-.932A3.312,3.312,0,0,1,29.435.176a2.952,2.952,0,0,1-2.342-.905,3.851,3.851,0,0,1-.8-2.619V-9.51h2.136v6.135q0,1.811,1.5,1.811a2.111,2.111,0,0,0,2.1-1.116V-9.51h2.136V0H32.159Zm9.571-1.652a.968.968,0,0,0-.47-.87,5,5,0,0,0-1.56-.527,8.02,8.02,0,0,1-1.819-.58,2.428,2.428,0,0,1-1.6-2.241,2.531,2.531,0,0,1,1.037-2.057A4.1,4.1,0,0,1,39.9-9.686a4.266,4.266,0,0,1,2.755.844,2.677,2.677,0,0,1,1.05,2.188H41.572a1.316,1.316,0,0,0-.457-1.024A1.752,1.752,0,0,0,39.9-8.086a1.893,1.893,0,0,0-1.147.325,1.025,1.025,0,0,0-.444.87.866.866,0,0,0,.413.765,5.68,5.68,0,0,0,1.67.549,7.9,7.9,0,0,1,1.973.659A2.794,2.794,0,0,1,43.431-4a2.342,2.342,0,0,1,.347,1.3A2.478,2.478,0,0,1,42.715-.62a4.535,4.535,0,0,1-2.786.8,4.917,4.917,0,0,1-2.083-.422,3.428,3.428,0,0,1-1.424-1.16A2.746,2.746,0,0,1,35.912-3h2.074a1.5,1.5,0,0,0,.571,1.165,2.22,2.22,0,0,0,1.4.409,2.16,2.16,0,0,0,1.283-.321A.993.993,0,0,0,41.678-2.584Zm6.636-9.237V-9.51h1.679v1.582H48.313v5.309a1.169,1.169,0,0,0,.215.787,1,1,0,0,0,.769.242,3.29,3.29,0,0,0,.747-.088V-.026a5.26,5.26,0,0,1-1.406.2q-2.461,0-2.461-2.716V-7.928H44.613V-9.51h1.564v-2.312ZM56.6-7.559a5.285,5.285,0,0,0-.87-.07A1.959,1.959,0,0,0,53.754-6.5V0H51.618V-9.51h2.039l.053,1.063a2.406,2.406,0,0,1,2.145-1.239,2,2,0,0,1,.756.123ZM60.223,0H58.087V-9.51h2.136ZM57.955-11.979a1.133,1.133,0,0,1,.312-.817,1.179,1.179,0,0,1,.892-.325,1.193,1.193,0,0,1,.9.325,1.125,1.125,0,0,1,.316.817,1.1,1.1,0,0,1-.316.8,1.2,1.2,0,0,1-.9.321,1.188,1.188,0,0,1-.892-.321A1.107,1.107,0,0,1,57.955-11.979ZM68.229,0a3.3,3.3,0,0,1-.246-.888,3.325,3.325,0,0,1-2.5,1.063,3.355,3.355,0,0,1-2.338-.817,2.615,2.615,0,0,1-.905-2.021A2.7,2.7,0,0,1,63.374-5,5.473,5.473,0,0,1,66.6-5.81h1.31v-.624A1.666,1.666,0,0,0,67.5-7.616a1.638,1.638,0,0,0-1.257-.444,1.881,1.881,0,0,0-1.2.365,1.129,1.129,0,0,0-.466.927H62.446a2.37,2.37,0,0,1,.519-1.463A3.455,3.455,0,0,1,64.375-9.3a4.955,4.955,0,0,1,1.991-.387,3.99,3.99,0,0,1,2.663.839,2.993,2.993,0,0,1,1.02,2.36V-2.2a4.861,4.861,0,0,0,.36,2.048V0ZM65.883-1.538a2.429,2.429,0,0,0,1.191-.308,2.055,2.055,0,0,0,.839-.826V-4.465H66.762a3.148,3.148,0,0,0-1.784.413,1.338,1.338,0,0,0-.6,1.169,1.248,1.248,0,0,0,.409.98A1.583,1.583,0,0,0,65.883-1.538ZM74.558,0H72.422V-13.5h2.136ZM81.07.176A4.419,4.419,0,0,1,77.779-1.1a4.639,4.639,0,0,1-1.261-3.406v-.264a5.706,5.706,0,0,1,.549-2.544,4.181,4.181,0,0,1,1.542-1.745,4.078,4.078,0,0,1,2.215-.624,3.733,3.733,0,0,1,3,1.239,5.24,5.24,0,0,1,1.059,3.507v.861H78.671a2.856,2.856,0,0,0,.787,1.863,2.362,2.362,0,0,0,1.736.686,2.892,2.892,0,0,0,2.391-1.187l1.151,1.1A3.845,3.845,0,0,1,83.21-.294,4.774,4.774,0,0,1,81.07.176Zm-.255-8.147a1.8,1.8,0,0,0-1.419.615,3.189,3.189,0,0,0-.69,1.714h4.069V-5.8A2.6,2.6,0,0,0,82.2-7.422,1.785,1.785,0,0,0,80.815-7.972ZM91.872-2.584a.968.968,0,0,0-.47-.87,5,5,0,0,0-1.56-.527,8.02,8.02,0,0,1-1.819-.58,2.428,2.428,0,0,1-1.6-2.241A2.531,2.531,0,0,1,87.46-8.859,4.1,4.1,0,0,1,90.1-9.686a4.266,4.266,0,0,1,2.755.844A2.677,2.677,0,0,1,93.9-6.653H91.767a1.316,1.316,0,0,0-.457-1.024A1.752,1.752,0,0,0,90.1-8.086a1.893,1.893,0,0,0-1.147.325,1.025,1.025,0,0,0-.444.87.866.866,0,0,0,.413.765,5.68,5.68,0,0,0,1.67.549,7.9,7.9,0,0,1,1.973.659A2.794,2.794,0,0,1,93.625-4a2.342,2.342,0,0,1,.347,1.3A2.478,2.478,0,0,1,92.909-.62a4.535,4.535,0,0,1-2.786.8A4.917,4.917,0,0,1,88.04-.246a3.428,3.428,0,0,1-1.424-1.16A2.746,2.746,0,0,1,86.106-3h2.074a1.5,1.5,0,0,0,.571,1.165,2.22,2.22,0,0,0,1.4.409,2.16,2.16,0,0,0,1.283-.321A.993.993,0,0,0,91.872-2.584Z" transform="translate(-10199 3110.543)"/>
      <path id="Trazado_838766" data-name="Trazado 838766" d="M8.78-5.713H3.524v3.938H9.668V0H1.3V-12.8H9.606V-11H3.524v3.533H8.78ZM16.6-2.584a.968.968,0,0,0-.47-.87,5,5,0,0,0-1.56-.527,8.02,8.02,0,0,1-1.819-.58,2.428,2.428,0,0,1-1.6-2.241A2.531,2.531,0,0,1,12.19-8.859a4.1,4.1,0,0,1,2.637-.826,4.266,4.266,0,0,1,2.755.844,2.677,2.677,0,0,1,1.05,2.188H16.5a1.316,1.316,0,0,0-.457-1.024,1.752,1.752,0,0,0-1.213-.409,1.893,1.893,0,0,0-1.147.325,1.025,1.025,0,0,0-.444.87.866.866,0,0,0,.413.765,5.68,5.68,0,0,0,1.67.549,7.9,7.9,0,0,1,1.973.659A2.794,2.794,0,0,1,18.356-4,2.342,2.342,0,0,1,18.7-2.7,2.478,2.478,0,0,1,17.64-.62a4.535,4.535,0,0,1-2.786.8,4.917,4.917,0,0,1-2.083-.422,3.428,3.428,0,0,1-1.424-1.16A2.746,2.746,0,0,1,10.837-3h2.074a1.5,1.5,0,0,0,.571,1.165,2.22,2.22,0,0,0,1.4.409,2.16,2.16,0,0,0,1.283-.321A.993.993,0,0,0,16.6-2.584ZM28.89-4.658a5.662,5.662,0,0,1-1,3.52A3.209,3.209,0,0,1,25.2.176a3.23,3.23,0,0,1-2.5-1.028V3.656H20.558V-9.51h1.969l.088.967a3.137,3.137,0,0,1,2.558-1.143,3.242,3.242,0,0,1,2.729,1.3,5.813,5.813,0,0,1,.989,3.6Zm-2.127-.185A3.966,3.966,0,0,0,26.2-7.1a1.843,1.843,0,0,0-1.622-.835,1.965,1.965,0,0,0-1.881,1.081v4.219a1.983,1.983,0,0,0,1.9,1.107,1.841,1.841,0,0,0,1.6-.822A4.366,4.366,0,0,0,26.763-4.843ZM34.884.176A4.419,4.419,0,0,1,31.592-1.1a4.639,4.639,0,0,1-1.261-3.406v-.264a5.706,5.706,0,0,1,.549-2.544,4.181,4.181,0,0,1,1.542-1.745,4.078,4.078,0,0,1,2.215-.624,3.733,3.733,0,0,1,3,1.239A5.24,5.24,0,0,1,38.7-4.939v.861H32.484a2.856,2.856,0,0,0,.787,1.863,2.362,2.362,0,0,0,1.736.686A2.892,2.892,0,0,0,37.4-2.716l1.151,1.1A3.845,3.845,0,0,1,37.024-.294,4.774,4.774,0,0,1,34.884.176Zm-.255-8.147a1.8,1.8,0,0,0-1.419.615,3.189,3.189,0,0,0-.69,1.714h4.069V-5.8a2.6,2.6,0,0,0-.571-1.622A1.785,1.785,0,0,0,34.629-7.972Zm9.633,6.442A1.931,1.931,0,0,0,45.589-2a1.591,1.591,0,0,0,.563-1.151h2.013A3.137,3.137,0,0,1,47.61-1.49,3.632,3.632,0,0,1,46.2-.272a4.191,4.191,0,0,1-1.916.448,4.055,4.055,0,0,1-3.164-1.292,5.124,5.124,0,0,1-1.169-3.568V-4.9a5.039,5.039,0,0,1,1.16-3.476,4.018,4.018,0,0,1,3.164-1.305,3.907,3.907,0,0,1,2.764.989,3.542,3.542,0,0,1,1.121,2.6H46.151a1.956,1.956,0,0,0-.558-1.345,1.8,1.8,0,0,0-1.332-.527,1.879,1.879,0,0,0-1.6.751,3.834,3.834,0,0,0-.571,2.281V-4.6a3.9,3.9,0,0,0,.558,2.307A1.878,1.878,0,0,0,44.262-1.529Zm8.191-10.292V-9.51h1.679v1.582H52.453v5.309a1.169,1.169,0,0,0,.215.787,1,1,0,0,0,.769.242,3.29,3.29,0,0,0,.747-.088V-.026a5.26,5.26,0,0,1-1.406.2q-2.461,0-2.461-2.716V-7.928H48.753V-9.51h1.564v-2.312ZM61.444,0A3.3,3.3,0,0,1,61.2-.888,3.325,3.325,0,0,1,58.7.176a3.355,3.355,0,0,1-2.338-.817,2.615,2.615,0,0,1-.905-2.021A2.7,2.7,0,0,1,56.588-5a5.473,5.473,0,0,1,3.23-.813h1.31v-.624a1.666,1.666,0,0,0-.413-1.182,1.638,1.638,0,0,0-1.257-.444,1.881,1.881,0,0,0-1.2.365,1.129,1.129,0,0,0-.466.927H55.661a2.37,2.37,0,0,1,.519-1.463A3.455,3.455,0,0,1,57.59-9.3a4.955,4.955,0,0,1,1.991-.387,3.99,3.99,0,0,1,2.663.839,2.993,2.993,0,0,1,1.02,2.36V-2.2a4.861,4.861,0,0,0,.36,2.048V0ZM59.1-1.538a2.429,2.429,0,0,0,1.191-.308,2.055,2.055,0,0,0,.839-.826V-4.465H59.977a3.148,3.148,0,0,0-1.784.413,1.338,1.338,0,0,0-.6,1.169A1.248,1.248,0,0,0,58-1.9,1.583,1.583,0,0,0,59.1-1.538ZM60.284-13.5h2.435l-2.435,2.663-1.714,0ZM69.407-1.529A1.931,1.931,0,0,0,70.734-2,1.591,1.591,0,0,0,71.3-3.146H73.31a3.137,3.137,0,0,1-.554,1.657A3.632,3.632,0,0,1,71.35-.272a4.191,4.191,0,0,1-1.916.448A4.055,4.055,0,0,1,66.27-1.116,5.124,5.124,0,0,1,65.1-4.685V-4.9a5.039,5.039,0,0,1,1.16-3.476,4.018,4.018,0,0,1,3.164-1.305,3.907,3.907,0,0,1,2.764.989A3.542,3.542,0,0,1,73.31-6.1H71.3a1.956,1.956,0,0,0-.558-1.345,1.8,1.8,0,0,0-1.332-.527,1.879,1.879,0,0,0-1.6.751,3.834,3.834,0,0,0-.571,2.281V-4.6a3.9,3.9,0,0,0,.558,2.307A1.878,1.878,0,0,0,69.407-1.529Zm11.276.6A3.312,3.312,0,0,1,78.012.176a2.952,2.952,0,0,1-2.342-.905,3.851,3.851,0,0,1-.8-2.619V-9.51H77.01v6.135q0,1.811,1.5,1.811a2.111,2.111,0,0,0,2.1-1.116V-9.51h2.136V0H80.736ZM87.2,0H85.061V-13.5H87.2Zm1.925-4.843a5.607,5.607,0,0,1,.554-2.518A4.044,4.044,0,0,1,91.23-9.083a4.383,4.383,0,0,1,2.3-.6,4.154,4.154,0,0,1,3.125,1.239,4.874,4.874,0,0,1,1.3,3.287l.009.5a5.658,5.658,0,0,1-.541,2.514A4,4,0,0,1,95.875-.431a4.415,4.415,0,0,1-2.325.606,4.125,4.125,0,0,1-3.221-1.34,5.133,5.133,0,0,1-1.208-3.573Zm2.136.185a3.832,3.832,0,0,0,.606,2.3,1.971,1.971,0,0,0,1.688.831,1.95,1.95,0,0,0,1.683-.844,4.232,4.232,0,0,0,.6-2.47,3.782,3.782,0,0,0-.62-2.285,1.979,1.979,0,0,0-1.683-.844,1.96,1.96,0,0,0-1.661.831A4.152,4.152,0,0,0,91.257-4.658Zm21.322,0a5.662,5.662,0,0,1-1,3.52A3.209,3.209,0,0,1,108.888.176a3.23,3.23,0,0,1-2.5-1.028V3.656h-2.136V-9.51h1.969l.088.967a3.137,3.137,0,0,1,2.558-1.143,3.242,3.242,0,0,1,2.729,1.3,5.813,5.813,0,0,1,.989,3.6Zm-2.127-.185a3.966,3.966,0,0,0-.567-2.259,1.843,1.843,0,0,0-1.622-.835,1.965,1.965,0,0,0-1.881,1.081v4.219a1.983,1.983,0,0,0,1.9,1.107,1.841,1.841,0,0,0,1.6-.822A4.366,4.366,0,0,0,110.452-4.843Zm9.694,3.911A3.312,3.312,0,0,1,117.475.176a2.952,2.952,0,0,1-2.342-.905,3.851,3.851,0,0,1-.8-2.619V-9.51h2.136v6.135q0,1.811,1.5,1.811a2.111,2.111,0,0,0,2.1-1.116V-9.51h2.136V0H120.2ZM118.925-13.5h2.435l-2.435,2.663-1.714,0Zm13.808,8.842a5.712,5.712,0,0,1-.989,3.524,3.221,3.221,0,0,1-2.72,1.31,3.1,3.1,0,0,1-2.6-1.2L126.316,0h-1.934V-13.5h2.136v4.9a3.091,3.091,0,0,1,2.487-1.09,3.258,3.258,0,0,1,2.733,1.292,5.807,5.807,0,0,1,.993,3.612ZM130.6-4.843a4.037,4.037,0,0,0-.545-2.32,1.815,1.815,0,0,0-1.582-.773,1.983,1.983,0,0,0-1.951,1.213V-2.8a2,2,0,0,0,1.969,1.239,1.8,1.8,0,0,0,1.547-.747A3.912,3.912,0,0,0,130.6-4.57ZM136.793,0h-2.136V-13.5h2.136Zm4.6,0h-2.136V-9.51h2.136Zm-2.268-11.979a1.133,1.133,0,0,1,.312-.817,1.179,1.179,0,0,1,.892-.325,1.193,1.193,0,0,1,.9.325,1.125,1.125,0,0,1,.316.817,1.1,1.1,0,0,1-.316.8,1.2,1.2,0,0,1-.9.321,1.188,1.188,0,0,1-.892-.321A1.107,1.107,0,0,1,139.122-11.979Zm8.5,10.45A1.931,1.931,0,0,0,148.948-2a1.591,1.591,0,0,0,.563-1.151h2.013a3.137,3.137,0,0,1-.554,1.657,3.632,3.632,0,0,1-1.406,1.217,4.191,4.191,0,0,1-1.916.448,4.055,4.055,0,0,1-3.164-1.292,5.124,5.124,0,0,1-1.169-3.568V-4.9a5.039,5.039,0,0,1,1.16-3.476,4.018,4.018,0,0,1,3.164-1.305A3.907,3.907,0,0,1,150.4-8.7a3.542,3.542,0,0,1,1.121,2.6h-2.013a1.956,1.956,0,0,0-.558-1.345,1.8,1.8,0,0,0-1.332-.527,1.879,1.879,0,0,0-1.6.751,3.834,3.834,0,0,0-.571,2.281V-4.6a3.9,3.9,0,0,0,.558,2.307A1.878,1.878,0,0,0,147.621-1.529Zm5.115-3.313a5.607,5.607,0,0,1,.554-2.518,4.044,4.044,0,0,1,1.556-1.723,4.383,4.383,0,0,1,2.3-.6,4.154,4.154,0,0,1,3.125,1.239,4.874,4.874,0,0,1,1.3,3.287l.009.5a5.658,5.658,0,0,1-.541,2.514,4,4,0,0,1-1.547,1.714,4.415,4.415,0,0,1-2.325.606,4.125,4.125,0,0,1-3.221-1.34,5.133,5.133,0,0,1-1.208-3.573Zm2.136.185a3.832,3.832,0,0,0,.606,2.3,1.971,1.971,0,0,0,1.688.831,1.95,1.95,0,0,0,1.683-.844,4.232,4.232,0,0,0,.6-2.47,3.782,3.782,0,0,0-.62-2.285,1.979,1.979,0,0,0-1.683-.844,1.96,1.96,0,0,0-1.661.831A4.152,4.152,0,0,0,154.872-4.658Z" transform="translate(-10000 2615.463)"/>
      <path id="Trazado_838767" data-name="Trazado 838767" d="M11.461,0H9.246V-5.678H3.524V0H1.3V-12.8H3.524v5.326H9.246V-12.8h2.215Zm2.021-4.843a5.607,5.607,0,0,1,.554-2.518,4.044,4.044,0,0,1,1.556-1.723,4.383,4.383,0,0,1,2.3-.6,4.154,4.154,0,0,1,3.125,1.239,4.874,4.874,0,0,1,1.3,3.287l.009.5a5.658,5.658,0,0,1-.541,2.514A4,4,0,0,1,20.237-.431a4.415,4.415,0,0,1-2.325.606,4.125,4.125,0,0,1-3.221-1.34,5.133,5.133,0,0,1-1.208-3.573Zm2.136.185a3.832,3.832,0,0,0,.606,2.3,1.971,1.971,0,0,0,1.688.831A1.95,1.95,0,0,0,19.6-2.373a4.232,4.232,0,0,0,.6-2.47,3.782,3.782,0,0,0-.62-2.285,1.979,1.979,0,0,0-1.683-.844,1.96,1.96,0,0,0-1.661.831A4.152,4.152,0,0,0,15.618-4.658ZM29.461-2.584a.968.968,0,0,0-.47-.87,5,5,0,0,0-1.56-.527,8.02,8.02,0,0,1-1.819-.58,2.428,2.428,0,0,1-1.6-2.241,2.531,2.531,0,0,1,1.037-2.057,4.1,4.1,0,0,1,2.637-.826,4.266,4.266,0,0,1,2.755.844,2.677,2.677,0,0,1,1.05,2.188H29.355A1.316,1.316,0,0,0,28.9-7.677a1.752,1.752,0,0,0-1.213-.409,1.893,1.893,0,0,0-1.147.325,1.025,1.025,0,0,0-.444.87.866.866,0,0,0,.413.765,5.68,5.68,0,0,0,1.67.549,7.9,7.9,0,0,1,1.973.659A2.794,2.794,0,0,1,31.214-4a2.342,2.342,0,0,1,.347,1.3A2.478,2.478,0,0,1,30.5-.62a4.535,4.535,0,0,1-2.786.8,4.917,4.917,0,0,1-2.083-.422,3.428,3.428,0,0,1-1.424-1.16A2.746,2.746,0,0,1,23.7-3H25.77a1.5,1.5,0,0,0,.571,1.165,2.22,2.22,0,0,0,1.4.409,2.16,2.16,0,0,0,1.283-.321A.993.993,0,0,0,29.461-2.584ZM41.748-4.658a5.662,5.662,0,0,1-1,3.52A3.209,3.209,0,0,1,38.057.176a3.23,3.23,0,0,1-2.5-1.028V3.656H33.416V-9.51h1.969l.088.967A3.137,3.137,0,0,1,38.03-9.686a3.242,3.242,0,0,1,2.729,1.3,5.813,5.813,0,0,1,.989,3.6Zm-2.127-.185A3.966,3.966,0,0,0,39.054-7.1a1.843,1.843,0,0,0-1.622-.835,1.965,1.965,0,0,0-1.881,1.081v4.219a1.983,1.983,0,0,0,1.9,1.107,1.841,1.841,0,0,0,1.6-.822A4.366,4.366,0,0,0,39.621-4.843ZM45.826,0H43.69V-9.51h2.136ZM43.559-11.979a1.133,1.133,0,0,1,.312-.817,1.179,1.179,0,0,1,.892-.325,1.193,1.193,0,0,1,.9.325,1.125,1.125,0,0,1,.316.817,1.1,1.1,0,0,1-.316.8,1.2,1.2,0,0,1-.9.321,1.188,1.188,0,0,1-.892-.321A1.107,1.107,0,0,1,43.559-11.979Zm7.269.158V-9.51h1.679v1.582H50.827v5.309a1.169,1.169,0,0,0,.215.787,1,1,0,0,0,.769.242,3.29,3.29,0,0,0,.747-.088V-.026a5.26,5.26,0,0,1-1.406.2q-2.461,0-2.461-2.716V-7.928H47.127V-9.51h1.564v-2.312ZM59.818,0a3.3,3.3,0,0,1-.246-.888,3.325,3.325,0,0,1-2.5,1.063,3.355,3.355,0,0,1-2.338-.817,2.615,2.615,0,0,1-.905-2.021A2.7,2.7,0,0,1,54.962-5a5.473,5.473,0,0,1,3.23-.813H59.5v-.624a1.666,1.666,0,0,0-.413-1.182,1.638,1.638,0,0,0-1.257-.444,1.881,1.881,0,0,0-1.2.365,1.129,1.129,0,0,0-.466.927H54.035a2.37,2.37,0,0,1,.519-1.463A3.455,3.455,0,0,1,55.964-9.3a4.955,4.955,0,0,1,1.991-.387,3.99,3.99,0,0,1,2.663.839,2.993,2.993,0,0,1,1.02,2.36V-2.2A4.861,4.861,0,0,0,62-.149V0ZM57.472-1.538a2.429,2.429,0,0,0,1.191-.308,2.055,2.055,0,0,0,.839-.826V-4.465H58.351a3.148,3.148,0,0,0-1.784.413,1.338,1.338,0,0,0-.6,1.169,1.248,1.248,0,0,0,.409.98A1.583,1.583,0,0,0,57.472-1.538ZM66.146,0H64.011V-13.5h2.136Zm8.007,0a3.3,3.3,0,0,1-.246-.888,3.325,3.325,0,0,1-2.5,1.063,3.355,3.355,0,0,1-2.338-.817,2.615,2.615,0,0,1-.905-2.021A2.7,2.7,0,0,1,69.3-5a5.473,5.473,0,0,1,3.23-.813h1.31v-.624a1.666,1.666,0,0,0-.413-1.182,1.638,1.638,0,0,0-1.257-.444,1.881,1.881,0,0,0-1.2.365,1.129,1.129,0,0,0-.466.927H68.37a2.37,2.37,0,0,1,.519-1.463A3.455,3.455,0,0,1,70.3-9.3a4.955,4.955,0,0,1,1.991-.387,3.99,3.99,0,0,1,2.663.839,2.993,2.993,0,0,1,1.02,2.36V-2.2a4.861,4.861,0,0,0,.36,2.048V0ZM71.807-1.538A2.429,2.429,0,0,0,73-1.846a2.055,2.055,0,0,0,.839-.826V-4.465H72.686a3.148,3.148,0,0,0-1.784.413,1.338,1.338,0,0,0-.6,1.169,1.248,1.248,0,0,0,.409.98A1.583,1.583,0,0,0,71.807-1.538ZM83.188-7.559a5.285,5.285,0,0,0-.87-.07A1.959,1.959,0,0,0,80.341-6.5V0H78.205V-9.51h2.039L80.3-8.446a2.406,2.406,0,0,1,2.145-1.239,2,2,0,0,1,.756.123ZM86.81,0H84.674V-9.51H86.81ZM84.542-11.979a1.133,1.133,0,0,1,.312-.817,1.179,1.179,0,0,1,.892-.325,1.193,1.193,0,0,1,.9.325,1.125,1.125,0,0,1,.316.817,1.1,1.1,0,0,1-.316.8,1.2,1.2,0,0,1-.9.321,1.188,1.188,0,0,1-.892-.321A1.107,1.107,0,0,1,84.542-11.979Zm4.192,7.137a5.607,5.607,0,0,1,.554-2.518,4.044,4.044,0,0,1,1.556-1.723,4.383,4.383,0,0,1,2.3-.6,4.154,4.154,0,0,1,3.125,1.239,4.874,4.874,0,0,1,1.3,3.287l.009.5a5.658,5.658,0,0,1-.541,2.514A4,4,0,0,1,95.489-.431a4.415,4.415,0,0,1-2.325.606,4.125,4.125,0,0,1-3.221-1.34,5.133,5.133,0,0,1-1.208-3.573Zm2.136.185a3.832,3.832,0,0,0,.606,2.3,1.971,1.971,0,0,0,1.688.831,1.95,1.95,0,0,0,1.683-.844,4.232,4.232,0,0,0,.6-2.47,3.782,3.782,0,0,0-.62-2.285,1.979,1.979,0,0,0-1.683-.844,1.96,1.96,0,0,0-1.661.831A4.152,4.152,0,0,0,90.87-4.658Zm13.843,2.074a.968.968,0,0,0-.47-.87,5,5,0,0,0-1.56-.527,8.02,8.02,0,0,1-1.819-.58,2.428,2.428,0,0,1-1.6-2.241A2.531,2.531,0,0,1,100.3-8.859a4.1,4.1,0,0,1,2.637-.826,4.266,4.266,0,0,1,2.755.844,2.677,2.677,0,0,1,1.05,2.188h-2.136a1.316,1.316,0,0,0-.457-1.024,1.752,1.752,0,0,0-1.213-.409,1.893,1.893,0,0,0-1.147.325,1.025,1.025,0,0,0-.444.87.866.866,0,0,0,.413.765,5.68,5.68,0,0,0,1.67.549,7.9,7.9,0,0,1,1.973.659A2.794,2.794,0,0,1,106.466-4a2.342,2.342,0,0,1,.347,1.3A2.478,2.478,0,0,1,105.75-.62a4.535,4.535,0,0,1-2.786.8,4.917,4.917,0,0,1-2.083-.422,3.428,3.428,0,0,1-1.424-1.16A2.746,2.746,0,0,1,98.947-3h2.074a1.5,1.5,0,0,0,.571,1.165,2.22,2.22,0,0,0,1.4.409,2.16,2.16,0,0,0,1.283-.321A.993.993,0,0,0,104.713-2.584Zm11.769-.475,1.934-6.451h2.276L116.912,1.441q-.87,2.4-2.953,2.4a3.807,3.807,0,0,1-1.028-.159V2.021l.4.026a2.079,2.079,0,0,0,1.217-.294A1.95,1.95,0,0,0,115.2.766l.308-.817-3.34-9.459h2.3Zm15.249.475a.968.968,0,0,0-.47-.87,5,5,0,0,0-1.56-.527,8.02,8.02,0,0,1-1.819-.58,2.428,2.428,0,0,1-1.6-2.241,2.531,2.531,0,0,1,1.037-2.057,4.1,4.1,0,0,1,2.637-.826,4.266,4.266,0,0,1,2.755.844,2.677,2.677,0,0,1,1.05,2.188h-2.136a1.316,1.316,0,0,0-.457-1.024,1.752,1.752,0,0,0-1.213-.409,1.893,1.893,0,0,0-1.147.325,1.025,1.025,0,0,0-.444.87.866.866,0,0,0,.413.765,5.68,5.68,0,0,0,1.67.549,7.9,7.9,0,0,1,1.973.659A2.794,2.794,0,0,1,133.484-4a2.342,2.342,0,0,1,.347,1.3A2.478,2.478,0,0,1,132.768-.62a4.535,4.535,0,0,1-2.786.8A4.917,4.917,0,0,1,127.9-.246a3.428,3.428,0,0,1-1.424-1.16A2.746,2.746,0,0,1,125.965-3h2.074a1.5,1.5,0,0,0,.571,1.165,2.22,2.22,0,0,0,1.4.409,2.16,2.16,0,0,0,1.283-.321A.993.993,0,0,0,131.73-2.584ZM137.962,0h-2.136V-9.51h2.136Zm-2.268-11.979a1.133,1.133,0,0,1,.312-.817,1.179,1.179,0,0,1,.892-.325,1.193,1.193,0,0,1,.9.325,1.125,1.125,0,0,1,.316.817,1.1,1.1,0,0,1-.316.8,1.2,1.2,0,0,1-.9.321,1.188,1.188,0,0,1-.892-.321A1.107,1.107,0,0,1,135.694-11.979Zm6.6,2.47.062.993A3.422,3.422,0,0,1,145.1-9.686a2.629,2.629,0,0,1,2.61,1.459,3.373,3.373,0,0,1,2.918-1.459,2.965,2.965,0,0,1,2.342.87,3.831,3.831,0,0,1,.787,2.566V0H151.62V-6.187a1.891,1.891,0,0,0-.4-1.327,1.731,1.731,0,0,0-1.31-.422,1.778,1.778,0,0,0-1.191.391,2.063,2.063,0,0,0-.646,1.024L148.087,0h-2.136V-6.258a1.523,1.523,0,0,0-1.714-1.679,1.88,1.88,0,0,0-1.819,1.046V0h-2.136V-9.51ZM158.221,0h-2.136V-9.51h2.136Zm-2.268-11.979a1.133,1.133,0,0,1,.312-.817,1.179,1.179,0,0,1,.892-.325,1.193,1.193,0,0,1,.9.325,1.125,1.125,0,0,1,.316.817,1.1,1.1,0,0,1-.316.8,1.2,1.2,0,0,1-.9.321,1.188,1.188,0,0,1-.892-.321A1.107,1.107,0,0,1,155.953-11.979ZM162.817,0h-2.136V-13.5h2.136Zm8.007,0a3.3,3.3,0,0,1-.246-.888,3.325,3.325,0,0,1-2.5,1.063,3.355,3.355,0,0,1-2.338-.817,2.615,2.615,0,0,1-.905-2.021A2.7,2.7,0,0,1,165.968-5a5.473,5.473,0,0,1,3.23-.813h1.31v-.624a1.666,1.666,0,0,0-.413-1.182,1.638,1.638,0,0,0-1.257-.444,1.881,1.881,0,0,0-1.2.365,1.129,1.129,0,0,0-.466.927h-2.136a2.37,2.37,0,0,1,.519-1.463A3.455,3.455,0,0,1,166.97-9.3a4.955,4.955,0,0,1,1.991-.387,3.99,3.99,0,0,1,2.663.839,2.993,2.993,0,0,1,1.02,2.36V-2.2A4.861,4.861,0,0,0,173-.149V0Zm-2.347-1.538a2.429,2.429,0,0,0,1.191-.308,2.055,2.055,0,0,0,.839-.826V-4.465h-1.151a3.148,3.148,0,0,0-1.784.413,1.338,1.338,0,0,0-.6,1.169,1.248,1.248,0,0,0,.409.98A1.583,1.583,0,0,0,168.478-1.538Zm11.382-6.021a5.285,5.285,0,0,0-.87-.07A1.959,1.959,0,0,0,177.012-6.5V0h-2.136V-9.51h2.039l.053,1.063a2.406,2.406,0,0,1,2.145-1.239,2,2,0,0,1,.756.123Zm5.37,7.734A4.419,4.419,0,0,1,181.938-1.1a4.639,4.639,0,0,1-1.261-3.406v-.264a5.706,5.706,0,0,1,.549-2.544,4.181,4.181,0,0,1,1.542-1.745,4.078,4.078,0,0,1,2.215-.624,3.733,3.733,0,0,1,3,1.239,5.24,5.24,0,0,1,1.059,3.507v.861H182.83a2.856,2.856,0,0,0,.787,1.863,2.362,2.362,0,0,0,1.736.686,2.892,2.892,0,0,0,2.391-1.187l1.151,1.1A3.845,3.845,0,0,1,187.37-.294,4.774,4.774,0,0,1,185.229.176Zm-.255-8.147a1.8,1.8,0,0,0-1.419.615,3.189,3.189,0,0,0-.69,1.714h4.069V-5.8a2.6,2.6,0,0,0-.571-1.622A1.785,1.785,0,0,0,184.975-7.972Zm11.057,5.388a.968.968,0,0,0-.47-.87A5,5,0,0,0,194-3.981a8.02,8.02,0,0,1-1.819-.58,2.428,2.428,0,0,1-1.6-2.241,2.531,2.531,0,0,1,1.037-2.057,4.1,4.1,0,0,1,2.637-.826,4.266,4.266,0,0,1,2.755.844,2.677,2.677,0,0,1,1.05,2.188h-2.136a1.316,1.316,0,0,0-.457-1.024,1.752,1.752,0,0,0-1.213-.409,1.893,1.893,0,0,0-1.147.325,1.025,1.025,0,0,0-.444.87.866.866,0,0,0,.413.765,5.68,5.68,0,0,0,1.67.549,7.9,7.9,0,0,1,1.973.659A2.794,2.794,0,0,1,197.785-4a2.342,2.342,0,0,1,.347,1.3A2.478,2.478,0,0,1,197.068-.62a4.535,4.535,0,0,1-2.786.8A4.917,4.917,0,0,1,192.2-.246a3.428,3.428,0,0,1-1.424-1.16A2.746,2.746,0,0,1,190.266-3h2.074a1.5,1.5,0,0,0,.571,1.165,2.22,2.22,0,0,0,1.4.409,2.16,2.16,0,0,0,1.283-.321A.993.993,0,0,0,196.031-2.584Z" transform="translate(-10018 3111.527)"/>
      <path id="Trazado_838274" data-name="Trazado 838274" d="M-9808.1,2468.774h22.943v266.959h-132.248" fill="none" stroke="#707070" stroke-width="2"/>
      <path id="Trazado_838285" data-name="Trazado 838285" d="M-9808.1,2468.774h14.943v266.959h-124.248" transform="translate(-20067.711 5573.317) rotate(180)" fill="none" stroke="#707070" stroke-width="2"/>
      <path id="Trazado_838277" data-name="Trazado 838277" d="M-9894.464,2468.774h-22.943v266.959h132.248" transform="translate(-365.146)" fill="none" stroke="#707070" stroke-width="2"/>
      <path id="Trazado_838284" data-name="Trazado 838284" d="M-9894.464,2468.774h-22.943v266.959h132.248" transform="translate(-19702.566 5573.317) rotate(180)" fill="none" stroke="#707070" stroke-width="2"/>
      <path id="Trazado_838275" data-name="Trazado 838275" d="M-9807.905,2539.572h8.724v156.255h-138.99" fill="none" stroke="#707070" stroke-width="2"/>
      <path id="Trazado_838282" data-name="Trazado 838282" d="M-9807.905,2539.572h4.724v156.255h-134.99" transform="translate(-20067.713 5573.535) rotate(180)" fill="none" stroke="#707070" stroke-width="2"/>
      <path id="Trazado_838278" data-name="Trazado 838278" d="M-9929.448,2539.572h-8.724v156.255h138.99" transform="translate(-330.359)" fill="none" stroke="#707070" stroke-width="2"/>
      <path id="Trazado_838283" data-name="Trazado 838283" d="M-9929.448,2539.572h-4.724v156.255h134.99" transform="translate(-19737.354 5573.535) rotate(180)" fill="none" stroke="#707070" stroke-width="2"/>
      <path id="Trazado_838276" data-name="Trazado 838276" d="M-9842.134,2637.681v28.979h-108.132" fill="none" stroke="#707070" stroke-width="2"/>
      <path id="Trazado_838280" data-name="Trazado 838280" d="M-9842.134,2637.681v28.979h-108.132" transform="translate(-20067.713 5571.535) rotate(180)" fill="none" stroke="#707070" stroke-width="2"/>
      <path id="Trazado_838279" data-name="Trazado 838279" d="M-9950.265,2637.681v28.979h108.132" transform="translate(-275.314)" fill="none" stroke="#707070" stroke-width="2"/>
      <path id="Trazado_838281" data-name="Trazado 838281" d="M-9950.265,2637.681v28.979h108.132" transform="translate(-19792.398 5571.535) rotate(180)" fill="none" stroke="#707070" stroke-width="2"/>
      <path id="Trazado_838286" data-name="Trazado 838286" d="M-10151.5,2786.6h-131.044v399.438h22.662" fill="none" stroke="#707070" stroke-width="2"/>
    </g>
    <path id="Trazado_838288" data-name="Trazado 838288" d="M631.07,140.974c-1.312,1.312-3.905,1.937-5.7,1.988a17.1,17.1,0,0,0,5.7-6.962,18.04,18.04,0,0,0,5.7,6.962c-1.927-.154-4.266-.625-5.7-1.988" transform="translate(-9215.82 3672.067) rotate(-90)" fill="#707070"/>
    <path id="Trazado_838291" data-name="Trazado 838291" d="M631.07,140.974c-1.312,1.312-3.905,1.937-5.7,1.988a17.1,17.1,0,0,0,5.7-6.962,18.04,18.04,0,0,0,5.7,6.962c-1.927-.154-4.266-.625-5.7-1.988" transform="translate(-9387.858 2339.928) rotate(90)" fill="#707070"/>
    <path id="Trazado_838290" data-name="Trazado 838290" d="M631.07,140.974c-1.312,1.312-3.905,1.937-5.7,1.988a17.1,17.1,0,0,0,5.7-6.962,18.04,18.04,0,0,0,5.7,6.962c-1.927-.154-4.266-.625-5.7-1.988" transform="translate(-9741.409 3000.517)" fill="#707070"/>
    <path id="Trazado_838293" data-name="Trazado 838293" d="M631.07,140.974c-1.312,1.312-3.905,1.937-5.7,1.988a17.1,17.1,0,0,0,5.7-6.962,18.04,18.04,0,0,0,5.7,6.962c-1.927-.154-4.266-.625-5.7-1.988" transform="translate(-10124.409 3000.517)" fill="#707070"/>
    <path id="Trazado_838294" data-name="Trazado 838294" d="M631.07,140.974c-1.312,1.312-3.905,1.937-5.7,1.988a17.1,17.1,0,0,0,5.7-6.962,18.04,18.04,0,0,0,5.7,6.962c-1.927-.154-4.266-.625-5.7-1.988" transform="translate(-8862.27 3575.479) rotate(180)" fill="#707070"/>
    <path id="Trazado_838296" data-name="Trazado 838296" d="M631.07,140.974c-1.312,1.312-3.905,1.937-5.7,1.988a17.1,17.1,0,0,0,5.7-6.962,18.04,18.04,0,0,0,5.7,6.962c-1.927-.154-4.266-.625-5.7-1.988" transform="translate(-9386.858 2904.928) rotate(90)" fill="#707070"/>
    <path id="Trazado_838297" data-name="Trazado 838297" d="M631.07,140.974c-1.312,1.312-3.905,1.937-5.7,1.988a17.1,17.1,0,0,0,5.7-6.962,18.04,18.04,0,0,0,5.7,6.962c-1.927-.154-4.266-.625-5.7-1.988" transform="translate(-9386.858 2975.928) rotate(90)" fill="#707070"/>
    <path id="Trazado_838300" data-name="Trazado 838300" d="M631.07,140.974c-1.312,1.312-3.905,1.937-5.7,1.988a17.1,17.1,0,0,0,5.7-6.962,18.04,18.04,0,0,0,5.7,6.962c-1.927-.154-4.266-.625-5.7-1.988" transform="translate(-9216.82 4238.067) rotate(-90)" fill="#707070"/>
    <path id="Trazado_838298" data-name="Trazado 838298" d="M631.07,140.974c-1.312,1.312-3.905,1.937-5.7,1.988a17.1,17.1,0,0,0,5.7-6.962,18.04,18.04,0,0,0,5.7,6.962c-1.927-.154-4.266-.625-5.7-1.988" transform="translate(-9386.858 3056.928) rotate(90)" fill="#707070"/>
    <path id="Trazado_838301" data-name="Trazado 838301" d="M631.07,140.974c-1.312,1.312-3.905,1.937-5.7,1.988a17.1,17.1,0,0,0,5.7-6.962,18.04,18.04,0,0,0,5.7,6.962c-1.927-.154-4.266-.625-5.7-1.988" transform="translate(-9216.82 4167.067) rotate(-90)" fill="#707070"/>
    <path id="Trazado_838295" data-name="Trazado 838295" d="M631.07,140.974c-1.312,1.312-3.905,1.937-5.7,1.988a17.1,17.1,0,0,0,5.7-6.962,18.04,18.04,0,0,0,5.7,6.962c-1.927-.154-4.266-.625-5.7-1.988" transform="translate(-8479.27 3575.479) rotate(180)" fill="#707070"/>
    <path id="Trazado_838289" data-name="Trazado 838289" d="M631.07,140.974c-1.312,1.312-3.905,1.937-5.7,1.988a17.1,17.1,0,0,0,5.7-6.962,18.04,18.04,0,0,0,5.7,6.962c-1.927-.154-4.266-.625-5.7-1.988" transform="translate(-9215.82 3601.067) rotate(-90)" fill="#707070"/>
    <path id="Trazado_838292" data-name="Trazado 838292" d="M631.07,140.974c-1.312,1.312-3.905,1.937-5.7,1.988a17.1,17.1,0,0,0,5.7-6.962,18.04,18.04,0,0,0,5.7,6.962c-1.927-.154-4.266-.625-5.7-1.988" transform="translate(-9387.858 2410.928) rotate(90)" fill="#707070"/>
  </g>
</svg>
