<svg xmlns="http://www.w3.org/2000/svg" width="1030" height="267" viewBox="0 0 1030 267">
  <g id="Grupo_1083510" data-name="Grupo 1083510" transform="translate(-285 -6733)">
    <path id="Trazado_838653" data-name="Trazado 838653" d="M0,0H1030V267H0Z" transform="translate(285 6733)" fill="#fff"/>
    <g id="Trazado_838654" data-name="Trazado 838654" transform="translate(285 6779.136)" fill="#e6ebfb">
      <path d="M 233.6585388183594 45.47549819946289 L 5.000011920928955 45.47549819946289 C 2.794418096542358 45.47549819946289 1.000011801719666 43.68109130859375 1.000011801719666 41.47549819946289 L 1.000011801719666 4.999997138977051 C 1.000011801719666 2.794403553009033 2.794418096542358 0.9999971985816956 5.000011920928955 0.9999971985816956 L 233.6585388183594 0.9999971985816956 C 235.8641357421875 0.9999971985816956 237.6585388183594 2.794403553009033 237.6585388183594 4.999997138977051 L 237.6585388183594 41.47549819946289 C 237.6585388183594 43.68109130859375 235.8641357421875 45.47549819946289 233.6585388183594 45.47549819946289 Z" stroke="none"/>
      <path d="M 4.999984741210938 1.999996185302734 C 3.34576416015625 1.999996185302734 1.999984741210938 3.345779418945312 1.999984741210938 4.999996185302734 L 1.999984741210938 41.47549819946289 C 1.999984741210938 43.12971496582031 3.34576416015625 44.47549819946289 4.999984741210938 44.47549819946289 L 233.6585083007812 44.47549819946289 C 235.3127288818359 44.47549819946289 236.6585083007812 43.12971496582031 236.6585083007812 41.47549819946289 L 236.6585083007812 4.999996185302734 C 236.6585083007812 3.345779418945312 235.3127288818359 1.999996185302734 233.6585083007812 1.999996185302734 L 4.999984741210938 1.999996185302734 M 4.999984741210938 -3.814697265625e-06 L 233.6585083007812 -3.814697265625e-06 C 236.4199523925781 -3.814697265625e-06 238.6585083007812 2.238559722900391 238.6585083007812 4.999996185302734 L 238.6585083007812 41.47549819946289 C 238.6585083007812 44.23690414428711 236.4199523925781 46.47549819946289 233.6585083007812 46.47549819946289 L 4.999984741210938 46.47549819946289 C 2.238571166992188 46.47549819946289 -1.52587890625e-05 44.23690414428711 -1.52587890625e-05 41.47549819946289 L -1.52587890625e-05 4.999996185302734 C -1.52587890625e-05 2.238559722900391 2.238571166992188 -3.814697265625e-06 4.999984741210938 -3.814697265625e-06 Z" stroke="none" fill="#c1cdf5"/>
    </g>
    <g id="Trazado_838655" data-name="Trazado 838655" transform="translate(285 6899.721)" fill="#e6ebfb">
      <path d="M 365.5487976074219 45.47549819946289 L 4.999983310699463 45.47549819946289 C 2.794383525848389 45.47549819946289 0.999983549118042 43.68109893798828 0.999983549118042 41.47549819946289 L 0.999983549118042 4.999997138977051 C 0.999983549118042 2.794397115707397 2.794383525848389 0.9999971985816956 4.999983310699463 0.9999971985816956 L 365.5487976074219 0.9999971985816956 C 367.75439453125 0.9999971985816956 369.5487976074219 2.794397115707397 369.5487976074219 4.999997138977051 L 369.5487976074219 41.47549819946289 C 369.5487976074219 43.68109893798828 367.75439453125 45.47549819946289 365.5487976074219 45.47549819946289 Z" stroke="none"/>
      <path d="M 4.999969482421875 1.999996185302734 C 3.345794677734375 1.999996185302734 1.999969482421875 3.345798492431641 1.999969482421875 4.999996185302734 L 1.999969482421875 41.47549819946289 C 1.999969482421875 43.12969589233398 3.345794677734375 44.47549819946289 4.999969482421875 44.47549819946289 L 365.5487976074219 44.47549819946289 C 367.2029724121094 44.47549819946289 368.5487976074219 43.12969589233398 368.5487976074219 41.47549819946289 L 368.5487976074219 4.999996185302734 C 368.5487976074219 3.345798492431641 367.2029724121094 1.999996185302734 365.5487976074219 1.999996185302734 L 4.999969482421875 1.999996185302734 M 4.999969482421875 -3.814697265625e-06 L 365.5487976074219 -3.814697265625e-06 C 368.3101806640625 -3.814697265625e-06 370.5487976074219 2.238597869873047 370.5487976074219 4.999996185302734 L 370.5487976074219 41.47549819946289 C 370.5487976074219 44.23689651489258 368.3101806640625 46.47549819946289 365.5487976074219 46.47549819946289 L 4.999969482421875 46.47549819946289 C 2.23858642578125 46.47549819946289 -3.0517578125e-05 44.23689651489258 -3.0517578125e-05 41.47549819946289 L -3.0517578125e-05 4.999996185302734 C -3.0517578125e-05 2.238597869873047 2.23858642578125 -3.814697265625e-06 4.999969482421875 -3.814697265625e-06 Z" stroke="none" fill="#c1cdf5"/>
    </g>
    <g id="Trazado_838656" data-name="Trazado 838656" transform="translate(724.634 6826.868)" fill="#eaf2e1">
      <path d="M 295.2073059082031 45.97547912597656 L 4.999999046325684 45.97547912597656 C 2.518691301345825 45.97547912597656 0.4999991059303284 43.956787109375 0.4999991059303284 41.47547912597656 L 0.4999991059303284 5.000016212463379 C 0.4999991059303284 2.5187087059021 2.518691301345825 0.500016450881958 4.999999046325684 0.500016450881958 L 295.2073059082031 0.500016450881958 C 297.6886291503906 0.500016450881958 299.7073059082031 2.5187087059021 299.7073059082031 5.000016212463379 L 299.7073059082031 41.47547912597656 C 299.7073059082031 43.956787109375 297.6886291503906 45.97547912597656 295.2073059082031 45.97547912597656 Z" stroke="none"/>
      <path d="M 5 1.000015258789062 C 2.79437255859375 1.000015258789062 1 2.794399261474609 1 5.000015258789062 L 1 41.47547912597656 C 1 43.68109512329102 2.79437255859375 45.47547912597656 5 45.47547912597656 L 295.2073059082031 45.47547912597656 C 297.4129333496094 45.47547912597656 299.2073059082031 43.68109512329102 299.2073059082031 41.47547912597656 L 299.2073059082031 5.000015258789062 C 299.2073059082031 2.794399261474609 297.4129333496094 1.000015258789062 295.2073059082031 1.000015258789062 L 5 1.000015258789062 M 5 1.52587890625e-05 L 295.2073059082031 1.52587890625e-05 C 297.9687194824219 1.52587890625e-05 300.2073059082031 2.238555908203125 300.2073059082031 5.000015258789062 L 300.2073059082031 41.47547912597656 C 300.2073059082031 44.23690032958984 297.9687194824219 46.47547912597656 295.2073059082031 46.47547912597656 L 5 46.47547912597656 C 2.23858642578125 46.47547912597656 0 44.23690032958984 0 41.47547912597656 L 0 5.000015258789062 C 0 2.238555908203125 2.23858642578125 1.52587890625e-05 5 1.52587890625e-05 Z" stroke="none" fill="#cadeb4"/>
    </g>
    <path id="Trazado_838657" data-name="Trazado 838657" d="M5,0H199.744a5,5,0,0,1,5,5V41.475a5,5,0,0,1-5,5H5a5,5,0,0,1-5-5V5A5,5,0,0,1,5,0Z" transform="translate(1110.256 6826.868)" fill="#f9bcab"/>
    <g id="Trazado_838658" data-name="Trazado 838658" transform="translate(285 6839.429)" fill="#e6ebfb">
      <path d="M 233.6585388183594 45.47549819946289 L 5.000011920928955 45.47549819946289 C 2.794418096542358 45.47549819946289 1.000011801719666 43.68109130859375 1.000011801719666 41.47549819946289 L 1.000011801719666 4.999997138977051 C 1.000011801719666 2.794403553009033 2.794418096542358 0.9999971985816956 5.000011920928955 0.9999971985816956 L 233.6585388183594 0.9999971985816956 C 235.8641357421875 0.9999971985816956 237.6585388183594 2.794403553009033 237.6585388183594 4.999997138977051 L 237.6585388183594 41.47549819946289 C 237.6585388183594 43.68109130859375 235.8641357421875 45.47549819946289 233.6585388183594 45.47549819946289 Z" stroke="none"/>
      <path d="M 4.999984741210938 1.999996185302734 C 3.34576416015625 1.999996185302734 1.999984741210938 3.345779418945312 1.999984741210938 4.999996185302734 L 1.999984741210938 41.47549819946289 C 1.999984741210938 43.12971496582031 3.34576416015625 44.47549819946289 4.999984741210938 44.47549819946289 L 233.6585083007812 44.47549819946289 C 235.3127288818359 44.47549819946289 236.6585083007812 43.12971496582031 236.6585083007812 41.47549819946289 L 236.6585083007812 4.999996185302734 C 236.6585083007812 3.345779418945312 235.3127288818359 1.999996185302734 233.6585083007812 1.999996185302734 L 4.999984741210938 1.999996185302734 M 4.999984741210938 -3.814697265625e-06 L 233.6585083007812 -3.814697265625e-06 C 236.4199523925781 -3.814697265625e-06 238.6585083007812 2.238559722900391 238.6585083007812 4.999996185302734 L 238.6585083007812 41.47549819946289 C 238.6585083007812 44.23690414428711 236.4199523925781 46.47549819946289 233.6585083007812 46.47549819946289 L 4.999984741210938 46.47549819946289 C 2.238571166992188 46.47549819946289 -1.52587890625e-05 44.23690414428711 -1.52587890625e-05 41.47549819946289 L -1.52587890625e-05 4.999996185302734 C -1.52587890625e-05 2.238559722900391 2.238571166992188 -3.814697265625e-06 4.999984741210938 -3.814697265625e-06 Z" stroke="none" fill="#c1cdf5"/>
    </g>
    <path id="Trazado_838659" data-name="Trazado 838659" d="M5.722-2.241,9.378-12.8h1.846L6.478,0H4.983L.246-12.8H2.083ZM18.149,0a3.416,3.416,0,0,1-.229-1A3.628,3.628,0,0,1,15.214.176a3.357,3.357,0,0,1-2.307-.8,2.573,2.573,0,0,1-.9-2.017,2.688,2.688,0,0,1,1.129-2.307,5.325,5.325,0,0,1,3.177-.822h1.582v-.747a1.826,1.826,0,0,0-.51-1.358,2.049,2.049,0,0,0-1.5-.505,2.371,2.371,0,0,0-1.459.439,1.3,1.3,0,0,0-.589,1.063H12.2A2.244,2.244,0,0,1,12.7-8.249,3.449,3.449,0,0,1,14.076-9.3a4.613,4.613,0,0,1,1.9-.387,3.759,3.759,0,0,1,2.575.822A2.964,2.964,0,0,1,19.521-6.6v4.377a5.351,5.351,0,0,0,.334,2.083V0Zm-2.7-1.239a2.858,2.858,0,0,0,1.45-.4,2.392,2.392,0,0,0,.993-1.028V-4.614H16.62q-2.988,0-2.988,1.749a1.48,1.48,0,0,0,.51,1.2A1.959,1.959,0,0,0,15.451-1.239ZM23.836,0H22.21V-13.5h1.626Zm2.171-4.843a5.617,5.617,0,0,1,.549-2.514,4.1,4.1,0,0,1,1.529-1.723,4.163,4.163,0,0,1,2.237-.606,4.01,4.01,0,0,1,3.142,1.345,5.174,5.174,0,0,1,1.2,3.577v.114a5.666,5.666,0,0,1-.532,2.492A4.038,4.038,0,0,1,32.612-.439,4.211,4.211,0,0,1,30.34.176a4,4,0,0,1-3.133-1.345,5.147,5.147,0,0,1-1.2-3.56Zm1.635.193a4.068,4.068,0,0,0,.734,2.54,2.349,2.349,0,0,0,1.964.958,2.335,2.335,0,0,0,1.969-.971,4.449,4.449,0,0,0,.729-2.72A4.061,4.061,0,0,0,32.3-7.378a2.361,2.361,0,0,0-1.973-.971,2.335,2.335,0,0,0-1.942.958A4.416,4.416,0,0,0,27.642-4.649ZM41.3-8.051a4.873,4.873,0,0,0-.8-.062A2.143,2.143,0,0,0,38.329-6.75V0H36.7V-9.51h1.582l.026,1.1a2.532,2.532,0,0,1,2.268-1.274,1.661,1.661,0,0,1,.721.123ZM48.313,0a3.416,3.416,0,0,1-.229-1A3.628,3.628,0,0,1,45.378.176a3.357,3.357,0,0,1-2.307-.8,2.573,2.573,0,0,1-.9-2.017A2.688,2.688,0,0,1,43.3-4.944a5.325,5.325,0,0,1,3.177-.822h1.582v-.747a1.826,1.826,0,0,0-.51-1.358,2.049,2.049,0,0,0-1.5-.505,2.371,2.371,0,0,0-1.459.439A1.3,1.3,0,0,0,44-6.873H42.363a2.244,2.244,0,0,1,.505-1.375A3.449,3.449,0,0,1,44.24-9.3a4.613,4.613,0,0,1,1.9-.387,3.759,3.759,0,0,1,2.575.822A2.964,2.964,0,0,1,49.685-6.6v4.377a5.351,5.351,0,0,0,.334,2.083V0Zm-2.7-1.239a2.858,2.858,0,0,0,1.45-.4,2.392,2.392,0,0,0,.993-1.028V-4.614H46.784q-2.988,0-2.988,1.749a1.48,1.48,0,0,0,.51,1.2A1.959,1.959,0,0,0,45.615-1.239Zm10.433.088a2.342,2.342,0,0,0,1.521-.527A1.855,1.855,0,0,0,58.289-3h1.538a2.949,2.949,0,0,1-.562,1.556A3.7,3.7,0,0,1,57.88-.264a3.994,3.994,0,0,1-1.833.439,3.918,3.918,0,0,1-3.089-1.3,5.163,5.163,0,0,1-1.147-3.546v-.272a5.725,5.725,0,0,1,.51-2.47,3.883,3.883,0,0,1,1.463-1.679,4.157,4.157,0,0,1,2.254-.6,3.814,3.814,0,0,1,2.659.958A3.424,3.424,0,0,1,59.827-6.24H58.289a2.241,2.241,0,0,0-.7-1.516,2.174,2.174,0,0,0-1.551-.593,2.276,2.276,0,0,0-1.92.892,4.19,4.19,0,0,0-.681,2.58v.308a4.106,4.106,0,0,0,.677,2.531A2.287,2.287,0,0,0,56.048-1.151ZM63.422,0H61.8V-9.51h1.626ZM61.664-12.032a.971.971,0,0,1,.242-.668.907.907,0,0,1,.716-.272.922.922,0,0,1,.721.272.96.96,0,0,1,.246.668.929.929,0,0,1-.246.659.938.938,0,0,1-.721.264.924.924,0,0,1-.716-.264A.938.938,0,0,1,61.664-12.032Zm3.929,7.189a5.617,5.617,0,0,1,.549-2.514,4.1,4.1,0,0,1,1.529-1.723,4.163,4.163,0,0,1,2.237-.606A4.01,4.01,0,0,1,73.05-8.341a5.174,5.174,0,0,1,1.2,3.577v.114a5.666,5.666,0,0,1-.532,2.492A4.038,4.038,0,0,1,72.2-.439a4.211,4.211,0,0,1-2.272.615,4,4,0,0,1-3.133-1.345,5.147,5.147,0,0,1-1.2-3.56Zm1.635.193a4.068,4.068,0,0,0,.734,2.54,2.349,2.349,0,0,0,1.964.958,2.335,2.335,0,0,0,1.969-.971,4.449,4.449,0,0,0,.729-2.72,4.061,4.061,0,0,0-.743-2.536,2.361,2.361,0,0,0-1.973-.971,2.335,2.335,0,0,0-1.942.958A4.416,4.416,0,0,0,67.228-4.649ZM70.646-13.5h1.969L70.26-10.916l-1.31,0Zm7.181,3.99.053,1.2a3.465,3.465,0,0,1,2.848-1.371q3.015,0,3.041,3.4V0H82.143V-6.293a2.189,2.189,0,0,0-.47-1.521,1.884,1.884,0,0,0-1.437-.492,2.347,2.347,0,0,0-1.389.422,2.865,2.865,0,0,0-.932,1.107V0H76.289V-9.51ZM90.615-5.194a13.589,13.589,0,0,1,.532-3.814,11.081,11.081,0,0,1,1.586-3.322,6.749,6.749,0,0,1,2.188-2.109l.334,1.072a7,7,0,0,0-2.1,3.006,13.031,13.031,0,0,0-.9,4.526l-.009.747A13.1,13.1,0,0,0,93.48.8a7.033,7.033,0,0,0,1.775,2.338l-.334.993a6.966,6.966,0,0,1-2.232-2.18A12.217,12.217,0,0,1,90.615-5.194Zm10.16,5.37a4.155,4.155,0,0,1-3.146-1.27,4.714,4.714,0,0,1-1.213-3.4v-.3a5.707,5.707,0,0,1,.541-2.527,4.217,4.217,0,0,1,1.512-1.74,3.8,3.8,0,0,1,2.1-.628,3.562,3.562,0,0,1,2.883,1.222,5.289,5.289,0,0,1,1.028,3.5v.677H98.042a3.38,3.38,0,0,0,.822,2.272,2.583,2.583,0,0,0,2,.866,2.832,2.832,0,0,0,1.459-.352,3.666,3.666,0,0,0,1.046-.932l.993.773A3.993,3.993,0,0,1,100.775.176Zm-.2-8.525a2.169,2.169,0,0,0-1.652.716,3.482,3.482,0,0,0-.826,2.008h4.764v-.123a3.1,3.1,0,0,0-.668-1.92A2.042,2.042,0,0,0,100.573-8.35Zm8.815,6.144,2.355-7.3h1.661L110,0h-1.239l-3.445-9.51h1.661ZM120.709,0a3.416,3.416,0,0,1-.229-1A3.628,3.628,0,0,1,117.773.176a3.357,3.357,0,0,1-2.307-.8,2.573,2.573,0,0,1-.9-2.017,2.688,2.688,0,0,1,1.129-2.307,5.325,5.325,0,0,1,3.177-.822h1.582v-.747a1.826,1.826,0,0,0-.51-1.358,2.049,2.049,0,0,0-1.5-.505,2.371,2.371,0,0,0-1.459.439,1.3,1.3,0,0,0-.589,1.063h-1.635a2.244,2.244,0,0,1,.505-1.375,3.449,3.449,0,0,1,1.371-1.05,4.613,4.613,0,0,1,1.9-.387,3.759,3.759,0,0,1,2.575.822A2.964,2.964,0,0,1,122.08-6.6v4.377a5.351,5.351,0,0,0,.334,2.083V0Zm-2.7-1.239a2.858,2.858,0,0,0,1.45-.4,2.392,2.392,0,0,0,.993-1.028V-4.614H119.18q-2.988,0-2.988,1.749a1.48,1.48,0,0,0,.51,1.2A1.959,1.959,0,0,0,118.011-1.239ZM126.4,0H124.77V-13.5H126.4Zm8.473-.94A3.454,3.454,0,0,1,132.082.176a2.956,2.956,0,0,1-2.316-.883,3.823,3.823,0,0,1-.8-2.615V-9.51h1.626v6.144q0,2.162,1.758,2.162a2.434,2.434,0,0,0,2.479-1.389V-9.51h1.626V0H134.9Zm9.923.94a3.416,3.416,0,0,1-.229-1A3.628,3.628,0,0,1,141.855.176a3.357,3.357,0,0,1-2.307-.8,2.573,2.573,0,0,1-.9-2.017,2.688,2.688,0,0,1,1.129-2.307,5.325,5.325,0,0,1,3.177-.822h1.582v-.747a1.826,1.826,0,0,0-.51-1.358,2.049,2.049,0,0,0-1.5-.505,2.371,2.371,0,0,0-1.459.439,1.3,1.3,0,0,0-.589,1.063h-1.635a2.244,2.244,0,0,1,.505-1.375,3.449,3.449,0,0,1,1.371-1.05,4.613,4.613,0,0,1,1.9-.387,3.759,3.759,0,0,1,2.575.822,2.964,2.964,0,0,1,.967,2.263v4.377A5.351,5.351,0,0,0,146.5-.141V0Zm-2.7-1.239a2.858,2.858,0,0,0,1.45-.4,2.392,2.392,0,0,0,.993-1.028V-4.614h-1.274q-2.988,0-2.988,1.749a1.48,1.48,0,0,0,.51,1.2A1.959,1.959,0,0,0,142.093-1.239Zm10.433.088a2.342,2.342,0,0,0,1.521-.527A1.855,1.855,0,0,0,154.767-3H156.3a2.949,2.949,0,0,1-.562,1.556,3.7,3.7,0,0,1-1.384,1.178,3.994,3.994,0,0,1-1.833.439,3.918,3.918,0,0,1-3.089-1.3,5.163,5.163,0,0,1-1.147-3.546v-.272a5.725,5.725,0,0,1,.51-2.47,3.883,3.883,0,0,1,1.463-1.679,4.157,4.157,0,0,1,2.254-.6,3.814,3.814,0,0,1,2.659.958A3.424,3.424,0,0,1,156.3-6.24h-1.538a2.241,2.241,0,0,0-.7-1.516,2.174,2.174,0,0,0-1.551-.593,2.276,2.276,0,0,0-1.92.892,4.19,4.19,0,0,0-.681,2.58v.308a4.106,4.106,0,0,0,.677,2.531A2.287,2.287,0,0,0,152.525-1.151ZM159.9,0h-1.626V-9.51H159.9Zm-1.758-12.032a.971.971,0,0,1,.242-.668.907.907,0,0,1,.716-.272.922.922,0,0,1,.721.272.96.96,0,0,1,.246.668.929.929,0,0,1-.246.659.938.938,0,0,1-.721.264.924.924,0,0,1-.716-.264A.938.938,0,0,1,158.142-12.032Zm3.929,7.189a5.617,5.617,0,0,1,.549-2.514,4.1,4.1,0,0,1,1.529-1.723,4.163,4.163,0,0,1,2.237-.606,4.01,4.01,0,0,1,3.142,1.345,5.174,5.174,0,0,1,1.2,3.577v.114a5.666,5.666,0,0,1-.532,2.492,4.038,4.038,0,0,1-1.521,1.718A4.211,4.211,0,0,1,166.4.176a4,4,0,0,1-3.133-1.345,5.147,5.147,0,0,1-1.2-3.56Zm1.635.193a4.068,4.068,0,0,0,.734,2.54,2.349,2.349,0,0,0,1.964.958,2.335,2.335,0,0,0,1.969-.971,4.449,4.449,0,0,0,.729-2.72,4.061,4.061,0,0,0-.743-2.536,2.361,2.361,0,0,0-1.973-.971,2.335,2.335,0,0,0-1.942.958A4.416,4.416,0,0,0,163.705-4.649Zm3.419-8.851h1.969l-2.355,2.584-1.31,0ZM174.3-9.51l.053,1.2a3.465,3.465,0,0,1,2.848-1.371q3.015,0,3.041,3.4V0H178.62V-6.293a2.189,2.189,0,0,0-.47-1.521,1.884,1.884,0,0,0-1.437-.492,2.347,2.347,0,0,0-1.389.422,2.865,2.865,0,0,0-.932,1.107V0h-1.626V-9.51Zm12.146,4.4a13.6,13.6,0,0,1-.514,3.757,11.11,11.11,0,0,1-1.573,3.318,6.893,6.893,0,0,1-2.219,2.162l-.343-.993a7.066,7.066,0,0,0,2.175-3.221,13.935,13.935,0,0,0,.839-4.847v-.281a14.469,14.469,0,0,0-.387-3.432,11.583,11.583,0,0,0-1.077-2.843,6.567,6.567,0,0,0-1.551-1.96l.343-.993a6.866,6.866,0,0,1,2.21,2.145,11.134,11.134,0,0,1,1.573,3.313A13.909,13.909,0,0,1,186.451-5.106Z" transform="translate(301.329 6808.185)" fill="#12263f"/>
    <path id="Trazado_838660" data-name="Trazado 838660" d="M10.9-4.061A4.708,4.708,0,0,1,9.4-.927,4.911,4.911,0,0,1,6.047.176,4.509,4.509,0,0,1,2.413-1.45,6.542,6.542,0,0,1,1.046-5.8v-1.23a7.291,7.291,0,0,1,.637-3.138,4.76,4.76,0,0,1,1.806-2.079A5.029,5.029,0,0,1,6.2-12.973a4.624,4.624,0,0,1,3.27,1.138A4.765,4.765,0,0,1,10.9-8.684H9.2a3.677,3.677,0,0,0-.954-2.222A2.885,2.885,0,0,0,6.2-11.593a3.019,3.019,0,0,0-2.536,1.2,5.492,5.492,0,0,0-.918,3.4v1.24a5.645,5.645,0,0,0,.87,3.316A2.812,2.812,0,0,0,6.047-1.2,3.247,3.247,0,0,0,8.2-1.841a3.536,3.536,0,0,0,1-2.219Zm1.617-.782a5.617,5.617,0,0,1,.549-2.514,4.1,4.1,0,0,1,1.529-1.723,4.163,4.163,0,0,1,2.237-.606,4.01,4.01,0,0,1,3.142,1.345,5.174,5.174,0,0,1,1.2,3.577v.114a5.666,5.666,0,0,1-.532,2.492A4.038,4.038,0,0,1,19.121-.439a4.211,4.211,0,0,1-2.272.615,4,4,0,0,1-3.133-1.345,5.147,5.147,0,0,1-1.2-3.56Zm1.635.193a4.068,4.068,0,0,0,.734,2.54,2.349,2.349,0,0,0,1.964.958,2.335,2.335,0,0,0,1.969-.971,4.449,4.449,0,0,0,.729-2.72A4.061,4.061,0,0,0,18.8-7.378a2.361,2.361,0,0,0-1.973-.971,2.335,2.335,0,0,0-1.942.958A4.416,4.416,0,0,0,14.15-4.649ZM24.741-9.51l.044,1.055a3.512,3.512,0,0,1,2.821-1.23,2.719,2.719,0,0,1,2.716,1.529,3.6,3.6,0,0,1,1.235-1.107,3.647,3.647,0,0,1,1.8-.422q3.129,0,3.182,3.313V0H34.91V-6.275A2.184,2.184,0,0,0,34.444-7.8a2.051,2.051,0,0,0-1.564-.505,2.156,2.156,0,0,0-1.5.541,2.193,2.193,0,0,0-.694,1.455V0H29.048V-6.231a1.814,1.814,0,0,0-2.03-2.074,2.175,2.175,0,0,0-2.188,1.362V0H23.2V-9.51ZM44.859-.94A3.454,3.454,0,0,1,42.073.176a2.956,2.956,0,0,1-2.316-.883,3.823,3.823,0,0,1-.8-2.615V-9.51h1.626v6.144q0,2.162,1.758,2.162a2.434,2.434,0,0,0,2.479-1.389V-9.51h1.626V0H44.895Zm5.59-8.569.053,1.2A3.465,3.465,0,0,1,53.35-9.686q3.015,0,3.041,3.4V0H54.765V-6.293a2.189,2.189,0,0,0-.47-1.521,1.884,1.884,0,0,0-1.437-.492,2.347,2.347,0,0,0-1.389.422,2.865,2.865,0,0,0-.932,1.107V0H48.911V-9.51ZM60.609,0H58.983V-9.51h1.626ZM58.852-12.032a.971.971,0,0,1,.242-.668.907.907,0,0,1,.716-.272.922.922,0,0,1,.721.272.96.96,0,0,1,.246.668.929.929,0,0,1-.246.659.938.938,0,0,1-.721.264.924.924,0,0,1-.716-.264A.938.938,0,0,1,58.852-12.032ZM67.025-1.151a2.342,2.342,0,0,0,1.521-.527A1.855,1.855,0,0,0,69.267-3H70.8a2.949,2.949,0,0,1-.562,1.556A3.7,3.7,0,0,1,68.858-.264a3.994,3.994,0,0,1-1.833.439,3.918,3.918,0,0,1-3.089-1.3,5.163,5.163,0,0,1-1.147-3.546v-.272a5.725,5.725,0,0,1,.51-2.47,3.883,3.883,0,0,1,1.463-1.679,4.157,4.157,0,0,1,2.254-.6,3.814,3.814,0,0,1,2.659.958A3.424,3.424,0,0,1,70.8-6.24H69.267a2.241,2.241,0,0,0-.7-1.516,2.174,2.174,0,0,0-1.551-.593,2.276,2.276,0,0,0-1.92.892,4.19,4.19,0,0,0-.681,2.58v.308a4.106,4.106,0,0,0,.677,2.531A2.287,2.287,0,0,0,67.025-1.151ZM78.5,0a3.416,3.416,0,0,1-.229-1A3.628,3.628,0,0,1,75.568.176a3.357,3.357,0,0,1-2.307-.8,2.573,2.573,0,0,1-.9-2.017A2.688,2.688,0,0,1,73.49-4.944a5.325,5.325,0,0,1,3.177-.822h1.582v-.747a1.826,1.826,0,0,0-.51-1.358,2.049,2.049,0,0,0-1.5-.505,2.371,2.371,0,0,0-1.459.439,1.3,1.3,0,0,0-.589,1.063H72.554a2.244,2.244,0,0,1,.505-1.375A3.449,3.449,0,0,1,74.43-9.3a4.613,4.613,0,0,1,1.9-.387,3.759,3.759,0,0,1,2.575.822A2.964,2.964,0,0,1,79.875-6.6v4.377a5.351,5.351,0,0,0,.334,2.083V0Zm-2.7-1.239a2.858,2.858,0,0,0,1.45-.4,2.392,2.392,0,0,0,.993-1.028V-4.614H76.975q-2.988,0-2.988,1.749a1.48,1.48,0,0,0,.51,1.2A1.959,1.959,0,0,0,75.806-1.239Zm10.433.088a2.342,2.342,0,0,0,1.521-.527A1.855,1.855,0,0,0,88.479-3h1.538a2.949,2.949,0,0,1-.562,1.556A3.7,3.7,0,0,1,88.071-.264a3.994,3.994,0,0,1-1.833.439,3.918,3.918,0,0,1-3.089-1.3A5.163,5.163,0,0,1,82-4.667v-.272a5.725,5.725,0,0,1,.51-2.47,3.883,3.883,0,0,1,1.463-1.679,4.157,4.157,0,0,1,2.254-.6,3.814,3.814,0,0,1,2.659.958A3.424,3.424,0,0,1,90.018-6.24H88.479a2.241,2.241,0,0,0-.7-1.516,2.174,2.174,0,0,0-1.551-.593,2.276,2.276,0,0,0-1.92.892,4.19,4.19,0,0,0-.681,2.58v.308A4.106,4.106,0,0,0,84.3-2.039,2.287,2.287,0,0,0,86.238-1.151ZM93.612,0H91.986V-9.51h1.626ZM91.854-12.032A.971.971,0,0,1,92.1-12.7a.907.907,0,0,1,.716-.272.922.922,0,0,1,.721.272.96.96,0,0,1,.246.668.929.929,0,0,1-.246.659.938.938,0,0,1-.721.264.924.924,0,0,1-.716-.264A.938.938,0,0,1,91.854-12.032Zm3.929,7.189a5.617,5.617,0,0,1,.549-2.514,4.1,4.1,0,0,1,1.529-1.723,4.163,4.163,0,0,1,2.237-.606,4.01,4.01,0,0,1,3.142,1.345,5.174,5.174,0,0,1,1.2,3.577v.114a5.666,5.666,0,0,1-.532,2.492,4.038,4.038,0,0,1-1.521,1.718,4.211,4.211,0,0,1-2.272.615,4,4,0,0,1-3.133-1.345,5.147,5.147,0,0,1-1.2-3.56Zm1.635.193a4.068,4.068,0,0,0,.734,2.54,2.349,2.349,0,0,0,1.964.958,2.335,2.335,0,0,0,1.969-.971,4.449,4.449,0,0,0,.729-2.72,4.061,4.061,0,0,0-.743-2.536A2.361,2.361,0,0,0,100.1-8.35a2.335,2.335,0,0,0-1.942.958A4.416,4.416,0,0,0,97.418-4.649Zm3.419-8.851h1.969l-2.355,2.584-1.31,0Zm7.181,3.99.053,1.2a3.465,3.465,0,0,1,2.848-1.371q3.015,0,3.041,3.4V0h-1.626V-6.293a2.189,2.189,0,0,0-.47-1.521,1.884,1.884,0,0,0-1.437-.492,2.347,2.347,0,0,0-1.389.422,2.865,2.865,0,0,0-.932,1.107V0h-1.626V-9.51Zm12.454,4.676a5.571,5.571,0,0,1,1.037-3.52,3.28,3.28,0,0,1,2.716-1.332,3.3,3.3,0,0,1,2.646,1.143V-13.5H128.5V0H127l-.079-1.02a3.311,3.311,0,0,1-2.716,1.2,3.248,3.248,0,0,1-2.694-1.354,5.634,5.634,0,0,1-1.042-3.533Zm1.626.185a4.218,4.218,0,0,0,.668,2.531,2.159,2.159,0,0,0,1.846.914,2.372,2.372,0,0,0,2.259-1.389V-6.961a2.39,2.39,0,0,0-2.241-1.345,2.17,2.17,0,0,0-1.863.923A4.644,4.644,0,0,0,122.1-4.649ZM134.965.176a4.155,4.155,0,0,1-3.146-1.27,4.714,4.714,0,0,1-1.213-3.4v-.3a5.707,5.707,0,0,1,.541-2.527,4.217,4.217,0,0,1,1.512-1.74,3.8,3.8,0,0,1,2.1-.628,3.562,3.562,0,0,1,2.883,1.222,5.289,5.289,0,0,1,1.028,3.5v.677h-6.442a3.38,3.38,0,0,0,.822,2.272,2.583,2.583,0,0,0,2,.866,2.832,2.832,0,0,0,1.459-.352,3.666,3.666,0,0,0,1.046-.932l.993.773A3.993,3.993,0,0,1,134.965.176Zm-.2-8.525a2.169,2.169,0,0,0-1.652.716,3.482,3.482,0,0,0-.826,2.008h4.764v-.123a3.1,3.1,0,0,0-.668-1.92A2.042,2.042,0,0,0,134.763-8.35ZM142.321,0H140.7V-13.5h1.626Zm11.654-8.051a4.873,4.873,0,0,0-.8-.062A2.143,2.143,0,0,0,151-6.75V0h-1.626V-9.51h1.582l.026,1.1a2.532,2.532,0,0,1,2.268-1.274,1.661,1.661,0,0,1,.721.123ZM157.236,0H155.61V-9.51h1.626Zm-1.758-12.032a.971.971,0,0,1,.242-.668.907.907,0,0,1,.716-.272.922.922,0,0,1,.721.272.96.96,0,0,1,.246.668.929.929,0,0,1-.246.659.938.938,0,0,1-.721.264.924.924,0,0,1-.716-.264A.938.938,0,0,1,155.479-12.032ZM163.784.176a4.155,4.155,0,0,1-3.146-1.27,4.714,4.714,0,0,1-1.213-3.4v-.3a5.707,5.707,0,0,1,.541-2.527,4.217,4.217,0,0,1,1.512-1.74,3.8,3.8,0,0,1,2.1-.628,3.562,3.562,0,0,1,2.883,1.222,5.289,5.289,0,0,1,1.028,3.5v.677h-6.442a3.38,3.38,0,0,0,.822,2.272,2.583,2.583,0,0,0,2,.866,2.832,2.832,0,0,0,1.459-.352,3.666,3.666,0,0,0,1.046-.932l.993.773A3.993,3.993,0,0,1,163.784.176Zm-.2-8.525a2.169,2.169,0,0,0-1.652.716,3.482,3.482,0,0,0-.826,2.008h4.764v-.123a3.1,3.1,0,0,0-.668-1.92A2.042,2.042,0,0,0,163.582-8.35Zm11.329,5.827a1.2,1.2,0,0,0-.5-1.024,4.78,4.78,0,0,0-1.731-.628,8.186,8.186,0,0,1-1.96-.633,2.788,2.788,0,0,1-1.072-.879A2.1,2.1,0,0,1,169.3-6.9a2.467,2.467,0,0,1,.989-1.978,3.861,3.861,0,0,1,2.527-.809,3.974,3.974,0,0,1,2.624.835,2.652,2.652,0,0,1,1.006,2.136h-1.635a1.468,1.468,0,0,0-.567-1.151,2.124,2.124,0,0,0-1.428-.483,2.223,2.223,0,0,0-1.389.387,1.217,1.217,0,0,0-.5,1.011.986.986,0,0,0,.466.888,5.731,5.731,0,0,0,1.683.571,8.77,8.77,0,0,1,1.973.65,2.878,2.878,0,0,1,1.121.91,2.237,2.237,0,0,1,.365,1.3,2.434,2.434,0,0,1-1.02,2.043,4.277,4.277,0,0,1-2.646.769,4.789,4.789,0,0,1-2.021-.4,3.288,3.288,0,0,1-1.375-1.129,2.722,2.722,0,0,1-.5-1.569H170.6a1.683,1.683,0,0,0,.655,1.3,2.54,2.54,0,0,0,1.613.479,2.622,2.622,0,0,0,1.481-.374A1.148,1.148,0,0,0,174.911-2.522Zm3.357-2.312A5.589,5.589,0,0,1,179.3-8.372a3.289,3.289,0,0,1,2.725-1.314,3.271,3.271,0,0,1,2.716,1.23l.079-1.055H186.3V-.229a3.869,3.869,0,0,1-1.094,2.909,4.038,4.038,0,0,1-2.94,1.063,4.891,4.891,0,0,1-2.013-.439,3.465,3.465,0,0,1-1.5-1.2l.844-.976a3.18,3.18,0,0,0,2.558,1.292A2.491,2.491,0,0,0,184,1.749a2.553,2.553,0,0,0,.664-1.881V-.949A3.342,3.342,0,0,1,182,.176a3.248,3.248,0,0,1-2.7-1.345A5.876,5.876,0,0,1,178.269-4.834Zm1.635.185a4.264,4.264,0,0,0,.659,2.527,2.142,2.142,0,0,0,1.846.918,2.382,2.382,0,0,0,2.259-1.4V-6.943a2.41,2.41,0,0,0-2.241-1.362,2.161,2.161,0,0,0-1.854.923A4.644,4.644,0,0,0,179.9-4.649Zm8.42-.193a5.617,5.617,0,0,1,.549-2.514A4.1,4.1,0,0,1,190.4-9.079a4.163,4.163,0,0,1,2.237-.606,4.01,4.01,0,0,1,3.142,1.345,5.174,5.174,0,0,1,1.2,3.577v.114a5.666,5.666,0,0,1-.532,2.492,4.038,4.038,0,0,1-1.521,1.718,4.211,4.211,0,0,1-2.272.615,4,4,0,0,1-3.133-1.345,5.147,5.147,0,0,1-1.2-3.56Zm1.635.193a4.068,4.068,0,0,0,.734,2.54,2.349,2.349,0,0,0,1.964.958,2.335,2.335,0,0,0,1.969-.971,4.449,4.449,0,0,0,.729-2.72,4.061,4.061,0,0,0-.743-2.536,2.361,2.361,0,0,0-1.973-.971,2.335,2.335,0,0,0-1.942.958A4.416,4.416,0,0,0,189.958-4.649Zm13.122-.185a5.571,5.571,0,0,1,1.037-3.52,3.28,3.28,0,0,1,2.716-1.332,3.3,3.3,0,0,1,2.646,1.143V-13.5H211.1V0H209.61l-.079-1.02a3.311,3.311,0,0,1-2.716,1.2,3.248,3.248,0,0,1-2.694-1.354,5.634,5.634,0,0,1-1.042-3.533Zm1.626.185a4.218,4.218,0,0,0,.668,2.531,2.159,2.159,0,0,0,1.846.914,2.372,2.372,0,0,0,2.259-1.389V-6.961a2.39,2.39,0,0,0-2.241-1.345,2.17,2.17,0,0,0-1.863.923A4.644,4.644,0,0,0,204.706-4.649ZM217.573.176a4.155,4.155,0,0,1-3.146-1.27,4.714,4.714,0,0,1-1.213-3.4v-.3a5.707,5.707,0,0,1,.541-2.527,4.217,4.217,0,0,1,1.512-1.74,3.8,3.8,0,0,1,2.1-.628,3.562,3.562,0,0,1,2.883,1.222,5.289,5.289,0,0,1,1.028,3.5v.677H214.84a3.38,3.38,0,0,0,.822,2.272,2.583,2.583,0,0,0,2,.866A2.832,2.832,0,0,0,219.12-1.5a3.666,3.666,0,0,0,1.046-.932l.993.773A3.993,3.993,0,0,1,217.573.176Zm-.2-8.525a2.169,2.169,0,0,0-1.652.716,3.482,3.482,0,0,0-.826,2.008h4.764v-.123a3.1,3.1,0,0,0-.668-1.92A2.042,2.042,0,0,0,217.371-8.35Zm8-3.463v2.3h1.775v1.257h-1.775v5.9a1.32,1.32,0,0,0,.237.858,1,1,0,0,0,.809.286,3.937,3.937,0,0,0,.773-.105V0a4.742,4.742,0,0,1-1.248.175A2.025,2.025,0,0,1,224.3-.483a2.832,2.832,0,0,1-.554-1.872v-5.9h-1.731V-9.51h1.731v-2.3ZM232.989.176a4.155,4.155,0,0,1-3.146-1.27,4.714,4.714,0,0,1-1.213-3.4v-.3a5.707,5.707,0,0,1,.541-2.527,4.217,4.217,0,0,1,1.512-1.74,3.8,3.8,0,0,1,2.1-.628,3.562,3.562,0,0,1,2.883,1.222,5.289,5.289,0,0,1,1.028,3.5v.677h-6.442a3.38,3.38,0,0,0,.822,2.272,2.583,2.583,0,0,0,2,.866,2.832,2.832,0,0,0,1.459-.352,3.666,3.666,0,0,0,1.046-.932l.993.773A3.993,3.993,0,0,1,232.989.176Zm-.2-8.525a2.169,2.169,0,0,0-1.652.716,3.482,3.482,0,0,0-.826,2.008h4.764v-.123a3.1,3.1,0,0,0-.668-1.92A2.042,2.042,0,0,0,232.787-8.35Zm9.606,7.2a2.342,2.342,0,0,0,1.521-.527A1.855,1.855,0,0,0,244.635-3h1.538a2.949,2.949,0,0,1-.562,1.556,3.7,3.7,0,0,1-1.384,1.178,3.994,3.994,0,0,1-1.833.439,3.918,3.918,0,0,1-3.089-1.3,5.163,5.163,0,0,1-1.147-3.546v-.272a5.725,5.725,0,0,1,.51-2.47,3.883,3.883,0,0,1,1.463-1.679,4.157,4.157,0,0,1,2.254-.6,3.814,3.814,0,0,1,2.659.958,3.424,3.424,0,0,1,1.129,2.487h-1.538a2.241,2.241,0,0,0-.7-1.516,2.174,2.174,0,0,0-1.551-.593,2.276,2.276,0,0,0-1.92.892,4.19,4.19,0,0,0-.681,2.58v.308a4.106,4.106,0,0,0,.677,2.531A2.287,2.287,0,0,0,242.394-1.151Zm7.813-10.661v2.3h1.775v1.257h-1.775v5.9a1.32,1.32,0,0,0,.237.858,1,1,0,0,0,.809.286,3.937,3.937,0,0,0,.773-.105V0a4.742,4.742,0,0,1-1.248.175,2.025,2.025,0,0,1-1.644-.659,2.832,2.832,0,0,1-.554-1.872v-5.9H246.85V-9.51h1.731v-2.3ZM259.752,0a3.416,3.416,0,0,1-.229-1A3.628,3.628,0,0,1,256.816.176a3.357,3.357,0,0,1-2.307-.8,2.573,2.573,0,0,1-.9-2.017,2.688,2.688,0,0,1,1.129-2.307,5.325,5.325,0,0,1,3.177-.822H259.5v-.747a1.826,1.826,0,0,0-.51-1.358,2.049,2.049,0,0,0-1.5-.505,2.371,2.371,0,0,0-1.459.439,1.3,1.3,0,0,0-.589,1.063H253.8a2.244,2.244,0,0,1,.505-1.375,3.449,3.449,0,0,1,1.371-1.05,4.613,4.613,0,0,1,1.9-.387,3.759,3.759,0,0,1,2.575.822,2.964,2.964,0,0,1,.967,2.263v4.377a5.351,5.351,0,0,0,.334,2.083V0Zm-2.7-1.239a2.858,2.858,0,0,0,1.45-.4,2.392,2.392,0,0,0,.993-1.028V-4.614h-1.274q-2.988,0-2.988,1.749a1.48,1.48,0,0,0,.51,1.2A1.959,1.959,0,0,0,257.054-1.239Zm6.223-3.595a5.571,5.571,0,0,1,1.037-3.52,3.28,3.28,0,0,1,2.716-1.332,3.3,3.3,0,0,1,2.646,1.143V-13.5H271.3V0h-1.494l-.079-1.02a3.311,3.311,0,0,1-2.716,1.2,3.248,3.248,0,0,1-2.694-1.354,5.634,5.634,0,0,1-1.042-3.533Zm1.626.185a4.218,4.218,0,0,0,.668,2.531,2.159,2.159,0,0,0,1.846.914,2.372,2.372,0,0,0,2.259-1.389V-6.961a2.39,2.39,0,0,0-2.241-1.345,2.17,2.17,0,0,0-1.863.923A4.644,4.644,0,0,0,264.9-4.649Zm8.49-.193a5.617,5.617,0,0,1,.549-2.514,4.1,4.1,0,0,1,1.529-1.723,4.163,4.163,0,0,1,2.237-.606,4.01,4.01,0,0,1,3.142,1.345,5.174,5.174,0,0,1,1.2,3.577v.114a5.666,5.666,0,0,1-.532,2.492A4.038,4.038,0,0,1,280-.439a4.211,4.211,0,0,1-2.272.615,4,4,0,0,1-3.133-1.345,5.147,5.147,0,0,1-1.2-3.56Zm1.635.193a4.068,4.068,0,0,0,.734,2.54,2.349,2.349,0,0,0,1.964.958,2.335,2.335,0,0,0,1.969-.971,4.449,4.449,0,0,0,.729-2.72,4.061,4.061,0,0,0-.743-2.536,2.361,2.361,0,0,0-1.973-.971,2.335,2.335,0,0,0-1.942.958A4.416,4.416,0,0,0,275.027-4.649Z" transform="translate(301.329 6928.77)" fill="#12263f"/>
    <path id="Trazado_838661" data-name="Trazado 838661" d="M5.256-5.7A7.935,7.935,0,0,1,2.1-7.238a2.93,2.93,0,0,1-.989-2.246,3.1,3.1,0,0,1,1.208-2.5,4.8,4.8,0,0,1,3.142-.989,5.243,5.243,0,0,1,2.351.51,3.866,3.866,0,0,1,1.6,1.406A3.6,3.6,0,0,1,9.976-9.1h-1.7a2.34,2.34,0,0,0-.738-1.83,3,3,0,0,0-2.083-.666,3.074,3.074,0,0,0-1.947.55,1.836,1.836,0,0,0-.7,1.528A1.652,1.652,0,0,0,3.476-8.19,6.509,6.509,0,0,0,5.735-7.2a10.481,10.481,0,0,1,2.5.99A3.788,3.788,0,0,1,9.567-4.948,3.219,3.219,0,0,1,10-3.252,2.99,2.99,0,0,1,8.789-.76,5.171,5.171,0,0,1,5.546.176,6.015,6.015,0,0,1,3.085-.33,4.142,4.142,0,0,1,1.323-1.714a3.378,3.378,0,0,1-.62-2H2.4a2.2,2.2,0,0,0,.857,1.833,3.608,3.608,0,0,0,2.29.672,3.317,3.317,0,0,0,2.048-.545,1.77,1.77,0,0,0,.712-1.485,1.738,1.738,0,0,0-.659-1.455A7.6,7.6,0,0,0,5.256-5.7Zm10.6,5.88a4.155,4.155,0,0,1-3.146-1.27,4.714,4.714,0,0,1-1.213-3.4v-.3a5.707,5.707,0,0,1,.541-2.527,4.217,4.217,0,0,1,1.512-1.74,3.8,3.8,0,0,1,2.1-.628,3.562,3.562,0,0,1,2.883,1.222,5.289,5.289,0,0,1,1.028,3.5v.677H13.122a3.38,3.38,0,0,0,.822,2.272,2.583,2.583,0,0,0,2,.866A2.832,2.832,0,0,0,17.4-1.5a3.666,3.666,0,0,0,1.046-.932l.993.773A3.993,3.993,0,0,1,15.855.176Zm-.2-8.525A2.169,2.169,0,0,0,14-7.633a3.482,3.482,0,0,0-.826,2.008h4.764v-.123a3.1,3.1,0,0,0-.668-1.92A2.042,2.042,0,0,0,15.653-8.35ZM31.772,0a3.416,3.416,0,0,1-.229-1A3.628,3.628,0,0,1,28.837.176a3.357,3.357,0,0,1-2.307-.8,2.573,2.573,0,0,1-.9-2.017,2.688,2.688,0,0,1,1.129-2.307,5.325,5.325,0,0,1,3.177-.822h1.582v-.747a1.826,1.826,0,0,0-.51-1.358,2.049,2.049,0,0,0-1.5-.505,2.371,2.371,0,0,0-1.459.439,1.3,1.3,0,0,0-.589,1.063H25.822a2.244,2.244,0,0,1,.505-1.375A3.449,3.449,0,0,1,27.7-9.3a4.613,4.613,0,0,1,1.9-.387,3.759,3.759,0,0,1,2.575.822A2.964,2.964,0,0,1,33.144-6.6v4.377a5.351,5.351,0,0,0,.334,2.083V0Zm-2.7-1.239a2.858,2.858,0,0,0,1.45-.4,2.392,2.392,0,0,0,.993-1.028V-4.614H30.243q-2.988,0-2.988,1.749a1.48,1.48,0,0,0,.51,1.2A1.959,1.959,0,0,0,29.074-1.239Zm14.651-3.41a5.694,5.694,0,0,1-.993,3.5A3.183,3.183,0,0,1,40.043.176a3.488,3.488,0,0,1-2.725-1.1V3.656H35.692V-9.51h1.485l.079,1.055a3.35,3.35,0,0,1,2.76-1.23,3.243,3.243,0,0,1,2.711,1.292,5.756,5.756,0,0,1,1,3.595ZM42.1-4.834a4.2,4.2,0,0,0-.686-2.54,2.208,2.208,0,0,0-1.881-.932A2.39,2.39,0,0,0,37.318-7v4.544a2.4,2.4,0,0,0,2.232,1.3,2.2,2.2,0,0,0,1.859-.927A4.587,4.587,0,0,0,42.1-4.834ZM47.558,0H45.932V-13.5h1.626Zm4.368,0H50.3V-9.51h1.626ZM50.168-12.032a.971.971,0,0,1,.242-.668.907.907,0,0,1,.716-.272.922.922,0,0,1,.721.272.96.96,0,0,1,.246.668.929.929,0,0,1-.246.659.938.938,0,0,1-.721.264.924.924,0,0,1-.716-.264A.938.938,0,0,1,50.168-12.032ZM58.342-1.151a2.342,2.342,0,0,0,1.521-.527A1.855,1.855,0,0,0,60.583-3h1.538a2.949,2.949,0,0,1-.562,1.556A3.7,3.7,0,0,1,60.174-.264a3.994,3.994,0,0,1-1.833.439,3.918,3.918,0,0,1-3.089-1.3,5.163,5.163,0,0,1-1.147-3.546v-.272a5.725,5.725,0,0,1,.51-2.47,3.883,3.883,0,0,1,1.463-1.679,4.157,4.157,0,0,1,2.254-.6,3.814,3.814,0,0,1,2.659.958A3.424,3.424,0,0,1,62.121-6.24H60.583a2.241,2.241,0,0,0-.7-1.516,2.174,2.174,0,0,0-1.551-.593,2.276,2.276,0,0,0-1.92.892,4.19,4.19,0,0,0-.681,2.58v.308a4.106,4.106,0,0,0,.677,2.531A2.287,2.287,0,0,0,58.342-1.151ZM69.82,0a3.416,3.416,0,0,1-.229-1A3.628,3.628,0,0,1,66.885.176a3.357,3.357,0,0,1-2.307-.8,2.573,2.573,0,0,1-.9-2.017,2.688,2.688,0,0,1,1.129-2.307,5.325,5.325,0,0,1,3.177-.822h1.582v-.747a1.826,1.826,0,0,0-.51-1.358,2.049,2.049,0,0,0-1.5-.505,2.371,2.371,0,0,0-1.459.439A1.3,1.3,0,0,0,65.5-6.873H63.87a2.244,2.244,0,0,1,.505-1.375A3.449,3.449,0,0,1,65.747-9.3a4.613,4.613,0,0,1,1.9-.387,3.759,3.759,0,0,1,2.575.822A2.964,2.964,0,0,1,71.191-6.6v4.377a5.351,5.351,0,0,0,.334,2.083V0Zm-2.7-1.239a2.858,2.858,0,0,0,1.45-.4,2.392,2.392,0,0,0,.993-1.028V-4.614H68.291q-2.988,0-2.988,1.749a1.48,1.48,0,0,0,.51,1.2A1.959,1.959,0,0,0,67.122-1.239ZM75.278-9.51l.053,1.2a3.465,3.465,0,0,1,2.848-1.371q3.015,0,3.041,3.4V0H79.594V-6.293a2.189,2.189,0,0,0-.47-1.521,1.884,1.884,0,0,0-1.437-.492,2.347,2.347,0,0,0-1.389.422,2.865,2.865,0,0,0-.932,1.107V0H73.74V-9.51Zm14.379,0L89.7-8.455a3.512,3.512,0,0,1,2.821-1.23,2.719,2.719,0,0,1,2.716,1.529,3.6,3.6,0,0,1,1.235-1.107,3.647,3.647,0,0,1,1.8-.422q3.129,0,3.182,3.313V0H99.826V-6.275A2.184,2.184,0,0,0,99.36-7.8,2.051,2.051,0,0,0,97.8-8.306a2.156,2.156,0,0,0-1.5.541A2.193,2.193,0,0,0,95.6-6.311V0H93.964V-6.231a1.814,1.814,0,0,0-2.03-2.074,2.175,2.175,0,0,0-2.188,1.362V0H88.119V-9.51ZM107.851.176a4.155,4.155,0,0,1-3.146-1.27,4.714,4.714,0,0,1-1.213-3.4v-.3a5.707,5.707,0,0,1,.541-2.527,4.217,4.217,0,0,1,1.512-1.74,3.8,3.8,0,0,1,2.1-.628,3.562,3.562,0,0,1,2.883,1.222,5.289,5.289,0,0,1,1.028,3.5v.677h-6.442a3.38,3.38,0,0,0,.822,2.272,2.583,2.583,0,0,0,2,.866A2.832,2.832,0,0,0,109.4-1.5a3.666,3.666,0,0,0,1.046-.932l.993.773A3.993,3.993,0,0,1,107.851.176Zm-.2-8.525A2.169,2.169,0,0,0,106-7.633a3.482,3.482,0,0,0-.826,2.008h4.764v-.123a3.1,3.1,0,0,0-.668-1.92A2.042,2.042,0,0,0,107.648-8.35Zm5.4,3.516a5.571,5.571,0,0,1,1.037-3.52A3.28,3.28,0,0,1,116.8-9.686a3.3,3.3,0,0,1,2.646,1.143V-13.5h1.626V0h-1.494L119.5-1.02a3.311,3.311,0,0,1-2.716,1.2,3.248,3.248,0,0,1-2.694-1.354,5.634,5.634,0,0,1-1.042-3.533Zm1.626.185a4.218,4.218,0,0,0,.668,2.531,2.159,2.159,0,0,0,1.846.914,2.372,2.372,0,0,0,2.259-1.389V-6.961A2.39,2.39,0,0,0,117.2-8.306a2.17,2.17,0,0,0-1.863.923A4.644,4.644,0,0,0,114.671-4.649ZM125.358,0h-1.626V-9.51h1.626ZM123.6-12.032a.971.971,0,0,1,.242-.668.907.907,0,0,1,.716-.272.922.922,0,0,1,.721.272.96.96,0,0,1,.246.668.929.929,0,0,1-.246.659.938.938,0,0,1-.721.264.924.924,0,0,1-.716-.264A.938.938,0,0,1,123.6-12.032Zm3.964,7.2a5.571,5.571,0,0,1,1.037-3.52,3.28,3.28,0,0,1,2.716-1.332,3.3,3.3,0,0,1,2.646,1.143V-13.5h1.626V0h-1.494l-.079-1.02A3.311,3.311,0,0,1,131.3.176a3.248,3.248,0,0,1-2.694-1.354,5.634,5.634,0,0,1-1.042-3.533Zm1.626.185a4.218,4.218,0,0,0,.668,2.531A2.159,2.159,0,0,0,131.7-1.2a2.372,2.372,0,0,0,2.259-1.389V-6.961a2.39,2.39,0,0,0-2.241-1.345,2.17,2.17,0,0,0-1.863.923A4.644,4.644,0,0,0,129.19-4.649ZM143.982,0a3.416,3.416,0,0,1-.229-1A3.628,3.628,0,0,1,141.047.176a3.357,3.357,0,0,1-2.307-.8,2.573,2.573,0,0,1-.9-2.017,2.688,2.688,0,0,1,1.129-2.307,5.325,5.325,0,0,1,3.177-.822h1.582v-.747a1.826,1.826,0,0,0-.51-1.358,2.049,2.049,0,0,0-1.5-.505,2.371,2.371,0,0,0-1.459.439,1.3,1.3,0,0,0-.589,1.063h-1.635a2.244,2.244,0,0,1,.505-1.375,3.449,3.449,0,0,1,1.371-1.05,4.613,4.613,0,0,1,1.9-.387,3.759,3.759,0,0,1,2.575.822,2.964,2.964,0,0,1,.967,2.263v4.377a5.351,5.351,0,0,0,.334,2.083V0Zm-2.7-1.239a2.858,2.858,0,0,0,1.45-.4,2.392,2.392,0,0,0,.993-1.028V-4.614h-1.274q-2.988,0-2.988,1.749a1.48,1.48,0,0,0,.51,1.2A1.959,1.959,0,0,0,141.284-1.239Zm12.155-1.283a1.2,1.2,0,0,0-.5-1.024,4.78,4.78,0,0,0-1.731-.628,8.186,8.186,0,0,1-1.96-.633,2.788,2.788,0,0,1-1.072-.879,2.1,2.1,0,0,1-.347-1.213,2.467,2.467,0,0,1,.989-1.978,3.861,3.861,0,0,1,2.527-.809,3.974,3.974,0,0,1,2.624.835,2.652,2.652,0,0,1,1.006,2.136h-1.635a1.468,1.468,0,0,0-.567-1.151,2.124,2.124,0,0,0-1.428-.483,2.223,2.223,0,0,0-1.389.387,1.217,1.217,0,0,0-.5,1.011.986.986,0,0,0,.466.888,5.731,5.731,0,0,0,1.683.571,8.77,8.77,0,0,1,1.973.65,2.878,2.878,0,0,1,1.121.91,2.237,2.237,0,0,1,.365,1.3,2.434,2.434,0,0,1-1.02,2.043A4.277,4.277,0,0,1,151.4.176a4.789,4.789,0,0,1-2.021-.4A3.288,3.288,0,0,1,148-1.358a2.722,2.722,0,0,1-.5-1.569h1.626a1.683,1.683,0,0,0,.655,1.3,2.54,2.54,0,0,0,1.613.479,2.622,2.622,0,0,0,1.481-.374A1.148,1.148,0,0,0,153.439-2.522Zm7.8-2.312a5.571,5.571,0,0,1,1.037-3.52A3.28,3.28,0,0,1,165-9.686a3.3,3.3,0,0,1,2.646,1.143V-13.5h1.626V0h-1.494L167.7-1.02a3.311,3.311,0,0,1-2.716,1.2,3.248,3.248,0,0,1-2.694-1.354,5.634,5.634,0,0,1-1.042-3.533Zm1.626.185a4.218,4.218,0,0,0,.668,2.531,2.159,2.159,0,0,0,1.846.914,2.372,2.372,0,0,0,2.259-1.389V-6.961A2.39,2.39,0,0,0,165.4-8.306a2.17,2.17,0,0,0-1.863.923A4.644,4.644,0,0,0,162.87-4.649ZM175.737.176a4.155,4.155,0,0,1-3.146-1.27,4.714,4.714,0,0,1-1.213-3.4v-.3a5.707,5.707,0,0,1,.541-2.527,4.217,4.217,0,0,1,1.512-1.74,3.8,3.8,0,0,1,2.1-.628,3.562,3.562,0,0,1,2.883,1.222,5.289,5.289,0,0,1,1.028,3.5v.677H173a3.38,3.38,0,0,0,.822,2.272,2.583,2.583,0,0,0,2,.866,2.832,2.832,0,0,0,1.459-.352,3.666,3.666,0,0,0,1.046-.932l.993.773A3.993,3.993,0,0,1,175.737.176Zm-.2-8.525a2.169,2.169,0,0,0-1.652.716,3.482,3.482,0,0,0-.826,2.008h4.764v-.123a3.1,3.1,0,0,0-.668-1.92A2.042,2.042,0,0,0,175.535-8.35Zm14.063,7.2a2.342,2.342,0,0,0,1.521-.527A1.855,1.855,0,0,0,191.839-3h1.538a2.949,2.949,0,0,1-.562,1.556A3.7,3.7,0,0,1,191.43-.264,3.994,3.994,0,0,1,189.6.176a3.918,3.918,0,0,1-3.089-1.3,5.163,5.163,0,0,1-1.147-3.546v-.272a5.725,5.725,0,0,1,.51-2.47,3.883,3.883,0,0,1,1.463-1.679,4.157,4.157,0,0,1,2.254-.6,3.814,3.814,0,0,1,2.659.958,3.424,3.424,0,0,1,1.129,2.487h-1.538a2.241,2.241,0,0,0-.7-1.516,2.174,2.174,0,0,0-1.551-.593,2.276,2.276,0,0,0-1.92.892,4.19,4.19,0,0,0-.681,2.58v.308a4.106,4.106,0,0,0,.677,2.531A2.287,2.287,0,0,0,189.6-1.151Zm5.177-3.691a5.617,5.617,0,0,1,.549-2.514,4.1,4.1,0,0,1,1.529-1.723,4.163,4.163,0,0,1,2.237-.606,4.01,4.01,0,0,1,3.142,1.345,5.174,5.174,0,0,1,1.2,3.577v.114a5.666,5.666,0,0,1-.532,2.492,4.038,4.038,0,0,1-1.521,1.718,4.211,4.211,0,0,1-2.272.615,4,4,0,0,1-3.133-1.345,5.147,5.147,0,0,1-1.2-3.56Zm1.635.193a4.068,4.068,0,0,0,.734,2.54,2.349,2.349,0,0,0,1.964.958,2.335,2.335,0,0,0,1.969-.971,4.449,4.449,0,0,0,.729-2.72,4.061,4.061,0,0,0-.743-2.536,2.361,2.361,0,0,0-1.973-.971,2.335,2.335,0,0,0-1.942.958A4.416,4.416,0,0,0,196.409-4.649Zm10.6-4.86.053,1.2a3.465,3.465,0,0,1,2.848-1.371q3.015,0,3.041,3.4V0h-1.626V-6.293a2.189,2.189,0,0,0-.47-1.521,1.884,1.884,0,0,0-1.437-.492,2.347,2.347,0,0,0-1.389.422,2.865,2.865,0,0,0-.932,1.107V0h-1.626V-9.51Zm10.6-2.3v2.3h1.775v1.257h-1.775v5.9a1.32,1.32,0,0,0,.237.858,1,1,0,0,0,.809.286,3.937,3.937,0,0,0,.773-.105V0a4.742,4.742,0,0,1-1.248.175,2.025,2.025,0,0,1-1.644-.659,2.832,2.832,0,0,1-.554-1.872v-5.9h-1.731V-9.51h1.731v-2.3Zm8.271,3.762a4.873,4.873,0,0,0-.8-.062,2.143,2.143,0,0,0-2.171,1.362V0h-1.626V-9.51h1.582l.026,1.1a2.532,2.532,0,0,1,2.268-1.274,1.661,1.661,0,0,1,.721.123Zm.888,3.208a5.617,5.617,0,0,1,.549-2.514,4.1,4.1,0,0,1,1.529-1.723,4.163,4.163,0,0,1,2.237-.606,4.01,4.01,0,0,1,3.142,1.345,5.174,5.174,0,0,1,1.2,3.577v.114a5.666,5.666,0,0,1-.532,2.492,4.038,4.038,0,0,1-1.521,1.718A4.211,4.211,0,0,1,231.1.176a4,4,0,0,1-3.133-1.345,5.147,5.147,0,0,1-1.2-3.56Zm1.635.193a4.068,4.068,0,0,0,.734,2.54,2.349,2.349,0,0,0,1.964.958,2.335,2.335,0,0,0,1.969-.971,4.449,4.449,0,0,0,.729-2.72,4.061,4.061,0,0,0-.743-2.536,2.361,2.361,0,0,0-1.973-.971,2.335,2.335,0,0,0-1.942.958A4.416,4.416,0,0,0,228.4-4.649ZM239.229,0H237.6V-13.5h1.626Z" transform="translate(740.964 6855.917)" fill="#12263f"/>
    <path id="Trazado_838662" data-name="Trazado 838662" d="M10.327-11.417H6.214V0H4.535V-11.417H.431V-12.8h9.9Zm.343,6.574a5.617,5.617,0,0,1,.549-2.514,4.1,4.1,0,0,1,1.529-1.723,4.163,4.163,0,0,1,2.237-.606,4.01,4.01,0,0,1,3.142,1.345,5.174,5.174,0,0,1,1.2,3.577v.114A5.666,5.666,0,0,1,18.8-2.158,4.038,4.038,0,0,1,17.275-.439,4.211,4.211,0,0,1,15,.176,4,4,0,0,1,11.87-1.169a5.147,5.147,0,0,1-1.2-3.56Zm1.635.193a4.068,4.068,0,0,0,.734,2.54A2.349,2.349,0,0,0,15-1.151a2.335,2.335,0,0,0,1.969-.971,4.449,4.449,0,0,0,.729-2.72,4.061,4.061,0,0,0-.743-2.536,2.361,2.361,0,0,0-1.973-.971,2.335,2.335,0,0,0-1.942.958A4.416,4.416,0,0,0,12.3-4.649ZM22.9-9.51l.044,1.055a3.512,3.512,0,0,1,2.821-1.23,2.719,2.719,0,0,1,2.716,1.529,3.6,3.6,0,0,1,1.235-1.107,3.647,3.647,0,0,1,1.8-.422q3.129,0,3.182,3.313V0H33.064V-6.275A2.184,2.184,0,0,0,32.6-7.8a2.051,2.051,0,0,0-1.564-.505,2.156,2.156,0,0,0-1.5.541,2.193,2.193,0,0,0-.694,1.455V0H27.2V-6.231a1.814,1.814,0,0,0-2.03-2.074,2.175,2.175,0,0,0-2.188,1.362V0H21.357V-9.51ZM43.014,0a3.416,3.416,0,0,1-.229-1A3.628,3.628,0,0,1,40.078.176a3.357,3.357,0,0,1-2.307-.8,2.573,2.573,0,0,1-.9-2.017A2.688,2.688,0,0,1,38-4.944a5.325,5.325,0,0,1,3.177-.822h1.582v-.747a1.826,1.826,0,0,0-.51-1.358,2.049,2.049,0,0,0-1.5-.505,2.371,2.371,0,0,0-1.459.439A1.3,1.3,0,0,0,38.7-6.873H37.063a2.244,2.244,0,0,1,.505-1.375A3.449,3.449,0,0,1,38.94-9.3a4.613,4.613,0,0,1,1.9-.387,3.759,3.759,0,0,1,2.575.822A2.964,2.964,0,0,1,44.385-6.6v4.377a5.351,5.351,0,0,0,.334,2.083V0Zm-2.7-1.239a2.858,2.858,0,0,0,1.45-.4,2.392,2.392,0,0,0,.993-1.028V-4.614H41.484q-2.988,0-2.988,1.749a1.48,1.48,0,0,0,.51,1.2A1.959,1.959,0,0,0,40.315-1.239ZM50.994-4.834a5.571,5.571,0,0,1,1.037-3.52,3.28,3.28,0,0,1,2.716-1.332,3.3,3.3,0,0,1,2.646,1.143V-13.5h1.626V0H57.524l-.079-1.02a3.311,3.311,0,0,1-2.716,1.2,3.248,3.248,0,0,1-2.694-1.354,5.634,5.634,0,0,1-1.042-3.533Zm1.626.185a4.218,4.218,0,0,0,.668,2.531,2.159,2.159,0,0,0,1.846.914,2.372,2.372,0,0,0,2.259-1.389V-6.961a2.39,2.39,0,0,0-2.241-1.345,2.17,2.17,0,0,0-1.863.923A4.644,4.644,0,0,0,52.62-4.649ZM65.487.176a4.155,4.155,0,0,1-3.146-1.27,4.714,4.714,0,0,1-1.213-3.4v-.3a5.707,5.707,0,0,1,.541-2.527,4.217,4.217,0,0,1,1.512-1.74,3.8,3.8,0,0,1,2.1-.628,3.562,3.562,0,0,1,2.883,1.222,5.289,5.289,0,0,1,1.028,3.5v.677H62.754a3.38,3.38,0,0,0,.822,2.272,2.583,2.583,0,0,0,2,.866A2.832,2.832,0,0,0,67.034-1.5a3.666,3.666,0,0,0,1.046-.932l.993.773A3.993,3.993,0,0,1,65.487.176Zm-.2-8.525a2.169,2.169,0,0,0-1.652.716,3.482,3.482,0,0,0-.826,2.008H67.57v-.123a3.1,3.1,0,0,0-.668-1.92A2.042,2.042,0,0,0,65.285-8.35Zm9.853,3.516a5.571,5.571,0,0,1,1.037-3.52,3.28,3.28,0,0,1,2.716-1.332,3.3,3.3,0,0,1,2.646,1.143V-13.5h1.626V0H81.668l-.079-1.02a3.311,3.311,0,0,1-2.716,1.2,3.248,3.248,0,0,1-2.694-1.354,5.634,5.634,0,0,1-1.042-3.533Zm1.626.185a4.218,4.218,0,0,0,.668,2.531,2.159,2.159,0,0,0,1.846.914,2.372,2.372,0,0,0,2.259-1.389V-6.961a2.39,2.39,0,0,0-2.241-1.345,2.17,2.17,0,0,0-1.863.923A4.644,4.644,0,0,0,76.764-4.649ZM89.631.176a4.155,4.155,0,0,1-3.146-1.27,4.714,4.714,0,0,1-1.213-3.4v-.3a5.707,5.707,0,0,1,.541-2.527,4.217,4.217,0,0,1,1.512-1.74,3.8,3.8,0,0,1,2.1-.628,3.562,3.562,0,0,1,2.883,1.222,5.289,5.289,0,0,1,1.028,3.5v.677H86.9a3.38,3.38,0,0,0,.822,2.272,2.583,2.583,0,0,0,2,.866A2.832,2.832,0,0,0,91.178-1.5a3.666,3.666,0,0,0,1.046-.932l.993.773A3.993,3.993,0,0,1,89.631.176Zm-.2-8.525a2.169,2.169,0,0,0-1.652.716,3.482,3.482,0,0,0-.826,2.008h4.764v-.123a3.1,3.1,0,0,0-.668-1.92A2.042,2.042,0,0,0,89.429-8.35Zm9.606,7.2a2.342,2.342,0,0,0,1.521-.527A1.855,1.855,0,0,0,101.276-3h1.538a2.949,2.949,0,0,1-.562,1.556,3.7,3.7,0,0,1-1.384,1.178,3.994,3.994,0,0,1-1.833.439,3.918,3.918,0,0,1-3.089-1.3A5.163,5.163,0,0,1,94.8-4.667v-.272a5.725,5.725,0,0,1,.51-2.47,3.883,3.883,0,0,1,1.463-1.679,4.157,4.157,0,0,1,2.254-.6,3.814,3.814,0,0,1,2.659.958,3.424,3.424,0,0,1,1.129,2.487h-1.538a2.241,2.241,0,0,0-.7-1.516,2.174,2.174,0,0,0-1.551-.593,2.276,2.276,0,0,0-1.92.892,4.19,4.19,0,0,0-.681,2.58v.308A4.106,4.106,0,0,0,97.1-2.039,2.287,2.287,0,0,0,99.035-1.151ZM106.409,0h-1.626V-9.51h1.626Zm-1.758-12.032a.971.971,0,0,1,.242-.668.907.907,0,0,1,.716-.272.922.922,0,0,1,.721.272.96.96,0,0,1,.246.668.929.929,0,0,1-.246.659.938.938,0,0,1-.721.264.924.924,0,0,1-.716-.264A.938.938,0,0,1,104.651-12.032Zm9.9,9.51a1.2,1.2,0,0,0-.5-1.024,4.78,4.78,0,0,0-1.731-.628,8.186,8.186,0,0,1-1.96-.633,2.788,2.788,0,0,1-1.072-.879A2.1,2.1,0,0,1,108.94-6.9a2.467,2.467,0,0,1,.989-1.978,3.861,3.861,0,0,1,2.527-.809,3.974,3.974,0,0,1,2.624.835,2.652,2.652,0,0,1,1.006,2.136h-1.635a1.468,1.468,0,0,0-.567-1.151,2.124,2.124,0,0,0-1.428-.483,2.223,2.223,0,0,0-1.389.387,1.217,1.217,0,0,0-.5,1.011.986.986,0,0,0,.466.888,5.731,5.731,0,0,0,1.683.571,8.77,8.77,0,0,1,1.973.65,2.878,2.878,0,0,1,1.121.91,2.237,2.237,0,0,1,.365,1.3,2.434,2.434,0,0,1-1.02,2.043,4.277,4.277,0,0,1-2.646.769,4.789,4.789,0,0,1-2.021-.4,3.288,3.288,0,0,1-1.375-1.129,2.722,2.722,0,0,1-.5-1.569h1.626a1.683,1.683,0,0,0,.655,1.3,2.54,2.54,0,0,0,1.613.479,2.622,2.622,0,0,0,1.481-.374A1.148,1.148,0,0,0,114.548-2.522ZM120.059,0h-1.626V-9.51h1.626ZM118.3-12.032a.971.971,0,0,1,.242-.668.907.907,0,0,1,.716-.272.922.922,0,0,1,.721.272.96.96,0,0,1,.246.668.929.929,0,0,1-.246.659.938.938,0,0,1-.721.264.924.924,0,0,1-.716-.264A.938.938,0,0,1,118.3-12.032Zm3.929,7.189a5.617,5.617,0,0,1,.549-2.514,4.1,4.1,0,0,1,1.529-1.723,4.163,4.163,0,0,1,2.237-.606,4.01,4.01,0,0,1,3.142,1.345,5.174,5.174,0,0,1,1.2,3.577v.114a5.666,5.666,0,0,1-.532,2.492,4.038,4.038,0,0,1-1.521,1.718,4.211,4.211,0,0,1-2.272.615,4,4,0,0,1-3.133-1.345,5.147,5.147,0,0,1-1.2-3.56Zm1.635.193a4.068,4.068,0,0,0,.734,2.54,2.349,2.349,0,0,0,1.964.958,2.335,2.335,0,0,0,1.969-.971,4.449,4.449,0,0,0,.729-2.72,4.061,4.061,0,0,0-.743-2.536,2.361,2.361,0,0,0-1.973-.971,2.335,2.335,0,0,0-1.942.958A4.416,4.416,0,0,0,123.864-4.649Zm10.6-4.86.053,1.2a3.465,3.465,0,0,1,2.848-1.371q3.015,0,3.041,3.4V0h-1.626V-6.293a2.189,2.189,0,0,0-.47-1.521,1.884,1.884,0,0,0-1.437-.492,2.347,2.347,0,0,0-1.389.422,2.865,2.865,0,0,0-.932,1.107V0h-1.626V-9.51ZM146.8.176a4.155,4.155,0,0,1-3.146-1.27,4.714,4.714,0,0,1-1.213-3.4v-.3a5.707,5.707,0,0,1,.541-2.527,4.217,4.217,0,0,1,1.512-1.74,3.8,3.8,0,0,1,2.1-.628,3.562,3.562,0,0,1,2.883,1.222,5.289,5.289,0,0,1,1.028,3.5v.677H144.07a3.38,3.38,0,0,0,.822,2.272,2.583,2.583,0,0,0,2,.866,2.832,2.832,0,0,0,1.459-.352,3.666,3.666,0,0,0,1.046-.932l.993.773A3.993,3.993,0,0,1,146.8.176Zm-.2-8.525a2.169,2.169,0,0,0-1.652.716,3.482,3.482,0,0,0-.826,2.008h4.764v-.123a3.1,3.1,0,0,0-.668-1.92A2.042,2.042,0,0,0,146.6-8.35Zm11.329,5.827a1.2,1.2,0,0,0-.5-1.024,4.78,4.78,0,0,0-1.731-.628,8.186,8.186,0,0,1-1.96-.633,2.788,2.788,0,0,1-1.072-.879,2.1,2.1,0,0,1-.347-1.213,2.467,2.467,0,0,1,.989-1.978,3.861,3.861,0,0,1,2.527-.809,3.974,3.974,0,0,1,2.624.835,2.652,2.652,0,0,1,1.006,2.136h-1.635a1.468,1.468,0,0,0-.567-1.151,2.124,2.124,0,0,0-1.428-.483,2.223,2.223,0,0,0-1.389.387,1.217,1.217,0,0,0-.5,1.011.986.986,0,0,0,.466.888,5.731,5.731,0,0,0,1.683.571,8.77,8.77,0,0,1,1.973.65,2.878,2.878,0,0,1,1.121.91,2.237,2.237,0,0,1,.365,1.3,2.434,2.434,0,0,1-1.02,2.043,4.277,4.277,0,0,1-2.646.769,4.789,4.789,0,0,1-2.021-.4,3.288,3.288,0,0,1-1.375-1.129,2.722,2.722,0,0,1-.5-1.569h1.626a1.683,1.683,0,0,0,.655,1.3,2.54,2.54,0,0,0,1.613.479,2.622,2.622,0,0,0,1.481-.374A1.148,1.148,0,0,0,157.931-2.522Z" transform="translate(1125.329 6855.917)" fill="#12263f"/>
    <path id="Trazado_838663" data-name="Trazado 838663" d="M10.934-1.679A3.9,3.9,0,0,1,9.119-.286,7.331,7.331,0,0,1,6.407.176,5.258,5.258,0,0,1,3.63-.558,4.889,4.889,0,0,1,1.753-2.646a7.21,7.21,0,0,1-.681-3.138V-6.9a6.73,6.73,0,0,1,1.349-4.482,4.7,4.7,0,0,1,3.792-1.591,4.856,4.856,0,0,1,3.226,1.024,4.461,4.461,0,0,1,1.494,2.9H9.246a2.79,2.79,0,0,0-3.023-2.549A2.987,2.987,0,0,0,3.652-10.4a5.82,5.82,0,0,0-.883,3.453V-5.9a5.454,5.454,0,0,0,.984,3.426A3.191,3.191,0,0,0,6.416-1.2a5.882,5.882,0,0,0,1.661-.21,2.569,2.569,0,0,0,1.178-.71V-4.992H6.293v-1.38h4.641Zm6.5,1.854a4.155,4.155,0,0,1-3.146-1.27,4.714,4.714,0,0,1-1.213-3.4v-.3a5.707,5.707,0,0,1,.541-2.527,4.217,4.217,0,0,1,1.512-1.74,3.8,3.8,0,0,1,2.1-.628,3.562,3.562,0,0,1,2.883,1.222,5.289,5.289,0,0,1,1.028,3.5v.677H14.7a3.38,3.38,0,0,0,.822,2.272,2.583,2.583,0,0,0,2,.866A2.832,2.832,0,0,0,18.984-1.5a3.666,3.666,0,0,0,1.046-.932l.993.773A3.993,3.993,0,0,1,17.438.176Zm-.2-8.525a2.169,2.169,0,0,0-1.652.716,3.482,3.482,0,0,0-.826,2.008h4.764v-.123a3.1,3.1,0,0,0-.668-1.92A2.042,2.042,0,0,0,17.235-8.35ZM28.564-2.522a1.2,1.2,0,0,0-.5-1.024,4.78,4.78,0,0,0-1.731-.628,8.186,8.186,0,0,1-1.96-.633A2.788,2.788,0,0,1,23.3-5.687,2.1,2.1,0,0,1,22.957-6.9a2.467,2.467,0,0,1,.989-1.978,3.861,3.861,0,0,1,2.527-.809,3.974,3.974,0,0,1,2.624.835A2.652,2.652,0,0,1,30.1-6.715H28.468A1.468,1.468,0,0,0,27.9-7.866a2.124,2.124,0,0,0-1.428-.483,2.223,2.223,0,0,0-1.389.387,1.217,1.217,0,0,0-.5,1.011.986.986,0,0,0,.466.888,5.731,5.731,0,0,0,1.683.571,8.77,8.77,0,0,1,1.973.65,2.878,2.878,0,0,1,1.121.91,2.237,2.237,0,0,1,.365,1.3,2.434,2.434,0,0,1-1.02,2.043,4.277,4.277,0,0,1-2.646.769,4.789,4.789,0,0,1-2.021-.4,3.288,3.288,0,0,1-1.375-1.129,2.722,2.722,0,0,1-.5-1.569h1.626a1.683,1.683,0,0,0,.655,1.3,2.54,2.54,0,0,0,1.613.479,2.622,2.622,0,0,0,1.481-.374A1.148,1.148,0,0,0,28.564-2.522Zm5.95-9.29v2.3H36.29v1.257H34.515v5.9a1.32,1.32,0,0,0,.237.858,1,1,0,0,0,.809.286,3.937,3.937,0,0,0,.773-.105V0a4.742,4.742,0,0,1-1.248.175,2.025,2.025,0,0,1-1.644-.659,2.832,2.832,0,0,1-.554-1.872v-5.9H31.157V-9.51h1.731v-2.3ZM39.955,0H38.329V-9.51h1.626ZM38.2-12.032a.971.971,0,0,1,.242-.668.907.907,0,0,1,.716-.272.922.922,0,0,1,.721.272.96.96,0,0,1,.246.668.929.929,0,0,1-.246.659.938.938,0,0,1-.721.264.924.924,0,0,1-.716-.264A.938.938,0,0,1,38.2-12.032Zm3.929,7.189a5.617,5.617,0,0,1,.549-2.514A4.1,4.1,0,0,1,44.2-9.079a4.163,4.163,0,0,1,2.237-.606,4.01,4.01,0,0,1,3.142,1.345,5.174,5.174,0,0,1,1.2,3.577v.114a5.666,5.666,0,0,1-.532,2.492A4.038,4.038,0,0,1,48.731-.439a4.211,4.211,0,0,1-2.272.615,4,4,0,0,1-3.133-1.345,5.147,5.147,0,0,1-1.2-3.56Zm1.635.193a4.068,4.068,0,0,0,.734,2.54,2.349,2.349,0,0,0,1.964.958,2.335,2.335,0,0,0,1.969-.971,4.449,4.449,0,0,0,.729-2.72,4.061,4.061,0,0,0-.743-2.536,2.361,2.361,0,0,0-1.973-.971,2.335,2.335,0,0,0-1.942.958A4.416,4.416,0,0,0,43.761-4.649ZM47.18-13.5h1.969l-2.355,2.584-1.31,0ZM54.36-9.51l.053,1.2a3.465,3.465,0,0,1,2.848-1.371q3.015,0,3.041,3.4V0H58.676V-6.293a2.189,2.189,0,0,0-.47-1.521,1.884,1.884,0,0,0-1.437-.492,2.347,2.347,0,0,0-1.389.422,2.865,2.865,0,0,0-.932,1.107V0H52.822V-9.51Z" transform="translate(301.329 6868.478)" fill="#12263f"/>
    <path id="Trazado_838083" data-name="Trazado 838083" d="M-8225-4065.609h45.22v76.046l35.281,15.263-35.281,15.178v97.805H-8225" transform="translate(8860.45 10826.395)" fill="none" stroke="#12263f" stroke-width="3"/>
    <g id="Grupo_1083509" data-name="Grupo 1083509" transform="translate(1041.171 6831.892)">
      <rect id="Rectngulo_379481" data-name="Rectngulo 379481" width="25.122" height="25.122" transform="translate(0 6.28)" fill="#cadeb4"/>
      <path id="Polgono_32" data-name="Polgono 32" d="M18.841,0,37.683,27.634H0Z" transform="translate(51.5) rotate(90)" fill="#cadeb4"/>
    </g>
    <path id="Trazado_838664" data-name="Trazado 838664" d="M3.173-5.01V0H1.485V-12.8h4.72A4.742,4.742,0,0,1,9.5-11.725a3.635,3.635,0,0,1,1.191,2.839,3.587,3.587,0,0,1-1.165,2.87A4.954,4.954,0,0,1,6.188-5.01Zm0-1.38H6.205a3.032,3.032,0,0,0,2.074-.638A2.334,2.334,0,0,0,9-8.873,2.411,2.411,0,0,0,8.279-10.7,2.84,2.84,0,0,0,6.3-11.417H3.173ZM18.36,0a3.416,3.416,0,0,1-.229-1A3.628,3.628,0,0,1,15.425.176a3.357,3.357,0,0,1-2.307-.8,2.573,2.573,0,0,1-.9-2.017,2.688,2.688,0,0,1,1.129-2.307,5.325,5.325,0,0,1,3.177-.822h1.582v-.747a1.826,1.826,0,0,0-.51-1.358,2.049,2.049,0,0,0-1.5-.505,2.371,2.371,0,0,0-1.459.439,1.3,1.3,0,0,0-.589,1.063H12.41a2.244,2.244,0,0,1,.505-1.375A3.449,3.449,0,0,1,14.287-9.3a4.613,4.613,0,0,1,1.9-.387,3.759,3.759,0,0,1,2.575.822A2.964,2.964,0,0,1,19.731-6.6v4.377a5.351,5.351,0,0,0,.334,2.083V0Zm-2.7-1.239a2.858,2.858,0,0,0,1.45-.4,2.392,2.392,0,0,0,.993-1.028V-4.614H16.831q-2.988,0-2.988,1.749a1.48,1.48,0,0,0,.51,1.2A1.959,1.959,0,0,0,15.662-1.239ZM26.877-8.051a4.873,4.873,0,0,0-.8-.062A2.143,2.143,0,0,0,23.906-6.75V0H22.28V-9.51h1.582l.026,1.1a2.532,2.532,0,0,1,2.268-1.274,1.661,1.661,0,0,1,.721.123ZM33.891,0a3.416,3.416,0,0,1-.229-1A3.628,3.628,0,0,1,30.955.176a3.357,3.357,0,0,1-2.307-.8,2.573,2.573,0,0,1-.9-2.017,2.688,2.688,0,0,1,1.129-2.307,5.325,5.325,0,0,1,3.177-.822h1.582v-.747a1.826,1.826,0,0,0-.51-1.358,2.049,2.049,0,0,0-1.5-.505,2.371,2.371,0,0,0-1.459.439,1.3,1.3,0,0,0-.589,1.063H27.94a2.244,2.244,0,0,1,.505-1.375A3.449,3.449,0,0,1,29.817-9.3a4.613,4.613,0,0,1,1.9-.387,3.759,3.759,0,0,1,2.575.822A2.964,2.964,0,0,1,35.262-6.6v4.377A5.351,5.351,0,0,0,35.6-.141V0Zm-2.7-1.239a2.858,2.858,0,0,0,1.45-.4,2.392,2.392,0,0,0,.993-1.028V-4.614H32.361q-2.988,0-2.988,1.749a1.48,1.48,0,0,0,.51,1.2A1.959,1.959,0,0,0,31.192-1.239Z" transform="translate(1046.195 6819.49)" fill="#12263f"/>
  </g>
</svg>
