<svg xmlns="http://www.w3.org/2000/svg" xmlns:xlink="http://www.w3.org/1999/xlink" width="62" height="62" viewBox="0 0 62 62">
  <defs>
    <clipPath id="clip-path">
      <rect id="Rect치ngulo_379439" data-name="Rect치ngulo 379439" width="40.085" height="40.155" fill="#627289"/>
    </clipPath>
  </defs>
  <g id="Grupo_1015238" data-name="Grupo 1015238" transform="translate(-273 -12906)">
    <g id="Grupo_1014856" data-name="Grupo 1014856" transform="translate(-111.999 10848)">
      <path id="Uni칩n_12" data-name="Uni칩n 12" d="M31,0A31,31,0,1,1,0,31,31,31,0,0,1,31,0Z" transform="translate(384.999 2058)" fill="#cadeb4"/>
    </g>
    <g id="Grupo_1080535" data-name="Grupo 1080535" transform="translate(284.958 12914.923)">
      <g id="Grupo_1080534" data-name="Grupo 1080534" clip-path="url(#clip-path)">
        <path id="Trazado_832154" data-name="Trazado 832154" d="M35.929,40.155a.521.521,0,0,0-.132-.072,3.645,3.645,0,0,1-2.209-1.439q-2.726-3.584-5.463-7.16c-.063-.082-.129-.162-.144-.181-1.153.652-2.247,1.363-3.417,1.914a15.921,15.921,0,0,1-8.434,1.526C8.789,34.022,3.755,30.176.994,23.339a14.6,14.6,0,0,1-.918-3.79A1.5,1.5,0,0,0,0,19.293V15.45a1.82,1.82,0,0,0,.073-.216,26.578,26.578,0,0,1,.582-2.785A17.153,17.153,0,0,1,13.137.463C13.884.259,14.659.152,15.42,0h3.836C19.9.125,20.563.216,21.2.38c6.732,1.734,11.147,5.942,12.96,12.654a16.8,16.8,0,0,1-2.741,14.573c-.067.1-.137.191-.2.287a.991.991,0,0,0-.048.092l3.129,2.4c1.439,1.1,2.883,2.2,4.315,3.309a3.586,3.586,0,0,1-1.34,6.384,1,1,0,0,0-.17.078ZM33.384,17.44A16.024,16.024,0,1,0,17.377,33.454,16.054,16.054,0,0,0,33.384,17.44M28.991,30.385,31,33.023q1.815,2.38,3.63,4.76a2.2,2.2,0,0,0,2.53.917,2.222,2.222,0,0,0,.681-3.892c-1.731-1.342-3.475-2.666-5.214-4l-2.291-1.755-1.347,1.328" fill="#627289"/>
        <path id="Trazado_832155" data-name="Trazado 832155" d="M453.079,454.037c-.01-.038-.008-.135-.054-.184a7.983,7.983,0,0,0-1.04-1.02c-.135-.1-.5.008-.691.132a.5.5,0,0,0-.143.727,4.778,4.778,0,0,0,1.014,1c.383.258.92-.138.915-.65" transform="translate(-415.674 -417.282)" fill="#627289"/>
        <path id="Trazado_832156" data-name="Trazado 832156" d="M63.2,48.079A14.917,14.917,0,0,1,58.255,59.8a14.222,14.222,0,0,1-8.1,3.644,14.734,14.734,0,0,1-7.364-28.221,20.7,20.7,0,0,1,2.107-.7.662.662,0,0,1,.9.448.67.67,0,0,1-.549.843,13.349,13.349,0,0,0-3.324,1.333,13,13,0,0,0-6.574,9.347,13.337,13.337,0,1,0,15.6-10.838,22.952,22.952,0,0,0-2.33-.234c-.523-.044-.831-.293-.816-.7s.337-.653.857-.652A14.7,14.7,0,0,1,62.806,45.522c.206.939.3,1.9.4,2.557" transform="translate(-31.118 -31.398)" fill="#627289"/>
        <path id="Trazado_832157" data-name="Trazado 832157" d="M111.425,110.414c-2.412,0-4.825.005-7.237,0a1.952,1.952,0,0,1-2.068-1.775,2.146,2.146,0,0,1,.355-1.412q3.158-5.426,6.311-10.855c.321-.552.635-1.109.964-1.657a1.924,1.924,0,0,1,3.416-.012q3.694,6.315,7.35,12.652a1.988,1.988,0,0,1-1.775,3.058c-2.438.013-4.877,0-7.316,0m.029-1.344c2.373,0,4.746-.029,7.118.017a.74.74,0,0,0,.709-1.2c-2.416-4.114-4.8-8.246-7.2-12.37-.377-.649-.855-.655-1.228-.015q-3.608,6.2-7.212,12.413c-.392.675-.116,1.158.656,1.158h7.158" transform="translate(-94.094 -86.321)" fill="#627289"/>
        <path id="Trazado_832158" data-name="Trazado 832158" d="M453.079,454.037c.005.513-.532.908-.915.65a4.778,4.778,0,0,1-1.014-1,.5.5,0,0,1,.143-.727c.189-.124.556-.229.691-.132a7.983,7.983,0,0,1,1.04,1.02c.047.049.044.145.054.184" transform="translate(-415.674 -417.282)" fill="#627289"/>
        <path id="Trazado_832159" data-name="Trazado 832159" d="M212.709,156.619c0-.731,0-1.462,0-2.193,0-.516.263-.827.681-.827s.677.308.679.829q.009,2.193,0,4.386c0,.566-.348.884-.815.789a.685.685,0,0,1-.543-.752c-.007-.744,0-1.488,0-2.232" transform="translate(-196.025 -141.552)" fill="#627289"/>
        <path id="Trazado_832160" data-name="Trazado 832160" d="M212.736,248.337c-.005-.657.221-.993.669-1s.689.339.689.986a2.9,2.9,0,0,1-.019.429.642.642,0,0,1-.655.6.667.667,0,0,1-.681-.62,3.223,3.223,0,0,1,0-.391" transform="translate(-196.047 -227.938)" fill="#627289"/>
      </g>
    </g>
  </g>
</svg>
