<svg xmlns="http://www.w3.org/2000/svg" xmlns:xlink="http://www.w3.org/1999/xlink" width="62" height="62" viewBox="0 0 62 62">
  <defs>
    <clipPath id="clip-path">
      <rect id="Rect치ngulo_379441" data-name="Rect치ngulo 379441" width="29.344" height="34.937" fill="#627289"/>
    </clipPath>
  </defs>
  <g id="Grupo_1015240" data-name="Grupo 1015240" transform="translate(-769 -12906)">
    <g id="Grupo_1014857" data-name="Grupo 1014857" transform="translate(384.001 10848)">
      <path id="Uni칩n_12" data-name="Uni칩n 12" d="M31,0A31,31,0,1,1,0,31,31,31,0,0,1,31,0Z" transform="translate(384.999 2058)" fill="#cadeb4"/>
    </g>
    <g id="Grupo_1080539" data-name="Grupo 1080539" transform="translate(788.328 12919.531)">
      <g id="Grupo_1080538" data-name="Grupo 1080538" clip-path="url(#clip-path)">
        <path id="Trazado_832164" data-name="Trazado 832164" d="M23.13,34.937h-.546c-.432-.348-.864-.164-1.3,0H2.593a3.972,3.972,0,0,1-1.56-.768A3.56,3.56,0,0,1,0,32.344V7.369a1.114,1.114,0,0,0,.064-.155A2.967,2.967,0,0,1,2.6,4.822a10.968,10.968,0,0,1,1.872-.04c.223,0,.331-.038.394-.289A2.353,2.353,0,0,1,7.139,2.73c.386,0,.772,0,1.166,0,.051-.127.094-.243.143-.356A3.626,3.626,0,0,1,11.575.021a3.616,3.616,0,0,1,3.594,1.82c.181.286.265.714.516.853.271.149.686.034,1.039.036A2.381,2.381,0,0,1,19.03,4.509c.023.086.05.171.079.268h1.583a3.053,3.053,0,0,1,3.187,3.2q0,5.612-.008,11.225a.423.423,0,0,0,.34.477c1.437.526,2.868,1.071,4.3,1.61a1.052,1.052,0,0,1,.826,1.172c0,1.228.019,2.457,0,3.685a9.3,9.3,0,0,1-3.449,7.2,10.5,10.5,0,0,1-2.755,1.595m-6.738-7.505v-2.05h-.425q-2.3,0-4.605,0a1.027,1.027,0,1,1,.011-2.044h4.985c.093-.742-.259-1.606.7-2.028-1.914-.021-3.79-.021-5.666-.023a1.582,1.582,0,0,1-.4-.034,1.021,1.021,0,0,1,.278-2.008c2.4,0,4.8-.009,7.2.007a1.643,1.643,0,0,1,.895.213,2.846,2.846,0,0,1,.547.807c.493-.186,1.049-.415,1.619-.6.257-.084.313-.211.312-.462-.009-2.945-.006-5.891-.006-8.836,0-.819,0-1.638,0-2.456a.947.947,0,0,0-.795-1.038A18.42,18.42,0,0,0,19.1,6.863c0,.317,0,.624,0,.93a1.01,1.01,0,0,1-1.061,1.075q-6.106,0-12.212,0A1.006,1.006,0,0,1,4.778,7.818c0-.325,0-.65,0-1H3.271a1.08,1.08,0,0,0-1.225,1.24q0,11.788,0,23.575c0,.86.391,1.255,1.244,1.255H18.913c.107,0,.214-.009.37-.016-.1-.112-.17-.186-.239-.257a9.165,9.165,0,0,1-1.9-2.848.406.406,0,0,0-.445-.3c-1.785.011-3.57.007-5.356.005a1.026,1.026,0,1,1,.007-2.044q2.354,0,4.707,0Zm10.9-2.355c0-.75-.008-1.262,0-1.773a.325.325,0,0,0-.243-.375c-1.331-.488-2.655-.993-3.985-1.483a.557.557,0,0,0-.354-.019q-2.058.758-4.106,1.543a.347.347,0,0,0-.18.26c.007,1.193-.056,2.394.069,3.576a7.191,7.191,0,0,0,4.01,5.832.661.661,0,0,0,.694.006,7.448,7.448,0,0,0,3.627-4.078,8.918,8.918,0,0,0,.464-3.488M6.822,6.8H17.058c0-.522,0-1.021,0-1.519,0-.39-.117-.5-.509-.506-.6,0-1.2,0-1.806,0a1.014,1.014,0,0,1-1.1-1.039,1.706,1.706,0,0,0-3.411.005,1.015,1.015,0,0,1-1.1,1.034c-.613,0-1.227,0-1.84,0-.284,0-.464.109-.468.411-.006.532,0,1.064,0,1.616" transform="translate(0 0)" fill="#627289"/>
        <path id="Trazado_832165" data-name="Trazado 832165" d="M154.512,163.736q-1.84,0-3.68,0a1.025,1.025,0,1,1-.012-2.044q3.663,0,7.325,0a1.026,1.026,0,1,1,.012,2.044q-1.823,0-3.646,0" transform="translate(-139.479 -150.636)" fill="#627289"/>
        <path id="Trazado_832166" data-name="Trazado 832166" d="M154.452,223.623q-1.806,0-3.611,0a1.027,1.027,0,1,1,0-2.044q3.645,0,7.291,0a1.027,1.027,0,1,1,0,2.044q-1.84,0-3.68,0" transform="translate(-139.478 -206.429)" fill="#627289"/>
        <path id="Trazado_832167" data-name="Trazado 832167" d="M61.943,163.676c-.352,0-.7.008-1.055,0a1.02,1.02,0,0,1,0-2.039q1.055-.015,2.109,0a1.02,1.02,0,0,1,0,2.039c-.351.009-.7,0-1.055,0" transform="translate(-55.804 -150.577)" fill="#627289"/>
        <path id="Trazado_832168" data-name="Trazado 832168" d="M61.929,223.571c-.34,0-.681.006-1.021,0a1.021,1.021,0,0,1,0-2.041q1.038-.013,2.075,0a1.02,1.02,0,0,1,0,2.041c-.351.008-.7,0-1.055,0" transform="translate(-55.804 -206.377)" fill="#627289"/>
        <path id="Trazado_832169" data-name="Trazado 832169" d="M61.966,281.44c.34,0,.681-.006,1.021,0a1.021,1.021,0,0,1-.011,2.041q-1.038.012-2.075,0a1.02,1.02,0,0,1,.011-2.041c.351-.007.7,0,1.055,0" transform="translate(-55.804 -262.196)" fill="#627289"/>
        <path id="Trazado_832170" data-name="Trazado 832170" d="M61.943,343.334c-.352,0-.7.008-1.055,0a1.02,1.02,0,0,1,0-2.039q1.055-.015,2.109,0a1.02,1.02,0,0,1,0,2.039c-.351.009-.7,0-1.055,0" transform="translate(-55.803 -317.952)" fill="#627289"/>
        <path id="Trazado_832171" data-name="Trazado 832171" d="M61.971,401.211c.34,0,.681-.007,1.021,0a1.02,1.02,0,0,1,.014,2.039c-.7.012-1.406.011-2.109,0a1.02,1.02,0,0,1,.02-2.041c.351-.006.7,0,1.055,0" transform="translate(-55.803 -373.778)" fill="#627289"/>
        <path id="Trazado_832172" data-name="Trazado 832172" d="M289.934,362.777c.743-.744,1.413-1.44,2.115-2.1a1.524,1.524,0,0,1,.731-.375.909.909,0,0,1,1,.539.969.969,0,0,1-.159,1.139c-.257.288-.54.553-.813.826q-1,1-2,2a1.054,1.054,0,0,1-1.692-.011c-.419-.417-.839-.834-1.253-1.255a1.031,1.031,0,1,1,1.445-1.461c.217.214.408.455.624.7" transform="translate(-267.838 -335.652)" fill="#627289"/>
      </g>
    </g>
  </g>
</svg>
