<svg xmlns="http://www.w3.org/2000/svg" xmlns:xlink="http://www.w3.org/1999/xlink" width="62" height="62" viewBox="0 0 62 62">
  <defs>
    <clipPath id="clip-path">
      <rect id="Rect치ngulo_379440" data-name="Rect치ngulo 379440" width="33.954" height="36.27" fill="#627289"/>
    </clipPath>
  </defs>
  <g id="Grupo_1080533" data-name="Grupo 1080533" transform="translate(-521 -12906)">
    <g id="Grupo_1014855" data-name="Grupo 1014855" transform="translate(136.001 10848)">
      <path id="Uni칩n_12" data-name="Uni칩n 12" d="M31,0A31,31,0,1,1,0,31,31,31,0,0,1,31,0Z" transform="translate(384.999 2058)" fill="#cadeb4"/>
    </g>
    <g id="Grupo_1080537" data-name="Grupo 1080537" transform="translate(535.024 12918.865)">
      <g id="Grupo_1080536" data-name="Grupo 1080536" clip-path="url(#clip-path)">
        <path id="Trazado_832161" data-name="Trazado 832161" d="M16.832,36.27c-.028-.021-.053-.054-.084-.062a3.548,3.548,0,0,1-2.885-3.438c0-.06-.008-.121-.014-.222-.131-.006-.259-.017-.386-.017-1.072,0-2.144,0-3.216,0-.6,0-.827-.2-.79-.779a7.754,7.754,0,0,0-1.414-4.595,47.313,47.313,0,0,0-3.844-5.1,48.967,48.967,0,0,1-4-5.3c-.331-.541-.262-.826.292-1.119A5.4,5.4,0,0,1,3.6,14.9a3.472,3.472,0,0,1,2.591,1.578c.327.468.654.939,1.008,1.387a7.469,7.469,0,0,0,.716.681c.144-.467.291-.823.363-1.194a30.141,30.141,0,0,0,.334-5.569c.022-2.582,0-5.165.007-7.748a2.071,2.071,0,0,1,1.613-2.221,7.111,7.111,0,0,1,1.472.007A2.157,2.157,0,0,1,12.729.3a2.1,2.1,0,0,1,1.4-.284,2.163,2.163,0,0,1,1.833,2.217,7.52,7.52,0,0,1,1.384-.026A2.034,2.034,0,0,1,19.022,4.23c.009,1.12,0,2.239,0,3.386a6.186,6.186,0,0,1,.62-.146A2.1,2.1,0,0,1,22.1,9.609c.012,2.765,0,5.53,0,8.3v.451a9.569,9.569,0,0,1,1.095-.349,3.506,3.506,0,0,1,3.852,1.8q2.16,3.725,4.307,7.458c.675,1.169,1.321,2.356,2.029,3.506a3.568,3.568,0,0,1-2.351,5.446.321.321,0,0,0-.094.053Zm-6.177-4.931c1.117,0,2.234,0,3.352-.008.079,0,.183-.1.23-.183q3.286-5.687,6.557-11.382a1.077,1.077,0,0,0,.13-.512c.008-2.534.006-5.068.006-7.6,0-.694.007-1.389,0-2.083a.935.935,0,0,0-.669-.9.884.884,0,0,0-1.028.352,1.654,1.654,0,0,0-.2.758c-.015,2.047-.008,4.093-.009,6.14,0,.11,0,.22,0,.329a.59.59,0,0,1-.562.566.6.6,0,0,1-.6-.565c-.009-.109,0-.219,0-.329q0-5.665,0-11.33a3.611,3.611,0,0,0-.006-.365.954.954,0,0,0-1.232-.847,1,1,0,0,0-.665,1.058q0,4.989,0,9.977a3.031,3.031,0,0,1-.006.365.565.565,0,0,1-.6.511.538.538,0,0,1-.554-.52,3.3,3.3,0,0,1-.007-.4q0-5.957,0-11.915a1.2,1.2,0,0,0-.067-.571,1.5,1.5,0,0,0-.563-.613c-.642-.3-1.269.205-1.269.976q0,5.683,0,11.366a2.371,2.371,0,0,1-.01.365.579.579,0,0,1-.616.5.544.544,0,0,1-.543-.535c-.012-.133-.008-.268-.008-.4q0-4.459,0-8.918a2.726,2.726,0,0,0-.013-.691,1.916,1.916,0,0,0-.371-.792.8.8,0,0,0-.983-.119.942.942,0,0,0-.532.923c0,2.656.027,5.312-.007,7.967-.021,1.606-.086,3.214-.227,4.813A6.956,6.956,0,0,1,9,18.851a1.209,1.209,0,0,1-1.948.474,3.786,3.786,0,0,1-.747-.692A14.578,14.578,0,0,1,5.273,17.22a2.767,2.767,0,0,0-3.84-.681c.428.595.83,1.2,1.282,1.773,1.566,1.975,3.189,3.906,4.716,5.91,1.6,2.1,3.149,4.26,3.224,7.116M23.925,35.1c2.083,0,4.167.005,6.25-.005a3.3,3.3,0,0,0,.934-.124,2.345,2.345,0,0,0,1.31-3.487c-.868-1.536-1.759-3.058-2.641-4.586q-1.861-3.224-3.721-6.449a2.514,2.514,0,0,0-1.363-1.2,2.363,2.363,0,0,0-2.874,1.126c-.854,1.46-1.692,2.929-2.538,4.393q-1.907,3.3-3.818,6.6a2.478,2.478,0,0,0-.35,1.852A2.36,2.36,0,0,0,17.529,35.1c2.132.008,4.264,0,6.4,0" transform="translate(0 0)" fill="#627289"/>
        <path id="Trazado_832162" data-name="Trazado 832162" d="M308.068,307.11c0,.9.019,1.8-.005,2.7a1.353,1.353,0,0,1-1.407,1.438,1.38,1.38,0,0,1-1.345-1.5q-.079-2.553-.182-5.1a1.37,1.37,0,0,1,1.408-1.542,2.669,2.669,0,0,1,.759.064,1.322,1.322,0,0,1,.945,1.321c0,.875,0,1.75,0,2.625h-.172m-1.2.058h.193c0-.851-.01-1.7.005-2.554.005-.3-.142-.332-.383-.335s-.382.05-.371.343c.066,1.7.114,3.405.182,5.107,0,.115.125.225.192.338.06-.115.171-.229.173-.346.015-.851.008-1.7.008-2.553" transform="translate(-282.774 -280.891)" fill="#627289"/>
        <path id="Trazado_832163" data-name="Trazado 832163" d="M304.735,424.074a1.59,1.59,0,1,1,1.582,1.59,1.618,1.618,0,0,1-1.582-1.59m1.979,0a.356.356,0,0,0-.386-.387.385.385,0,1,0-.007.769.358.358,0,0,0,.393-.383" transform="translate(-282.41 -391.53)" fill="#627289"/>
      </g>
    </g>
  </g>
</svg>
