<svg xmlns="http://www.w3.org/2000/svg" xmlns:xlink="http://www.w3.org/1999/xlink" width="505" height="150" viewBox="0 0 505 150">
  <defs>
    <clipPath id="clip-path">
      <rect id="Rectángulo_380569" data-name="Rectángulo 380569" width="35.767" height="29.54" fill="none"/>
    </clipPath>
    <clipPath id="clip-path-2">
      <rect id="Rectángulo_380570" data-name="Rectángulo 380570" width="30.503" height="30.39" fill="none"/>
    </clipPath>
    <clipPath id="clip-path-3">
      <rect id="Rectángulo_380571" data-name="Rectángulo 380571" width="29.316" height="29.23" fill="none"/>
    </clipPath>
  </defs>
  <g id="Grupo_1083542" data-name="Grupo 1083542" transform="translate(9600 12)">
    <g id="Grupo_1083530" data-name="Grupo 1083530" transform="translate(0 4148)">
      <rect id="Rectángulo_380563" data-name="Rectángulo 380563" width="505" height="150" transform="translate(-9600 -4160)" fill="#fff"/>
    </g>
    <path id="Trazado_838095" data-name="Trazado 838095" d="M504.445,0,517.6,56.554l-13.8,59.338H674.026l13.8-59.338L674.673,0Z" transform="translate(-9944.798 4.554)" fill="#bfcef9"/>
    <path id="Trazado_838096" data-name="Trazado 838096" d="M156.6,0H15.809C7.078,0,0,10.473,0,23.392V92.5c0,12.919,7.078,23.392,15.809,23.392H155.952l13.8-59.338Z" transform="translate(-9600 4.553)" fill="#c5dfb0"/>
    <path id="Trazado_838094" data-name="Trazado 838094" d="M1209.491,0H1053.445L1066.6,56.554l-13.8,59.338h156.694c8.731,0,15.809-10.473,15.809-23.392V23.392C1225.3,10.473,1218.222,0,1209.491,0" transform="translate(-10320.797 4.553)" fill="#ffb8aa"/>
    <path id="Trazado_838717" data-name="Trazado 838717" d="M0,0H505V78H0Z" transform="translate(-9600 11)" fill="none"/>
    <path id="Trazado_838718" data-name="Trazado 838718" d="M-26.108-12.8v8.552a4.156,4.156,0,0,1-1.305,3.23A4.958,4.958,0,0,1-30.889.176,4.993,4.993,0,0,1-34.378-1,4.176,4.176,0,0,1-35.67-4.254V-12.8h2.215v8.561a2.719,2.719,0,0,0,.65,1.96,2.537,2.537,0,0,0,1.916.677q2.566,0,2.566-2.707V-12.8Zm7.5,10.213a.968.968,0,0,0-.47-.87,5,5,0,0,0-1.56-.527,8.02,8.02,0,0,1-1.819-.58A2.428,2.428,0,0,1-24.06-6.8a2.531,2.531,0,0,1,1.037-2.057,4.1,4.1,0,0,1,2.637-.826,4.266,4.266,0,0,1,2.755.844,2.677,2.677,0,0,1,1.05,2.188h-2.136a1.316,1.316,0,0,0-.457-1.024,1.752,1.752,0,0,0-1.213-.409,1.893,1.893,0,0,0-1.147.325,1.025,1.025,0,0,0-.444.87.866.866,0,0,0,.413.765,5.68,5.68,0,0,0,1.67.549,7.9,7.9,0,0,1,1.973.659A2.794,2.794,0,0,1-16.857-4a2.342,2.342,0,0,1,.347,1.3A2.478,2.478,0,0,1-17.574-.62a4.535,4.535,0,0,1-2.786.8,4.917,4.917,0,0,1-2.083-.422,3.428,3.428,0,0,1-1.424-1.16A2.746,2.746,0,0,1-24.376-3H-22.3a1.5,1.5,0,0,0,.571,1.165,2.22,2.22,0,0,0,1.4.409,2.16,2.16,0,0,0,1.283-.321A.993.993,0,0,0-18.611-2.584ZM-8.89-.932A3.312,3.312,0,0,1-11.562.176,2.952,2.952,0,0,1-13.9-.729a3.851,3.851,0,0,1-.8-2.619V-9.51h2.136v6.135q0,1.811,1.5,1.811a2.111,2.111,0,0,0,2.1-1.116V-9.51h2.136V0H-8.837ZM1.033,0A3.3,3.3,0,0,1,.787-.888,3.325,3.325,0,0,1-1.709.176,3.355,3.355,0,0,1-4.047-.642a2.615,2.615,0,0,1-.905-2.021A2.7,2.7,0,0,1-3.823-5,5.473,5.473,0,0,1-.593-5.81H.716v-.624A1.666,1.666,0,0,0,.3-7.616,1.638,1.638,0,0,0-.954-8.06a1.881,1.881,0,0,0-1.2.365,1.129,1.129,0,0,0-.466.927H-4.75a2.37,2.37,0,0,1,.519-1.463A3.455,3.455,0,0,1-2.821-9.3,4.955,4.955,0,0,1-.831-9.686a3.99,3.99,0,0,1,2.663.839,2.993,2.993,0,0,1,1.02,2.36V-2.2a4.861,4.861,0,0,0,.36,2.048V0ZM-1.314-1.538A2.429,2.429,0,0,0-.123-1.846a2.055,2.055,0,0,0,.839-.826V-4.465H-.435a3.148,3.148,0,0,0-1.784.413,1.338,1.338,0,0,0-.6,1.169,1.248,1.248,0,0,0,.409.98A1.583,1.583,0,0,0-1.314-1.538ZM10.068-7.559a5.285,5.285,0,0,0-.87-.07A1.959,1.959,0,0,0,7.22-6.5V0H5.084V-9.51H7.124l.053,1.063A2.406,2.406,0,0,1,9.321-9.686a2,2,0,0,1,.756.123ZM13.689,0H11.553V-9.51h2.136ZM11.421-11.979a1.133,1.133,0,0,1,.312-.817,1.179,1.179,0,0,1,.892-.325,1.193,1.193,0,0,1,.9.325,1.125,1.125,0,0,1,.316.817,1.1,1.1,0,0,1-.316.8,1.2,1.2,0,0,1-.9.321,1.188,1.188,0,0,1-.892-.321A1.107,1.107,0,0,1,11.421-11.979Zm4.192,7.137a5.607,5.607,0,0,1,.554-2.518,4.044,4.044,0,0,1,1.556-1.723,4.383,4.383,0,0,1,2.3-.6A4.154,4.154,0,0,1,23.15-8.446a4.874,4.874,0,0,1,1.3,3.287l.009.5a5.658,5.658,0,0,1-.541,2.514A4,4,0,0,1,22.368-.431a4.415,4.415,0,0,1-2.325.606,4.125,4.125,0,0,1-3.221-1.34,5.133,5.133,0,0,1-1.208-3.573Zm2.136.185a3.832,3.832,0,0,0,.606,2.3,1.971,1.971,0,0,0,1.688.831,1.95,1.95,0,0,0,1.683-.844,4.232,4.232,0,0,0,.6-2.47,3.782,3.782,0,0,0-.62-2.285,1.979,1.979,0,0,0-1.683-.844,1.96,1.96,0,0,0-1.661.831A4.152,4.152,0,0,0,17.75-4.658ZM31.346,1.1H29.667L34.7-12.8h1.679ZM-42.983,18.471A1.931,1.931,0,0,0-41.656,18a1.591,1.591,0,0,0,.563-1.151h2.013a3.137,3.137,0,0,1-.554,1.657,3.632,3.632,0,0,1-1.406,1.217,4.191,4.191,0,0,1-1.916.448,4.055,4.055,0,0,1-3.164-1.292,5.124,5.124,0,0,1-1.169-3.568V15.1a5.039,5.039,0,0,1,1.16-3.476,4.018,4.018,0,0,1,3.164-1.305A3.907,3.907,0,0,1-40.2,11.3a3.542,3.542,0,0,1,1.121,2.6h-2.013a1.956,1.956,0,0,0-.558-1.345,1.8,1.8,0,0,0-1.332-.527,1.879,1.879,0,0,0-1.6.751,3.834,3.834,0,0,0-.571,2.281V15.4A3.9,3.9,0,0,0-44.6,17.71,1.878,1.878,0,0,0-42.983,18.471Zm5.115-3.313a5.607,5.607,0,0,1,.554-2.518,4.044,4.044,0,0,1,1.556-1.723,4.383,4.383,0,0,1,2.3-.6,4.154,4.154,0,0,1,3.125,1.239,4.874,4.874,0,0,1,1.3,3.287l.009.5a5.658,5.658,0,0,1-.541,2.514,4,4,0,0,1-1.547,1.714,4.415,4.415,0,0,1-2.325.606,4.125,4.125,0,0,1-3.221-1.34,5.133,5.133,0,0,1-1.208-3.573Zm2.136.185a3.832,3.832,0,0,0,.606,2.3,1.971,1.971,0,0,0,1.688.831,1.95,1.95,0,0,0,1.683-.844,4.232,4.232,0,0,0,.6-2.47,3.782,3.782,0,0,0-.62-2.285,1.979,1.979,0,0,0-1.683-.844,1.96,1.96,0,0,0-1.661.831A4.152,4.152,0,0,0-35.732,15.342Zm10.494-4.852.062,1.1a3.419,3.419,0,0,1,2.769-1.274q2.971,0,3.023,3.4V20H-21.52V13.839a1.958,1.958,0,0,0-.391-1.34,1.645,1.645,0,0,0-1.279-.435,2.058,2.058,0,0,0-1.925,1.169V20H-27.25V10.49Zm13.359,6.926a.968.968,0,0,0-.47-.87,5,5,0,0,0-1.56-.527,8.02,8.02,0,0,1-1.819-.58,2.428,2.428,0,0,1-1.6-2.241,2.531,2.531,0,0,1,1.037-2.057,4.1,4.1,0,0,1,2.637-.826,4.266,4.266,0,0,1,2.755.844,2.677,2.677,0,0,1,1.05,2.188h-2.136a1.316,1.316,0,0,0-.457-1.024,1.752,1.752,0,0,0-1.213-.409,1.893,1.893,0,0,0-1.147.325,1.025,1.025,0,0,0-.444.87.866.866,0,0,0,.413.765,5.68,5.68,0,0,0,1.67.549,7.9,7.9,0,0,1,1.973.659A2.794,2.794,0,0,1-10.125,16a2.342,2.342,0,0,1,.347,1.3,2.478,2.478,0,0,1-1.063,2.079,4.535,4.535,0,0,1-2.786.8,4.917,4.917,0,0,1-2.083-.422,3.428,3.428,0,0,1-1.424-1.16A2.746,2.746,0,0,1-17.644,17h2.074A1.5,1.5,0,0,0-15,18.167a2.22,2.22,0,0,0,1.4.409,2.16,2.16,0,0,0,1.283-.321A.993.993,0,0,0-11.878,17.416Zm9.721,1.652A3.312,3.312,0,0,1-4.83,20.176a2.952,2.952,0,0,1-2.342-.905,3.851,3.851,0,0,1-.8-2.619V10.49h2.136v6.135q0,1.811,1.5,1.811a2.111,2.111,0,0,0,2.1-1.116V10.49H-.092V20H-2.1ZM4.091,10.49l.062.993A3.422,3.422,0,0,1,6.9,10.314a2.629,2.629,0,0,1,2.61,1.459,3.373,3.373,0,0,1,2.918-1.459,2.965,2.965,0,0,1,2.342.87,3.831,3.831,0,0,1,.787,2.566V20H13.417V13.813a1.891,1.891,0,0,0-.4-1.327,1.731,1.731,0,0,0-1.31-.422,1.778,1.778,0,0,0-1.191.391,2.063,2.063,0,0,0-.646,1.024L9.883,20H7.748V13.742a1.523,1.523,0,0,0-1.714-1.679,1.88,1.88,0,0,0-1.819,1.046V20H2.079V10.49ZM20.017,20H17.881V10.49h2.136ZM17.75,8.021a1.133,1.133,0,0,1,.312-.817,1.179,1.179,0,0,1,.892-.325,1.193,1.193,0,0,1,.9.325,1.125,1.125,0,0,1,.316.817,1.1,1.1,0,0,1-.316.8,1.2,1.2,0,0,1-.9.321,1.188,1.188,0,0,1-.892-.321A1.107,1.107,0,0,1,17.75,8.021Zm4.192,7.154a5.654,5.654,0,0,1,1.02-3.529,3.267,3.267,0,0,1,2.733-1.332,3.1,3.1,0,0,1,2.443,1.055V6.5h2.136V20H28.34l-.105-.984a3.148,3.148,0,0,1-2.558,1.16,3.248,3.248,0,0,1-2.7-1.345A5.861,5.861,0,0,1,21.942,15.175Zm2.136.185a3.958,3.958,0,0,0,.558,2.263,1.811,1.811,0,0,0,1.586.813,2.017,2.017,0,0,0,1.916-1.169V13.206a1.986,1.986,0,0,0-1.9-1.143,1.824,1.824,0,0,0-1.6.822A4.408,4.408,0,0,0,24.078,15.359Zm8.024-.2a5.607,5.607,0,0,1,.554-2.518,4.044,4.044,0,0,1,1.556-1.723,4.383,4.383,0,0,1,2.3-.6,4.154,4.154,0,0,1,3.125,1.239,4.874,4.874,0,0,1,1.3,3.287l.009.5a5.658,5.658,0,0,1-.541,2.514,4,4,0,0,1-1.547,1.714,4.415,4.415,0,0,1-2.325.606,4.125,4.125,0,0,1-3.221-1.34A5.133,5.133,0,0,1,32.1,15.263Zm2.136.185a3.832,3.832,0,0,0,.606,2.3,1.971,1.971,0,0,0,1.688.831,1.95,1.95,0,0,0,1.683-.844,4.232,4.232,0,0,0,.6-2.47,3.782,3.782,0,0,0-.62-2.285,2.089,2.089,0,0,0-3.344-.013A4.152,4.152,0,0,0,34.238,15.342Zm13.491-2.9a5.285,5.285,0,0,0-.87-.07A1.959,1.959,0,0,0,44.881,13.5V20H42.746V10.49h2.039l.053,1.063a2.406,2.406,0,0,1,2.145-1.239,2,2,0,0,1,.756.123Z" transform="translate(-9515 75)"/>
    <path id="Trazado_838719" data-name="Trazado 838719" d="M-43.371-4.746V0h-2.224V-12.8h4.9a4.95,4.95,0,0,1,3.406,1.117,3.757,3.757,0,0,1,1.261,2.956,3.633,3.633,0,0,1-1.235,2.93,5.19,5.19,0,0,1-3.458,1.047Zm0-1.793H-40.7A2.632,2.632,0,0,0-38.888-7.1a2.051,2.051,0,0,0,.624-1.613,2.213,2.213,0,0,0-.633-1.657A2.439,2.439,0,0,0-40.637-11h-2.733Zm14.054-1.02a5.285,5.285,0,0,0-.87-.07A1.959,1.959,0,0,0-32.165-6.5V0H-34.3V-9.51h2.039l.053,1.063a2.406,2.406,0,0,1,2.145-1.239,2,2,0,0,1,.756.123Zm.471,2.716a5.607,5.607,0,0,1,.554-2.518,4.044,4.044,0,0,1,1.556-1.723,4.383,4.383,0,0,1,2.3-.6A4.154,4.154,0,0,1-21.31-8.446a4.874,4.874,0,0,1,1.3,3.287l.009.5a5.658,5.658,0,0,1-.541,2.514A4,4,0,0,1-22.092-.431a4.415,4.415,0,0,1-2.325.606,4.125,4.125,0,0,1-3.221-1.34,5.133,5.133,0,0,1-1.208-3.573Zm2.136.185a3.832,3.832,0,0,0,.606,2.3,1.971,1.971,0,0,0,1.688.831,1.95,1.95,0,0,0,1.683-.844,4.232,4.232,0,0,0,.6-2.47,3.783,3.783,0,0,0-.62-2.285,1.979,1.979,0,0,0-1.683-.844,1.96,1.96,0,0,0-1.661.831A4.152,4.152,0,0,0-26.71-4.658ZM-15.1-2.707l2.013-6.8h2.206L-14.18,0h-1.854l-3.322-9.51h2.215ZM-5.479.176A4.419,4.419,0,0,1-8.77-1.1a4.639,4.639,0,0,1-1.261-3.406v-.264a5.706,5.706,0,0,1,.549-2.544A4.181,4.181,0,0,1-7.94-9.062a4.078,4.078,0,0,1,2.215-.624,3.733,3.733,0,0,1,3,1.239A5.24,5.24,0,0,1-1.665-4.939v.861H-7.878a2.856,2.856,0,0,0,.787,1.863,2.362,2.362,0,0,0,1.736.686A2.892,2.892,0,0,0-2.965-2.716l1.151,1.1A3.845,3.845,0,0,1-3.339-.294,4.774,4.774,0,0,1-5.479.176Zm-.255-8.147a1.8,1.8,0,0,0-1.419.615,3.189,3.189,0,0,0-.69,1.714h4.069V-5.8a2.6,2.6,0,0,0-.571-1.622A1.785,1.785,0,0,0-5.734-7.972ZM4.18.176A4.419,4.419,0,0,1,.889-1.1,4.639,4.639,0,0,1-.373-4.509v-.264A5.706,5.706,0,0,1,.177-7.317,4.181,4.181,0,0,1,1.719-9.062a4.078,4.078,0,0,1,2.215-.624,3.733,3.733,0,0,1,3,1.239A5.24,5.24,0,0,1,7.995-4.939v.861H1.781a2.856,2.856,0,0,0,.787,1.863A2.362,2.362,0,0,0,4.3-1.529,2.892,2.892,0,0,0,6.694-2.716l1.151,1.1A3.845,3.845,0,0,1,6.32-.294,4.774,4.774,0,0,1,4.18.176ZM3.925-7.972a1.8,1.8,0,0,0-1.419.615,3.189,3.189,0,0,0-.69,1.714H5.885V-5.8a2.6,2.6,0,0,0-.571-1.622A1.785,1.785,0,0,0,3.925-7.972ZM9.252-4.825a5.654,5.654,0,0,1,1.02-3.529A3.267,3.267,0,0,1,13-9.686a3.1,3.1,0,0,1,2.443,1.055V-13.5h2.136V0H15.65l-.105-.984A3.148,3.148,0,0,1,12.987.176a3.248,3.248,0,0,1-2.7-1.345A5.861,5.861,0,0,1,9.252-4.825Zm2.136.185a3.958,3.958,0,0,0,.558,2.263,1.811,1.811,0,0,0,1.586.813,2.017,2.017,0,0,0,1.916-1.169V-6.794a1.986,1.986,0,0,0-1.9-1.143,1.824,1.824,0,0,0-1.6.822A4.408,4.408,0,0,0,11.387-4.641Zm8.024-.2a5.607,5.607,0,0,1,.554-2.518,4.044,4.044,0,0,1,1.556-1.723,4.383,4.383,0,0,1,2.3-.6,4.154,4.154,0,0,1,3.125,1.239,4.874,4.874,0,0,1,1.3,3.287l.009.5a5.658,5.658,0,0,1-.541,2.514A4,4,0,0,1,26.166-.431a4.415,4.415,0,0,1-2.325.606,4.125,4.125,0,0,1-3.221-1.34,5.133,5.133,0,0,1-1.208-3.573Zm2.136.185a3.832,3.832,0,0,0,.606,2.3,1.971,1.971,0,0,0,1.688.831,1.95,1.95,0,0,0,1.683-.844,4.232,4.232,0,0,0,.6-2.47,3.782,3.782,0,0,0-.62-2.285,1.979,1.979,0,0,0-1.683-.844,1.96,1.96,0,0,0-1.661.831A4.152,4.152,0,0,0,21.547-4.658Zm13.491-2.9a5.285,5.285,0,0,0-.87-.07A1.959,1.959,0,0,0,32.191-6.5V0H30.055V-9.51h2.039l.053,1.063a2.406,2.406,0,0,1,2.145-1.239,2,2,0,0,1,.756.123ZM41.472,1.1H39.793L44.83-12.8h1.679Zm-74.91,14.243a5.662,5.662,0,0,1-1,3.52,3.209,3.209,0,0,1-2.689,1.314,3.23,3.23,0,0,1-2.5-1.028v4.509H-41.77V10.49H-39.8l.088.967a3.137,3.137,0,0,1,2.558-1.143,3.242,3.242,0,0,1,2.729,1.3,5.813,5.813,0,0,1,.989,3.6Zm-2.127-.185a3.966,3.966,0,0,0-.567-2.259,1.843,1.843,0,0,0-1.622-.835,1.965,1.965,0,0,0-1.881,1.081v4.219a1.983,1.983,0,0,0,1.9,1.107,1.841,1.841,0,0,0,1.6-.822A4.366,4.366,0,0,0-35.565,15.157Zm8.912-2.716a5.285,5.285,0,0,0-.87-.07A1.959,1.959,0,0,0-29.5,13.5V20h-2.136V10.49H-29.6l.053,1.063A2.406,2.406,0,0,1-27.4,10.314a2,2,0,0,1,.756.123Zm.633,2.716a5.607,5.607,0,0,1,.554-2.518,4.044,4.044,0,0,1,1.556-1.723,4.383,4.383,0,0,1,2.3-.6,4.154,4.154,0,0,1,3.125,1.239,4.874,4.874,0,0,1,1.3,3.287l.009.5a5.658,5.658,0,0,1-.541,2.514,4,4,0,0,1-1.547,1.714,4.415,4.415,0,0,1-2.325.606,4.125,4.125,0,0,1-3.221-1.34,5.133,5.133,0,0,1-1.208-3.573Zm2.136.185a3.832,3.832,0,0,0,.606,2.3,1.971,1.971,0,0,0,1.688.831,1.95,1.95,0,0,0,1.683-.844,4.232,4.232,0,0,0,.6-2.47,3.782,3.782,0,0,0-.62-2.285,1.979,1.979,0,0,0-1.683-.844,1.96,1.96,0,0,0-1.661.831A4.152,4.152,0,0,0-23.884,15.342Zm8.112-.167a5.654,5.654,0,0,1,1.02-3.529,3.267,3.267,0,0,1,2.733-1.332,3.1,3.1,0,0,1,2.443,1.055V6.5H-7.44V20H-9.374l-.105-.984a3.148,3.148,0,0,1-2.558,1.16,3.248,3.248,0,0,1-2.7-1.345A5.861,5.861,0,0,1-15.772,15.175Zm2.136.185a3.958,3.958,0,0,0,.558,2.263,1.811,1.811,0,0,0,1.586.813,2.017,2.017,0,0,0,1.916-1.169V13.206a1.986,1.986,0,0,0-1.9-1.143,1.824,1.824,0,0,0-1.6.822A4.408,4.408,0,0,0-13.636,15.359ZM.549,19.068a3.312,3.312,0,0,1-2.672,1.107,2.952,2.952,0,0,1-2.342-.905,3.851,3.851,0,0,1-.8-2.619V10.49h2.136v6.135q0,1.811,1.5,1.811a2.111,2.111,0,0,0,2.1-1.116V10.49H2.615V20H.6Zm8.147-.6A1.931,1.931,0,0,0,10.024,18a1.591,1.591,0,0,0,.563-1.151H12.6a3.137,3.137,0,0,1-.554,1.657,3.632,3.632,0,0,1-1.406,1.217,4.191,4.191,0,0,1-1.916.448,4.055,4.055,0,0,1-3.164-1.292A5.124,5.124,0,0,1,4.39,15.315V15.1A5.039,5.039,0,0,1,5.55,11.62a4.018,4.018,0,0,1,3.164-1.305,3.907,3.907,0,0,1,2.764.989A3.542,3.542,0,0,1,12.6,13.9H10.586a1.956,1.956,0,0,0-.558-1.345A1.8,1.8,0,0,0,8.7,12.028a1.879,1.879,0,0,0-1.6.751,3.834,3.834,0,0,0-.571,2.281V15.4a3.9,3.9,0,0,0,.558,2.307A1.878,1.878,0,0,0,8.7,18.471ZM16.888,8.179V10.49h1.679v1.582H16.888v5.309a1.169,1.169,0,0,0,.215.787,1,1,0,0,0,.769.242,3.29,3.29,0,0,0,.747-.088v1.652a5.26,5.26,0,0,1-1.406.2q-2.461,0-2.461-2.716V12.072H13.188V10.49h1.564V8.179Zm2.646,6.979a5.607,5.607,0,0,1,.554-2.518,4.044,4.044,0,0,1,1.556-1.723,4.383,4.383,0,0,1,2.3-.6,4.154,4.154,0,0,1,3.125,1.239,4.874,4.874,0,0,1,1.3,3.287l.009.5a5.658,5.658,0,0,1-.541,2.514,4,4,0,0,1-1.547,1.714,4.415,4.415,0,0,1-2.325.606,4.125,4.125,0,0,1-3.221-1.34,5.133,5.133,0,0,1-1.208-3.573Zm2.136.185a3.832,3.832,0,0,0,.606,2.3,1.971,1.971,0,0,0,1.688.831,1.95,1.95,0,0,0,1.683-.844,4.232,4.232,0,0,0,.6-2.47,3.782,3.782,0,0,0-.62-2.285,2.089,2.089,0,0,0-3.344-.013A4.152,4.152,0,0,0,21.669,15.342Zm13.843,2.074a.968.968,0,0,0-.47-.87,5,5,0,0,0-1.56-.527,8.02,8.02,0,0,1-1.819-.58,2.428,2.428,0,0,1-1.6-2.241A2.531,2.531,0,0,1,31.1,11.141a4.1,4.1,0,0,1,2.637-.826,4.266,4.266,0,0,1,2.755.844,2.677,2.677,0,0,1,1.05,2.188H35.407a1.316,1.316,0,0,0-.457-1.024,1.752,1.752,0,0,0-1.213-.409,1.893,1.893,0,0,0-1.147.325,1.025,1.025,0,0,0-.444.87.866.866,0,0,0,.413.765,5.68,5.68,0,0,0,1.67.549,7.9,7.9,0,0,1,1.973.659A2.794,2.794,0,0,1,37.266,16a2.342,2.342,0,0,1,.347,1.3,2.478,2.478,0,0,1-1.063,2.079,4.535,4.535,0,0,1-2.786.8,4.917,4.917,0,0,1-2.083-.422,3.428,3.428,0,0,1-1.424-1.16A2.746,2.746,0,0,1,29.747,17h2.074a1.5,1.5,0,0,0,.571,1.165,2.22,2.22,0,0,0,1.4.409,2.16,2.16,0,0,0,1.283-.321A.993.993,0,0,0,35.512,17.416Z" transform="translate(-9347 75)"/>
    <path id="Trazado_838720" data-name="Trazado 838720" d="M-30.877-2.979h-4.957L-36.872,0h-2.312l4.834-12.8h2L-27.511,0h-2.32ZM-35.21-4.772H-31.5l-1.854-5.309ZM-20.6-.932A3.312,3.312,0,0,1-23.268.176,2.952,2.952,0,0,1-25.61-.729a3.851,3.851,0,0,1-.8-2.619V-9.51h2.136v6.135q0,1.811,1.5,1.811a2.111,2.111,0,0,0,2.1-1.116V-9.51h2.136V0h-2.013Zm6.917-10.89V-9.51H-12v1.582h-1.679v5.309a1.169,1.169,0,0,0,.215.787,1,1,0,0,0,.769.242,3.29,3.29,0,0,0,.747-.088V-.026a5.26,5.26,0,0,1-1.406.2q-2.461,0-2.461-2.716V-7.928H-17.38V-9.51h1.564v-2.312ZM-11.2-4.843a5.607,5.607,0,0,1,.554-2.518A4.044,4.044,0,0,1-9.086-9.083a4.383,4.383,0,0,1,2.3-.6A4.154,4.154,0,0,1-3.659-8.446a4.874,4.874,0,0,1,1.3,3.287l.009.5a5.658,5.658,0,0,1-.541,2.514A4,4,0,0,1-4.441-.431,4.415,4.415,0,0,1-6.766.176a4.125,4.125,0,0,1-3.221-1.34A5.133,5.133,0,0,1-11.2-4.737Zm2.136.185a3.832,3.832,0,0,0,.606,2.3,1.971,1.971,0,0,0,1.688.831,1.95,1.95,0,0,0,1.683-.844,4.232,4.232,0,0,0,.6-2.47A3.782,3.782,0,0,0-5.1-7.128a1.979,1.979,0,0,0-1.683-.844,1.96,1.96,0,0,0-1.661.831A4.152,4.152,0,0,0-9.06-4.658Zm13.491-2.9a5.285,5.285,0,0,0-.87-.07A1.959,1.959,0,0,0,1.583-6.5V0H-.552V-9.51H1.487L1.54-8.446A2.406,2.406,0,0,1,3.684-9.686a2,2,0,0,1,.756.123ZM8.052,0H5.916V-9.51H8.052ZM5.785-11.979A1.133,1.133,0,0,1,6.1-12.8a1.179,1.179,0,0,1,.892-.325,1.193,1.193,0,0,1,.9.325,1.125,1.125,0,0,1,.316.817,1.1,1.1,0,0,1-.316.8,1.2,1.2,0,0,1-.9.321,1.188,1.188,0,0,1-.892-.321A1.107,1.107,0,0,1,5.785-11.979ZM9.977-4.825A5.654,5.654,0,0,1,11-8.354,3.267,3.267,0,0,1,13.73-9.686a3.1,3.1,0,0,1,2.443,1.055V-13.5h2.136V0H16.375L16.27-.984A3.148,3.148,0,0,1,13.712.176a3.248,3.248,0,0,1-2.7-1.345A5.861,5.861,0,0,1,9.977-4.825Zm2.136.185a3.958,3.958,0,0,0,.558,2.263,1.811,1.811,0,0,0,1.586.813,2.017,2.017,0,0,0,1.916-1.169V-6.794a1.986,1.986,0,0,0-1.9-1.143,1.824,1.824,0,0,0-1.6.822A4.408,4.408,0,0,0,12.113-4.641ZM26.219,0a3.3,3.3,0,0,1-.246-.888,3.325,3.325,0,0,1-2.5,1.063,3.355,3.355,0,0,1-2.338-.817,2.615,2.615,0,0,1-.905-2.021A2.7,2.7,0,0,1,21.363-5a5.473,5.473,0,0,1,3.23-.813H25.9v-.624a1.666,1.666,0,0,0-.413-1.182,1.638,1.638,0,0,0-1.257-.444,1.881,1.881,0,0,0-1.2.365,1.129,1.129,0,0,0-.466.927H20.436a2.37,2.37,0,0,1,.519-1.463A3.455,3.455,0,0,1,22.365-9.3a4.955,4.955,0,0,1,1.991-.387,3.99,3.99,0,0,1,2.663.839,2.993,2.993,0,0,1,1.02,2.36V-2.2A4.861,4.861,0,0,0,28.4-.149V0ZM23.873-1.538a2.429,2.429,0,0,0,1.191-.308,2.055,2.055,0,0,0,.839-.826V-4.465H24.751a3.148,3.148,0,0,0-1.784.413,1.338,1.338,0,0,0-.6,1.169,1.248,1.248,0,0,0,.409.98A1.583,1.583,0,0,0,23.873-1.538Zm6-3.287a5.654,5.654,0,0,1,1.02-3.529,3.267,3.267,0,0,1,2.733-1.332,3.1,3.1,0,0,1,2.443,1.055V-13.5h2.136V0H36.274l-.105-.984A3.148,3.148,0,0,1,33.611.176a3.248,3.248,0,0,1-2.7-1.345A5.861,5.861,0,0,1,29.875-4.825Zm2.136.185a3.958,3.958,0,0,0,.558,2.263,1.811,1.811,0,0,0,1.586.813,2.017,2.017,0,0,0,1.916-1.169V-6.794a1.986,1.986,0,0,0-1.9-1.143,1.824,1.824,0,0,0-1.6.822A4.408,4.408,0,0,0,32.011-4.641Zm-60.6,22.057a.968.968,0,0,0-.47-.87,5,5,0,0,0-1.56-.527,8.02,8.02,0,0,1-1.819-.58,2.428,2.428,0,0,1-1.6-2.241A2.531,2.531,0,0,1-33,11.141a4.1,4.1,0,0,1,2.637-.826,4.266,4.266,0,0,1,2.755.844,2.677,2.677,0,0,1,1.05,2.188h-2.136a1.316,1.316,0,0,0-.457-1.024,1.752,1.752,0,0,0-1.213-.409,1.893,1.893,0,0,0-1.147.325,1.025,1.025,0,0,0-.444.87.866.866,0,0,0,.413.765,5.68,5.68,0,0,0,1.67.549,7.9,7.9,0,0,1,1.973.659A2.794,2.794,0,0,1-26.833,16a2.342,2.342,0,0,1,.347,1.3,2.478,2.478,0,0,1-1.063,2.079,4.535,4.535,0,0,1-2.786.8,4.917,4.917,0,0,1-2.083-.422,3.428,3.428,0,0,1-1.424-1.16A2.746,2.746,0,0,1-34.352,17h2.074a1.5,1.5,0,0,0,.571,1.165,2.22,2.22,0,0,0,1.4.409,2.16,2.16,0,0,0,1.283-.321A.993.993,0,0,0-28.586,17.416ZM-18.945,20a3.3,3.3,0,0,1-.246-.888,3.325,3.325,0,0,1-2.5,1.063,3.355,3.355,0,0,1-2.338-.817,2.615,2.615,0,0,1-.905-2.021A2.7,2.7,0,0,1-23.8,15a5.473,5.473,0,0,1,3.23-.813h1.31v-.624a1.666,1.666,0,0,0-.413-1.182,1.638,1.638,0,0,0-1.257-.444,1.881,1.881,0,0,0-1.2.365,1.129,1.129,0,0,0-.466.927h-2.136a2.37,2.37,0,0,1,.519-1.463A3.455,3.455,0,0,1-22.8,10.7a4.955,4.955,0,0,1,1.991-.387,3.99,3.99,0,0,1,2.663.839,2.993,2.993,0,0,1,1.02,2.36V17.8a4.861,4.861,0,0,0,.36,2.048V20Zm-2.347-1.538a2.429,2.429,0,0,0,1.191-.308,2.055,2.055,0,0,0,.839-.826V15.535h-1.151a3.148,3.148,0,0,0-1.784.413,1.338,1.338,0,0,0-.6,1.169,1.248,1.248,0,0,0,.409.98A1.583,1.583,0,0,0-21.292,18.462Zm8.385-7.972.062,1.1a3.419,3.419,0,0,1,2.769-1.274q2.971,0,3.023,3.4V20H-9.189V13.839A1.958,1.958,0,0,0-9.58,12.5a1.645,1.645,0,0,0-1.279-.435,2.058,2.058,0,0,0-1.925,1.169V20h-2.136V10.49ZM-2.606,20H-4.742V10.49h2.136ZM-4.874,8.021A1.133,1.133,0,0,1-4.562,7.2a1.179,1.179,0,0,1,.892-.325,1.193,1.193,0,0,1,.9.325,1.125,1.125,0,0,1,.316.817,1.1,1.1,0,0,1-.316.8,1.2,1.2,0,0,1-.9.321,1.188,1.188,0,0,1-.892-.321A1.107,1.107,0,0,1-4.874,8.021ZM2.4,8.179V10.49H4.074v1.582H2.4v5.309a1.169,1.169,0,0,0,.215.787,1,1,0,0,0,.769.242,3.29,3.29,0,0,0,.747-.088v1.652a5.26,5.26,0,0,1-1.406.2q-2.461,0-2.461-2.716V12.072H-1.305V10.49H.259V8.179ZM11.386,20a3.3,3.3,0,0,1-.246-.888,3.325,3.325,0,0,1-2.5,1.063,3.355,3.355,0,0,1-2.338-.817A2.615,2.615,0,0,1,5.4,17.337,2.7,2.7,0,0,1,6.53,15a5.473,5.473,0,0,1,3.23-.813h1.31v-.624a1.666,1.666,0,0,0-.413-1.182A1.638,1.638,0,0,0,9.4,11.94a1.881,1.881,0,0,0-1.2.365,1.129,1.129,0,0,0-.466.927H5.6a2.37,2.37,0,0,1,.519-1.463A3.455,3.455,0,0,1,7.532,10.7a4.955,4.955,0,0,1,1.991-.387,3.99,3.99,0,0,1,2.663.839,2.993,2.993,0,0,1,1.02,2.36V17.8a4.861,4.861,0,0,0,.36,2.048V20ZM9.04,18.462a2.429,2.429,0,0,0,1.191-.308,2.055,2.055,0,0,0,.839-.826V15.535H9.918a3.148,3.148,0,0,0-1.784.413,1.338,1.338,0,0,0-.6,1.169,1.248,1.248,0,0,0,.409.98A1.583,1.583,0,0,0,9.04,18.462Zm11.382-6.021a5.285,5.285,0,0,0-.87-.07A1.959,1.959,0,0,0,17.574,13.5V20H15.438V10.49h2.039l.053,1.063a2.406,2.406,0,0,1,2.145-1.239,2,2,0,0,1,.756.123ZM24.042,20H21.907V10.49h2.136ZM21.775,8.021a1.133,1.133,0,0,1,.312-.817,1.179,1.179,0,0,1,.892-.325,1.193,1.193,0,0,1,.9.325,1.125,1.125,0,0,1,.316.817,1.1,1.1,0,0,1-.316.8,1.2,1.2,0,0,1-.9.321,1.188,1.188,0,0,1-.892-.321A1.107,1.107,0,0,1,21.775,8.021ZM32.049,20a3.3,3.3,0,0,1-.246-.888,3.593,3.593,0,0,1-4.834.246,2.615,2.615,0,0,1-.905-2.021A2.7,2.7,0,0,1,27.193,15a5.473,5.473,0,0,1,3.23-.813h1.31v-.624a1.666,1.666,0,0,0-.413-1.182,1.638,1.638,0,0,0-1.257-.444,1.881,1.881,0,0,0-1.2.365,1.129,1.129,0,0,0-.466.927H26.266a2.37,2.37,0,0,1,.519-1.463A3.455,3.455,0,0,1,28.2,10.7a4.955,4.955,0,0,1,1.991-.387,3.99,3.99,0,0,1,2.663.839,2.993,2.993,0,0,1,1.02,2.36V17.8a4.861,4.861,0,0,0,.36,2.048V20ZM29.7,18.462a2.429,2.429,0,0,0,1.191-.308,2.055,2.055,0,0,0,.839-.826V15.535H30.582a3.148,3.148,0,0,0-1.784.413,1.338,1.338,0,0,0-.6,1.169,1.248,1.248,0,0,0,.409.98A1.583,1.583,0,0,0,29.7,18.462Z" transform="translate(-9181 75)"/>
    <g id="Grupo_1083540" data-name="Grupo 1083540" transform="translate(-9528.939 19.306)">
      <g id="Grupo_1083532" data-name="Grupo 1083532" clip-path="url(#clip-path)">
        <path id="Trazado_838085" data-name="Trazado 838085" d="M17.919,128.125H3.307A3.167,3.167,0,0,1,.61,126.8a2.9,2.9,0,0,1-.571-1.615c-.013-.28-.029-.56-.03-.84,0-1.6-.019-3.2,0-4.8a5.163,5.163,0,0,1,2.673-4.644,4.67,4.67,0,0,1,2.384-.677c1.4,0,2.8,0,4.193.013a2.649,2.649,0,0,1,.65.136.248.248,0,0,0,.333-.147,4.977,4.977,0,0,1,1.713-1.837,4.826,4.826,0,0,1,2.617-.827c1.954-.013,3.908-.015,5.862-.019a7.151,7.151,0,0,1,1.659.121A5.13,5.13,0,0,1,25,113.447a8.376,8.376,0,0,1,.538.788c.073.115.138.185.287.135a5.225,5.225,0,0,1,1.694-.16c1.122,0,2.244,0,3.366.013a4.389,4.389,0,0,1,1.849.486,5.175,5.175,0,0,1,2.8,3.248,5.631,5.631,0,0,1,.225,1.645c.01,1.693.007,3.386,0,5.079a3.414,3.414,0,0,1-.535,2.027,3.121,3.121,0,0,1-2.667,1.413q-7.32.013-14.641,0Zm6.193-2.081c0-.052.007-.085.007-.118q0-4.585,0-9.17a3.018,3.018,0,0,0-.583-1.832,2.945,2.945,0,0,0-2.081-1.265,12.476,12.476,0,0,0-1.419-.047q-2.619-.006-5.238,0a3.062,3.062,0,0,0-2.15.832,3.174,3.174,0,0,0-.854,1.341,3.585,3.585,0,0,0-.146,1.158q0,4.36,0,8.72c0,.375,0,.377.373.377H24.112M9.565,121.222h0q0-2.22,0-4.44c0-.443-.015-.467-.461-.468-1.364,0-2.727.005-4.091,0a2.368,2.368,0,0,0-1.034.243A3.07,3.07,0,0,0,2.1,119.488c-.018,1.828,0,3.656,0,5.485a1.058,1.058,0,0,0,1.079,1.087c.184,0,.367-.014.551-.014q2.844,0,5.687,0c.128,0,.153-.038.153-.154q0-2.336,0-4.672m16.648,4.814c.05,0,.073.007.1.007q3.119.008,6.238.014a1.053,1.053,0,0,0,1.126-1.123c0-1.794,0-3.588,0-5.382a3.684,3.684,0,0,0-.073-.778,3.066,3.066,0,0,0-1.853-2.243,2.144,2.144,0,0,0-.792-.207c-1.242-.025-2.485-.018-3.728-.018a6.888,6.888,0,0,0-.752.034c-.266.029-.265.042-.265.3q0,4.6,0,9.2v.2" transform="translate(0 -98.587)" fill="#161615"/>
        <path id="Trazado_838086" data-name="Trazado 838086" d="M100.585,6.306a6.208,6.208,0,1,1,6.252,6.068,6.212,6.212,0,0,1-6.252-6.068m6.219,3.979a4.11,4.11,0,1,0-4.141-4.144,4.1,4.1,0,0,0,4.141,4.144" transform="translate(-88.908 0)" fill="#161615"/>
        <path id="Trazado_838087" data-name="Trazado 838087" d="M29.543,54.275A4.645,4.645,0,1,1,25,49.651a4.641,4.641,0,0,1,4.547,4.623M27.46,54.3a2.562,2.562,0,1,0-2.618,2.532A2.555,2.555,0,0,0,27.46,54.3" transform="translate(-17.901 -43.887)" fill="#161615"/>
        <path id="Trazado_838088" data-name="Trazado 838088" d="M212.547,49.6a4.629,4.629,0,1,1-4.647,4.583,4.673,4.673,0,0,1,4.647-4.583m2.547,4.625a2.558,2.558,0,1,0-2.555,2.558,2.537,2.537,0,0,0,2.555-2.558" transform="translate(-183.765 -43.846)" fill="#161615"/>
      </g>
    </g>
    <g id="Grupo_1083538" data-name="Grupo 1083538" transform="translate(-9364 18.456)">
      <g id="Grupo_1083534" data-name="Grupo 1083534" clip-path="url(#clip-path-2)">
        <path id="Trazado_838089" data-name="Trazado 838089" d="M30.483,15.194c0,2.672,0,5.344,0,8.016a1.032,1.032,0,0,1-.677,1.04c-.742.32-1.487.633-2.231.95Q25,26.3,22.424,27.392q-2.079.887-4.154,1.783c-.892.383-1.781.773-2.677,1.145a.944.944,0,0,1-.78-.031c-.358-.166-.726-.313-1.089-.469q-1.066-.456-2.132-.912Q9.9,28.188,8.208,27.47c-1.164-.5-2.325-1-3.488-1.5C3.375,25.4,2.028,24.826.684,24.247a1.369,1.369,0,0,1-.375-.238A.963.963,0,0,1,0,23.253c0-2.2,0-4.4,0-6.6q0-4.642,0-9.284c0-.1.006-.2.006-.3A.915.915,0,0,1,.59,6.18c.685-.308,1.379-.6,2.069-.893L8.016,3l3.709-1.584c1-.428,2.007-.848,3-1.287A1.264,1.264,0,0,1,15.365,0a.761.761,0,0,1,.23.052c1.062.454,2.122.913,3.185,1.367q2.546,1.087,5.093,2.169l5.809,2.475a1.3,1.3,0,0,1,.658.483.883.883,0,0,1,.149.47c0,.872.012,1.743.013,2.615q0,2.78,0,5.56h-.019M28.453,8.606a.788.788,0,0,0-.077.021l-3.2,1.308-7.657,3.14c-.37.152-.739.305-1.111.453a.2.2,0,0,0-.157.245,3.384,3.384,0,0,1,.013.435q0,5.758,0,11.516c0,.669,0,1.338-.006,2.007a1.2,1.2,0,0,0,.015.132c.112-.053.2-.1.294-.139l4.582-1.956L26.233,23.6c.7-.3,1.389-.6,2.086-.889a.2.2,0,0,0,.137-.218q0-6.867,0-13.734ZM2.036,8.588v.169q0,6.808-.006,13.615a.362.362,0,0,0,.26.4c1.159.485,2.315.978,3.47,1.471L13.6,27.59l.606.26a1.253,1.253,0,0,0,.019-.156c0-.343-.008-.687-.008-1.03q0-6.477.01-12.955a.154.154,0,0,0-.117-.163q-1.122-.459-2.243-.922Q9.628,11.7,7.385,10.779C5.609,10.05,3.833,9.324,2.036,8.588m24.843-1.52a.906.906,0,0,0-.1-.066c-.574-.243-1.15-.483-1.724-.728q-1.564-.666-3.127-1.338a.488.488,0,0,0-.428,0q-2.572,1.192-5.145,2.379L10.856,9.845c-.058.027-.113.059-.195.1.149.065.268.12.389.17q2.024.83,4.048,1.66a.333.333,0,0,0,.283,0q3.1-1.273,6.2-2.538Q23.791,8.337,26,7.428l.875-.36M19.187,3.782c-.083-.039-.124-.061-.167-.079Q17.165,2.91,15.31,2.121a.206.206,0,0,0-.145,0q-1.383.587-2.763,1.181Q9.559,4.52,6.716,5.731c-1.015.431-2.032.856-3.047,1.285-.013.006-.02.024-.042.05.065.029.119.055.174.078l2.158.887c.671.275,1.342.548,2.012.825a.328.328,0,0,0,.287-.01q2.63-1.223,5.263-2.438t5.257-2.421c.126-.058.248-.124.41-.205" transform="translate(0.001 0)" fill="#161615"/>
        <path id="Trazado_838090" data-name="Trazado 838090" d="M29.335,164.22a1,1,0,0,1-.517-.13q-1.016-.455-2.037-.9a1.2,1.2,0,0,1-.644-.535.96.96,0,0,1,.138-1.115.993.993,0,0,1,1.118-.274c.593.256,1.181.522,1.771.784.221.1.448.185.659.3a.989.989,0,0,1,.19,1.634.911.911,0,0,1-.678.236" transform="translate(-23.263 -144.116)" fill="#161615"/>
        <path id="Trazado_838091" data-name="Trazado 838091" d="M29.29,194.1a1.1,1.1,0,0,1-.566-.157c-.723-.321-1.447-.637-2.167-.965a1.027,1.027,0,0,1-.586-.983,1.04,1.04,0,0,1,.756-.89.964.964,0,0,1,.658.051c.768.339,1.537.674,2.3,1.021a.994.994,0,0,1,.3,1.665.9.9,0,0,1-.695.259" transform="translate(-23.216 -170.831)" fill="#161615"/>
      </g>
    </g>
    <g id="Grupo_1083539" data-name="Grupo 1083539" transform="translate(-9195.174 19.616)">
      <g id="Grupo_1083536" data-name="Grupo 1083536" clip-path="url(#clip-path-3)">
        <path id="Trazado_838092" data-name="Trazado 838092" d="M18.622,17.21l.677.624a9.727,9.727,0,0,1,1.347-.513,1.336,1.336,0,0,1,1.242.456q3.469,3.459,6.933,6.922a1.549,1.549,0,0,1,.015,2.257c-.556.586-1.134,1.152-1.714,1.715a1.6,1.6,0,0,1-2.432-.008q-3.307-3.285-6.6-6.581c-1-1-1.031-1.665-.132-2.731L17.2,18.6A10.354,10.354,0,0,1,8.66,20.808a10.157,10.157,0,0,1-6.635-4.144A10.492,10.492,0,0,1,17.5,2.67,10.464,10.464,0,0,1,18.622,17.21m-8.084,1.836a8.561,8.561,0,1,0-8.619-8.519,8.55,8.55,0,0,0,8.619,8.519M27.094,25.9,23,21.713l-1.263,1.2L25.889,27.1l1.206-1.2M20.813,19.43,19.481,20.69l.757.837,1.357-1.3-.782-.8" transform="translate(0 0)" fill="#161615"/>
        <path id="Trazado_838093" data-name="Trazado 838093" d="M101.664,40.124a6.708,6.708,0,0,1,6.473,6.542.956.956,0,0,1-.937,1.082c-.583.012-.948-.379-.971-1.038a4.8,4.8,0,0,0-4.687-4.673c-.688-.033-1.122-.474-1.048-1.062.07-.554.489-.859,1.17-.851" transform="translate(-90.926 -36.306)" fill="#161615"/>
      </g>
    </g>
  </g>
</svg>
