<svg xmlns="http://www.w3.org/2000/svg" xmlns:xlink="http://www.w3.org/1999/xlink" width="1030" height="160" viewBox="0 0 1030 160">
  <defs>
    <clipPath id="clip-path">
      <rect id="Rectángulo_380569" data-name="Rectángulo 380569" width="48.198" height="39.807" fill="none"/>
    </clipPath>
    <clipPath id="clip-path-2">
      <rect id="Rectángulo_380570" data-name="Rectángulo 380570" width="41.104" height="40.952" fill="none"/>
    </clipPath>
    <clipPath id="clip-path-3">
      <rect id="Rectángulo_380571" data-name="Rectángulo 380571" width="39.505" height="39.389" fill="none"/>
    </clipPath>
  </defs>
  <g id="Grupo_1083541" data-name="Grupo 1083541" transform="translate(-285 -11541)">
    <path id="Trazado_838048" data-name="Trazado 838048" d="M505.118,0l26.83,77.956L503.8,159.749H851l28.151-81.794L852.316,0Z" transform="translate(106.202 11541)" fill="#bfcef9"/>
    <path id="Trazado_838049" data-name="Trazado 838049" d="M319.4,0H32.245A32.245,32.245,0,0,0,0,32.244v95.261A32.245,32.245,0,0,0,32.245,159.75H318.081l28.151-81.794Z" transform="translate(285 11541)" fill="#c5dfb0"/>
    <path id="Trazado_838050" data-name="Trazado 838050" d="M1372.391,0H1054.118l26.83,77.956L1052.8,159.75h319.594a32.244,32.244,0,0,0,32.244-32.244V32.244A32.244,32.244,0,0,0,1372.391,0" transform="translate(-89.797 11541)" fill="#ffb8aa"/>
    <path id="Trazado_838713" data-name="Trazado 838713" d="M0,0H1030V160H0Z" transform="translate(285 11541)" fill="none"/>
    <path id="Trazado_838714" data-name="Trazado 838714" d="M11.846-14.219v9.5A4.618,4.618,0,0,1,10.4-1.128,5.508,5.508,0,0,1,6.533.2a5.548,5.548,0,0,1-3.877-1.3A4.64,4.64,0,0,1,1.221-4.727v-9.492H3.682v9.512A3.021,3.021,0,0,0,4.4-2.529a2.819,2.819,0,0,0,2.129.752q2.852,0,2.852-3.008v-9.434Zm8.33,11.348a1.076,1.076,0,0,0-.522-.967,5.557,5.557,0,0,0-1.733-.586A8.911,8.911,0,0,1,15.9-5.068a2.7,2.7,0,0,1-1.777-2.49,2.813,2.813,0,0,1,1.152-2.285,4.556,4.556,0,0,1,2.93-.918,4.74,4.74,0,0,1,3.062.938,2.975,2.975,0,0,1,1.167,2.432H20.059a1.462,1.462,0,0,0-.508-1.138A1.946,1.946,0,0,0,18.2-8.984a2.1,2.1,0,0,0-1.274.361,1.139,1.139,0,0,0-.493.967.962.962,0,0,0,.459.85,6.312,6.312,0,0,0,1.855.61,8.783,8.783,0,0,1,2.192.732,3.1,3.1,0,0,1,1.182,1.021A2.6,2.6,0,0,1,22.51-3a2.753,2.753,0,0,1-1.182,2.31,5.039,5.039,0,0,1-3.1.884,5.464,5.464,0,0,1-2.314-.469,3.809,3.809,0,0,1-1.582-1.289A3.051,3.051,0,0,1,13.77-3.33h2.3a1.672,1.672,0,0,0,.635,1.294,2.467,2.467,0,0,0,1.553.454,2.4,2.4,0,0,0,1.426-.356A1.1,1.1,0,0,0,20.176-2.871Zm10.8,1.836A3.68,3.68,0,0,1,28.008.2a3.28,3.28,0,0,1-2.6-1.006,4.279,4.279,0,0,1-.884-2.91v-6.846h2.373V-3.75q0,2.012,1.67,2.012A2.345,2.345,0,0,0,30.9-2.979v-7.588h2.373V0H31.035ZM42,0a3.662,3.662,0,0,1-.273-.986A3.694,3.694,0,0,1,38.955.2a3.728,3.728,0,0,1-2.6-.908,2.906,2.906,0,0,1-1.006-2.246,3,3,0,0,1,1.255-2.593,6.081,6.081,0,0,1,3.589-.9H41.65v-.693a1.851,1.851,0,0,0-.459-1.313,1.819,1.819,0,0,0-1.4-.493,2.09,2.09,0,0,0-1.328.405,1.254,1.254,0,0,0-.518,1.03H35.576a2.634,2.634,0,0,1,.576-1.626,3.838,3.838,0,0,1,1.567-1.187,5.506,5.506,0,0,1,2.212-.43,4.434,4.434,0,0,1,2.959.933,3.326,3.326,0,0,1,1.133,2.622v4.766a5.4,5.4,0,0,0,.4,2.275V0ZM39.395-1.709a2.7,2.7,0,0,0,1.323-.342,2.284,2.284,0,0,0,.933-.918V-4.961H40.371a3.5,3.5,0,0,0-1.982.459,1.487,1.487,0,0,0-.664,1.3,1.387,1.387,0,0,0,.454,1.089A1.758,1.758,0,0,0,39.395-1.709ZM52.041-8.4a5.872,5.872,0,0,0-.967-.078,2.177,2.177,0,0,0-2.2,1.25V0H46.5V-10.566H48.77l.059,1.182a2.674,2.674,0,0,1,2.383-1.377,2.222,2.222,0,0,1,.84.137ZM56.064,0H53.691V-10.566h2.373Zm-2.52-13.311a1.259,1.259,0,0,1,.347-.908,1.309,1.309,0,0,1,.991-.361,1.326,1.326,0,0,1,1,.361,1.25,1.25,0,0,1,.352.908,1.221,1.221,0,0,1-.352.894,1.336,1.336,0,0,1-1,.356,1.32,1.32,0,0,1-.991-.356A1.23,1.23,0,0,1,53.545-13.311ZM58.2-5.381a6.231,6.231,0,0,1,.615-2.8,4.493,4.493,0,0,1,1.729-1.914,4.87,4.87,0,0,1,2.559-.669,4.615,4.615,0,0,1,3.472,1.377,5.416,5.416,0,0,1,1.44,3.652l.01.557a6.286,6.286,0,0,1-.6,2.793,4.439,4.439,0,0,1-1.719,1.9A4.906,4.906,0,0,1,63.125.2a4.584,4.584,0,0,1-3.579-1.489A5.7,5.7,0,0,1,58.2-5.264Zm2.373.205a4.258,4.258,0,0,0,.674,2.554,2.191,2.191,0,0,0,1.875.923A2.167,2.167,0,0,0,65-2.637a4.7,4.7,0,0,0,.669-2.744,4.2,4.2,0,0,0-.688-2.539,2.2,2.2,0,0,0-1.87-.937,2.178,2.178,0,0,0-1.846.923A4.614,4.614,0,0,0,60.576-5.176Zm15.107,6.4H73.818l5.6-15.439h1.865ZM92.246-1.7a2.146,2.146,0,0,0,1.475-.518A1.768,1.768,0,0,0,94.346-3.5h2.236a3.486,3.486,0,0,1-.615,1.841A4.035,4.035,0,0,1,94.4-.3a4.656,4.656,0,0,1-2.129.5A4.505,4.505,0,0,1,88.76-1.24a5.694,5.694,0,0,1-1.3-3.965v-.244A5.6,5.6,0,0,1,88.75-9.312a4.464,4.464,0,0,1,3.516-1.45,4.341,4.341,0,0,1,3.071,1.1,3.935,3.935,0,0,1,1.245,2.886H94.346a2.173,2.173,0,0,0-.62-1.494,2,2,0,0,0-1.479-.586,2.088,2.088,0,0,0-1.777.835,4.261,4.261,0,0,0-.635,2.534v.381a4.331,4.331,0,0,0,.62,2.563A2.086,2.086,0,0,0,92.246-1.7ZM97.93-5.381a6.231,6.231,0,0,1,.615-2.8,4.493,4.493,0,0,1,1.729-1.914,4.87,4.87,0,0,1,2.559-.669A4.615,4.615,0,0,1,106.3-9.385a5.416,5.416,0,0,1,1.44,3.652l.01.557a6.286,6.286,0,0,1-.6,2.793,4.439,4.439,0,0,1-1.719,1.9A4.906,4.906,0,0,1,102.852.2a4.584,4.584,0,0,1-3.579-1.489,5.7,5.7,0,0,1-1.343-3.97Zm2.373.205a4.258,4.258,0,0,0,.674,2.554,2.191,2.191,0,0,0,1.875.923,2.167,2.167,0,0,0,1.87-.937,4.7,4.7,0,0,0,.669-2.744A4.2,4.2,0,0,0,104.7-7.92a2.2,2.2,0,0,0-1.87-.937,2.178,2.178,0,0,0-1.846.923A4.614,4.614,0,0,0,100.3-5.176Zm11.66-5.391.068,1.221a3.8,3.8,0,0,1,3.076-1.416q3.3,0,3.359,3.779V0h-2.373V-6.846a2.176,2.176,0,0,0-.435-1.489,1.828,1.828,0,0,0-1.421-.483,2.287,2.287,0,0,0-2.139,1.3V0h-2.373V-10.566Zm14.844,7.7a1.076,1.076,0,0,0-.522-.967,5.557,5.557,0,0,0-1.733-.586,8.911,8.911,0,0,1-2.021-.645,2.7,2.7,0,0,1-1.777-2.49A2.813,2.813,0,0,1,121.9-9.844a4.556,4.556,0,0,1,2.93-.918,4.74,4.74,0,0,1,3.062.938,2.975,2.975,0,0,1,1.167,2.432h-2.373a1.462,1.462,0,0,0-.508-1.138,1.946,1.946,0,0,0-1.348-.454,2.1,2.1,0,0,0-1.274.361,1.139,1.139,0,0,0-.493.967.962.962,0,0,0,.459.85,6.312,6.312,0,0,0,1.855.61,8.783,8.783,0,0,1,2.192.732,3.1,3.1,0,0,1,1.182,1.021A2.6,2.6,0,0,1,129.141-3a2.753,2.753,0,0,1-1.182,2.31,5.039,5.039,0,0,1-3.1.884,5.464,5.464,0,0,1-2.314-.469,3.809,3.809,0,0,1-1.582-1.289A3.051,3.051,0,0,1,120.4-3.33h2.3a1.672,1.672,0,0,0,.635,1.294,2.467,2.467,0,0,0,1.553.454,2.4,2.4,0,0,0,1.426-.356A1.1,1.1,0,0,0,126.807-2.871Zm10.8,1.836A3.68,3.68,0,0,1,134.639.2a3.28,3.28,0,0,1-2.6-1.006,4.279,4.279,0,0,1-.884-2.91v-6.846h2.373V-3.75q0,2.012,1.67,2.012a2.345,2.345,0,0,0,2.334-1.24v-7.588H139.9V0h-2.236Zm6.943-9.531.068,1.1a3.8,3.8,0,0,1,3.047-1.3,2.921,2.921,0,0,1,2.9,1.621,3.748,3.748,0,0,1,3.242-1.621,3.294,3.294,0,0,1,2.6.967,4.257,4.257,0,0,1,.874,2.852V0h-2.373V-6.875a2.1,2.1,0,0,0-.439-1.475,1.924,1.924,0,0,0-1.455-.469,1.976,1.976,0,0,0-1.323.435,2.292,2.292,0,0,0-.718,1.138L150.986,0h-2.373V-6.953a1.693,1.693,0,0,0-1.9-1.865,2.089,2.089,0,0,0-2.021,1.162V0h-2.373V-10.566ZM162.246,0h-2.373V-10.566h2.373Zm-2.52-13.311a1.259,1.259,0,0,1,.347-.908,1.309,1.309,0,0,1,.991-.361,1.326,1.326,0,0,1,1,.361,1.25,1.25,0,0,1,.352.908,1.221,1.221,0,0,1-.352.894,1.336,1.336,0,0,1-1,.356,1.32,1.32,0,0,1-.991-.356A1.23,1.23,0,0,1,159.727-13.311Zm4.658,7.949a6.282,6.282,0,0,1,1.133-3.921,3.63,3.63,0,0,1,3.037-1.479A3.449,3.449,0,0,1,171.27-9.59V-15h2.373V0h-2.148l-.117-1.094A3.5,3.5,0,0,1,168.535.2a3.609,3.609,0,0,1-3-1.494A6.512,6.512,0,0,1,164.385-5.361Zm2.373.205a4.4,4.4,0,0,0,.62,2.515,2.012,2.012,0,0,0,1.763.9,2.241,2.241,0,0,0,2.129-1.3V-7.549a2.207,2.207,0,0,0-2.109-1.27,2.027,2.027,0,0,0-1.777.913A4.9,4.9,0,0,0,166.758-5.156Zm8.916-.225a6.231,6.231,0,0,1,.615-2.8,4.493,4.493,0,0,1,1.729-1.914,4.87,4.87,0,0,1,2.559-.669,4.615,4.615,0,0,1,3.472,1.377,5.416,5.416,0,0,1,1.44,3.652l.01.557a6.286,6.286,0,0,1-.6,2.793,4.439,4.439,0,0,1-1.719,1.9A4.906,4.906,0,0,1,180.6.2a4.584,4.584,0,0,1-3.579-1.489,5.7,5.7,0,0,1-1.343-3.97Zm2.373.205a4.258,4.258,0,0,0,.674,2.554A2.191,2.191,0,0,0,180.6-1.7a2.167,2.167,0,0,0,1.87-.937,4.7,4.7,0,0,0,.669-2.744,4.2,4.2,0,0,0-.688-2.539,2.2,2.2,0,0,0-1.87-.937,2.178,2.178,0,0,0-1.846.923A4.614,4.614,0,0,0,178.047-5.176ZM193.037-8.4a5.872,5.872,0,0,0-.967-.078,2.177,2.177,0,0,0-2.2,1.25V0H187.5V-10.566h2.266l.059,1.182a2.674,2.674,0,0,1,2.383-1.377,2.222,2.222,0,0,1,.84.137Z" transform="translate(353 11650.875)"/>
    <path id="Trazado_838715" data-name="Trazado 838715" d="M3.916-5.273V0H1.445V-14.219H6.885a5.5,5.5,0,0,1,3.784,1.242,4.175,4.175,0,0,1,1.4,3.285A4.036,4.036,0,0,1,10.7-6.437,5.766,5.766,0,0,1,6.855-5.273Zm0-1.992H6.885A2.924,2.924,0,0,0,8.9-7.886,2.279,2.279,0,0,0,9.59-9.678a2.459,2.459,0,0,0-.7-1.841,2.71,2.71,0,0,0-1.934-.708H3.916ZM19.531-8.4a5.872,5.872,0,0,0-.967-.078,2.177,2.177,0,0,0-2.2,1.25V0H13.994V-10.566H16.26l.059,1.182A2.674,2.674,0,0,1,18.7-10.762a2.222,2.222,0,0,1,.84.137Zm.523,3.018a6.231,6.231,0,0,1,.615-2.8A4.493,4.493,0,0,1,22.4-10.093a4.87,4.87,0,0,1,2.559-.669,4.615,4.615,0,0,1,3.472,1.377,5.416,5.416,0,0,1,1.44,3.652l.01.557a6.286,6.286,0,0,1-.6,2.793,4.439,4.439,0,0,1-1.719,1.9A4.906,4.906,0,0,1,24.976.2,4.584,4.584,0,0,1,21.4-1.294a5.7,5.7,0,0,1-1.343-3.97Zm2.373.205A4.258,4.258,0,0,0,23.1-2.622a2.191,2.191,0,0,0,1.875.923,2.167,2.167,0,0,0,1.87-.937,4.7,4.7,0,0,0,.669-2.744,4.2,4.2,0,0,0-.688-2.539,2.2,2.2,0,0,0-1.87-.937,2.178,2.178,0,0,0-1.846.923A4.614,4.614,0,0,0,22.427-5.176Zm12.9,2.168,2.236-7.559h2.451L36.35,0H34.289L30.6-10.566h2.461ZM46.018.2a4.91,4.91,0,0,1-3.657-1.421,5.154,5.154,0,0,1-1.4-3.784V-5.3a6.34,6.34,0,0,1,.61-2.827,4.646,4.646,0,0,1,1.714-1.938,4.531,4.531,0,0,1,2.461-.693,4.147,4.147,0,0,1,3.335,1.377,5.823,5.823,0,0,1,1.177,3.9v.957h-6.9a3.173,3.173,0,0,0,.874,2.07,2.624,2.624,0,0,0,1.929.762,3.213,3.213,0,0,0,2.656-1.318L50.09-1.8A4.272,4.272,0,0,1,48.4-.327,5.3,5.3,0,0,1,46.018.2Zm-.283-9.053a2,2,0,0,0-1.577.684,3.543,3.543,0,0,0-.767,1.9h4.521v-.176a2.884,2.884,0,0,0-.635-1.8A1.983,1.983,0,0,0,45.735-8.857ZM56.75.2a4.91,4.91,0,0,1-3.657-1.421,5.154,5.154,0,0,1-1.4-3.784V-5.3A6.34,6.34,0,0,1,52.3-8.13a4.646,4.646,0,0,1,1.714-1.938,4.531,4.531,0,0,1,2.461-.693,4.147,4.147,0,0,1,3.335,1.377,5.823,5.823,0,0,1,1.177,3.9v.957h-6.9a3.173,3.173,0,0,0,.874,2.07,2.624,2.624,0,0,0,1.929.762,3.213,3.213,0,0,0,2.656-1.318L60.823-1.8a4.272,4.272,0,0,1-1.694,1.47A5.3,5.3,0,0,1,56.75.2Zm-.283-9.053a2,2,0,0,0-1.577.684,3.543,3.543,0,0,0-.767,1.9h4.521v-.176a2.884,2.884,0,0,0-.635-1.8A1.983,1.983,0,0,0,56.467-8.857Zm5.918,3.5a6.282,6.282,0,0,1,1.133-3.921,3.63,3.63,0,0,1,3.037-1.479A3.449,3.449,0,0,1,69.27-9.59V-15h2.373V0H69.494l-.117-1.094A3.5,3.5,0,0,1,66.535.2a3.609,3.609,0,0,1-3-1.494A6.512,6.512,0,0,1,62.385-5.361Zm2.373.205a4.4,4.4,0,0,0,.62,2.515,2.012,2.012,0,0,0,1.763.9,2.241,2.241,0,0,0,2.129-1.3V-7.549a2.207,2.207,0,0,0-2.109-1.27,2.027,2.027,0,0,0-1.777.913A4.9,4.9,0,0,0,64.758-5.156Zm8.916-.225a6.231,6.231,0,0,1,.615-2.8,4.493,4.493,0,0,1,1.729-1.914,4.87,4.87,0,0,1,2.559-.669,4.615,4.615,0,0,1,3.472,1.377,5.416,5.416,0,0,1,1.44,3.652l.01.557a6.286,6.286,0,0,1-.6,2.793,4.439,4.439,0,0,1-1.719,1.9A4.906,4.906,0,0,1,78.6.2a4.584,4.584,0,0,1-3.579-1.489,5.7,5.7,0,0,1-1.343-3.97Zm2.373.205a4.258,4.258,0,0,0,.674,2.554A2.191,2.191,0,0,0,78.6-1.7a2.167,2.167,0,0,0,1.87-.937,4.7,4.7,0,0,0,.669-2.744,4.2,4.2,0,0,0-.688-2.539,2.2,2.2,0,0,0-1.87-.937,2.178,2.178,0,0,0-1.846.923A4.614,4.614,0,0,0,76.047-5.176ZM91.037-8.4a5.872,5.872,0,0,0-.967-.078,2.177,2.177,0,0,0-2.2,1.25V0H85.5V-10.566h2.266l.059,1.182a2.674,2.674,0,0,1,2.383-1.377,2.222,2.222,0,0,1,.84.137Zm7.148,9.619H96.321l5.6-15.439h1.865Zm21.475-6.4a6.291,6.291,0,0,1-1.113,3.911A3.565,3.565,0,0,1,115.559.2a3.589,3.589,0,0,1-2.783-1.143v5.01H110.4V-10.566h2.188l.1,1.074a3.486,3.486,0,0,1,2.842-1.27,3.6,3.6,0,0,1,3.032,1.44,6.459,6.459,0,0,1,1.1,4ZM117.3-5.381a4.407,4.407,0,0,0-.63-2.51,2.048,2.048,0,0,0-1.8-.928,2.184,2.184,0,0,0-2.09,1.2V-2.93a2.2,2.2,0,0,0,2.109,1.23,2.045,2.045,0,0,0,1.772-.913A4.851,4.851,0,0,0,117.3-5.381ZM127.2-8.4a5.872,5.872,0,0,0-.967-.078,2.177,2.177,0,0,0-2.2,1.25V0h-2.373V-10.566h2.266l.059,1.182a2.674,2.674,0,0,1,2.383-1.377,2.222,2.222,0,0,1,.84.137Zm.7,3.018a6.231,6.231,0,0,1,.615-2.8,4.493,4.493,0,0,1,1.729-1.914,4.87,4.87,0,0,1,2.559-.669,4.615,4.615,0,0,1,3.472,1.377,5.416,5.416,0,0,1,1.44,3.652l.01.557a6.286,6.286,0,0,1-.6,2.793,4.439,4.439,0,0,1-1.719,1.9A4.906,4.906,0,0,1,132.825.2a4.584,4.584,0,0,1-3.579-1.489,5.7,5.7,0,0,1-1.343-3.97Zm2.373.205a4.258,4.258,0,0,0,.674,2.554,2.191,2.191,0,0,0,1.875.923,2.167,2.167,0,0,0,1.87-.937,4.7,4.7,0,0,0,.669-2.744,4.2,4.2,0,0,0-.688-2.539,2.2,2.2,0,0,0-1.87-.937,2.178,2.178,0,0,0-1.846.923A4.614,4.614,0,0,0,130.276-5.176Zm9.014-.186a6.282,6.282,0,0,1,1.133-3.921,3.63,3.63,0,0,1,3.037-1.479,3.449,3.449,0,0,1,2.715,1.172V-15h2.373V0H146.4l-.117-1.094A3.5,3.5,0,0,1,143.44.2a3.609,3.609,0,0,1-3-1.494A6.512,6.512,0,0,1,139.289-5.361Zm2.373.205a4.4,4.4,0,0,0,.62,2.515,2.012,2.012,0,0,0,1.763.9,2.241,2.241,0,0,0,2.129-1.3V-7.549a2.207,2.207,0,0,0-2.109-1.27,2.027,2.027,0,0,0-1.777.913A4.9,4.9,0,0,0,141.662-5.156Zm15.762,4.121A3.68,3.68,0,0,1,154.455.2a3.28,3.28,0,0,1-2.6-1.006,4.279,4.279,0,0,1-.884-2.91v-6.846h2.373V-3.75q0,2.012,1.67,2.012a2.345,2.345,0,0,0,2.334-1.24v-7.588h2.373V0h-2.236Zm9.053-.664a2.146,2.146,0,0,0,1.475-.518,1.768,1.768,0,0,0,.625-1.279h2.236a3.486,3.486,0,0,1-.615,1.841A4.035,4.035,0,0,1,168.635-.3a4.656,4.656,0,0,1-2.129.5,4.505,4.505,0,0,1-3.516-1.436,5.694,5.694,0,0,1-1.3-3.965v-.244a5.6,5.6,0,0,1,1.289-3.862,4.464,4.464,0,0,1,3.516-1.45,4.341,4.341,0,0,1,3.071,1.1,3.935,3.935,0,0,1,1.245,2.886h-2.236a2.173,2.173,0,0,0-.62-1.494,2,2,0,0,0-1.479-.586,2.088,2.088,0,0,0-1.777.835,4.261,4.261,0,0,0-.635,2.534v.381a4.331,4.331,0,0,0,.62,2.563A2.086,2.086,0,0,0,166.477-1.7Zm9.1-11.436v2.568h1.865v1.758h-1.865v5.9a1.3,1.3,0,0,0,.239.874,1.109,1.109,0,0,0,.854.269,3.656,3.656,0,0,0,.83-.1V-.029A5.845,5.845,0,0,1,175.94.2q-2.734,0-2.734-3.018V-8.809h-1.738v-1.758h1.738v-2.568Zm2.939,7.754a6.231,6.231,0,0,1,.615-2.8,4.493,4.493,0,0,1,1.729-1.914,4.87,4.87,0,0,1,2.559-.669,4.615,4.615,0,0,1,3.472,1.377,5.416,5.416,0,0,1,1.44,3.652l.01.557a6.286,6.286,0,0,1-.6,2.793,4.439,4.439,0,0,1-1.719,1.9A4.906,4.906,0,0,1,183.44.2a4.584,4.584,0,0,1-3.579-1.489,5.7,5.7,0,0,1-1.343-3.97Zm2.373.205a4.258,4.258,0,0,0,.674,2.554,2.191,2.191,0,0,0,1.875.923,2.167,2.167,0,0,0,1.87-.937,4.7,4.7,0,0,0,.669-2.744,4.2,4.2,0,0,0-.688-2.539,2.2,2.2,0,0,0-1.87-.937,2.178,2.178,0,0,0-1.846.923A4.614,4.614,0,0,0,180.891-5.176Zm15.381,2.3a1.076,1.076,0,0,0-.522-.967,5.557,5.557,0,0,0-1.733-.586,8.911,8.911,0,0,1-2.021-.645,2.7,2.7,0,0,1-1.777-2.49,2.813,2.813,0,0,1,1.152-2.285,4.556,4.556,0,0,1,2.93-.918,4.74,4.74,0,0,1,3.062.938,2.975,2.975,0,0,1,1.167,2.432h-2.373a1.462,1.462,0,0,0-.508-1.138,1.946,1.946,0,0,0-1.348-.454,2.1,2.1,0,0,0-1.274.361,1.139,1.139,0,0,0-.493.967.962.962,0,0,0,.459.85,6.312,6.312,0,0,0,1.855.61,8.783,8.783,0,0,1,2.192.732,3.1,3.1,0,0,1,1.182,1.021A2.6,2.6,0,0,1,198.606-3a2.753,2.753,0,0,1-1.182,2.31,5.039,5.039,0,0,1-3.1.884,5.464,5.464,0,0,1-2.314-.469,3.809,3.809,0,0,1-1.582-1.289,3.051,3.051,0,0,1-.566-1.768h2.3a1.672,1.672,0,0,0,.635,1.294,2.467,2.467,0,0,0,1.553.454,2.4,2.4,0,0,0,1.426-.356A1.1,1.1,0,0,0,196.272-2.871Z" transform="translate(696 11651)"/>
    <path id="Trazado_838716" data-name="Trazado 838716" d="M9.4-3.311H3.9L2.744,0H.176L5.547-14.219H7.764L13.145,0H10.566ZM4.59-5.3H8.711L6.65-11.2ZM20.828-1.035A3.68,3.68,0,0,1,17.859.2a3.28,3.28,0,0,1-2.6-1.006,4.279,4.279,0,0,1-.884-2.91v-6.846h2.373V-3.75q0,2.012,1.67,2.012a2.345,2.345,0,0,0,2.334-1.24v-7.588h2.373V0H20.886Zm7.686-12.1v2.568h1.865v1.758H28.513v5.9a1.3,1.3,0,0,0,.239.874,1.109,1.109,0,0,0,.854.269,3.656,3.656,0,0,0,.83-.1V-.029A5.845,5.845,0,0,1,28.875.2Q26.14.2,26.14-2.822V-8.809H24.4v-1.758H26.14v-2.568Zm2.759,7.754a6.231,6.231,0,0,1,.615-2.8,4.493,4.493,0,0,1,1.729-1.914,4.87,4.87,0,0,1,2.559-.669,4.615,4.615,0,0,1,3.472,1.377,5.416,5.416,0,0,1,1.44,3.652l.01.557a6.286,6.286,0,0,1-.6,2.793,4.439,4.439,0,0,1-1.719,1.9A4.906,4.906,0,0,1,36.195.2a4.584,4.584,0,0,1-3.579-1.489,5.7,5.7,0,0,1-1.343-3.97Zm2.373.205a4.258,4.258,0,0,0,.674,2.554,2.191,2.191,0,0,0,1.875.923,2.167,2.167,0,0,0,1.87-.937,4.7,4.7,0,0,0,.669-2.744,4.2,4.2,0,0,0-.688-2.539,2.2,2.2,0,0,0-1.87-.937,2.178,2.178,0,0,0-1.846.923A4.614,4.614,0,0,0,33.646-5.176ZM48.636-8.4a5.872,5.872,0,0,0-.967-.078,2.177,2.177,0,0,0-2.2,1.25V0H43.1V-10.566h2.266l.059,1.182a2.674,2.674,0,0,1,2.383-1.377,2.222,2.222,0,0,1,.84.137ZM52.659,0H50.286V-10.566h2.373ZM50.14-13.311a1.259,1.259,0,0,1,.347-.908,1.309,1.309,0,0,1,.991-.361,1.326,1.326,0,0,1,1,.361,1.25,1.25,0,0,1,.352.908,1.221,1.221,0,0,1-.352.894,1.336,1.336,0,0,1-1,.356,1.32,1.32,0,0,1-.991-.356A1.23,1.23,0,0,1,50.14-13.311ZM54.8-5.361a6.282,6.282,0,0,1,1.133-3.921,3.63,3.63,0,0,1,3.037-1.479A3.449,3.449,0,0,1,61.683-9.59V-15h2.373V0H61.908L61.79-1.094A3.5,3.5,0,0,1,58.949.2a3.609,3.609,0,0,1-3-1.494A6.512,6.512,0,0,1,54.8-5.361Zm2.373.205a4.4,4.4,0,0,0,.62,2.515,2.012,2.012,0,0,0,1.763.9,2.241,2.241,0,0,0,2.129-1.3V-7.549a2.207,2.207,0,0,0-2.109-1.27,2.027,2.027,0,0,0-1.777.913A4.9,4.9,0,0,0,57.171-5.156ZM72.845,0a3.662,3.662,0,0,1-.273-.986A3.694,3.694,0,0,1,69.8.2a3.728,3.728,0,0,1-2.6-.908,2.906,2.906,0,0,1-1.006-2.246,3,3,0,0,1,1.255-2.593,6.081,6.081,0,0,1,3.589-.9h1.455v-.693a1.851,1.851,0,0,0-.459-1.313,1.819,1.819,0,0,0-1.4-.493,2.09,2.09,0,0,0-1.328.405,1.254,1.254,0,0,0-.518,1.03H66.419A2.634,2.634,0,0,1,67-9.146a3.839,3.839,0,0,1,1.567-1.187,5.506,5.506,0,0,1,2.212-.43,4.434,4.434,0,0,1,2.959.933,3.326,3.326,0,0,1,1.133,2.622v4.766a5.4,5.4,0,0,0,.4,2.275V0ZM70.238-1.709a2.7,2.7,0,0,0,1.323-.342,2.284,2.284,0,0,0,.933-.918V-4.961H71.214a3.5,3.5,0,0,0-1.982.459,1.487,1.487,0,0,0-.664,1.3,1.387,1.387,0,0,0,.454,1.089A1.758,1.758,0,0,0,70.238-1.709Zm6.67-3.652A6.282,6.282,0,0,1,78.04-9.282a3.63,3.63,0,0,1,3.037-1.479A3.449,3.449,0,0,1,83.792-9.59V-15h2.373V0H84.017L83.9-1.094A3.5,3.5,0,0,1,81.058.2a3.609,3.609,0,0,1-3-1.494A6.512,6.512,0,0,1,76.908-5.361Zm2.373.205a4.4,4.4,0,0,0,.62,2.515,2.012,2.012,0,0,0,1.763.9,2.241,2.241,0,0,0,2.129-1.3V-7.549a2.207,2.207,0,0,0-2.109-1.27,2.027,2.027,0,0,0-1.777.913A4.9,4.9,0,0,0,79.281-5.156ZM99.544-2.871a1.076,1.076,0,0,0-.522-.967,5.557,5.557,0,0,0-1.733-.586,8.911,8.911,0,0,1-2.021-.645,2.7,2.7,0,0,1-1.777-2.49,2.813,2.813,0,0,1,1.152-2.285,4.556,4.556,0,0,1,2.93-.918,4.74,4.74,0,0,1,3.062.938A2.975,2.975,0,0,1,101.8-7.393H99.427a1.462,1.462,0,0,0-.508-1.138,1.946,1.946,0,0,0-1.348-.454,2.1,2.1,0,0,0-1.274.361,1.139,1.139,0,0,0-.493.967.962.962,0,0,0,.459.85,6.312,6.312,0,0,0,1.855.61,8.783,8.783,0,0,1,2.192.732,3.1,3.1,0,0,1,1.182,1.021A2.6,2.6,0,0,1,101.878-3,2.753,2.753,0,0,1,100.7-.688,5.039,5.039,0,0,1,97.6.2a5.464,5.464,0,0,1-2.314-.469A3.809,3.809,0,0,1,93.7-1.562a3.051,3.051,0,0,1-.566-1.768h2.3a1.672,1.672,0,0,0,.635,1.294,2.467,2.467,0,0,0,1.553.454,2.4,2.4,0,0,0,1.426-.356A1.1,1.1,0,0,0,99.544-2.871ZM110.257,0a3.662,3.662,0,0,1-.273-.986A3.694,3.694,0,0,1,107.21.2a3.728,3.728,0,0,1-2.6-.908,2.906,2.906,0,0,1-1.006-2.246,3,3,0,0,1,1.255-2.593,6.081,6.081,0,0,1,3.589-.9h1.455v-.693a1.851,1.851,0,0,0-.459-1.313,1.819,1.819,0,0,0-1.4-.493,2.09,2.09,0,0,0-1.328.405,1.254,1.254,0,0,0-.518,1.03h-2.373a2.634,2.634,0,0,1,.576-1.626,3.839,3.839,0,0,1,1.567-1.187,5.506,5.506,0,0,1,2.212-.43,4.434,4.434,0,0,1,2.959.933,3.326,3.326,0,0,1,1.133,2.622v4.766a5.4,5.4,0,0,0,.4,2.275V0ZM107.65-1.709a2.7,2.7,0,0,0,1.323-.342,2.284,2.284,0,0,0,.933-.918V-4.961h-1.279a3.5,3.5,0,0,0-1.982.459,1.487,1.487,0,0,0-.664,1.3,1.387,1.387,0,0,0,.454,1.089A1.758,1.758,0,0,0,107.65-1.709Zm9.316-8.857.068,1.221a3.8,3.8,0,0,1,3.076-1.416q3.3,0,3.359,3.779V0H121.1V-6.846a2.176,2.176,0,0,0-.435-1.489,1.828,1.828,0,0,0-1.421-.483,2.287,2.287,0,0,0-2.139,1.3V0H114.73V-10.566ZM128.411,0h-2.373V-10.566h2.373Zm-2.52-13.311a1.259,1.259,0,0,1,.347-.908,1.309,1.309,0,0,1,.991-.361,1.326,1.326,0,0,1,1,.361,1.25,1.25,0,0,1,.352.908,1.221,1.221,0,0,1-.352.894,1.336,1.336,0,0,1-1,.356,1.32,1.32,0,0,1-.991-.356A1.23,1.23,0,0,1,125.892-13.311Zm8.076.176v2.568h1.865v1.758h-1.865v5.9a1.3,1.3,0,0,0,.239.874,1.109,1.109,0,0,0,.854.269,3.656,3.656,0,0,0,.83-.1V-.029A5.845,5.845,0,0,1,134.329.2q-2.734,0-2.734-3.018V-8.809h-1.738v-1.758H131.6v-2.568ZM143.958,0a3.662,3.662,0,0,1-.273-.986A3.694,3.694,0,0,1,140.911.2a3.728,3.728,0,0,1-2.6-.908,2.906,2.906,0,0,1-1.006-2.246,3,3,0,0,1,1.255-2.593,6.081,6.081,0,0,1,3.589-.9h1.455v-.693a1.851,1.851,0,0,0-.459-1.313,1.819,1.819,0,0,0-1.4-.493,2.09,2.09,0,0,0-1.328.405,1.254,1.254,0,0,0-.518,1.03h-2.373a2.634,2.634,0,0,1,.576-1.626,3.838,3.838,0,0,1,1.567-1.187,5.506,5.506,0,0,1,2.212-.43,4.434,4.434,0,0,1,2.959.933,3.326,3.326,0,0,1,1.133,2.622v4.766a5.4,5.4,0,0,0,.4,2.275V0Zm-2.607-1.709a2.7,2.7,0,0,0,1.323-.342,2.284,2.284,0,0,0,.933-.918V-4.961h-1.279a3.5,3.5,0,0,0-1.982.459,1.487,1.487,0,0,0-.664,1.3,1.387,1.387,0,0,0,.454,1.089A1.758,1.758,0,0,0,141.351-1.709ZM154-8.4a5.872,5.872,0,0,0-.967-.078,2.177,2.177,0,0,0-2.2,1.25V0H148.46V-10.566h2.266l.059,1.182a2.674,2.674,0,0,1,2.383-1.377,2.222,2.222,0,0,1,.84.137ZM158.021,0h-2.373V-10.566h2.373ZM155.5-13.311a1.259,1.259,0,0,1,.347-.908,1.309,1.309,0,0,1,.991-.361,1.326,1.326,0,0,1,1,.361,1.25,1.25,0,0,1,.352.908,1.221,1.221,0,0,1-.352.894,1.336,1.336,0,0,1-1,.356,1.32,1.32,0,0,1-.991-.356A1.23,1.23,0,0,1,155.5-13.311ZM166.917,0a3.662,3.662,0,0,1-.273-.986A3.694,3.694,0,0,1,163.87.2a3.728,3.728,0,0,1-2.6-.908,2.906,2.906,0,0,1-1.006-2.246,3,3,0,0,1,1.255-2.593,6.081,6.081,0,0,1,3.589-.9h1.455v-.693a1.851,1.851,0,0,0-.459-1.313,1.819,1.819,0,0,0-1.4-.493,2.09,2.09,0,0,0-1.328.405,1.254,1.254,0,0,0-.518,1.03h-2.373a2.634,2.634,0,0,1,.576-1.626,3.838,3.838,0,0,1,1.567-1.187,5.506,5.506,0,0,1,2.212-.43,4.434,4.434,0,0,1,2.959.933,3.326,3.326,0,0,1,1.133,2.622v4.766a5.4,5.4,0,0,0,.4,2.275V0ZM164.31-1.709a2.7,2.7,0,0,0,1.323-.342,2.284,2.284,0,0,0,.933-.918V-4.961h-1.279A3.5,3.5,0,0,0,163.3-4.5a1.487,1.487,0,0,0-.664,1.3,1.387,1.387,0,0,0,.454,1.089A1.758,1.758,0,0,0,164.31-1.709Z" transform="translate(1064 11650.874)"/>
    <g id="Grupo_1083533" data-name="Grupo 1083533" transform="translate(429.936 11579.295)">
      <g id="Grupo_1083532" data-name="Grupo 1083532" clip-path="url(#clip-path)">
        <path id="Trazado_838085" data-name="Trazado 838085" d="M24.147,133.892H4.456A4.268,4.268,0,0,1,.822,132.1a3.908,3.908,0,0,1-.77-2.177c-.018-.377-.04-.755-.041-1.132,0-2.158-.026-4.315,0-6.473a6.958,6.958,0,0,1,3.6-6.257,6.293,6.293,0,0,1,3.212-.912c1.883-.005,3.767,0,5.65.017a3.571,3.571,0,0,1,.875.183.335.335,0,0,0,.449-.2,6.707,6.707,0,0,1,2.308-2.476,6.5,6.5,0,0,1,3.527-1.115c2.633-.017,5.266-.02,7.9-.026a9.636,9.636,0,0,1,2.236.164,6.913,6.913,0,0,1,3.916,2.413,11.287,11.287,0,0,1,.725,1.062c.1.155.186.249.387.182a7.041,7.041,0,0,1,2.283-.216c1.512,0,3.024-.006,4.536.018a5.915,5.915,0,0,1,2.492.655,6.974,6.974,0,0,1,3.775,4.377,7.589,7.589,0,0,1,.3,2.217c.014,2.281.01,4.563,0,6.844a4.6,4.6,0,0,1-.721,2.732,4.206,4.206,0,0,1-3.595,1.9q-9.864.017-19.729.005Zm8.346-2.8c0-.071.01-.115.01-.159q0-6.179,0-12.357a4.067,4.067,0,0,0-.785-2.469,3.969,3.969,0,0,0-2.8-1.7A16.818,16.818,0,0,0,27,114.334q-3.529-.008-7.058,0a4.126,4.126,0,0,0-2.9,1.122,4.277,4.277,0,0,0-1.151,1.808,4.831,4.831,0,0,0-.2,1.561q0,5.876,0,11.751c0,.5,0,.507.5.508H32.493m-19.6-6.5h0q0-2.992,0-5.983c0-.6-.02-.63-.622-.631-1.838,0-3.675.007-5.513-.006a3.19,3.19,0,0,0-1.394.327,4.137,4.137,0,0,0-2.531,3.956c-.024,2.463-.006,4.927-.006,7.391a1.426,1.426,0,0,0,1.454,1.464c.247,0,.495-.019.742-.019q3.832,0,7.664,0c.173,0,.206-.051.206-.207q-.006-3.148,0-6.3m22.434,6.487c.067.005.1.009.131.009q4.2.01,8.406.018a1.419,1.419,0,0,0,1.517-1.514c0-2.418,0-4.835,0-7.253a4.964,4.964,0,0,0-.1-1.048,4.131,4.131,0,0,0-2.5-3.023,2.889,2.889,0,0,0-1.067-.279c-1.674-.033-3.349-.024-5.023-.024a9.278,9.278,0,0,0-1.014.046c-.359.04-.358.056-.358.408q0,6.2.005,12.395v.264" transform="translate(0 -94.087)" fill="#161615"/>
        <path id="Trazado_838086" data-name="Trazado 838086" d="M100.585,8.5a8.365,8.365,0,1,1,8.425,8.177A8.371,8.371,0,0,1,100.585,8.5m8.381,5.361a5.539,5.539,0,1,0-5.58-5.585,5.522,5.522,0,0,0,5.58,5.585" transform="translate(-84.85 0)" fill="#161615"/>
        <path id="Trazado_838087" data-name="Trazado 838087" d="M32.772,55.882a6.26,6.26,0,1,1-6.127-6.23,6.254,6.254,0,0,1,6.127,6.23m-2.806.029a3.453,3.453,0,1,0-3.527,3.411,3.444,3.444,0,0,0,3.527-3.411" transform="translate(-17.084 -41.883)" fill="#161615"/>
        <path id="Trazado_838088" data-name="Trazado 838088" d="M214.162,49.6A6.238,6.238,0,1,1,207.9,55.78a6.3,6.3,0,0,1,6.262-6.176m3.432,6.232a3.447,3.447,0,1,0-3.443,3.447,3.419,3.419,0,0,0,3.443-3.447" transform="translate(-175.378 -41.844)" fill="#161615"/>
      </g>
    </g>
    <g id="Grupo_1083535" data-name="Grupo 1083535" transform="translate(777 11578.149)">
      <g id="Grupo_1083534" data-name="Grupo 1083534" clip-path="url(#clip-path-2)">
        <path id="Trazado_838089" data-name="Trazado 838089" d="M41.078,20.475c0,3.6-.006,7.2,0,10.8a1.391,1.391,0,0,1-.913,1.4c-1,.431-2,.854-3.007,1.28q-3.473,1.476-6.946,2.953-2.8,1.2-5.6,2.4c-1.2.516-2.4,1.042-3.607,1.543a1.273,1.273,0,0,1-1.052-.042c-.483-.224-.978-.422-1.467-.632q-1.436-.615-2.873-1.229-2.279-.97-4.56-1.938c-1.568-.67-3.133-1.347-4.7-2.017-1.813-.775-3.628-1.545-5.438-2.325a1.844,1.844,0,0,1-.506-.32,1.3,1.3,0,0,1-.411-1.02C.01,28.368,0,25.4,0,22.436Q0,16.181,0,9.925c0-.136.008-.273.008-.409A1.233,1.233,0,0,1,.795,8.327c.923-.415,1.858-.805,2.789-1.2L10.8,4.041l5-2.134C17.15,1.331,18.5.764,19.848.172A1.7,1.7,0,0,1,20.7.006a1.025,1.025,0,0,1,.31.07c1.431.611,2.86,1.23,4.291,1.841q3.43,1.464,6.863,2.922L40,8.175a1.757,1.757,0,0,1,.887.651,1.189,1.189,0,0,1,.2.633c.005,1.174.016,2.349.018,3.523q0,3.746,0,7.492h-.025M38.342,11.6a1.062,1.062,0,0,0-.1.028l-4.305,1.763L23.614,17.619c-.5.2-1,.412-1.5.61a.275.275,0,0,0-.211.33,4.56,4.56,0,0,1,.018.586q0,7.759,0,15.518c0,.9-.007,1.8-.009,2.7a1.624,1.624,0,0,0,.021.178c.151-.072.272-.134.4-.187l6.175-2.635L35.35,31.8c.937-.4,1.872-.8,2.81-1.2a.27.27,0,0,0,.185-.294q-.007-9.254,0-18.507Zm-35.6-.024V11.8q0,9.174-.008,18.347a.487.487,0,0,0,.351.533c1.562.653,3.119,1.318,4.677,1.983q5.285,2.256,10.568,4.514l.816.35a1.688,1.688,0,0,0,.025-.21c0-.463-.01-.925-.01-1.388q0-8.729.014-17.457a.208.208,0,0,0-.157-.22Q17.507,17.634,16,17.01q-3.022-1.243-6.045-2.485c-2.393-.982-4.787-1.961-7.208-2.953M36.22,9.524a1.221,1.221,0,0,0-.139-.088c-.774-.328-1.55-.652-2.323-.981q-2.108-.9-4.213-1.8a.658.658,0,0,0-.577-.005Q25.5,8.253,22.034,9.852l-7.4,3.415c-.078.036-.152.08-.262.138.2.088.361.162.524.229q2.728,1.118,5.455,2.238a.449.449,0,0,0,.381,0q4.172-1.716,8.349-3.421,2.983-1.222,5.964-2.447l1.179-.485M25.856,5.1c-.111-.053-.168-.082-.226-.107q-2.5-1.067-5-2.13a.278.278,0,0,0-.2.005q-1.863.791-3.723,1.591Q12.881,6.09,9.05,7.723C7.683,8.3,6.312,8.877,4.944,9.455c-.017.007-.028.032-.056.067.088.039.161.074.235.1L8.03,10.821c.9.371,1.809.738,2.711,1.112a.442.442,0,0,0,.387-.013q3.544-1.647,7.092-3.286T25.3,5.372c.17-.078.335-.167.552-.276" transform="translate(0.001 0)" fill="#161615"/>
        <path id="Trazado_838090" data-name="Trazado 838090" d="M30.488,165.272a1.341,1.341,0,0,1-.7-.176q-1.369-.613-2.745-1.213a1.622,1.622,0,0,1-.868-.722,1.294,1.294,0,0,1,.186-1.5,1.338,1.338,0,0,1,1.507-.369c.8.344,1.592.7,2.386,1.057.3.132.6.25.888.4a1.333,1.333,0,0,1,.256,2.2,1.227,1.227,0,0,1-.913.318" transform="translate(-22.305 -138.182)" fill="#161615"/>
        <path id="Trazado_838091" data-name="Trazado 838091" d="M30.444,195.156a1.483,1.483,0,0,1-.763-.212c-.974-.432-1.95-.859-2.92-1.3a1.383,1.383,0,0,1-.79-1.324,1.4,1.4,0,0,1,1.019-1.2,1.3,1.3,0,0,1,.886.068c1.034.456,2.071.908,3.1,1.376a1.339,1.339,0,0,1,.4,2.243,1.218,1.218,0,0,1-.936.348" transform="translate(-22.26 -163.796)" fill="#161615"/>
      </g>
    </g>
    <g id="Grupo_1083537" data-name="Grupo 1083537" transform="translate(1129 11579.713)">
      <g id="Grupo_1083536" data-name="Grupo 1083536" clip-path="url(#clip-path-3)">
        <path id="Trazado_838092" data-name="Trazado 838092" d="M25.094,23.191l.912.841a13.108,13.108,0,0,1,1.815-.691,1.8,1.8,0,0,1,1.673.615q4.674,4.661,9.343,9.327a2.088,2.088,0,0,1,.02,3.041c-.749.79-1.528,1.553-2.31,2.312a2.149,2.149,0,0,1-3.278-.01q-4.456-4.427-8.9-8.868c-1.349-1.345-1.389-2.244-.177-3.68l-1.019-1.014A13.952,13.952,0,0,1,11.67,28.039a13.687,13.687,0,0,1-8.94-5.584A14.139,14.139,0,0,1,23.586,3.6a14.1,14.1,0,0,1,1.508,19.592M14.2,25.665A11.536,11.536,0,1,0,2.585,14.185,11.522,11.522,0,0,0,14.2,25.665M36.511,34.9,30.99,29.26l-1.7,1.615,5.6,5.64L36.511,34.9m-8.464-8.712-1.8,1.7,1.021,1.128L29.1,27.259l-1.054-1.076" transform="translate(0 0)" fill="#161615"/>
        <path id="Trazado_838093" data-name="Trazado 838093" d="M102.074,40.124A9.039,9.039,0,0,1,110.8,48.94a1.288,1.288,0,0,1-1.263,1.458c-.786.016-1.277-.51-1.308-1.4a6.469,6.469,0,0,0-6.316-6.3c-.927-.045-1.513-.638-1.412-1.432.094-.747.659-1.158,1.577-1.147" transform="translate(-87.603 -34.98)" fill="#161615"/>
      </g>
    </g>
  </g>
</svg>
