<svg xmlns="http://www.w3.org/2000/svg" xmlns:xlink="http://www.w3.org/1999/xlink" width="1240" height="514" viewBox="0 0 1240 514">
  <defs>
    <linearGradient id="linear-gradient" x1="0.5" x2="0.5" y2="1" gradientUnits="objectBoundingBox">
      <stop offset="0" stop-color="#eaf2e1"/>
      <stop offset="1" stop-color="#e6ebfb"/>
    </linearGradient>
    <clipPath id="clip-path">
      <path id="Trazado_837761" data-name="Trazado 837761" d="M402.528,51.186l-1.539.056-1.539-.056a12.17,12.17,0,0,0-2.544.2,703.274,703.274,0,0,0-132.3,16.81,13.423,13.423,0,0,0-2.585.467l-2.984.768a13.761,13.761,0,0,0-2.632.9A696.1,696.1,0,0,0,131.239,120.7a13.192,13.192,0,0,0-2.5,1.155l-2.73,1.542a12.507,12.507,0,0,0-2.18,1.465A701.871,701.871,0,0,0,7.742,213.067a13.074,13.074,0,0,0-.349,18.765l89.812,90.486a13.075,13.075,0,0,0,18.148.4,543.582,543.582,0,0,1,87.369-66.066,539.833,539.833,0,0,1,96.512-38.825c40.119-8.948,71.519-12.948,101.744-12.972,30.249.024,61.652,4.027,101.762,12.972a539.322,539.322,0,0,1,96.536,38.84,543.785,543.785,0,0,1,87.345,66.051,13.081,13.081,0,0,0,18.154-.408q35.518-35.819,71.07-71.611l18.736-18.869a13.084,13.084,0,0,0-.349-18.768,701.943,701.943,0,0,0-116-88.143,13.081,13.081,0,0,0-2.278-1.533l-2.747-1.542a13.731,13.731,0,0,0-2.547-1.185A695.677,695.677,0,0,0,545.484,70.3a13.092,13.092,0,0,0-2.547-.874l-2.984-.768a13.465,13.465,0,0,0-2.585-.467,703.78,703.78,0,0,0-132.221-16.81,12.949,12.949,0,0,0-2.275-.2c-.115,0-.23,0-.346,0" transform="translate(-3.595 -51.181)" fill="#12263f"/>
    </clipPath>
    <clipPath id="clip-path-2">
      <rect id="Rectángulo_380410" data-name="Rectángulo 380410" width="820" height="442.78" fill="none"/>
    </clipPath>
    <clipPath id="clip-path-3">
      <path id="Trazado_837763" data-name="Trazado 837763" d="M47.669,79.922c.573-.3,1.149-.585,1.728-.886L49.32,78.9c-.558.337-1.1.682-1.651,1.019" transform="translate(-47.669 -78.903)" fill="none"/>
    </clipPath>
    <linearGradient id="linear-gradient-2" x1="-81.485" y1="205.727" x2="-79.776" y2="205.727" gradientUnits="objectBoundingBox">
      <stop offset="0" stop-color="#1ca650"/>
      <stop offset="1" stop-color="#006c2f"/>
    </linearGradient>
    <clipPath id="clip-path-4">
      <path id="Trazado_837764" data-name="Trazado 837764" d="M8.022,167.118Q52.93,212.367,97.84,257.607a557,557,0,0,1,89.815-67.853c-.449.233-.892.443-1.341.679q-31.383-55.428-62.763-110.852A684.574,684.574,0,0,0,8.022,167.118" transform="translate(-8.022 -79.581)" fill="#a5b790"/>
    </clipPath>
    <clipPath id="clip-path-6">
      <path id="Trazado_837766" data-name="Trazado 837766" d="M47.1,80.108l.074.124c.535-.325,1.058-.659,1.6-.984-.558.292-1.117.561-1.672.86" transform="translate(-47.103 -79.248)" fill="none"/>
    </clipPath>
    <linearGradient id="linear-gradient-3" x1="-83.222" y1="212.105" x2="-81.455" y2="212.105" gradientUnits="objectBoundingBox">
      <stop offset="0" stop-color="#81d539"/>
      <stop offset="1" stop-color="#3d9200"/>
    </linearGradient>
    <clipPath id="clip-path-7">
      <path id="Trazado_837767" data-name="Trazado 837767" d="M91.709,61.87c.585-.133,1.167-.251,1.752-.384-.009-.041-.024-.089-.033-.133-.582.168-1.143.352-1.719.517" transform="translate(-91.709 -61.353)" fill="none"/>
    </clipPath>
    <linearGradient id="linear-gradient-4" x1="-154.652" y1="505.832" x2="-152.966" y2="505.832" xlink:href="#linear-gradient-3"/>
    <clipPath id="clip-path-8">
      <path id="Trazado_837768" data-name="Trazado 837768" d="M50.454,112.622c-.579.3-1.155.582-1.728.886-.541.325-1.064.659-1.6.984q31.379,55.428,62.763,110.852c.449-.236.892-.446,1.341-.679a554.445,554.445,0,0,1,99.647-40.092c-.493.112-.975.21-1.465.319Q193.191,123.3,176.961,61.717a679.63,679.63,0,0,0-126.507,50.9" transform="translate(-47.128 -61.717)" fill="#cadeb4"/>
    </clipPath>
    <clipPath id="clip-path-10">
      <path id="Trazado_837770" data-name="Trazado 837770" d="M91.064,61.945l.035.142c.629-.18,1.241-.378,1.87-.558-.638.145-1.27.272-1.905.417" transform="translate(-91.064 -61.528)" fill="none"/>
    </clipPath>
    <linearGradient id="linear-gradient-5" x1="-141.185" y1="467.496" x2="-139.635" y2="467.496" gradientUnits="objectBoundingBox">
      <stop offset="0" stop-color="#fbf24f"/>
      <stop offset="1" stop-color="#fbaa00"/>
    </linearGradient>
    <clipPath id="clip-path-11">
      <path id="Trazado_837772" data-name="Trazado 837772" d="M94.7,72.621c-.585.133-1.167.251-1.752.384-.629.18-1.241.378-1.87.558q16.232,61.587,32.452,123.175c.49-.109.972-.207,1.465-.319,34.9-7.8,69.138-13.35,105.033-13.38-.476,0-.942-.021-1.424-.021q-.177-63.679-.431-127.364A687.807,687.807,0,0,0,94.7,72.621" transform="translate(-91.076 -55.655)" fill="#c1cdf5"/>
    </clipPath>
    <clipPath id="clip-path-13">
      <path id="Trazado_837774" data-name="Trazado 837774" d="M186.377,62.086l.038-.142c-.638-.145-1.267-.272-1.9-.417.626.18,1.238.378,1.864.558" transform="translate(-184.513 -61.528)" fill="none"/>
    </clipPath>
    <linearGradient id="linear-gradient-6" x1="-286.512" y1="467.458" x2="-284.959" y2="467.458" gradientUnits="objectBoundingBox">
      <stop offset="0" stop-color="#ff9400"/>
      <stop offset="0.997" stop-color="#d44e00"/>
      <stop offset="1" stop-color="#d44e00"/>
    </linearGradient>
    <clipPath id="clip-path-14">
      <path id="Trazado_837776" data-name="Trazado 837776" d="M137.482,55.7q.23,63.683.431,127.364c.482,0,.948.021,1.424.021,35.9.03,70.14,5.578,105.044,13.383-.446-.13-.872-.272-1.321-.4q15.838-61.685,31.608-123.4A687.806,687.806,0,0,0,141.2,55.7c-.623-.018-1.235-.05-1.858-.068-.62.018-1.235.05-1.858.068" transform="translate(-137.482 -55.632)" fill="#a8b5e2"/>
    </clipPath>
    <clipPath id="clip-path-16">
      <path id="Trazado_837778" data-name="Trazado 837778" d="M183.919,61.486c.585.133,1.167.251,1.755.384-.582-.165-1.14-.349-1.722-.517-.009.044-.024.092-.032.133" transform="translate(-183.919 -61.353)" fill="none"/>
    </clipPath>
    <linearGradient id="linear-gradient-7" x1="-309.631" y1="505.854" x2="-307.947" y2="505.854" gradientUnits="objectBoundingBox">
      <stop offset="0" stop-color="#ff5600"/>
      <stop offset="1" stop-color="#a21402"/>
    </linearGradient>
    <clipPath id="clip-path-17">
      <path id="Trazado_837779" data-name="Trazado 837779" d="M230.185,80.252c.024-.044.05-.086.074-.127-.576-.307-1.149-.585-1.725-.886.555.331,1.1.677,1.651,1.013" transform="translate(-228.534 -79.239)" fill="none"/>
    </clipPath>
    <linearGradient id="linear-gradient-8" x1="-391.336" y1="205.946" x2="-389.623" y2="205.946" xlink:href="#linear-gradient-7"/>
    <clipPath id="clip-path-18">
      <path id="Trazado_837780" data-name="Trazado 837780" d="M173.22,184.794c.449.133.874.275,1.321.4A554.1,554.1,0,0,1,274.2,225.3c-.417-.254-.815-.514-1.235-.768q31-55.645,61.983-111.29a679.633,679.633,0,0,0-126.5-50.9c-.626-.18-1.238-.378-1.864-.558-.588-.133-1.17-.251-1.755-.384q-15.8,61.7-31.608,123.4" transform="translate(-173.22 -61.398)" fill="#f9bcab"/>
    </clipPath>
    <clipPath id="clip-path-20">
      <path id="Trazado_837782" data-name="Trazado 837782" d="M227.965,79.031c.561.292,1.12.567,1.681.863-.541-.325-1.064-.665-1.607-.99a.944.944,0,0,1-.074.127" transform="translate(-227.965 -78.904)" fill="none"/>
    </clipPath>
    <linearGradient id="linear-gradient-9" x1="-400.641" y1="211.866" x2="-398.884" y2="211.866" gradientUnits="objectBoundingBox">
      <stop offset="0" stop-color="#c71513"/>
      <stop offset="1" stop-color="#6f0000"/>
    </linearGradient>
    <clipPath id="clip-path-21">
      <path id="Trazado_837783" data-name="Trazado 837783" d="M206.984,190.237c.42.254.818.514,1.235.768a557.48,557.48,0,0,1,89.8,67.841q44.89-45.266,89.815-90.489A684.938,684.938,0,0,0,272.3,80.823c-.555-.337-1.1-.682-1.651-1.013-.561-.3-1.12-.57-1.681-.863q-30.984,55.649-61.983,111.29" transform="translate(-206.984 -78.947)" fill="#e8937b"/>
    </clipPath>
    <clipPath id="clip-path-23">
      <rect id="Rectángulo_380432" data-name="Rectángulo 380432" width="763.786" height="249.098" fill="none"/>
    </clipPath>
    <clipPath id="clip-path-24">
      <path id="Trazado_837786" data-name="Trazado 837786" d="M0,84.676A41.919,41.919,0,1,0,41.918,42.761,41.967,41.967,0,0,0,0,84.676" transform="translate(0 -42.761)" fill="#a5b790"/>
    </clipPath>
    <clipPath id="clip-path-26">
      <path id="Trazado_837792" data-name="Trazado 837792" d="M165.7,0A41.921,41.921,0,1,0,207.623,41.92,41.971,41.971,0,0,0,165.7,0Z" transform="translate(-123.778 0.001)" fill="none"/>
    </clipPath>
    <clipPath id="clip-path-28">
      <path id="Trazado_837798" data-name="Trazado 837798" d="M249.187,82.2a41.919,41.919,0,1,0,41.921-41.915A41.965,41.965,0,0,0,249.187,82.2" transform="translate(-249.187 -40.289)" fill="none"/>
    </clipPath>
    <clipPath id="clip-path-30">
      <path id="Trazado_837804" data-name="Trazado 837804" d="M271.8,60.886c.691,2.774,2.68,3.155,3.77,2.883s2.668-1.551,1.967-4.331-4.487-5.722-4.487-5.722-1.95,4.393-1.25,7.17" transform="translate(-271.644 -53.716)" fill="#12263f"/>
    </clipPath>
    <clipPath id="clip-path-31">
      <path id="Trazado_837805" data-name="Trazado 837805" d="M272.785,64.836c.694,2.774,2.688,3.158,3.776,2.883s2.665-1.554,1.967-4.328-4.493-5.731-4.493-5.731-1.95,4.4-1.25,7.176" transform="translate(-272.634 -57.66)" fill="#12263f"/>
    </clipPath>
    <clipPath id="clip-path-32">
      <path id="Trazado_837806" data-name="Trazado 837806" d="M253.231,59.438c-.7,2.78.877,4.056,1.965,4.331s3.078-.109,3.773-2.883-1.25-7.17-1.25-7.17-3.793,2.951-4.488,5.722" transform="translate(-253.057 -53.716)" fill="#12263f"/>
    </clipPath>
    <clipPath id="clip-path-33">
      <path id="Trazado_837807" data-name="Trazado 837807" d="M252.236,63.391c-.694,2.774.883,4.056,1.97,4.328s3.078-.109,3.773-2.883-1.247-7.176-1.247-7.176-3.8,2.954-4.5,5.731" transform="translate(-252.065 -57.66)" fill="#12263f"/>
    </clipPath>
    <clipPath id="clip-path-35">
      <rect id="Rectángulo_380444" data-name="Rectángulo 380444" width="99.727" height="260.852" fill="none"/>
    </clipPath>
    <clipPath id="clip-path-36">
      <path id="Trazado_837809" data-name="Trazado 837809" d="M105.075,106.633l15.77-5.321,76.684,216.281,4.493-1.516-70-218.535L147.8,92.219l-33.681-30.6Z" transform="translate(-105.075 -61.619)" fill="none"/>
    </clipPath>
    <linearGradient id="linear-gradient-10" x1="-1.566" y1="0.986" x2="-1.549" y2="0.986" gradientUnits="objectBoundingBox">
      <stop offset="0" stop-color="#535353"/>
      <stop offset="0.848" stop-color="#353535"/>
      <stop offset="1" stop-color="#353535"/>
    </linearGradient>
    <clipPath id="clip-path-38">
      <rect id="Rectángulo_380447" data-name="Rectángulo 380447" width="67.121" height="33.567" fill="none"/>
    </clipPath>
    <clipPath id="clip-path-39">
      <path id="Trazado_837771" data-name="Trazado 837771" d="M138.111,55.679c.623.018,1.235.05,1.858.068v-.139c-.623.018-1.235.053-1.858.071" transform="translate(-138.111 -55.608)" fill="none"/>
    </clipPath>
    <linearGradient id="linear-gradient-11" x1="-219.568" y1="2005.565" x2="-217.978" y2="2005.565" xlink:href="#linear-gradient-5"/>
    <clipPath id="clip-path-40">
      <path id="Trazado_837775" data-name="Trazado 837775" d="M137.482,55.747c.623-.018,1.238-.05,1.858-.068-.62-.018-1.235-.053-1.858-.071Z" transform="translate(-137.482 -55.608)" fill="none"/>
    </clipPath>
    <linearGradient id="linear-gradient-12" x1="-218.573" y1="2005.566" x2="-216.983" y2="2005.566" xlink:href="#linear-gradient-6"/>
  </defs>
  <g id="Grupo_1083555" data-name="Grupo 1083555" transform="translate(-180 -2165)">
    <path id="Trazado_838708" data-name="Trazado 838708" d="M0,0H1240V514H0Z" transform="translate(180 2165)" fill="url(#linear-gradient)"/>
    <g id="Grupo_1083277" data-name="Grupo 1083277" transform="translate(400.621 2355.388)">
      <g id="Grupo_1083276" data-name="Grupo 1083276" clip-path="url(#clip-path)">
        <path id="Trazado_837815" data-name="Trazado 837815" d="M0,0H794.912V276.332H0Z" transform="translate(-0.063 -0.019)" fill="#fff"/>
      </g>
    </g>
    <g id="Grupo_1083279" data-name="Grupo 1083279" transform="translate(390 2204.185)">
      <g id="Grupo_1083278" data-name="Grupo 1083278" clip-path="url(#clip-path-2)">
        <path id="Trazado_837762" data-name="Trazado 837762" d="M404.767,53.077a12.983,12.983,0,0,1,2.278.2A703.293,703.293,0,0,1,539.265,70.09a12.92,12.92,0,0,1,2.582.467l2.987.765a12.814,12.814,0,0,1,2.544.877,695.486,695.486,0,0,1,125.183,50.361,13.626,13.626,0,0,1,2.547,1.185l2.747,1.542a13.062,13.062,0,0,1,2.278,1.53,702.229,702.229,0,0,1,116,88.143,13.084,13.084,0,0,1,.349,18.768L777.744,252.6q-35.544,35.8-71.07,71.611a13.077,13.077,0,0,1-18.154.4,544.026,544.026,0,0,0-87.348-66.051,539.293,539.293,0,0,0-96.533-38.84c-40.11-8.945-71.514-12.949-101.765-12.969-30.222.021-61.62,4.024-101.739,12.969a539.784,539.784,0,0,0-96.515,38.828,543.7,543.7,0,0,0-87.369,66.063,13.07,13.07,0,0,1-18.148-.4L9.287,233.729a13.077,13.077,0,0,1,.352-18.765,701.871,701.871,0,0,1,116.087-88.205,12.345,12.345,0,0,1,2.18-1.465l2.73-1.542a13.2,13.2,0,0,1,2.5-1.158A695.877,695.877,0,0,1,258.3,72.223a13.7,13.7,0,0,1,2.632-.9l2.984-.765a12.987,12.987,0,0,1,2.585-.467A703.277,703.277,0,0,1,398.8,53.278a12.444,12.444,0,0,1,2.228-.2c.106,0,.213,0,.319.006l1.539.053,1.539-.053c.112,0,.23-.006.343-.006m0-2.866-.42.006-1.462.053-1.433-.053-.425-.006a15.457,15.457,0,0,0-2.52.21,705.574,705.574,0,0,0-132.442,16.83,16.073,16.073,0,0,0-2.936.549l-2.907.744a16.284,16.284,0,0,0-2.922.987A697.987,697.987,0,0,0,132,119.955a15.817,15.817,0,0,0-2.833,1.338l-2.668,1.5a15.164,15.164,0,0,0-2.437,1.619A704.506,704.506,0,0,0,7.68,212.869a15.942,15.942,0,0,0-.425,22.878l89.815,90.486a15.938,15.938,0,0,0,22.124.49,540.511,540.511,0,0,1,86.834-65.67A536.436,536.436,0,0,1,301.852,222.5c39.865-8.886,71.026-12.857,101.024-12.878,30.015.021,61.18,3.994,101.041,12.878a536.443,536.443,0,0,1,95.848,38.565,540.948,540.948,0,0,1,86.814,65.661,15.946,15.946,0,0,0,22.127-.5q32.637-32.907,65.3-65.791l5.773-5.817,18.736-18.869a15.949,15.949,0,0,0-.422-22.881A704.935,704.935,0,0,0,681.8,124.478a15.839,15.839,0,0,0-2.6-1.722l-2.688-1.513a16.426,16.426,0,0,0-2.809-1.318,697.93,697.93,0,0,0-125.319-50.42,15.905,15.905,0,0,0-2.9-.975l-2.916-.75a15.655,15.655,0,0,0-2.86-.529A705.74,705.74,0,0,0,407.334,50.424a15.706,15.706,0,0,0-2.567-.213" transform="translate(5.13 98.125)" fill="#d6def6"/>
      </g>
    </g>
    <g id="Grupo_1083281" data-name="Grupo 1083281" transform="translate(530.826 2437.284)">
      <g id="Grupo_1083280" data-name="Grupo 1083280" clip-path="url(#clip-path-3)">
        <rect id="Rectángulo_380411" data-name="Rectángulo 380411" width="1.728" height="1.019" fill="url(#linear-gradient-2)"/>
      </g>
    </g>
    <g id="Grupo_1083283" data-name="Grupo 1083283" transform="translate(413.699 2439.287)">
      <g id="Grupo_1083282" data-name="Grupo 1083282" clip-path="url(#clip-path-4)">
        <rect id="Rectángulo_380412" data-name="Rectángulo 380412" width="250.22" height="249.879" transform="translate(-85.018 62.645) rotate(-36.384)" fill="#a5b790"/>
      </g>
    </g>
    <g id="Grupo_1083285" data-name="Grupo 1083285" transform="translate(390 2204.185)">
      <g id="Grupo_1083284" data-name="Grupo 1083284" clip-path="url(#clip-path-2)">
        <path id="Trazado_837765" data-name="Trazado 837765" d="M99.153,260.912,7.326,168.4l1.078-1.01A681.5,681.5,0,0,1,124.17,79.668l1.261-.759L188.25,189.853l.109-.059,1.4,2.5a555.1,555.1,0,0,0-89.594,67.682ZM11.441,168.473l87.8,88.459a556.832,556.832,0,0,1,86.563-65.576L124.388,82.885A677.893,677.893,0,0,0,11.441,168.473" transform="translate(14.317 154.208)" fill="#fffffd"/>
      </g>
    </g>
    <g id="Grupo_1083287" data-name="Grupo 1083287" transform="translate(529.154 2438.303)">
      <g id="Grupo_1083286" data-name="Grupo 1083286" clip-path="url(#clip-path-6)">
        <rect id="Rectángulo_380414" data-name="Rectángulo 380414" width="1.672" height="0.984" fill="url(#linear-gradient-3)"/>
      </g>
    </g>
    <g id="Grupo_1083289" data-name="Grupo 1083289" transform="translate(660.932 2385.437)">
      <g id="Grupo_1083288" data-name="Grupo 1083288" clip-path="url(#clip-path-7)">
        <rect id="Rectángulo_380415" data-name="Rectángulo 380415" width="1.752" height="0.517" transform="translate(0 0)" fill="url(#linear-gradient-4)"/>
      </g>
    </g>
    <g id="Grupo_1083291" data-name="Grupo 1083291" transform="translate(529.228 2386.512)">
      <g id="Grupo_1083290" data-name="Grupo 1083290" clip-path="url(#clip-path-8)">
        <rect id="Rectángulo_380416" data-name="Rectángulo 380416" width="211.182" height="211.11" transform="translate(-54.315 20.631) rotate(-20.799)" fill="#cadeb4"/>
      </g>
    </g>
    <g id="Grupo_1083293" data-name="Grupo 1083293" transform="translate(390 2204.185)">
      <g id="Grupo_1083292" data-name="Grupo 1083292" clip-path="url(#clip-path-2)">
        <path id="Trazado_837769" data-name="Trazado 837769" d="M110.607,228.436,46.473,115.167l4.6-2.632A684.589,684.589,0,0,1,177.843,61.524l1.409-.411,32.479,123.269.112-.024.721,2.771a551.456,551.456,0,0,0-99.39,39.989ZM50.334,116.168l61.413,108.462.109-.059a553.681,553.681,0,0,1,97.127-39.365L177.234,64.688A681.793,681.793,0,0,0,52.4,115.072Z" transform="translate(90.82 119.43)" fill="#fffffd"/>
      </g>
    </g>
    <g id="Grupo_1083295" data-name="Grupo 1083295" transform="translate(659.026 2385.954)">
      <g id="Grupo_1083294" data-name="Grupo 1083294" clip-path="url(#clip-path-10)">
        <rect id="Rectángulo_380418" data-name="Rectángulo 380418" width="1.905" height="0.558" transform="translate(0 0)" fill="url(#linear-gradient-5)"/>
      </g>
    </g>
    <g id="Grupo_1083299" data-name="Grupo 1083299" transform="translate(659.061 2368.604)">
      <g id="Grupo_1083298" data-name="Grupo 1083298" clip-path="url(#clip-path-11)">
        <rect id="Rectángulo_380420" data-name="Rectángulo 380420" width="153.783" height="155.665" transform="matrix(0.994, -0.111, 0.111, 0.994, -15.597, 1.746)" fill="#c1cdf5"/>
      </g>
    </g>
    <g id="Grupo_1083301" data-name="Grupo 1083301" transform="translate(390 2204.185)">
      <g id="Grupo_1083300" data-name="Grupo 1083300" clip-path="url(#clip-path-2)">
        <path id="Trazado_837773" data-name="Trazado 837773" d="M123.646,199.414,90.487,73.554,95.533,72.2a692.392,692.392,0,0,1,133.748-17l1.468-.044.074,19.658q.2,54.59.366,109.18h-.009v1.456c-31.238.027-63.537,4.142-104.722,13.344ZM93.967,75.516l31.749,120.51.115-.027c40.145-8.972,71.915-13.135,102.489-13.4q-.155-53.89-.366-107.777L227.9,58.109A689.118,689.118,0,0,0,96.168,75Z" transform="translate(176.834 107.787)" fill="#fffffd"/>
      </g>
    </g>
    <g id="Grupo_1083303" data-name="Grupo 1083303" transform="translate(935.098 2385.954)">
      <g id="Grupo_1083302" data-name="Grupo 1083302" clip-path="url(#clip-path-13)">
        <rect id="Rectángulo_380422" data-name="Rectángulo 380422" width="1.903" height="0.558" fill="url(#linear-gradient-6)"/>
      </g>
    </g>
    <g id="Grupo_1083307" data-name="Grupo 1083307" transform="translate(796.156 2368.535)">
      <g id="Grupo_1083306" data-name="Grupo 1083306" clip-path="url(#clip-path-14)">
        <rect id="Rectángulo_380424" data-name="Rectángulo 380424" width="157.895" height="154.766" transform="translate(-18.64 138.323) rotate(-82.325)" fill="#a8b5e2"/>
      </g>
    </g>
    <g id="Grupo_1083309" data-name="Grupo 1083309" transform="translate(390 2204.185)">
      <g id="Grupo_1083308" data-name="Grupo 1083308" clip-path="url(#clip-path-2)">
        <path id="Trazado_837777" data-name="Trazado 837777" d="M245.02,198.815c-41.182-9.205-73.481-13.324-104.731-13.347l-2.812-.024-.044-1.427q-.151-54.595-.366-109.186l-.071-19.575,3.256-.109,1.944.068a692.62,692.62,0,0,1,133.742,17l1.436.328-8.4,32.8Q257.2,151.358,245.4,197.371l-.009,0ZM140.295,182.6c30.78.024,62.539,3.982,102.648,12.816q11.65-45.386,23.256-90.784l7.666-29.944A689.037,689.037,0,0,0,142.109,58.084l-1.858-.071-.381.018.062,16.789q.2,53.89.363,107.783" transform="translate(267.723 107.771)" fill="#fffffd"/>
      </g>
    </g>
    <g id="Grupo_1083311" data-name="Grupo 1083311" transform="translate(933.343 2385.437)">
      <g id="Grupo_1083310" data-name="Grupo 1083310" clip-path="url(#clip-path-16)">
        <rect id="Rectángulo_380426" data-name="Rectángulo 380426" width="1.755" height="0.517" transform="translate(0 0)" fill="url(#linear-gradient-7)"/>
      </g>
    </g>
    <g id="Grupo_1083313" data-name="Grupo 1083313" transform="translate(1065.147 2438.276)">
      <g id="Grupo_1083312" data-name="Grupo 1083312" clip-path="url(#clip-path-17)">
        <rect id="Rectángulo_380427" data-name="Rectángulo 380427" width="1.725" height="1.013" fill="url(#linear-gradient-8)"/>
      </g>
    </g>
    <g id="Grupo_1083315" data-name="Grupo 1083315" transform="translate(901.736 2385.57)">
      <g id="Grupo_1083314" data-name="Grupo 1083314" clip-path="url(#clip-path-18)">
        <rect id="Rectángulo_380428" data-name="Rectángulo 380428" width="214.514" height="213.379" transform="translate(-59.553 138.248) rotate(-66.695)" fill="#f9bcab"/>
      </g>
    </g>
    <g id="Grupo_1083317" data-name="Grupo 1083317" transform="translate(390 2204.185)">
      <g id="Grupo_1083316" data-name="Grupo 1083316" clip-path="url(#clip-path-2)">
        <path id="Trazado_837781" data-name="Trazado 837781" d="M274.692,227.7a550.855,550.855,0,0,0-99.413-40l-2.644-.795.343-1.338q11.814-46.015,23.581-92.04L204.93,60.82l5.061,1.273A684.638,684.638,0,0,1,336.76,113.1l1.306.682L276.027,225.165l.068.041Zm-98.6-42.748a552.949,552.949,0,0,1,97.387,38.9l60.654-108.894A681.782,681.782,0,0,0,209.193,64.844l-2.177-.623-7.681,30.021q-11.61,45.36-23.241,90.713Z" transform="translate(337.37 118.858)" fill="#fffffd"/>
      </g>
    </g>
    <g id="Grupo_1083319" data-name="Grupo 1083319" transform="translate(1063.466 2437.287)">
      <g id="Grupo_1083318" data-name="Grupo 1083318" clip-path="url(#clip-path-20)">
        <rect id="Rectángulo_380430" data-name="Rectángulo 380430" width="1.681" height="0.99" transform="translate(0 0)" fill="url(#linear-gradient-9)"/>
      </g>
    </g>
    <g id="Grupo_1083321" data-name="Grupo 1083321" transform="translate(1001.483 2437.414)">
      <g id="Grupo_1083320" data-name="Grupo 1083320" clip-path="url(#clip-path-21)">
        <rect id="Rectángulo_380431" data-name="Rectángulo 380431" width="253.851" height="253.98" transform="translate(-88.302 107.089) rotate(-50.492)" fill="#e8937b"/>
      </g>
    </g>
    <g id="Grupo_1083326" data-name="Grupo 1083326" transform="translate(390 2204.185)">
      <g id="Grupo_1083325" data-name="Grupo 1083325" clip-path="url(#clip-path-2)">
        <path id="Trazado_837784" data-name="Trazado 837784" d="M299.333,262.1l-1.016-.936a555.487,555.487,0,0,0-89.57-67.67l-2.414-1.483L269.669,78.3l4.644,2.564a681.368,681.368,0,0,1,115.765,87.715l1.081,1.007-22.57,22.736q-34.148,34.392-68.285,68.8Zm-89.162-71.094.068.041a557.528,557.528,0,0,1,89,67.076Q332.884,224.2,366.554,190.3l20.491-20.641A678.394,678.394,0,0,0,272.83,83.315l-2.009-1.2Z" transform="translate(403.227 153.016)" fill="#fffffd"/>
        <g id="Grupo_1083324" data-name="Grupo 1083324" transform="translate(26.122 164.445)" style="mix-blend-mode: multiply;isolation: isolate">
          <g id="Grupo_1083323" data-name="Grupo 1083323">
            <g id="Grupo_1083322" data-name="Grupo 1083322" clip-path="url(#clip-path-23)">
              <path id="Trazado_837785" data-name="Trazado 837785" d="M389.341,66.5l1.329.047A674.263,674.263,0,0,1,517.325,82.226l.363.083,1.843.458,2.148.529a661.539,661.539,0,0,1,119.9,47.2l.346.174,1.648.9,2,1.084a647.5,647.5,0,0,1,103.762,76l-11.643,11.5q-31.529,31.126-63.044,62.264a545.527,545.527,0,0,0-82.17-59.895l-.3-.183-.316-.162a551.081,551.081,0,0,0-98.226-38.736l-.328-.1-.334-.074c-40.718-8.919-72.737-12.907-103.845-12.928-31.079.021-63.1,4.009-103.821,12.925l-.334.074-.328.1a551.414,551.414,0,0,0-98.205,38.727l-.316.16-.307.183A545.692,545.692,0,0,0,103.62,282.4L28.931,208.641a647.271,647.271,0,0,1,102.888-75.475l.157-.092,1.82-1.022,1.982-1.111A661.627,661.627,0,0,1,255.593,83.593l.517-.151,1.7-.449,2.13-.558A674.506,674.506,0,0,1,386.381,66.6ZM390.7,55.664l-3.1.106v.015A684.9,684.9,0,0,0,256.624,72.539l-2.369.638-.015-.053-1.273.372c-.254.074-.505.154-.762.23l-.446.121.006.015A676.5,676.5,0,0,0,127.63,123.925l-2.192,1.256-.03-.053-1.14.688c-.278.168-.549.34-.824.505l-.251.145,0,.006A673.576,673.576,0,0,0,9.814,212.541l-.972.91,90.631,91.31.916-.845A549.411,549.411,0,0,1,188.963,237,545.718,545.718,0,0,1,287.2,197.474c40.716-9.1,72.648-13.167,103.532-13.188,30.9.021,62.828,4.089,103.541,13.191a545.16,545.16,0,0,1,98.258,39.534,549.541,549.541,0,0,1,88.551,66.9l.919.845.874-.883q35.154-35.447,70.335-70.87l19.418-19.554-.975-.913a673.9,673.9,0,0,0-114.459-86.722l-2.216-1.223.032-.056-1.179-.617c-.263-.133-.526-.26-.789-.4l-.325-.183-.009.012A676.8,676.8,0,0,0,528.5,73.5l-2.375-.6.015-.059-1.294-.3c-.278-.062-.552-.115-.83-.174l-.4-.1-.006.012a684.719,684.719,0,0,0-131-16.544Z" transform="translate(-8.843 -55.663)" fill="#c1c1c1"/>
            </g>
          </g>
        </g>
      </g>
    </g>
    <g id="Grupo_1083328" data-name="Grupo 1083328" transform="translate(363 2305.86)">
      <g id="Grupo_1083327" data-name="Grupo 1083327" clip-path="url(#clip-path-24)">
        <path id="Trazado_837814" data-name="Trazado 837814" d="M0,0H83.839V83.842H0Z" transform="translate(0 0)" fill="#a5b790"/>
      </g>
    </g>
    <g id="Grupo_1083330" data-name="Grupo 1083330" transform="translate(352 2174.533)">
      <g id="Grupo_1083329" data-name="Grupo 1083329" transform="translate(11 5)" clip-path="url(#clip-path-2)">
        <path id="Trazado_837787" data-name="Trazado 837787" d="M4.724,58.5a27.968,27.968,0,1,0,55.936,0Z" transform="translate(9.232 114.328)" fill="#fff"/>
        <path id="Trazado_837788" data-name="Trazado 837788" d="M19.326,58.871H17.84a5.287,5.287,0,0,0-10.573,0H5.781a6.773,6.773,0,1,1,13.545,0" transform="translate(11.298 101.811)" fill="#fff"/>
        <path id="Trazado_837789" data-name="Trazado 837789" d="M31.563,58.871H30.074a5.287,5.287,0,0,0-10.573,0H18.015a6.774,6.774,0,1,1,13.548,0" transform="translate(35.206 101.811)" fill="#fff"/>
        <path id="Trazado_837790" data-name="Trazado 837790" d="M19.615,48.717s-1.12.245-2.573.644c-.727.18-1.542.485-2.384.715a20.941,20.941,0,0,0-2.52,1.064,12.272,12.272,0,0,0-2.4,1.282,12.5,12.5,0,0,1-1.129.653,6.887,6.887,0,0,0-.969.691,15.715,15.715,0,0,1-2.26,1.456,11.685,11.685,0,0,1,.987-2.6,4.262,4.262,0,0,1,.709-1.164c.325-.355.668-.747,1.061-1.108a7.9,7.9,0,0,1,1.244-1.093c.5-.272,1.007-.544,1.513-.821a6.536,6.536,0,0,1,1.61-.594c.547-.151,1.1-.222,1.625-.325a8.41,8.41,0,0,1,1.539-.018,5.1,5.1,0,0,1,1.356.16,7.278,7.278,0,0,1,1.935.653,4.48,4.48,0,0,1,.659.4" transform="translate(10.51 92.777)" fill="#fff"/>
        <path id="Trazado_837791" data-name="Trazado 837791" d="M18.185,48.717a4.09,4.09,0,0,1,.659-.4,7.241,7.241,0,0,1,1.935-.653,5.1,5.1,0,0,1,1.356-.16,8.407,8.407,0,0,1,1.539.018c.52.1,1.078.174,1.625.325a6.429,6.429,0,0,1,1.607.594c.508.278,1.013.549,1.513.821a8.062,8.062,0,0,1,1.247,1.093c.4.36.733.753,1.058,1.108a4.121,4.121,0,0,1,.709,1.164,11.439,11.439,0,0,1,.99,2.6,15.715,15.715,0,0,1-2.26-1.456,7.029,7.029,0,0,0-.966-.691,12.588,12.588,0,0,1-1.134-.653,12.106,12.106,0,0,0-2.4-1.282,21.271,21.271,0,0,0-2.514-1.064c-.845-.23-1.66-.535-2.39-.715-1.451-.4-2.573-.644-2.57-.644" transform="translate(35.538 92.777)" fill="#fff"/>
      </g>
    </g>
    <g id="Grupo_1083332" data-name="Grupo 1083332" transform="translate(755.671 2195.182)">
      <g id="Grupo_1083331" data-name="Grupo 1083331" clip-path="url(#clip-path-26)">
        <rect id="Rectángulo_380436" data-name="Rectángulo 380436" width="83.845" height="83.842" transform="translate(0 0)" fill="#a8b5e2"/>
      </g>
    </g>
    <g id="Grupo_1083334" data-name="Grupo 1083334" transform="translate(390 2204.185)">
      <g id="Grupo_1083333" data-name="Grupo 1083333" transform="translate(0 -9)" clip-path="url(#clip-path-2)">
        <path id="Trazado_837793" data-name="Trazado 837793" d="M134.924,27.787l-2.109-2.1a21.35,21.35,0,0,1,15.2-6.34h.065A21.385,21.385,0,0,1,163.262,25.6l-2.1,2.109a18.421,18.421,0,0,0-13.081-5.392h-.056a18.429,18.429,0,0,0-13.1,5.465" transform="translate(259.554 37.815)" fill="#fff"/>
        <path id="Trazado_837794" data-name="Trazado 837794" d="M135.843,21.6a6.03,6.03,0,1,0-6.033-6.027,6.032,6.032,0,0,0,6.033,6.027" transform="translate(253.681 18.653)" fill="#fff"/>
        <path id="Trazado_837795" data-name="Trazado 837795" d="M148.077,21.6a6.03,6.03,0,1,0-6.033-6.027,6.032,6.032,0,0,0,6.033,6.027" transform="translate(277.59 18.653)" fill="#fff"/>
        <path id="Trazado_837796" data-name="Trazado 837796" d="M143.391,5.956s-1.12.242-2.57.647c-.73.18-1.542.479-2.387.712a20.9,20.9,0,0,0-2.517,1.064,12.046,12.046,0,0,0-2.4,1.285,12.074,12.074,0,0,1-1.132.647,7.3,7.3,0,0,0-.966.694,15.719,15.719,0,0,1-2.26,1.459,11.685,11.685,0,0,1,.987-2.6,4.2,4.2,0,0,1,.709-1.167c.322-.357.665-.744,1.058-1.111a8.2,8.2,0,0,1,1.247-1.09q.749-.4,1.513-.824a6.538,6.538,0,0,1,1.607-.591c.547-.151,1.1-.222,1.625-.325a8.156,8.156,0,0,1,1.539-.018,5.206,5.206,0,0,1,1.356.16,7.278,7.278,0,0,1,1.935.653,4.092,4.092,0,0,1,.659.4" transform="translate(252.405 9.208)" fill="#fff"/>
        <path id="Trazado_837797" data-name="Trazado 837797" d="M141.963,5.956a4.477,4.477,0,0,1,.659-.4,7.278,7.278,0,0,1,1.935-.653,5.237,5.237,0,0,1,1.356-.16,8.156,8.156,0,0,1,1.539.018c.523.1,1.081.174,1.625.325a6.537,6.537,0,0,1,1.607.591q.762.421,1.513.824a8.205,8.205,0,0,1,1.247,1.09c.393.366.736.753,1.058,1.111a4.123,4.123,0,0,1,.706,1.167,11.438,11.438,0,0,1,.99,2.6,15.716,15.716,0,0,1-2.26-1.459,7.3,7.3,0,0,0-.966-.694,12.081,12.081,0,0,1-1.131-.647,11.962,11.962,0,0,0-2.4-1.285,21.058,21.058,0,0,0-2.514-1.064c-.848-.233-1.66-.532-2.387-.712-1.454-.4-2.573-.647-2.573-.647" transform="translate(277.431 9.208)" fill="#fff"/>
      </g>
    </g>
    <g id="Grupo_1083336" data-name="Grupo 1083336" transform="translate(1146.161 2306.637)">
      <g id="Grupo_1083335" data-name="Grupo 1083335" clip-path="url(#clip-path-28)">
        <rect id="Rectángulo_380438" data-name="Rectángulo 380438" width="83.839" height="83.839" transform="translate(0 0)" fill="#e8937b"/>
      </g>
    </g>
    <g id="Grupo_1083338" data-name="Grupo 1083338" transform="translate(410 2187.612)">
      <g id="Grupo_1083337" data-name="Grupo 1083337" clip-path="url(#clip-path-2)">
        <path id="Trazado_837799" data-name="Trazado 837799" d="M299.3,77.264h-2.975a18.551,18.551,0,1,0-37.1,0h-2.978a21.528,21.528,0,1,1,43.055,0" transform="translate(500.763 108.922)" fill="#fff"/>
        <path id="Trazado_837800" data-name="Trazado 837800" d="M261.4,61.9a6.031,6.031,0,1,0-6.03-6.03,6.03,6.03,0,0,0,6.03,6.03" transform="translate(499.061 97.388)" fill="#fff"/>
        <path id="Trazado_837801" data-name="Trazado 837801" d="M273.636,61.9a6.031,6.031,0,1,0-6.03-6.03,6.03,6.03,0,0,0,6.03,6.03" transform="translate(522.97 97.388)" fill="#fff"/>
        <path id="Trazado_837802" data-name="Trazado 837802" d="M267.024,45.4s1.072.4,2.514.848c.706.236,1.557.422,2.4.685a20.925,20.925,0,0,0,2.688.461,12.318,12.318,0,0,0,2.715.216,12.578,12.578,0,0,1,1.3.062,7,7,0,0,0,1.188-.062,15.818,15.818,0,0,1,2.691-.006,11.634,11.634,0,0,1-2.236,1.651,3.979,3.979,0,0,1-1.22.6,14.5,14.5,0,0,1-1.492.363,7.872,7.872,0,0,1-1.637.245c-.567-.038-1.143-.077-1.716-.121a6.26,6.26,0,0,1-1.675-.366c-.544-.165-1.046-.411-1.545-.6a8.22,8.22,0,0,1-1.306-.818,5.112,5.112,0,0,1-1.052-.863,7.061,7.061,0,0,1-1.276-1.6,4.226,4.226,0,0,1-.34-.691" transform="translate(521.832 88.721)" fill="#fff"/>
        <path id="Trazado_837803" data-name="Trazado 837803" d="M269.978,45.4a4.957,4.957,0,0,1-.34.691,7.147,7.147,0,0,1-1.276,1.6,5.056,5.056,0,0,1-1.055.863,7.93,7.93,0,0,1-1.3.818c-.5.192-1,.437-1.548.6a6.239,6.239,0,0,1-1.672.366c-.576.044-1.149.083-1.716.121a7.873,7.873,0,0,1-1.637-.245,14.514,14.514,0,0,1-1.492-.363,4.03,4.03,0,0,1-1.223-.6,11.539,11.539,0,0,1-2.233-1.651,15.8,15.8,0,0,1,2.691.006,6.988,6.988,0,0,0,1.188.062,12.562,12.562,0,0,1,1.3-.062,12.345,12.345,0,0,0,2.718-.216,21.1,21.1,0,0,0,2.688-.461c.836-.263,1.69-.449,2.4-.685,1.439-.446,2.514-.848,2.514-.848" transform="translate(497.324 88.721)" fill="#fff"/>
      </g>
    </g>
    <g id="Grupo_1083340" data-name="Grupo 1083340" transform="translate(1212.504 2346.303)">
      <g id="Grupo_1083339" data-name="Grupo 1083339" clip-path="url(#clip-path-30)">
        <rect id="Rectángulo_380440" data-name="Rectángulo 380440" width="9.437" height="11.752" transform="translate(-2.987 0.612) rotate(-14.093)" fill="#12263f"/>
      </g>
    </g>
    <g id="Grupo_1083342" data-name="Grupo 1083342" transform="translate(1215.428 2357.955)">
      <g id="Grupo_1083341" data-name="Grupo 1083341" clip-path="url(#clip-path-31)">
        <rect id="Rectángulo_380441" data-name="Rectángulo 380441" width="9.442" height="11.762" transform="translate(-2.989 0.613) rotate(-14.093)" fill="#12263f"/>
      </g>
    </g>
    <g id="Grupo_1083344" data-name="Grupo 1083344" transform="translate(1157.595 2346.303)">
      <g id="Grupo_1083343" data-name="Grupo 1083343" clip-path="url(#clip-path-32)">
        <rect id="Rectángulo_380442" data-name="Rectángulo 380442" width="11.752" height="9.434" transform="matrix(0.244, -0.97, 0.97, 0.244, -2.965, 9.713)" fill="#12263f"/>
      </g>
    </g>
    <g id="Grupo_1083346" data-name="Grupo 1083346" transform="translate(1154.664 2357.955)">
      <g id="Grupo_1083345" data-name="Grupo 1083345" clip-path="url(#clip-path-33)">
        <rect id="Rectángulo_380443" data-name="Rectángulo 380443" width="11.762" height="9.442" transform="translate(-2.964 9.721) rotate(-75.907)" fill="#12263f"/>
      </g>
    </g>
    <g id="Grupo_1083351" data-name="Grupo 1083351" transform="translate(390 2204.185)">
      <g id="Grupo_1083350" data-name="Grupo 1083350" clip-path="url(#clip-path-2)">
        <g id="Grupo_1083349" data-name="Grupo 1083349" transform="translate(311.473 178.329)" opacity="0.3" style="mix-blend-mode: multiply;isolation: isolate">
          <g id="Grupo_1083348" data-name="Grupo 1083348">
            <g id="Grupo_1083347" data-name="Grupo 1083347" clip-path="url(#clip-path-35)">
              <path id="Trazado_837808" data-name="Trazado 837808" d="M151.731,92.449l-33.684-30.6-2.053-1.483-.78,2.42L106.179,107.8l-.747,2.313,2.777-.936,14.169-4.78L197.026,320l.434,1.217,1.6-.538,4.493-1.513,1.607-.541-.4-1.232-68-217.849,14.174-4.78,2.727-.922Z" transform="translate(-105.432 -60.364)" fill="#3a3a3a"/>
            </g>
          </g>
        </g>
      </g>
    </g>
    <g id="Grupo_1083353" data-name="Grupo 1083353" transform="translate(700.418 2386.223)">
      <g id="Grupo_1083352" data-name="Grupo 1083352" clip-path="url(#clip-path-36)">
        <rect id="Rectángulo_380446" data-name="Rectángulo 380446" width="173.675" height="273.533" transform="matrix(0.948, -0.32, 0.32, 0.948, -77.522, 26.149)" fill="url(#linear-gradient-10)"/>
      </g>
    </g>
    <g id="Grupo_1083358" data-name="Grupo 1083358" transform="translate(390 2204.185)">
      <g id="Grupo_1083357" data-name="Grupo 1083357" clip-path="url(#clip-path-2)">
        <path id="Trazado_837810" data-name="Trazado 837810" d="M115.258,63.286l33.684,30.6L133.17,99.21l70,218.538-4.493,1.516L121.988,102.979l-15.77,5.321Zm-.827-2.52-.455,2.26-9.04,45.014-.446,2.222,2.145-.724,14.553-4.907L197.44,319.7l.428,1.214,1.22-.411,4.5-1.519,1.22-.411-.4-1.226-69.6-217.312,14.553-4.91,2.109-.712L149.82,92.92l-33.681-30.6Z" transform="translate(204.2 118.752)" fill="#fff"/>
        <g id="Grupo_1083356" data-name="Grupo 1083356" transform="translate(376.413 409.213)" opacity="0.3" style="mix-blend-mode: multiply;isolation: isolate">
          <g id="Grupo_1083355" data-name="Grupo 1083355">
            <g id="Grupo_1083354" data-name="Grupo 1083354" clip-path="url(#clip-path-38)">
              <path id="Trazado_837811" data-name="Trazado 837811" d="M160.976,138.517a33.6,33.6,0,0,0-33.563,33.566h67.124a33.6,33.6,0,0,0-33.56-33.566" transform="translate(-127.416 -138.516)" fill="#3a3a3a"/>
            </g>
          </g>
        </g>
        <path id="Trazado_837812" data-name="Trazado 837812" d="M130.942,171.717a28.711,28.711,0,0,1,57.419,0h4.821a33.529,33.529,0,0,0-67.056,0Z" transform="translate(246.484 270.697)" fill="#fff"/>
        <path id="Trazado_837813" data-name="Trazado 837813" d="M188.25,170.1a30.56,30.56,0,1,0-61.121,0Z" transform="translate(248.442 272.679)" fill="#494949"/>
      </g>
    </g>
    <path id="Trazado_838709" data-name="Trazado 838709" d="M0,0H820V442.78H0Z" transform="translate(390 2207.185)" fill="none"/>
    <path id="Trazado_838710" data-name="Trazado 838710" d="M58.1,11.061H53.323V16h-2.49V3.914H58.7V5.931H53.323V9.052H58.1ZM64.91,16a2.664,2.664,0,0,1-.241-.805,2.9,2.9,0,0,1-2.266.971,3.189,3.189,0,0,1-2.187-.764,2.456,2.456,0,0,1-.867-1.926,2.538,2.538,0,0,1,1.058-2.191,5.222,5.222,0,0,1,3.059-.772h1.1V10a1.48,1.48,0,0,0-.32-1,1.257,1.257,0,0,0-1.009-.374,1.429,1.429,0,0,0-.95.291.987.987,0,0,0-.344.8h-2.4a2.41,2.41,0,0,1,.481-1.444A3.182,3.182,0,0,1,61.391,7.23a4.961,4.961,0,0,1,1.976-.378A3.92,3.92,0,0,1,66,7.687a2.918,2.918,0,0,1,.975,2.345v3.893a4.294,4.294,0,0,0,.357,1.934V16Zm-1.984-1.668a2.066,2.066,0,0,0,.979-.237,1.554,1.554,0,0,0,.664-.635V11.916h-.9q-1.8,0-1.917,1.245l-.008.141a.96.96,0,0,0,.315.739A1.225,1.225,0,0,0,62.927,14.332Zm9.131-1.262,1.668-6.051h2.507L73.2,16H70.912l-3.03-8.981h2.507Zm4.731-1.644A5.326,5.326,0,0,1,77.3,9.044a3.768,3.768,0,0,1,1.482-1.619,4.323,4.323,0,0,1,2.245-.573A4.09,4.09,0,0,1,84,7.965a4.464,4.464,0,0,1,1.282,3.021l.017.614a4.694,4.694,0,0,1-1.154,3.316,4.472,4.472,0,0,1-6.2,0,4.777,4.777,0,0,1-1.158-3.387Zm2.4.17a3.357,3.357,0,0,0,.481,1.958,1.73,1.73,0,0,0,2.739.008,3.674,3.674,0,0,0,.49-2.141,3.324,3.324,0,0,0-.49-1.945,1.592,1.592,0,0,0-1.378-.69,1.566,1.566,0,0,0-1.361.686A3.736,3.736,0,0,0,79.188,11.6ZM91.822,9.268a6.517,6.517,0,0,0-.863-.066,1.757,1.757,0,0,0-1.785.921V16h-2.4V7.019h2.266l.066,1.071a2.223,2.223,0,0,1,2-1.237,2.514,2.514,0,0,1,.747.108ZM97.931,16a2.664,2.664,0,0,1-.241-.805,2.9,2.9,0,0,1-2.266.971,3.189,3.189,0,0,1-2.187-.764,2.456,2.456,0,0,1-.867-1.926,2.538,2.538,0,0,1,1.058-2.191,5.222,5.222,0,0,1,3.059-.772h1.1V10a1.48,1.48,0,0,0-.32-1,1.257,1.257,0,0,0-1.009-.374,1.429,1.429,0,0,0-.95.291.987.987,0,0,0-.344.8h-2.4a2.41,2.41,0,0,1,.481-1.444A3.182,3.182,0,0,1,94.411,7.23a4.961,4.961,0,0,1,1.976-.378,3.92,3.92,0,0,1,2.635.834A2.918,2.918,0,0,1,100,10.032v3.893a4.294,4.294,0,0,0,.357,1.934V16Zm-1.984-1.668a2.066,2.066,0,0,0,.979-.237,1.554,1.554,0,0,0,.664-.635V11.916h-.9q-1.8,0-1.917,1.245l-.008.141a.96.96,0,0,0,.315.739A1.225,1.225,0,0,0,95.947,14.332Zm13.987-2.739a5.439,5.439,0,0,1-.921,3.366,3.052,3.052,0,0,1-2.573,1.208,2.8,2.8,0,0,1-2.333-1.121L104,16h-2.158V3.25h2.4V7.824a2.732,2.732,0,0,1,2.183-.971A3.077,3.077,0,0,1,109,8.06a5.446,5.446,0,0,1,.934,3.4Zm-2.4-.174A3.573,3.573,0,0,0,107.1,9.43a1.46,1.46,0,0,0-1.287-.627,1.582,1.582,0,0,0-1.577.938v3.544a1.6,1.6,0,0,0,1.594.946,1.481,1.481,0,0,0,1.527-1.146A5.909,5.909,0,0,0,107.535,11.418ZM113.943,16h-2.407V3.25h2.407Zm6.109.166a4.409,4.409,0,0,1-3.217-1.212,4.308,4.308,0,0,1-1.241-3.229v-.232a5.426,5.426,0,0,1,.523-2.42A3.838,3.838,0,0,1,117.6,7.429a4.159,4.159,0,0,1,2.187-.577,3.727,3.727,0,0,1,2.9,1.162,4.722,4.722,0,0,1,1.058,3.3v.979h-5.719a2.229,2.229,0,0,0,.7,1.411,2.12,2.12,0,0,0,1.482.531,2.589,2.589,0,0,0,2.167-1l1.179,1.32a3.6,3.6,0,0,1-1.461,1.191A4.793,4.793,0,0,1,120.052,16.166Zm-.274-7.379a1.5,1.5,0,0,0-1.158.484,2.5,2.5,0,0,0-.569,1.384h3.337v-.192a1.786,1.786,0,0,0-.432-1.238A1.547,1.547,0,0,0,119.779,8.787Z" transform="translate(321.001 2404)" fill="#12263f"/>
    <path id="Trazado_838711" data-name="Trazado 838711" d="M37.813,16V3.914h3.719a5.647,5.647,0,0,1,2.851.718,5.007,5.007,0,0,1,1.963,2.042,6.3,6.3,0,0,1,.706,3.009v.556a6.316,6.316,0,0,1-.693,3A4.964,4.964,0,0,1,44.4,15.27a5.69,5.69,0,0,1-2.847.73ZM40.3,5.931V14h1.2a2.7,2.7,0,0,0,2.233-.955,4.314,4.314,0,0,0,.789-2.731V9.675a4.382,4.382,0,0,0-.764-2.793,2.7,2.7,0,0,0-2.233-.95ZM52.837,16.166a4.409,4.409,0,0,1-3.217-1.212,4.308,4.308,0,0,1-1.241-3.229v-.232a5.426,5.426,0,0,1,.523-2.42,3.838,3.838,0,0,1,1.482-1.644,4.159,4.159,0,0,1,2.187-.577,3.727,3.727,0,0,1,2.9,1.162,4.722,4.722,0,0,1,1.058,3.3v.979H50.812a2.229,2.229,0,0,0,.7,1.411,2.12,2.12,0,0,0,1.482.531,2.589,2.589,0,0,0,2.167-1l1.179,1.32a3.6,3.6,0,0,1-1.461,1.191A4.793,4.793,0,0,1,52.837,16.166Zm-.274-7.379a1.5,1.5,0,0,0-1.158.484,2.5,2.5,0,0,0-.569,1.384h3.337v-.192a1.786,1.786,0,0,0-.432-1.238A1.547,1.547,0,0,0,52.563,8.787Zm10.193,4.731a.773.773,0,0,0-.436-.693,4.95,4.95,0,0,0-1.4-.452q-3.2-.672-3.2-2.723a2.468,2.468,0,0,1,.992-2,4,4,0,0,1,2.594-.8,4.307,4.307,0,0,1,2.735.805A2.538,2.538,0,0,1,65.064,9.75h-2.4a1.161,1.161,0,0,0-.332-.851A1.405,1.405,0,0,0,61.3,8.563a1.436,1.436,0,0,0-.938.274.865.865,0,0,0-.332.7.739.739,0,0,0,.378.643,3.885,3.885,0,0,0,1.274.423,10.407,10.407,0,0,1,1.511.4,2.482,2.482,0,0,1,1.9,2.416,2.343,2.343,0,0,1-1.054,1.988,4.548,4.548,0,0,1-2.723.76,4.75,4.75,0,0,1-2-.4,3.363,3.363,0,0,1-1.374-1.1,2.565,2.565,0,0,1-.5-1.515H59.71a1.252,1.252,0,0,0,.473.979,1.877,1.877,0,0,0,1.179.34A1.737,1.737,0,0,0,62.4,14.2.814.814,0,0,0,62.756,13.518ZM67.289,16V8.778H65.952V7.019h1.336V6.255a3.1,3.1,0,0,1,.867-2.345,3.359,3.359,0,0,1,2.428-.834,5.608,5.608,0,0,1,1.22.166L71.779,5.1a3.058,3.058,0,0,0-.73-.075Q69.7,5.026,69.7,6.3v.722H71.48v1.76H69.7V16ZM77.93,16a2.664,2.664,0,0,1-.241-.805,2.9,2.9,0,0,1-2.266.971,3.189,3.189,0,0,1-2.187-.764,2.456,2.456,0,0,1-.867-1.926,2.538,2.538,0,0,1,1.058-2.191,5.222,5.222,0,0,1,3.059-.772h1.1V10a1.48,1.48,0,0,0-.32-1,1.257,1.257,0,0,0-1.009-.374,1.429,1.429,0,0,0-.95.291.987.987,0,0,0-.344.8h-2.4a2.41,2.41,0,0,1,.481-1.444A3.182,3.182,0,0,1,74.411,7.23a4.961,4.961,0,0,1,1.976-.378,3.92,3.92,0,0,1,2.635.834A2.918,2.918,0,0,1,80,10.032v3.893a4.294,4.294,0,0,0,.357,1.934V16Zm-1.984-1.668a2.066,2.066,0,0,0,.979-.237,1.554,1.554,0,0,0,.664-.635V11.916h-.9q-1.8,0-1.917,1.245l-.008.141a.96.96,0,0,0,.315.739A1.225,1.225,0,0,0,75.946,14.332Zm9.131-1.262,1.668-6.051h2.507L86.223,16H83.932L80.9,7.019h2.507Zm4.731-1.644a5.326,5.326,0,0,1,.515-2.382A3.768,3.768,0,0,1,91.8,7.425a4.323,4.323,0,0,1,2.245-.573,4.09,4.09,0,0,1,2.968,1.112A4.464,4.464,0,0,1,98.3,10.986l.017.614a4.694,4.694,0,0,1-1.154,3.316,4.472,4.472,0,0,1-6.2,0,4.777,4.777,0,0,1-1.158-3.387Zm2.4.17a3.357,3.357,0,0,0,.481,1.958,1.73,1.73,0,0,0,2.739.008,3.674,3.674,0,0,0,.49-2.141,3.324,3.324,0,0,0-.49-1.945,1.592,1.592,0,0,0-1.378-.69,1.566,1.566,0,0,0-1.361.686A3.736,3.736,0,0,0,92.208,11.6Zm12.634-2.328a6.517,6.517,0,0,0-.863-.066,1.757,1.757,0,0,0-1.785.921V16h-2.4V7.019h2.266l.066,1.071a2.223,2.223,0,0,1,2-1.237,2.514,2.514,0,0,1,.747.108ZM110.951,16a2.664,2.664,0,0,1-.241-.805,2.9,2.9,0,0,1-2.266.971,3.189,3.189,0,0,1-2.187-.764,2.456,2.456,0,0,1-.867-1.926,2.538,2.538,0,0,1,1.058-2.191,5.222,5.222,0,0,1,3.059-.772h1.1V10a1.48,1.48,0,0,0-.32-1,1.257,1.257,0,0,0-1.009-.374,1.429,1.429,0,0,0-.95.291.987.987,0,0,0-.344.8h-2.4a2.41,2.41,0,0,1,.481-1.444,3.182,3.182,0,0,1,1.361-1.042,4.961,4.961,0,0,1,1.976-.378,3.92,3.92,0,0,1,2.635.834,2.918,2.918,0,0,1,.975,2.345v3.893a4.294,4.294,0,0,0,.357,1.934V16Zm-1.984-1.668a2.066,2.066,0,0,0,.979-.237,1.554,1.554,0,0,0,.664-.635V11.916h-.9q-1.8,0-1.917,1.245l-.008.141a.96.96,0,0,0,.315.739A1.225,1.225,0,0,0,108.967,14.332Zm13.987-2.739a5.439,5.439,0,0,1-.921,3.366,3.052,3.052,0,0,1-2.573,1.208,2.8,2.8,0,0,1-2.333-1.121l-.108.955H114.86V3.25h2.4V7.824a2.732,2.732,0,0,1,2.183-.971A3.077,3.077,0,0,1,122.02,8.06a5.446,5.446,0,0,1,.934,3.4Zm-2.4-.174a3.573,3.573,0,0,0-.432-1.988,1.46,1.46,0,0,0-1.287-.627,1.582,1.582,0,0,0-1.577.938v3.544a1.6,1.6,0,0,0,1.594.946,1.481,1.481,0,0,0,1.527-1.146A5.909,5.909,0,0,0,120.555,11.418ZM126.963,16h-2.407V3.25h2.407Zm6.109.166a4.409,4.409,0,0,1-3.217-1.212,4.308,4.308,0,0,1-1.241-3.229v-.232a5.426,5.426,0,0,1,.523-2.42,3.838,3.838,0,0,1,1.482-1.644,4.159,4.159,0,0,1,2.187-.577,3.727,3.727,0,0,1,2.9,1.162,4.722,4.722,0,0,1,1.058,3.3v.979h-5.719a2.228,2.228,0,0,0,.7,1.411,2.12,2.12,0,0,0,1.482.531,2.589,2.589,0,0,0,2.167-1l1.179,1.32a3.6,3.6,0,0,1-1.461,1.191A4.793,4.793,0,0,1,133.072,16.166ZM132.8,8.787a1.5,1.5,0,0,0-1.158.484,2.5,2.5,0,0,0-.569,1.384h3.337v-.192a1.786,1.786,0,0,0-.432-1.238A1.547,1.547,0,0,0,132.8,8.787Z" transform="translate(1105.001 2404)" fill="#12263f"/>
    <path id="Trazado_838712" data-name="Trazado 838712" d="M19.887,11.061H15.106V16h-2.49V3.914h7.869V5.931H15.106V9.052h4.781ZM26.694,16a2.664,2.664,0,0,1-.241-.805,2.9,2.9,0,0,1-2.266.971A3.189,3.189,0,0,1,22,15.4a2.456,2.456,0,0,1-.867-1.926,2.538,2.538,0,0,1,1.058-2.191,5.222,5.222,0,0,1,3.059-.772h1.1V10a1.48,1.48,0,0,0-.32-1,1.257,1.257,0,0,0-1.009-.374,1.429,1.429,0,0,0-.95.291.987.987,0,0,0-.344.8h-2.4a2.41,2.41,0,0,1,.481-1.444A3.182,3.182,0,0,1,23.174,7.23a4.961,4.961,0,0,1,1.976-.378,3.92,3.92,0,0,1,2.635.834,2.918,2.918,0,0,1,.975,2.345v3.893a4.294,4.294,0,0,0,.357,1.934V16ZM24.71,14.332a2.066,2.066,0,0,0,.979-.237,1.554,1.554,0,0,0,.664-.635V11.916h-.9q-1.8,0-1.917,1.245l-.008.141a.96.96,0,0,0,.315.739A1.225,1.225,0,0,0,24.71,14.332Zm9.131-1.262,1.668-6.051h2.507L34.986,16H32.7l-3.03-8.981h2.507Zm4.731-1.644a5.327,5.327,0,0,1,.515-2.382,3.767,3.767,0,0,1,1.482-1.619,4.323,4.323,0,0,1,2.245-.573,4.09,4.09,0,0,1,2.968,1.112,4.464,4.464,0,0,1,1.282,3.021l.017.614a4.694,4.694,0,0,1-1.154,3.316,4.472,4.472,0,0,1-6.2,0,4.777,4.777,0,0,1-1.158-3.387Zm2.4.17a3.357,3.357,0,0,0,.481,1.958,1.73,1.73,0,0,0,2.739.008,3.674,3.674,0,0,0,.49-2.141,3.324,3.324,0,0,0-.49-1.945,1.592,1.592,0,0,0-1.378-.69,1.566,1.566,0,0,0-1.361.686A3.735,3.735,0,0,0,40.971,11.6ZM53.6,9.268a6.517,6.517,0,0,0-.863-.066,1.757,1.757,0,0,0-1.785.921V16h-2.4V7.019h2.266l.066,1.071a2.223,2.223,0,0,1,2-1.237,2.514,2.514,0,0,1,.747.108ZM59.714,16a2.664,2.664,0,0,1-.241-.805,2.9,2.9,0,0,1-2.266.971A3.189,3.189,0,0,1,55.02,15.4a2.456,2.456,0,0,1-.867-1.926,2.538,2.538,0,0,1,1.058-2.191,5.222,5.222,0,0,1,3.059-.772h1.1V10a1.48,1.48,0,0,0-.32-1,1.257,1.257,0,0,0-1.009-.374,1.429,1.429,0,0,0-.95.291.987.987,0,0,0-.344.8h-2.4a2.41,2.41,0,0,1,.481-1.444A3.182,3.182,0,0,1,56.195,7.23a4.961,4.961,0,0,1,1.976-.378,3.92,3.92,0,0,1,2.635.834,2.918,2.918,0,0,1,.975,2.345v3.893a4.294,4.294,0,0,0,.357,1.934V16ZM57.73,14.332a2.066,2.066,0,0,0,.979-.237,1.554,1.554,0,0,0,.664-.635V11.916h-.9q-1.8,0-1.917,1.245l-.008.141a.96.96,0,0,0,.315.739A1.225,1.225,0,0,0,57.73,14.332Zm13.987-2.739a5.439,5.439,0,0,1-.921,3.366,3.052,3.052,0,0,1-2.573,1.208,2.8,2.8,0,0,1-2.333-1.121L65.782,16H63.624V3.25h2.4V7.824a2.732,2.732,0,0,1,2.183-.971A3.077,3.077,0,0,1,70.783,8.06a5.446,5.446,0,0,1,.934,3.4Zm-2.4-.174a3.573,3.573,0,0,0-.432-1.988A1.46,1.46,0,0,0,67.6,8.8a1.582,1.582,0,0,0-1.577.938v3.544a1.6,1.6,0,0,0,1.594.946,1.481,1.481,0,0,0,1.527-1.146A5.909,5.909,0,0,0,69.318,11.418ZM75.727,16H73.319V3.25h2.407Zm6.109.166a4.409,4.409,0,0,1-3.217-1.212,4.308,4.308,0,0,1-1.241-3.229v-.232a5.426,5.426,0,0,1,.523-2.42,3.838,3.838,0,0,1,1.482-1.644,4.159,4.159,0,0,1,2.187-.577,3.727,3.727,0,0,1,2.9,1.162,4.722,4.722,0,0,1,1.058,3.3v.979H79.811a2.229,2.229,0,0,0,.7,1.411,2.12,2.12,0,0,0,1.482.531,2.589,2.589,0,0,0,2.167-1l1.179,1.32a3.6,3.6,0,0,1-1.461,1.191A4.793,4.793,0,0,1,81.836,16.166Zm-.274-7.379A1.5,1.5,0,0,0,80.4,9.27a2.5,2.5,0,0,0-.569,1.384h3.337v-.192a1.786,1.786,0,0,0-.432-1.238A1.547,1.547,0,0,0,81.562,8.787Zm13.3,5.445a1.573,1.573,0,0,0,1.079-.365,1.28,1.28,0,0,0,.432-.971h2.25a3.077,3.077,0,0,1-.5,1.673,3.286,3.286,0,0,1-1.341,1.179,4.2,4.2,0,0,1-1.88.419,3.9,3.9,0,0,1-3.038-1.224,4.845,4.845,0,0,1-1.112-3.383V11.4a4.79,4.79,0,0,1,1.1-3.312,3.854,3.854,0,0,1,3.03-1.237,3.778,3.778,0,0,1,2.7.959,3.4,3.4,0,0,1,1.033,2.552h-2.25a1.648,1.648,0,0,0-.432-1.139,1.6,1.6,0,0,0-2.362.173,3.541,3.541,0,0,0-.427,1.983v.249a3.586,3.586,0,0,0,.423,2A1.463,1.463,0,0,0,94.86,14.232Zm4.756-2.806a5.326,5.326,0,0,1,.515-2.382,3.768,3.768,0,0,1,1.482-1.619,4.323,4.323,0,0,1,2.245-.573,4.09,4.09,0,0,1,2.968,1.112,4.464,4.464,0,0,1,1.282,3.021l.017.614a4.694,4.694,0,0,1-1.154,3.316,4.472,4.472,0,0,1-6.2,0,4.777,4.777,0,0,1-1.158-3.387Zm2.4.17a3.357,3.357,0,0,0,.481,1.958,1.73,1.73,0,0,0,2.739.008,3.674,3.674,0,0,0,.49-2.141,3.324,3.324,0,0,0-.49-1.945,1.592,1.592,0,0,0-1.378-.69,1.566,1.566,0,0,0-1.361.686A3.736,3.736,0,0,0,102.015,11.6Zm9.795-4.578.075,1.038a3.136,3.136,0,0,1,2.582-1.2,2.606,2.606,0,0,1,2.125.838,3.912,3.912,0,0,1,.714,2.507V16h-2.4V10.256a1.556,1.556,0,0,0-.332-1.108,1.486,1.486,0,0,0-1.1-.344,1.65,1.65,0,0,0-1.519.863V16h-2.4V7.019ZM128.4,9.268a6.517,6.517,0,0,0-.863-.066,1.757,1.757,0,0,0-1.785.921V16h-2.4V7.019h2.266l.066,1.071a2.223,2.223,0,0,1,2-1.237,2.514,2.514,0,0,1,.747.108Zm5.13,6.9a4.409,4.409,0,0,1-3.217-1.212,4.308,4.308,0,0,1-1.241-3.229v-.232a5.426,5.426,0,0,1,.523-2.42,3.838,3.838,0,0,1,1.482-1.644,4.159,4.159,0,0,1,2.187-.577,3.727,3.727,0,0,1,2.9,1.162,4.722,4.722,0,0,1,1.058,3.3v.979h-5.719a2.228,2.228,0,0,0,.7,1.411,2.12,2.12,0,0,0,1.482.531,2.589,2.589,0,0,0,2.167-1l1.179,1.32a3.6,3.6,0,0,1-1.461,1.191A4.793,4.793,0,0,1,133.533,16.166Zm-.274-7.379a1.5,1.5,0,0,0-1.158.484,2.5,2.5,0,0,0-.569,1.384h3.337v-.192a1.786,1.786,0,0,0-.432-1.238A1.547,1.547,0,0,0,133.259,8.787Zm4.956,2.64a5.369,5.369,0,0,1,.942-3.345,3.08,3.08,0,0,1,2.586-1.229,2.758,2.758,0,0,1,2.3,1.1l.158-.938h2.108V19.453H143.9V15.228a2.765,2.765,0,0,1-2.175.938,3.057,3.057,0,0,1-2.557-1.245A5.632,5.632,0,0,1,138.215,11.426Zm2.4.17a3.522,3.522,0,0,0,.452,1.962,1.448,1.448,0,0,0,1.274.673,1.613,1.613,0,0,0,1.561-.881V9.635a1.6,1.6,0,0,0-1.544-.848,1.466,1.466,0,0,0-1.287.673A3.889,3.889,0,0,0,140.614,11.6Zm12.958,3.49a3.008,3.008,0,0,1-2.457,1.079,2.837,2.837,0,0,1-2.2-.83,3.543,3.543,0,0,1-.776-2.432V7.019h2.4v5.809q0,1.4,1.278,1.4a1.732,1.732,0,0,0,1.677-.848V7.019H155.9V16h-2.258Zm8.268,1.079a4.409,4.409,0,0,1-3.217-1.212,4.308,4.308,0,0,1-1.241-3.229v-.232a5.426,5.426,0,0,1,.523-2.42,3.838,3.838,0,0,1,1.482-1.644,4.159,4.159,0,0,1,2.187-.577,3.727,3.727,0,0,1,2.9,1.162,4.722,4.722,0,0,1,1.058,3.3v.979h-5.719a2.228,2.228,0,0,0,.7,1.411,2.12,2.12,0,0,0,1.482.531,2.589,2.589,0,0,0,2.167-1l1.179,1.32a3.6,3.6,0,0,1-1.461,1.191A4.793,4.793,0,0,1,161.839,16.166Zm-.274-7.379a1.5,1.5,0,0,0-1.158.484,2.5,2.5,0,0,0-.569,1.384h3.337v-.192a1.786,1.786,0,0,0-.432-1.238A1.547,1.547,0,0,0,161.565,8.787Zm10.376.481a6.517,6.517,0,0,0-.863-.066,1.757,1.757,0,0,0-1.785.921V16h-2.4V7.019h2.266l.066,1.071a2.223,2.223,0,0,1,2-1.237,2.514,2.514,0,0,1,.747.108ZM175.626,16h-2.407V7.019h2.407ZM173.078,4.694a1.181,1.181,0,0,1,.361-.888,1.556,1.556,0,0,1,1.963,0,1.175,1.175,0,0,1,.365.888,1.178,1.178,0,0,1-.369.9,1.539,1.539,0,0,1-1.951,0A1.178,1.178,0,0,1,173.078,4.694Zm6.773,2.324.075,1a3.156,3.156,0,0,1,2.582-1.17,2.4,2.4,0,0,1,2.382,1.37,3.084,3.084,0,0,1,2.7-1.37,2.679,2.679,0,0,1,2.175.851,3.911,3.911,0,0,1,.714,2.561V16h-2.407V10.272a1.71,1.71,0,0,0-.3-1.116,1.324,1.324,0,0,0-1.054-.353,1.5,1.5,0,0,0-1.494,1.029L185.23,16h-2.4V10.281a1.689,1.689,0,0,0-.307-1.129,1.337,1.337,0,0,0-1.046-.349A1.555,1.555,0,0,0,180,9.65V16h-2.4V7.019Zm15,8.981h-2.407V7.019h2.407ZM192.3,4.694a1.181,1.181,0,0,1,.361-.888,1.556,1.556,0,0,1,1.963,0,1.175,1.175,0,0,1,.365.888,1.178,1.178,0,0,1-.369.9,1.539,1.539,0,0,1-1.951,0A1.178,1.178,0,0,1,192.3,4.694Zm8.658,11.472a4.409,4.409,0,0,1-3.217-1.212,4.308,4.308,0,0,1-1.241-3.229v-.232a5.426,5.426,0,0,1,.523-2.42,3.838,3.838,0,0,1,1.482-1.644,4.159,4.159,0,0,1,2.187-.577,3.727,3.727,0,0,1,2.9,1.162,4.722,4.722,0,0,1,1.058,3.3v.979h-5.719a2.228,2.228,0,0,0,.7,1.411,2.12,2.12,0,0,0,1.482.531,2.589,2.589,0,0,0,2.167-1l1.179,1.32A3.6,3.6,0,0,1,203,15.739,4.793,4.793,0,0,1,200.96,16.166Zm-.274-7.379a1.5,1.5,0,0,0-1.158.484,2.5,2.5,0,0,0-.569,1.384H202.3v-.192a1.786,1.786,0,0,0-.432-1.238A1.547,1.547,0,0,0,200.687,8.787Zm7.537-1.768.075,1.038a3.136,3.136,0,0,1,2.582-1.2A2.606,2.606,0,0,1,213,7.691a3.912,3.912,0,0,1,.714,2.507V16h-2.4V10.256a1.556,1.556,0,0,0-.332-1.108,1.486,1.486,0,0,0-1.1-.344,1.65,1.65,0,0,0-1.519.863V16h-2.4V7.019Zm10.185-2.208V7.019h1.536v1.76h-1.536v4.482a1.07,1.07,0,0,0,.191.714.959.959,0,0,0,.73.216,3.826,3.826,0,0,0,.706-.058V15.95a4.939,4.939,0,0,1-1.453.216,2.29,2.29,0,0,1-2.573-2.548V8.778H214.7V7.019h1.312V4.811Zm2.25,6.616a5.327,5.327,0,0,1,.515-2.382,3.767,3.767,0,0,1,1.482-1.619,4.323,4.323,0,0,1,2.245-.573,4.09,4.09,0,0,1,2.968,1.112,4.464,4.464,0,0,1,1.282,3.021l.017.614a4.694,4.694,0,0,1-1.154,3.316,4.472,4.472,0,0,1-6.2,0,4.777,4.777,0,0,1-1.158-3.387Zm2.4.17a3.357,3.357,0,0,0,.481,1.958,1.73,1.73,0,0,0,2.739.008,3.674,3.674,0,0,0,.49-2.141,3.324,3.324,0,0,0-.49-1.945,1.592,1.592,0,0,0-1.378-.69,1.566,1.566,0,0,0-1.361.686A3.735,3.735,0,0,0,223.057,11.6Zm12.451,1.922a.773.773,0,0,0-.436-.693,4.95,4.95,0,0,0-1.4-.452q-3.2-.672-3.2-2.723a2.468,2.468,0,0,1,.992-2,4,4,0,0,1,2.594-.8,4.307,4.307,0,0,1,2.735.805,2.538,2.538,0,0,1,1.025,2.092h-2.4a1.161,1.161,0,0,0-.332-.851,1.405,1.405,0,0,0-1.038-.336,1.436,1.436,0,0,0-.938.274.865.865,0,0,0-.332.7.739.739,0,0,0,.378.643,3.885,3.885,0,0,0,1.274.423,10.407,10.407,0,0,1,1.511.4,2.482,2.482,0,0,1,1.9,2.416,2.343,2.343,0,0,1-1.054,1.988,4.548,4.548,0,0,1-2.723.76,4.75,4.75,0,0,1-2-.4,3.363,3.363,0,0,1-1.374-1.1,2.565,2.565,0,0,1-.5-1.515h2.274a1.252,1.252,0,0,0,.473.979,1.877,1.877,0,0,0,1.179.34,1.737,1.737,0,0,0,1.042-.261A.814.814,0,0,0,235.508,13.518Z" transform="translate(675.001 2284)" fill="#12263f"/>
    <g id="Grupo_1083297" data-name="Grupo 1083297" transform="translate(798.015 2368.465)">
      <g id="Grupo_1083296" data-name="Grupo 1083296" clip-path="url(#clip-path-39)">
        <rect id="Rectángulo_380419" data-name="Rectángulo 380419" width="1.858" height="0.139" fill="url(#linear-gradient-11)"/>
      </g>
    </g>
    <g id="Grupo_1083305" data-name="Grupo 1083305" transform="translate(796.156 2368.465)">
      <g id="Grupo_1083304" data-name="Grupo 1083304" clip-path="url(#clip-path-40)">
        <rect id="Rectángulo_380423" data-name="Rectángulo 380423" width="1.858" height="0.139" transform="translate(0 0)" fill="url(#linear-gradient-12)"/>
      </g>
    </g>
  </g>
</svg>
