<svg xmlns="http://www.w3.org/2000/svg" xmlns:xlink="http://www.w3.org/1999/xlink" width="62" height="62" viewBox="0 0 62 62">
  <defs>
    <clipPath id="clip-path">
      <rect id="Rectángulo_379448" data-name="Rectángulo 379448" width="37.34" height="37.324" fill="#627289"/>
    </clipPath>
  </defs>
  <g id="Grupo_1015242" data-name="Grupo 1015242" transform="translate(-1017 -12906)">
    <g id="Grupo_1014858" data-name="Grupo 1014858" transform="translate(632.001 10848)">
      <path id="Unión_12" data-name="Unión 12" d="M31,0A31,31,0,1,1,0,31,31,31,0,0,1,31,0Z" transform="translate(384.999 2058)" fill="#cadeb4"/>
    </g>
    <g id="Grupo_1080541" data-name="Grupo 1080541" transform="translate(1028.485 12919.184)">
      <g id="Grupo_1080540" data-name="Grupo 1080540" clip-path="url(#clip-path)">
        <path id="Trazado_832173" data-name="Trazado 832173" d="M0,12.866c.123-.585.2-1.184.377-1.753a10.089,10.089,0,0,1,8.38-7.4,13.23,13.23,0,0,1,2.062-.1c1.291-.029,2.585.009,3.872-.071a12.373,12.373,0,0,0,7.195-2.9,2.292,2.292,0,0,1,3.2,0,12.865,12.865,0,0,0,8.321,2.958c.64,0,1.279,0,1.919,0a1.017,1.017,0,0,1,.126.024c.1.669.2,1.356.292,2.045.245,1.836.5,3.671.723,5.51q.346,2.871.633,5.75c.1,1.047.148,2.1.231,3.148a3.42,3.42,0,0,1-.617,2.161A13.671,13.671,0,0,1,33.9,25.267a52.228,52.228,0,0,1-7.917,5.379,4.9,4.9,0,0,1-5.151-.08,55.614,55.614,0,0,1-8.012-5.51c-.036-.03-.078-.053-.176-.119,0,.344.021.639-.006.93s-.1.585-.165.935a2.156,2.156,0,0,1,.783,2.036c-.032,1.793-.008,3.586-.01,5.379a2.991,2.991,0,0,1-2.356,3.036.594.594,0,0,0-.126.07H9.709a.6.6,0,0,0-.127-.07,2.989,2.989,0,0,1-2.355-3.037c0-1.793.021-3.587-.01-5.38a2.159,2.159,0,0,1,.817-2.059c-.395-1-.1-2-.233-2.984-.092-.03-.187-.061-.282-.09A10.121,10.121,0,0,1,.376,16.574C.2,16,.123,15.407,0,14.823V12.866M15.553,22.6c.08.072.132.125.19.172a55.375,55.375,0,0,0,6.979,4.7,1.5,1.5,0,0,0,1.606-.043A52.745,52.745,0,0,0,31.059,22.9c.869-.711,1.646-1.536,2.444-2.33a.766.766,0,0,0,.2-.535c-.112-1.524-.223-3.05-.389-4.569-.239-2.178-.523-4.351-.792-6.525-.071-.579-.156-1.157-.233-1.728-.185-.025-.321-.049-.458-.061A16.25,16.25,0,0,1,23.78,4.207a.449.449,0,0,0-.589-.012c-.991.583-1.981,1.176-3.016,1.671-.792.378-1.652.613-2.507.921.208.255.435.5.625.776a.6.6,0,0,0,.566.269q5.4-.011,10.8-.005h.424V23.448H16.844V21.683l-1.291.922m13.324-.346V9.054h-9.55a.42.42,0,0,0,.012.1c.041.091.086.18.13.27a9.9,9.9,0,0,1,.991,3.825,10.13,10.13,0,0,1-2.235,6.993.573.573,0,0,0-.154.286c-.014.572-.007,1.145-.007,1.732ZM33.333,6.026a1.9,1.9,0,0,1,.066.24c.229,1.75.481,3.5.679,5.252.286,2.538.49,5.087.813,7.62A3.019,3.019,0,0,1,33.885,22c-.121.108-.226.235-.345.347a45.906,45.906,0,0,1-8.847,6.26,2.455,2.455,0,0,1-2.552-.061,49.624,49.624,0,0,1-6.917-4.651c-.617-.513-1.148-.752-1.861-.3a1.54,1.54,0,0,1-.263.093c.178.158.322.291.471.417a52.653,52.653,0,0,0,8.021,5.493,3.684,3.684,0,0,0,3.839-.027,53.086,53.086,0,0,0,7.637-5.2A13.386,13.386,0,0,0,35.645,21.7a2.453,2.453,0,0,0,.477-1.659c-.215-2.244-.4-4.491-.639-6.733-.2-1.892-.464-3.777-.706-5.665-.12-.938-.256-1.875-.381-2.783-1-.049-1.954-.035-2.9-.153a13.849,13.849,0,0,1-7.234-3.149,1.063,1.063,0,0,0-1.579.012,13.646,13.646,0,0,1-5.038,2.678c-.843.237-1.713.38-2.557.563.416.276.847.574,1.292.848a.533.533,0,0,0,.353.03,15.085,15.085,0,0,0,5.41-2.239c.456-.3.892-.64,1.353-.973a15.463,15.463,0,0,0,9.834,3.551M10.244,4.813a9.031,9.031,0,1,0,9.025,9.029,9.068,9.068,0,0,0-9.025-9.029m1.8,26.557c0-.966,0-1.931,0-2.9,0-.558-.22-.78-.77-.783q-1.035-.006-2.069,0c-.553,0-.773.223-.774.778,0,1.919,0,3.837,0,5.755a2.22,2.22,0,0,0,.119.7A1.791,1.791,0,0,0,10.44,36.1a1.811,1.811,0,0,0,1.6-1.8c.017-.978,0-1.956,0-2.934M9.033,24.046c0,.615-.013,1.226.005,1.836a.6.6,0,0,0,.637.6c.374.014.75.012,1.124,0a.571.571,0,0,0,.622-.531c.036-.643.01-1.289.01-1.908Z" transform="translate(0 0)" fill="#627289"/>
        <rect id="Rectángulo_379442" data-name="Rectángulo 379442" width="5.971" height="1.156" transform="translate(21.698 10.262)" fill="#627289"/>
        <rect id="Rectángulo_379443" data-name="Rectángulo 379443" width="5.983" height="1.15" transform="translate(21.705 12.664)" fill="#627289"/>
        <rect id="Rectángulo_379444" data-name="Rectángulo 379444" width="5.966" height="1.159" transform="translate(21.707 17.482)" fill="#627289"/>
        <rect id="Rectángulo_379445" data-name="Rectángulo 379445" width="5.97" height="1.157" transform="translate(21.696 19.885)" fill="#627289"/>
        <rect id="Rectángulo_379446" data-name="Rectángulo 379446" width="3.563" height="1.164" transform="translate(24.107 15.065)" fill="#627289"/>
        <rect id="Rectángulo_379447" data-name="Rectángulo 379447" width="1.168" height="1.148" transform="translate(21.691 15.073)" fill="#627289"/>
        <path id="Trazado_832175" data-name="Trazado 832175" d="M39.773,95.483a7.825,7.825,0,1,1,7.841-7.792,7.816,7.816,0,0,1-7.841,7.792m6.639-7.814a6.624,6.624,0,1,0-6.645,6.612,6.658,6.658,0,0,0,6.645-6.612" transform="translate(-29.552 -73.814)" fill="#627289"/>
        <path id="Trazado_832176" data-name="Trazado 832176" d="M77.089,145.33l-2.155-2.15.808-.826,1.3,1.364,6.221-6.224.784.883-6.955,6.954" transform="translate(-69.284 -127.127)" fill="#627289"/>
      </g>
    </g>
  </g>
</svg>
